<?xml version="1.0" encoding="UTF-8" standalone="no"?>
<svg
   xmlns:dc="http://purl.org/dc/elements/1.1/"
   xmlns:cc="http://creativecommons.org/ns#"
   xmlns:rdf="http://www.w3.org/1999/02/22-rdf-syntax-ns#"
   xmlns:svg="http://www.w3.org/2000/svg"
   xmlns="http://www.w3.org/2000/svg"
   xmlns:sodipodi="http://sodipodi.sourceforge.net/DTD/sodipodi-0.dtd"
   xmlns:inkscape="http://www.inkscape.org/namespaces/inkscape"
   version="1.0"
   width="1531.2292pt"
   height="413.10464pt"
   viewBox="0 0 1531.2293 413.10464"
   preserveAspectRatio="xMidYMid meet"
   id="svg8"
   sodipodi:docname="ramblers_logo_only_v0043.svg"
   inkscape:version="0.92.2 (5c3e80d, 2017-08-06)">
  <metadata
     id="metadata14">
    <rdf:RDF>
      <cc:Work
         rdf:about="">
        <dc:format>image/svg+xml</dc:format>
        <dc:type
           rdf:resource="http://purl.org/dc/dcmitype/StillImage" />
        <dc:title></dc:title>
      </cc:Work>
    </rdf:RDF>
  </metadata>
  <defs
     id="defs12" />
  <sodipodi:namedview
     pagecolor="#ffffff"
     bordercolor="#666666"
     borderopacity="1"
     objecttolerance="10"
     gridtolerance="10"
     guidetolerance="10"
     inkscape:pageopacity="0"
     inkscape:pageshadow="2"
     inkscape:window-width="958"
     inkscape:window-height="1008"
     id="namedview10"
     showgrid="false"
     inkscape:zoom="0.30204778"
     inkscape:cx="1090.2439"
     inkscape:cy="263.67306"
     inkscape:window-x="953"
     inkscape:window-y="0"
     inkscape:window-maximized="0"
     inkscape:current-layer="g6"
     inkscape:measure-start="0,0"
     inkscape:measure-end="0,0"
     inkscape:snap-text-baseline="true"
     fit-margin-top="0"
     fit-margin-left="0"
     fit-margin-right="0"
     fit-margin-bottom="0" />
  <g
     transform="matrix(0.1,0,0,-0.1,18.457162,284.87949)"
     id="g6"
     style="fill:#000000;stroke:none">
    <path
       d="m 835,2834 c -33,-8 -121,-45 -195,-83 -159,-80 -259,-117 -367,-133 -43,-6 -79,-12 -81,-13 -2,-2 24,-40 56,-85 214,-298 359,-776 417,-1375 17,-172 25,-621 15,-895 l -4,-135 504,-3 c 278,-1 510,0 516,2 8,3 8,18 -2,55 -45,173 -81,507 -114,1036 -12,187 -28,401 -36,475 -53,493 -169,827 -376,1086 -45,56 -56,64 -100,73 -66,15 -160,12 -233,-5 z"
       id="path2"
       inkscape:connector-curvature="0" />
    <path
       d="m 2000,2841 c -116,-36 -202,-130 -276,-304 -120,-279 -60,-549 143,-649 59,-29 78,-33 168,-36 92,-4 109,-1 194,27 238,80 439,264 458,420 22,192 -233,466 -500,537 -56,15 -146,17 -187,5 z"
       id="path4"
       inkscape:connector-curvature="0" />
    <path
       style="opacity:1;fill:#8ba69d;fill-opacity:1;stroke:#8ba69d;stroke-width:0.82800001;stroke-miterlimit:4;stroke-dasharray:0, 9.108;stroke-dashoffset:8.27999973;stroke-opacity:1"
       d="m 258.97747,142.31467 c -5.32755,-1.05098 -16.10871,-7.02151 -20.79861,-11.51815 -5.7162,-5.48064 -10.45041,-13.08519 -13.11311,-21.06354 -2.06151,-6.17699 -2.23206,-7.72677 -2.23869,-20.34315 -0.008,-14.966826 1.05015,-20.689902 6.24708,-33.791967 8.37598,-21.116776 19.10607,-34.800035 32.17586,-41.031416 4.84298,-2.309025 6.30487,-2.592687 14.64701,-2.842089 11.74543,-0.35115 19.62432,1.501448 31.56895,7.422944 24.05015,11.922762 44.43954,34.055287 49.44796,53.67538 3.33691,13.072107 -1.65134,25.582899 -15.91232,39.908888 -12.04868,12.1036 -28.30971,21.8647 -45.89503,27.54965 -8.65902,2.79928 -9.43716,2.90465 -20.80525,2.81736 -6.49539,-0.0499 -13.39112,-0.40264 -15.32385,-0.78391 z"
       id="path823"
       inkscape:connector-curvature="0"
       transform="matrix(7.5000001,0,0,-7.5000001,0,2930)" />
    <flowRoot
       xml:space="preserve"
       id="flowRoot833"
       style="font-style:normal;font-variant:normal;font-weight:normal;font-stretch:normal;font-size:40px;line-height:1.25;font-family:Merriweather;-inkscape-font-specification:Merriweather;letter-spacing:0px;word-spacing:0px;fill:#000000;fill-opacity:1;stroke:none"
       transform="matrix(7.5000001,0,0,-7.5000001,0,2930)"><flowRegion
         id="flowRegion835"><rect
           id="rect837"
           width="250.78813"
           height="95.183617"
           x="62.903954"
           y="432.87854" /></flowRegion><flowPara
         id="flowPara839"
         style="font-size:85.33333588px">ramblers</flowPara></flowRoot>    <flowRoot
       xml:space="preserve"
       id="flowRoot841"
       style="font-style:normal;font-variant:normal;font-weight:normal;font-stretch:normal;font-size:85.33333588px;line-height:1.25;font-family:Merriweather;-inkscape-font-specification:Merriweather;letter-spacing:0px;word-spacing:0px;fill:#000000;fill-opacity:1;stroke:none"
       transform="matrix(7.5000001,0,0,-7.5000001,0,2930)"><flowRegion
         id="flowRegion843"
         style="font-size:85.33333588px"><rect
           id="rect845"
           width="294.65536"
           height="142.36159"
           x="-246.64972"
           y="235.88983"
           style="font-size:85.33333588px" /></flowRegion><flowPara
         id="flowPara847" /></flowRoot>    <flowRoot
       xml:space="preserve"
       id="flowRoot855"
       style="font-style:normal;font-variant:normal;font-weight:normal;font-stretch:normal;font-size:85.33333588px;line-height:1.25;font-family:Arial;-inkscape-font-specification:Arial;letter-spacing:0px;word-spacing:0px;fill:#000000;fill-opacity:1;stroke:none"
       transform="matrix(25.348465,0,0,-7.5000001,964.2819,2930)"><flowRegion
         id="flowRegion857"><rect
           id="rect859"
           width="341.83334"
           height="109.25423"
           x="-57.110168"
           y="548.75421" /></flowRegion><flowPara
         id="flowPara861" /></flowRoot>    <flowRoot
       xml:space="preserve"
       id="flowRoot863"
       style="font-style:normal;font-variant:normal;font-weight:normal;font-stretch:normal;font-size:85.33333588px;line-height:1.25;font-family:Arial;-inkscape-font-specification:Arial;letter-spacing:0px;word-spacing:0px;fill:#000000;fill-opacity:1;stroke:none"
       transform="matrix(7.5000001,0,0,-7.5000001,0,2930)"><flowRegion
         id="flowRegion865"><rect
           id="rect867"
           width="525.5791"
           height="114.22034"
           x="-47.177967"
           y="546.27118" /></flowRegion><flowPara
         id="flowPara869" /></flowRoot>    <flowRoot
       xml:space="preserve"
       id="flowRoot871"
       style="font-style:normal;font-variant:normal;font-weight:normal;font-stretch:normal;font-size:85.33333588px;line-height:1.25;font-family:Arial;-inkscape-font-specification:Arial;letter-spacing:0px;word-spacing:0px;fill:#000000;fill-opacity:1;stroke:none"
       transform="matrix(7.5000001,0,0,-7.5000001,0,2930)"><flowRegion
         id="flowRegion873"><rect
           id="rect875"
           width="56.282486"
           height="132.42938"
           x="-95.183617"
           y="552.06494" /></flowRegion><flowPara
         id="flowPara877" /></flowRoot>    <text
       xml:space="preserve"
       style="font-style:normal;font-variant:normal;font-weight:normal;font-stretch:normal;font-size:640px;line-height:1.25;font-family:Arial;-inkscape-font-specification:Arial;letter-spacing:0px;word-spacing:0px;fill:#000000;fill-opacity:1;stroke:none;stroke-width:7.5"
       x="-192.43661"
       y="1198.072"
       id="text889"
       transform="scale(1,-1)"><tspan
         sodipodi:role="line"
         id="tspan887"
         x="-192.43661"
         y="1198.072"
         style="font-size:400px;fill:#8ba69d;fill-opacity:1;stroke-width:7.5">at the heart of walking</tspan><tspan
         sodipodi:role="line"
         x="-192.43661"
         y="1998.072"
         style="stroke-width:7.5"
         id="tspan891" /></text>
    <flowRoot
       xml:space="preserve"
       id="flowRoot905"
       style="font-style:normal;font-variant:normal;font-weight:normal;font-stretch:normal;font-size:85.33333588px;line-height:1.25;font-family:Merriweather;-inkscape-font-specification:Merriweather;letter-spacing:0px;word-spacing:0px;fill:#000000;fill-opacity:1;stroke:none"
       transform="matrix(7.5000001,0,0,-7.5000001,0,2930)"><flowRegion
         id="flowRegion907"><rect
           id="rect909"
           width="361.69775"
           height="118.35876"
           x="-59.59322"
           y="279.75705" /></flowRegion><flowPara
         id="flowPara911">ramblers</flowPara></flowRoot>    <flowRoot
       xml:space="preserve"
       id="flowRoot913"
       style="font-style:normal;font-variant:normal;font-weight:normal;font-stretch:normal;font-size:85.33333588px;line-height:1.25;font-family:Merriweather;-inkscape-font-specification:Merriweather;letter-spacing:0px;word-spacing:0px;fill:#000000;fill-opacity:1;stroke:none"
       transform="matrix(7.5000001,0,0,-7.5000001,0,2930)"><flowRegion
         id="flowRegion915"><rect
           id="rect917"
           width="443.63843"
           height="88.562149"
           x="1.6553673"
           y="426.25705" /></flowRegion><flowPara
         id="flowPara919">r</flowPara></flowRoot>    <text
       xml:space="preserve"
       style="font-style:normal;font-variant:normal;font-weight:normal;font-stretch:normal;font-size:640px;line-height:1.25;font-family:Merriweather;-inkscape-font-specification:Merriweather;letter-spacing:0px;word-spacing:0px;fill:#000000;fill-opacity:1;stroke:none;stroke-width:7.5"
       x="-217.26694"
       y="763.53802"
       id="text923"
       transform="scale(1,-1)"><tspan
         sodipodi:role="line"
         id="tspan921"
         x="-217.26694"
         y="763.53802"
         style="font-size:720px;fill:#5b4a1f;fill-opacity:1;stroke-width:7.5;-inkscape-font-specification:'Merriweather Bold';font-family:Merriweather;font-weight:bold;font-style:normal;font-stretch:normal;font-variant:normal">ramblers</tspan></text>
    <text
       xml:space="preserve"
       style="font-style:normal;font-variant:normal;font-weight:normal;font-stretch:normal;font-size:720px;line-height:1.25;font-family:Merriweather;-inkscape-font-specification:Merriweather;letter-spacing:0px;word-spacing:0px;fill:#000000;fill-opacity:1;stroke:none;stroke-width:7.5"
       x="3645.5342"
       y="-1815.3542"
       id="text927"
       transform="scale(1,-1)"><tspan
         sodipodi:role="line"
         id="tspan925"
         x="3645.5342"
         y="-1815.3542"
         style="font-style:normal;font-variant:normal;font-weight:bold;font-stretch:normal;font-size:1120px;font-family:Merriweather;-inkscape-font-specification:'Merriweather Bold';stroke-width:7.5"><tspan
   style="font-style:normal;font-variant:normal;font-weight:bold;font-stretch:normal;font-family:Merriweather;-inkscape-font-specification:'Merriweather Bold';fill:#c6454d;fill-opacity:1"
   id="tspan5351">R</tspan><tspan
   style="font-style:normal;font-variant:normal;font-weight:bold;font-stretch:normal;font-family:Merriweather;-inkscape-font-specification:'Merriweather Bold';fill:#006633;fill-opacity:1"
   id="tspan5347">edbridge</tspan> <tspan
   style="font-style:normal;font-variant:normal;font-weight:bold;font-stretch:normal;font-family:Merriweather;-inkscape-font-specification:'Merriweather Bold';fill:#c6454d;fill-opacity:1"
   id="tspan5349">R</tspan><tspan
   style="font-style:normal;font-variant:normal;font-weight:bold;font-stretch:normal;font-family:Merriweather;-inkscape-font-specification:'Merriweather Bold';fill:#006633;fill-opacity:1"
   id="tspan5345">amblers</tspan></tspan><tspan
         sodipodi:role="line"
         x="3645.5342"
         y="-778.33014"
         style="stroke-width:7.5"
         id="tspan929" /></text>
    <text
       xml:space="preserve"
       style="font-style:normal;font-variant:normal;font-weight:normal;font-stretch:normal;font-size:720px;line-height:1.25;font-family:Merriweather;-inkscape-font-specification:Merriweather;letter-spacing:0px;word-spacing:0px;fill:#c6454d;fill-opacity:1;stroke:none;stroke-width:7.5"
       x="6668.6484"
       y="-623.48975"
       id="text935"
       transform="scale(1,-1)"><tspan
         sodipodi:role="line"
         id="tspan933"
         x="6668.6484"
         y="-623.48975"
         style="font-style:italic;font-variant:normal;font-weight:bold;font-stretch:normal;font-size:840px;font-family:Merriweather;-inkscape-font-specification:'Merriweather Bold Italic';fill:#c6454d;fill-opacity:1;stroke-width:7.5">Come walking</tspan></text>
  </g>
  <path
     style="fill:#5b4a1f;fill-opacity:1;stroke-width:0.62076271"
     d="m 122.83217,273.27259 -36.004244,-0.19743 -0.01469,-40.81022 C 86.797994,189.93593 86.385383,179.29542 83.979009,159.17504 79.776446,124.03621 73.005003,95.103463 63.130783,70.09559 57.703116,56.349245 52.131129,45.638409 44.4708,34.226154 40.523401,28.345372 38.396824,24.646608 38.87636,24.495721 39.30184,24.361843 42.583063,23.792326 46.167968,23.230128 55.443228,21.775545 65.672341,18.178017 79.650746,11.4544 100.9065,1.2303757 104.38964,0.24009888 117.44762,0.70853539 127.74701,1.0780124 129.49726,1.8001754 134.22296,7.630182 c 19.05303,23.505339 30.40319,52.888067 36.37392,94.163048 2.01921,13.95849 2.9283,24.23655 5.62446,63.58944 3.82848,55.88023 6.38368,79.79409 10.63098,99.49426 0.90373,4.19177 1.53443,7.72138 1.40154,7.84359 -0.52308,0.48108 -31.18331,0.73981 -65.42169,0.55207 z"
     id="path821"
     inkscape:connector-curvature="0" />
</svg>
