<?xml version="1.0" encoding="UTF-8"?>
<svg width="244.23" height="302.51" version="1.1" viewBox="0 0 244.23137 302.50528" xml:space="preserve" xmlns="http://www.w3.org/2000/svg" xmlns:cc="http://creativecommons.org/ns#" xmlns:dc="http://purl.org/dc/elements/1.1/" xmlns:rdf="http://www.w3.org/1999/02/22-rdf-syntax-ns#"><metadata><rdf:RDF><cc:Work rdf:about=""><dc:format>image/svg+xml</dc:format><dc:type rdf:resource="http://purl.org/dc/dcmitype/StillImage"/><dc:title/></cc:Work></rdf:RDF></metadata><style type="text/css">
	.st0{fill:#E0EDF3;}
	.st1{fill:#A5C0DF;}
	.st2{fill:#3F668A;}
	.st3{fill:#162740;}
	.st4{fill:#7B9EC7;}
	.st5{fill:#571419;}
	.st6{fill:#020203;}
	.st7{fill:#F39323;}
	.st8{fill:#8C633A;}
	.st9{fill:#6189B1;}
	.st10{fill:#A8C4D3;}
	.st11{fill:#989389;}
	.st12{fill:#DED3C6;}
	.st13{fill:#36502D;}
	.st14{fill:#DAA405;}
	.st15{fill:#DFE6ED;}
	.st16{fill:#D06C5D;}
	.st17{fill:#972021;}
	.st18{fill:#79986F;}
	.st19{fill:#FFF0BA;}
	.st20{fill:#C9D0D6;}
	.st21{fill:#E7E6E6;}
	.st22{fill:#CDCCCC;}
	.st23{fill:#B4B4B4;}
	.st24{fill:#FFFFFF;}
	.st25{fill:#9F1E29;}
	.st26{fill:#754D24;}
	.st27{fill:#A67D52;}
	.st28{fill:#CDE3EA;}
	.st29{fill:#F2F2F2;}
	.st30{fill:#C7B29A;}
	.st31{fill:#BCA48A;}
	.st32{fill:#D79A5D;}
	.st33{fill:#90443F;}
	.st34{fill:#D6A14D;}
	.st35{fill:#365461;}
	.st36{fill:#4C672C;}
	.st37{fill:#7D915E;}
	.st38{fill:#67302B;}
	.st39{fill:#96B8AA;}
	.st40{fill:#C5463F;}
	.st41{fill:#AFA453;}
	.st42{fill:#F1969D;}
	.st43{fill:#603914;}
	.st44{fill:#82171C;}
	.st45{fill:#066938;}
	.st46{fill:#9A9999;}
	.st47{fill:#C9913E;}
	.st48{fill:#E2A1BC;}
	.st49{fill:#808181;}
	.st50{fill:#C1292E;}
	.st51{fill:#EDCBA9;}
	.st52{fill:#699CBB;}
	.st53{fill:#4E4D4D;}
	.st54{fill:#C29245;}
	.st55{fill:#BB7E28;}
	.st56{fill:#C8904C;}
	.st57{fill:#BB7926;}
	.st58{fill:#A3282E;}
</style><g transform="translate(-93.8 -64.695)"><path class="st13" d="m295.4 341.8c0.3 0.2 0.5 0.4 0.7 0.6 0.4 0.3 0.8 0.6 1.2 1 1 1.1 0.8 2.3-0.4 3.1-0.5 0.3-1 0.6-1.6 0.7-1.3 0.2-2.5 0.4-3.8 0.5-4.8 0.1-9.4-0.8-13.8-2.5-2.7-1-5.3-2.1-8-3.2-0.2-0.1-0.5-0.2-0.9-0.3 0.2 0.5 0.4 0.8 0.5 1.1 0.4 0.8 0.8 1.6 0.8 2.6 0.1 1.4-0.5 2.4-1.7 3-1.3 0.7-2.7 0.7-4.1 0.4-1-0.2-2-0.4-3.1-0.7 0 0.3 0.1 0.6 0.1 0.8 0.2 1.7-0.7 2.8-2.4 3.1-1.4 0.2-2.7 0-4-0.5-1.6-0.5-3.2-1.1-4.8-1.6-0.3-0.1-0.7-0.2-1-0.3-0.1 0.1-0.1 0.2-0.2 0.3-0.4 1.8-2 2.8-4.2 2.2-1-0.3-1.8-0.8-2.7-1.4l-1.2-0.9c-0.1 1.2-0.2 2.2-0.3 3.3-0.1 0.6-0.1 1.1-0.3 1.7-0.6 1.6-2.1 2-3.4 1.4-0.3-0.1-0.6-0.3-0.9-0.5-1.5-1.1-2.9-2.3-4.1-3.6l-0.4-0.4c-0.1 0.5-0.2 1-0.2 1.4-0.1 2.5-0.3 5.1-0.4 7.6l-0.3 5.1c-0.1 1.1-0.4 1.4-1.6 1.4-1.4 0-2.7-0.1-4-0.5-0.2-0.1-0.5-0.1-0.7-0.2-0.8-0.3-1.2-0.8-1.2-1.7 0-0.8-0.1-1.5-0.1-2.3 0-3.1-0.1-6.1 0.2-9.2 0.1-0.9 0.1-1.9 0.2-2.9-1.4 0.4-2.5 0.1-3.6-0.7-0.3 0.3-0.5 0.7-0.7 0.9-0.5 0.5-1 1.1-1.5 1.6-1.9 1.4-4 0.9-4.9-1.3-0.4-1-0.6-2.1-0.8-3.2-0.2-0.9-0.2-1.8-0.4-2.8l-0.4 0.4c-0.6 0.8-1.2 1.7-1.8 2.4-1.4 1.6-3.1 2.8-5.2 3.1-1.5 0.2-2.9-0.1-4.1-1.1-0.1-0.1-0.3-0.2-0.4-0.3-0.7-0.7-1.5-0.9-2.5-0.7-0.5 0.1-0.9 0.1-1.4 0.2-1.5 0.2-2.4-0.3-3.1-1.6-0.1-0.2-0.2-0.3-0.3-0.5-0.4 0.1-0.7 0.3-1.1 0.4-1.5 0.5-3 1.1-4.6 1.5-0.6 0.2-1.2 0.2-1.9 0.1-1.2-0.1-1.8-1.2-1.3-2.3 0.3-0.6 0.7-1.2 1.2-1.9-0.9 0.1-1.7 0.1-2.5 0.2-3.9 0.2-7.7 0.5-11.6-0.3-1.4-0.3-2.8-0.7-4.2-1.2-0.6-0.2-1.3-0.6-1.8-1.1-1.1-0.9-1.1-2.2-0.1-3.1 0.7-0.6 1.4-1.2 2.2-1.7 2.2-1.4 4.5-2.8 6.8-4.1 0.2-0.1 0.3-0.2 0.6-0.4-1.8 0.2-3.5 0.5-5.3 0.6-1.1 0.1-2.2 0.1-3.3 0.1-0.6 0-1.1-0.2-1.6-0.4-1.3-0.7-1.8-2.1-1.1-3.4 0.2-0.4 0.5-0.8 0.8-1.1 0.9-1.1 2-2 3.2-2.8 0.3-0.2 0.5-0.4 0.8-0.7-0.2 0-0.3 0-0.5 0.1-1.8 0.4-3.6 0.8-5.4 1.1-0.9 0.1-1.9 0.1-2.8-0.1-0.6-0.1-1.3-0.4-1.8-0.8-0.6-0.4-1.1-0.6-1.8-0.6-0.8-0.1-1.7-0.2-2.5-0.4-0.5-0.1-1-0.3-1.5-0.6-1.4-0.8-1.9-2.3-1.4-3.8 0.1-0.3 0.2-0.5 0.3-0.9-0.3-0.1-0.5-0.2-0.8-0.3-1-0.3-2-0.5-3-0.8s-1.9-0.7-2.8-1.2c-0.5-0.2-0.9-0.6-1.2-1.1-0.8-1-0.6-2.1 0.3-2.9 0.5-0.4 1.1-0.7 1.7-0.8 1.2-0.3 2.3-0.5 3.5-0.6 2.2-0.2 4.4-0.4 6.6-0.5 3.6-0.2 7.2-0.6 10.7-1.5 0.3-0.1 0.5-0.1 0.8-0.2-0.1-0.2-0.2-0.3-0.3-0.5-0.6-0.9-0.6-1.8 0-2.7 0.4-0.7 1-1.2 1.7-1.5 1.3-0.6 2.6-1.3 3.9-1.8 4.5-1.7 9-3.3 13.5-4.9 3.5-1.2 6.8-2.8 9.8-4.9 0.6-0.4 1.2-0.9 1.6-1.6-1.1 0.2-2.2 0.5-3.2 0.1-1-0.3-1.8-1.1-2.4-2-0.4 0.1-0.8 0.2-1.1 0.4-2.3 1-4.7 2-7 2.9-3.4 1.3-7 2.2-10.6 2.5-0.8 0.1-1.6 0.2-2.4 0.2-0.5 0-1-0.1-1.5-0.3-1.2-0.5-1.7-1.8-1.2-3 0.3-0.6 0.6-1.3 1.1-1.8 1.1-1.2 2.2-2.3 3.3-3.4 0.3-0.3 0.7-0.6 1.1-1-2.2-0.8-3.2-2.2-2.5-4.6-0.3 0.1-0.5 0.2-0.8 0.3-3.8 1.6-7.6 3.1-11.6 4.2-1.5 0.4-3.1 0.7-4.7 1-0.9 0.1-1.7 0.2-2.6 0.1-2.2-0.2-3.2-2.2-2-4 0.5-0.8 1.2-1.4 2-1.9 0.3-0.2 0.7-0.5 1.1-0.7-0.8-0.7-1.5-1.4-1.7-2.4s0.1-1.9 0.5-2.9c-1.3-0.3-2.4-0.5-3.6-0.7-1.2-0.3-2.4-0.6-3.5-1-0.6-0.2-1.2-0.6-1.8-1-1.2-1-1.2-2.4-0.3-3.6 0.6-0.7 1.3-1.2 2.1-1.5 1.3-0.4 2.5-0.8 3.8-1.2 2.5-0.6 5-0.8 7.5-1.2 3.8-0.5 7.5-1.1 11.2-2.1 0.6-0.2 1.1-0.4 1.8-0.6-0.5-0.2-0.7-0.3-1-0.5-1.2-0.6-2.5-1.1-3.7-1.8-0.7-0.4-1.3-0.8-1.8-1.5-0.9-1.3-0.6-2.7 0.7-3.6 0.9-0.6 2-0.9 3.1-1s2.2-0.2 3.3-0.2c2.7-0.1 5.5 0 8.2-0.2 6.2-0.4 12.3-1.4 18.2-3.8 2-0.8 4.1-1.5 5.9-2.5 2.2-1.3 4.3-2.7 6.1-4.6 0.6-0.7 1.1-1.4 1.7-2.3-0.5 0.2-0.7 0.2-1 0.3-3 1.3-6.1 2.1-9.4 2.5-1.3 0.2-2.6 0.1-3.9 0.1-0.4 0-0.8-0.1-1.2-0.3-1.8-0.7-2.7-2.3-2.4-4.2 0.1-0.5 0.2-1 0.3-1.6-0.5-0.2-0.9-0.3-1.3-0.5-0.5-0.2-1-0.4-1.5-0.7-1.2-0.9-1.5-2.3-0.5-3.5 0.4-0.5 1-1 1.6-1.3 1.6-0.8 3.3-1.4 5-2.1 2.4-0.9 4.7-1.6 7.1-2.5 3.9-1.4 7.5-3.3 10.7-5.9 0.2-0.1 0.3-0.3 0.5-0.4 0 0 0-0.1 0.1-0.2h-0.6c-1.5 0.1-2.9 0.1-4.2-0.7-0.3-0.2-0.8-0.1-1.3-0.1-0.7 0-1.5 0.1-2.2 0.1s-1.3-0.3-1.7-0.8c-0.6-0.7-0.7-1.4-0.3-2.2 0.3-0.5 0.6-1 1-1.5 0.9-0.9 1.8-1.8 2.8-2.7-0.3 0-0.4 0-0.6 0.1-0.9 0.4-1.8 0.8-2.6 1.3-2.9 1.7-5.7 3.3-8.5 5-1 0.6-2.1 1.1-3.4 1.1-1.2 0-2.1-0.4-2.8-1.3-0.4-0.5-0.9-1-1.5-1.4-0.7-0.4-1.1-1.1-1.4-1.9-0.1-0.2-0.1-0.4-0.2-0.7-0.8 0.1-1.5 0.2-2.2 0.2-1 0.1-2 0.2-2.9 0.2-0.7 0-1.5-0.2-2.1-0.4-0.8-0.3-1.4-0.9-1.5-1.9-0.1-0.9 0.4-1.6 1.1-2 1-0.7 2.1-1.1 3.3-1.4 2.8-0.8 5.7-1.6 8.4-2.6l2.1-0.9v-0.2h-0.6c-1 0-1.9 0-2.9-0.1-1.2-0.1-2.2-0.6-3-1.5-0.5-0.5-1.1-0.8-1.8-1-0.6-0.2-1.2-0.3-1.7-0.6-0.5-0.2-0.9-0.5-1.3-0.8-1.2-1-1-2.6 0.2-3.5 0.8-0.6 1.7-0.8 2.7-0.8 2-0.1 4.1-0.1 6.1-0.1 8.2 0 16.2-1.5 23.9-4.3 1.2-0.5 2.4-1 3.7-1.6-0.5-0.4-0.9-0.7-1.2-1.1s-0.5-0.9-0.8-1.4c-0.4 0-0.8 0.1-1.2 0.1-1.2 0.1-2.5 0.3-3.7 0.4-1.1 0-2.1-0.3-2.8-1.2-0.3-0.3-0.4-0.7-0.7-1.2-0.4 0-0.8-0.1-1.3-0.2-0.2 0-0.3 0-0.5-0.1-1.2-0.2-2-1-2.2-2-0.2-1.1 0.4-2 1.3-2.5 1-0.5 2-0.9 3-1.2 2-0.6 4-1.1 6-1.6 1.2-0.3 2.4-0.7 3.5-1.4-0.4-0.5-0.9-0.9-1.3-1.5-0.4-0.5-0.6-1.1-1-1.8-0.3 0.1-0.6 0.1-1 0.3-1.6 0.7-3.2 1.4-4.9 2.2-1.8 0.8-3.5 1.6-5.5 2-1.2 0.2-2.3 0.4-3.5 0.1-1-0.2-1.8-0.7-2.1-1.7-0.1-0.4-0.4-0.5-0.7-0.6-0.5-0.1-1.1-0.2-1.6-0.4-1.8-0.7-2.1-2.6-0.8-3.9 0.4-0.4 1-0.8 1.6-1 2.7-1.3 5.6-2.2 8.5-2.7 0.3 0 0.5-0.1 0.9-0.2-1.5-0.1-2.8-0.3-4.2-0.4-1.1 0-2.1 0.1-3.2 0.2s-2.3 0.1-3.4 0.1c-0.8 0-1.5-0.2-2.2-0.7-1.4-0.9-1.5-2.6-0.1-3.5 0.5-0.4 1.1-0.6 1.7-0.8 1.7-0.4 3.5-0.8 5.3-1.1 5.3-1.1 10.6-2.1 15.7-3.9 1.3-0.5 2.5-1.1 3.7-1.6 0.2-0.1 0.3-0.2 0.5-0.4-0.8 0.2-1.6 0.4-2.4 0.5-0.7 0.1-1.4 0.1-2-0.1-1.6-0.4-2-2-0.9-3.3 0.3-0.3 0.6-0.6 1-0.8 1-0.7 2-1.3 3-2 1.1-0.8 2.2-1.7 2.9-2.8 0.2-0.3 0.4-0.7 0.5-1.1l-0.1-0.1c-0.3 0.2-0.7 0.3-1 0.5-1.2 0.6-2.4 1.2-3.6 1.7-0.7 0.3-1.4 0.4-2.1 0.4-1.3 0.1-2.1-0.5-2.6-1.7 0-0.1-0.1-0.1-0.1-0.3h-1.4c-1.2 0-2.5 0-3.7-0.3-0.4-0.1-0.8-0.3-1.2-0.5-1.4-0.8-1.6-2.4-0.3-3.4 0.6-0.5 1.3-0.8 2-1.1 1.3-0.5 2.7-0.8 4.1-1.2 1.3-0.4 2.5-0.8 3.8-1.3 0.2-0.1 0.5-0.2 0.8-0.4-0.2-0.2-0.4-0.3-0.5-0.4-0.9-0.7-1-1.8-0.1-2.6 0.4-0.4 0.9-0.6 1.4-0.9 1.6-0.8 3-1.7 4.3-2.9l0.7-0.7c-0.6 0.1-1.1 0.3-1.5 0.3-1.6 0.2-2.4-0.4-2.7-2 0 0-0.1-0.1-0.1-0.2-0.3 0.1-0.7 0.1-1.1 0.2-0.6 0-1.3 0.1-1.9 0.1-0.7-0.1-1.3-0.4-1.6-1.2-0.3-0.7 0-1.4 0.5-1.8 0.4-0.4 0.9-0.6 1.4-0.9 0.8-0.4 1.6-0.8 2.3-1.2 2.7-1.4 5.1-3.3 7.3-5.4 0.5-0.5 1-1.1 1.5-1.7-0.6-0.5-1.1-1-1.7-1.5-0.5 0-1 0.2-1.6 0.1-1.2 0-2.1-1.1-1.8-2.3 0.1-0.5 0.3-1 0.5-1.4 0.9-1.7 1.8-3.4 2.7-5 2-3.8 3.4-7.8 4.1-12 0.4-2.5 0.7-5 0.6-7.5 0-0.9-0.2-1.8-0.2-2.7 0-0.5 0-1 0.1-1.5 0.1-0.3 0.3-0.6 0.5-0.8 0.6-0.8 1.5-0.7 1.9 0.2 0.3 0.6 0.6 1.2 0.7 1.9 0.3 1.4 0.5 2.9 0.6 4.4 0.3 3.2 0.8 6.4 2 9.5 0.7 1.9 1.6 3.7 2.4 5.6 0.4 0.9 0.9 1.8 1.2 2.8 0.6 1.5 0.3 2.6-1.1 3.4-0.5 0.3-1 0.5-1.6 0.7-0.8 0.4-0.9 0.5-0.7 1.4 0.2 0.8 0.6 1.5 1.2 2.1 1.2 1.2 2.4 2.4 3.7 3.6 0.3 0.3 0.7 0.7 0.9 1 0.7 1.1 0.5 2.4-0.6 3.1-0.4 0.3-1 0.5-1.5 0.7-0.2 0.1-0.5 0.2-0.8 0.3 0.2 0.2 0.4 0.3 0.6 0.4 1.9 1.1 3.9 2.2 5.8 3.3 0.3 0.2 0.6 0.4 0.9 0.7 1.2 1 1.1 2.5-0.1 3.5-0.9 0.7-1.9 1-3 1.1h-2.4-0.5c0 0.1 0 0.1-0.1 0.2 0.4 0.2 0.7 0.5 1.1 0.6 2.3 1 4.6 2.1 6.9 3.1 0.5 0.2 1.1 0.4 1.6 0.7 0.4 0.2 0.7 0.4 1 0.7 0.9 0.9 0.9 2.2-0.1 3-0.6 0.6-1.3 0.8-2.1 0.8h-1.7-1.2c0 0.1-0.1 0.2-0.1 0.2 0.1 1.5-0.5 2.3-2 2.4-1.1 0.1-2.3 0-3.4 0-0.2 0-0.4 0-0.7-0.1 0.2 0.4 0.4 0.6 0.6 0.9 1.2 1.5 2.6 2.7 4.3 3.6 1 0.6 2.1 1.1 3.2 1.7 0.5 0.3 1 0.6 1.5 1 1.3 1.3 0.9 3.1-0.9 3.5-0.7 0.2-1.3 0.2-2 0.3-0.5 0.1-1 0.1-1.4 0.1v0.2c0.4 0.2 0.8 0.4 1.3 0.5 1.9 0.5 3.8 0.9 5.7 1.3 2.8 0.6 5.7 0.9 8.4 1.7 0.4 0.1 0.8 0.2 1.2 0.4 1.7 0.7 2.1 2.5 0.7 3.8-0.5 0.5-1.2 0.9-1.8 1.2-1.4 0.7-2.9 1-4.4 1.3-1 0.2-2.1 0.4-3.1 0.7-0.3 0.1-0.5 0.2-0.8 0.3 0.2 0.4 0.4 0.7 0.5 1.1 0.2 0.5 0.5 1 0.7 1.5 0.4 1.3-0.4 2.5-1.8 2.6-0.7 0-1.4-0.1-2-0.2l-1.8-0.3c0.2 0.1 0.4 0.3 0.7 0.4 1.5 0.8 3 1.7 4.3 2.8 0.4 0.3 0.8 0.7 1 1.1 0.7 1.1 0.4 2.3-0.7 2.9-0.5 0.3-1.1 0.4-1.6 0.5-1.2 0.1-2.5 0.1-3.7 0.1-0.8 0-1.4 0.1-2 0.7-0.4 0.4-1 0.6-1.5 0.8-0.4 0.1-0.8 0.2-1.3 0.3 0.3 0.3 0.4 0.6 0.7 0.8 1 1 2.1 1.6 3.4 2.1 2.8 1.2 5.8 1.9 8.8 2.3 3.3 0.5 6.6 1 9.9 1.5 0.8 0.1 1.6 0.4 2.4 0.6 0.2 0 0.3 0.1 0.5 0.2 2 0.9 2.3 2.6 0.6 4-0.7 0.6-1.5 1-2.4 1.2-1.9 0.4-3.8 0.8-5.7 1.1-0.4 0.1-0.8 0.1-1 0.5-0.7 1.2-1.8 1.7-3.1 1.9-0.1 0-0.2 0-0.4 0.1 0.3 0.1 0.5 0.2 0.7 0.2 3.3 0.7 6.7 1.2 10.1 1.5 1.7 0.2 3.4 0.4 5.1 0.6 0.4 0.1 0.9 0.2 1.2 0.4 1.4 0.6 1.6 2 0.5 3.1-0.5 0.5-1.1 0.8-1.7 1.1s-1.3 0.6-1.9 0.8c-0.5 0.2-0.9 0.4-1.4 0.6 0.2 0.2 0.3 0.4 0.4 0.5 0.4 0.4 0.9 0.8 1.3 1.2 1 1.1 0.7 2.4-0.8 2.9-1.1 0.4-2.2 0.5-3.3 0.4-2.5-0.2-4.9-0.8-7.3-1.3-0.3-0.1-0.6-0.1-1-0.1 0.3 0.2 0.5 0.3 0.8 0.5 1.4 0.7 2.9 1.4 4.3 2.1 1 0.5 2.1 1.1 3.1 1.7 0.3 0.2 0.6 0.4 0.8 0.6 1.1 1 0.8 2.3-0.6 2.8-0.5 0.2-1 0.3-1.4 0.2-1.1-0.1-2.2-0.2-3.2-0.4-0.8-0.1-1.5-0.3-2.3-0.4-0.3 0-0.6-0.1-0.8 0.1-0.8 0.8-1.8 0.9-2.9 0.9-2-0.1-3.9-0.5-5.8-1.3-1.6-0.7-3.3-1.4-4.9-2.1-0.3-0.1-0.6-0.2-1-0.2 0.3 0.3 0.6 0.7 1 0.9 1.7 1.3 3.3 2.6 5 4 0.4 0.4 0.9 0.7 1.3 1.2 0.5 0.6 0.8 1.3 0.5 2-0.3 0.8-1 1.2-1.8 1.2h-2-1.5c0.2 0.2 0.4 0.3 0.5 0.4 1.5 0.9 3 1.7 4.4 2.7 0.8 0.5 1.6 1.2 2.4 1.9 0.7 0.6 1.1 1.3 0.8 2.3s-1.2 1.4-2.1 1.4c-1.1 0-2.2-0.1-3.3-0.2-0.5 0-1-0.1-1.5-0.1 0.4 0.2 0.8 0.5 1.3 0.6 2 0.9 4.2 1.4 6.3 2 3.4 0.9 6.8 1.3 10.2 1.8 2 0.3 4 0.6 5.9 1.3 0.7 0.2 1.4 0.5 2 0.9 1.6 1.1 1.4 2.9-0.4 3.7-0.8 0.4-1.7 0.5-2.6 0.5-2 0-3.9-0.1-5.9-0.2-0.5 0-0.8 0-1.1 0.4-0.4 0.5-1.1 0.8-1.8 0.9-2.1 0.5-4.2 0.4-6.3 0.1-2.4-0.4-4.8-0.8-7.3-1.2h-0.3c0.3 0.2 0.5 0.4 0.7 0.6 1.9 1.4 4 2.3 6.2 3.1 3.7 1.3 7.5 2.1 11.5 2.6 1.2 0.1 2.4 0.4 3.5 0.7 0.5 0.1 1.1 0.4 1.5 0.7 1 0.8 1 2.1-0.1 2.8-0.5 0.3-1.1 0.5-1.6 0.7l-1.2 0.3v0.2c0.8 0.2 1.6 0.4 2.4 0.5 2.7 0.3 5.5 0.6 8.2 0.9 3.8 0.3 7.7 0.6 11.5 1.3 0.6 0.1 1.2 0.3 1.7 0.5 0.3 0.1 0.7 0.3 0.9 0.5 1.1 0.8 1.2 2.1 0.1 2.9-0.4 0.4-1 0.7-1.6 0.8-0.9 0.3-1.8 0.5-2.8 0.8 0.2 0.1 0.4 0.3 0.5 0.3 0.9 0.5 1.9 1 2.8 1.5 0.5 0.3 0.9 0.6 1.3 1 0.7 0.8 0.6 1.8-0.3 2.4-0.4 0.3-0.9 0.5-1.4 0.8 0.2 0.1 0.4 0.2 0.5 0.3 0.6 0.3 1.3 0.6 1.9 1l0.9 0.6c1.1 1 1 2.2-0.2 3-1.1 0.7-2.3 1-3.6 1.2-1.4 0.2-2.7 0.1-4.1 0-3.1-0.3-6.2-0.7-9.2-1.6-2.4-0.7-4.9-1.4-7.3-2.1-0.3-0.1-0.6-0.2-1.1-0.3 0.3 0.5 0.5 0.8 0.6 1.2 1 2-0.1 3.8-2.3 3.8-1.2 0-2.3-0.3-3.5-0.4-0.3 0-0.6-0.1-0.8 0-1.2 0.4-2.3 0.2-3.4-0.2-1.5-0.7-2.9-1.4-4.3-2.1-0.2-0.1-0.5-0.2-0.8-0.3 0.3 0.3 0.5 0.6 0.8 0.9 2.8 3.1 6.2 5.6 9.9 7.6 3.2 1.7 6.5 3.3 9.7 4.9 1.9 1 3.9 1.9 5.8 2.9 0.4 0.2 0.9 0.5 1.2 0.8 0.9 0.9 0.6 2.1-0.6 2.5-0.4 0.1-0.8 0.2-1.2 0.2-1.3 0-2.7-0.1-4-0.2-0.8 0-1.6-0.1-2.5-0.2l0.3 0.9c0.5 1.3-0.1 2.3-1.5 2.5-1.1 0.2-2.2 0-3.2-0.4-0.4-0.1-0.7-0.3-1.1-0.4 1 0.8 2.1 1.5 3.3 1.9 2.8 1 5.6 1.7 8.6 2 3.6 0.4 7.2 0.8 10.6 1.8 0.7 0.2 1.4 0.4 2 0.8 1.6 0.9 1.8 2.5 0.5 3.7-0.3 0.3-0.6 0.5-1 0.9l0.6 0.6c1.3 1.3 1 2.9-0.7 3.7-1.2 0.5-2.4 0.8-3.7 0.9-4 0.4-7.9 0.5-11.9-0.3h-0.5c-0.1 0.1-0.1 0.1-0.2 0.1-1.2 2.1-3.1 2.4-5.2 2-1.5-0.2-2.9-0.9-4.1-1.7-1.4-0.8-2.7-1.7-4.1-2.6l-0.6-0.3c-1.4 1.5-3.2 1.8-5.2 1.6 0.3 0.1 0.5 0.3 0.8 0.4 3.1 1.4 6.3 2.4 9.6 3.1 3 0.6 6.1 1.2 9.1 1.8 1.8 0.4 3.6 0.8 5.4 1.3 0.6 0.2 1.2 0.4 1.8 0.8 1.3 0.8 1.4 2.3 0.1 3.2-0.8 0.6-1.7 1-2.7 1.2-1.1 0.2-2.2 0.5-3.4 0.7 0.2 0.2 0.3 0.3 0.4 0.5 0.4 0.4 0.8 0.7 1.2 1.1 0.3 0.3 0.6 0.7 0.8 1 0.7 1.3 0.3 2.5-0.9 3.2-0.4 0.2-0.7 0.3-1.1 0.5-0.4 0.1-0.7 0.2-1.3 0.3 0.4 0.1 0.6 0.2 0.8 0.3 6.7 1.6 13.4 3 20.2 4.3 1.3 0.3 2.7 0.6 4 1 0.7 0.2 1.4 0.6 2 0.9s1.1 0.9 1.4 1.5c0.6 1.1 0.3 2.3-0.7 3.1-0.5 0.4-1.1 0.7-1.8 0.9-1.1 0.3-2.2 0.6-3.3 0.8-0.6 0.4-0.8 0.4-1 0.5z" fill="#36502d"/><path class="st14" d="m223.5 73.2c0.6-1.5 1.1-2.9 1.8-4.4 0.3-0.8 0.7-1.5 1.1-2.2l0.6-0.9c1.4-1.7 3.6-1 4.4 0.3 0.5 0.8 0.9 1.6 1.3 2.4 0.6 1.2 1.1 2.4 1.6 3.6 0.2 0.4 0.5 0.8 0.8 1.1 0.1 0.1 0.3 0.1 0.5 0.1 1 0 1.9-0.1 2.9-0.2 0.8 0 1.6-0.1 2.4 0 1.4 0.1 2 1.2 1.5 2.5-0.2 0.4-0.4 0.7-0.6 1s-0.5 0.6-0.8 0.9c-0.9 0.8-1.7 1.6-2.6 2.4-0.7 0.5-0.8 1.1-0.6 1.9 0.3 1.5 0.7 3 1.2 4.4l0.6 1.8c0 0.1 0.1 0.2 0.1 0.4 0.3 1.7-0.8 2.9-2.5 2.7-0.8-0.1-1.5-0.4-2.1-0.7-1.7-0.8-3.2-1.9-4.7-3-0.2-0.1-0.4-0.3-0.6-0.4-0.5-0.4-0.9-0.4-1.5-0.1l-2.4 1.2c-1.5 0.7-3 1.5-4.5 2.2-0.3 0.2-0.7 0.3-1 0.3-0.9 0.1-1.6-0.4-1.8-1.3-0.1-0.4 0-0.9 0-1.3 0.2-1.3 0.7-2.4 1.4-3.6 0.4-0.6 0.7-1.2 1.1-1.9l-0.9-0.6c-1.6-1-3.1-2-4.7-3-0.4-0.2-0.7-0.5-1-0.8-0.7-0.7-0.7-1.7 0-2.4 0.4-0.4 0.8-0.7 1.3-0.9 1.6-0.7 3.4-1.1 5.2-1.3 0.7 0 1.6-0.1 2.5-0.2z" fill="#daa405"/><g fill="#dfe6ed"><path class="st15" d="m227.8 326.3c2.7-0.1 5.5-0.2 8.2 0.2 1.6 0.2 3.1 0.7 4.5 1.5 0.6 0.4 1.2 0.8 1.6 1.3 0.8 1 0.5 2.1-0.6 2.7-0.4 0.2-0.8 0.3-1.2 0.5-1.3 0.5-2.6 0.9-3.9 1.3-2.4 0.8-4.2 2.4-5.4 4.7-0.4 0.7-0.7 1.3-1.1 1.9-0.7 1.1-1.7 2.1-2.9 2.8-1.5 0.9-3.1 1-4.7 0.3-0.4-0.2-0.9-0.4-1.3-0.7-1.4-0.8-2.8-1.3-4.4-1.5s-3.1-0.6-4.5-1.1c-4-1.5-7.8-3.3-11.6-5.1-2-0.9-3.7-2.1-5.2-3.6l-2.7-2.7c-1.7-1.6-3.7-2.8-5.9-3.6-1.1-0.4-2.3-0.6-3.5-0.5-1.5 0.1-2.3 0.8-2.6 2.3-0.4 1.7-0.4 3.4-0.3 5.2 0.1 2.9 0.2 5.8-0.4 8.6-0.3 1.3-0.6 2.6-1.3 3.7-0.3 0.4-0.6 0.9-1 1.2-0.9 0.8-2.1 0.6-2.8-0.4-0.4-0.5-0.7-1.1-0.8-1.7-0.4-1.8-0.8-3.5-1.2-5.3-0.5-2.1-0.9-4.3-1.3-6.4-0.4-1.6-1-3.1-1.9-4.5-1.9-3.1-2.6-6.5-2.5-10.1 0-1 0.1-2 0.1-3s-0.4-1.8-0.8-2.7c-0.5-1.1-1.1-2.1-1.5-3.3-0.6-1.4-0.9-2.9-0.8-4.4 0.1-0.8 0.3-1.5 0.6-2.2 1.3-2.4 3.3-3.9 6.1-4.1 3.2-0.2 6.3-0.5 9.5-0.9 0.6-0.1 1.1-0.1 1.7-0.1 1.7 0.1 2.5 0.9 2.5 2.6 0 1.6-0.1 3.1-0.1 4.7v1.6c0 0.5 0.2 1 0.5 1.4 0.6 0.7 1.4 1.3 2.2 1.8 0.9 0.4 1.8 0.8 2.7 1.2 0.6 0.3 1.3 0.5 1.9 0.7 2.3 0.8 4.3 2.2 5.8 4.1 0.6 0.8 1.3 1.5 1.9 2.2 2 2.3 4.4 4 7.2 5.1 3.9 1.6 7.9 2.9 12.1 3.7 3.1 0.6 6.1 0.7 9.1 0.6z"/><path class="st15" d="m178.5 246.2c1.6 0.1 3.8 0.3 6 0.5 4.1 0.3 8.1 0.4 12.2-0.3 2.5-0.4 5-0.9 7.5-1.3 1.1-0.2 2.3-0.4 3.4-0.1 1.2 0.3 2.3 0.8 3.3 1.6 1.4 1.1 1.5 2.6 0.4 3.9-0.3 0.4-0.7 0.7-1.1 1.1-0.9 0.8-1.9 1.5-2.9 2.3-0.6 0.5-1.2 1.2-1.8 1.8-1 1-1.4 2.3-1.4 3.7 0 0.4 0 0.8-0.1 1.3-0.1 1.1-0.5 1.9-1.2 2.7-1.1 1.2-2.3 2.3-3.6 3.2-1.6 1.2-3.3 2.4-4.9 3.7-2.4 2-4.2 4.4-5.1 7.4-0.4 1.2-0.6 2.4-1 3.6s-0.7 2.5-1.2 3.6c-0.3 0.8-0.8 1.4-1.3 2.1-0.3 0.3-0.6 0.6-1 0.8-0.8 0.4-1.5 0.3-2-0.5-0.5-0.6-0.7-1.4-0.8-2.1-0.2-1.5 0-3.1 0.2-4.6 0.3-2.2 0.6-4.5 0.4-6.8-0.1-1.2-0.2-2.3-0.6-3.4-0.2-0.4-0.3-0.9-0.6-1.3-0.7-1.3-1.8-2.1-3.4-2.4-0.8-0.1-1.7-0.3-2.5-0.5-1.8-0.5-3-1.6-3.6-3.3-0.3-0.7-0.5-1.4-0.7-2.1-0.4-1.3-1.2-2.4-2.4-3.1-0.3-0.2-0.6-0.4-0.8-0.6-3-2.2-2.5-5.7-0.6-7.7 1-1 2.2-1.7 3.5-2.2 2.4-0.7 4.7-1 7.7-1z"/><path class="st15" d="m207.6 189.1c2.3 0 4.2 0.5 6.1 0.8 3.7 0.6 7.5 1.3 11.2 1.9 1.6 0.3 3.3 0.1 4.9-0.2 3.3-0.5 6.5-1 9.8-1.4 4.3-0.5 8.5-0.3 12.6 0.9 2.2 0.6 4.2 1.7 6 3.2 0.5 0.5 1 1 1.4 1.6 0.7 1 0.8 2.1 0.1 3.1-0.4 0.6-0.8 1.1-1.3 1.7-0.7 0.7-1.5 1.4-2.2 2.1-0.4 0.4-0.9 0.9-1.3 1.4-1.8 2-2.3 4.3-1.8 6.9 0.4 2 0.8 4 1.1 5.9 0.4 2.4 0.6 4.8 0.4 7.2-0.1 1.5-0.4 3-1 4.4-0.2 0.5-0.6 1.1-1 1.5-0.9 0.9-2.1 0.9-2.9 0-0.5-0.5-0.9-1.1-1.1-1.8-0.5-1.2-1-2.5-1.5-3.8-0.3-0.8-0.6-1.5-0.9-2.3-0.6-1.2-1.5-2.1-2.8-2.5-0.3-0.1-0.5-0.2-0.8-0.3-2.7-0.8-4.6-2.5-6.1-4.9-0.4-0.6-0.7-1.3-1.1-1.9-0.4-0.5-0.8-1-1.3-1.5-0.7-0.7-1.6-0.7-2.4-0.1-0.7 0.5-1.4 1.1-2.1 1.6-0.9 0.7-1.8 1.3-2.8 1.7-0.7 0.3-1.5 0.5-2.3 0.4-1.3-0.1-2.3-0.6-2.9-1.8-0.4-0.8-0.7-1.6-0.9-2.4-0.2-0.6-0.3-1.2-0.5-1.7-0.6-1.7-1.7-3-3.3-3.7-0.3-0.2-0.6-0.3-1-0.4-1.5-0.6-2.8-1.4-4-2.5-0.1-0.1-0.3-0.2-0.4-0.3-1-1.1-2.3-1.6-3.8-1.7-1.1-0.1-2.2-0.3-3.3-0.5-1.3-0.3-2.5-0.9-3.6-1.7-0.8-0.6-1.4-1.4-1.8-2.4s-0.3-2 0.2-3c0.6-1.2 1.6-2 2.8-2.5 2-0.7 3.9-1 5.6-1z"/><path class="st15" d="m222.3 167c-0.7 0.5-0.8 1.1-1 1.7-0.3 1-0.5 2.1-0.8 3.2-0.2 0.8-0.6 1.5-0.9 2.3-0.5 1-1.5 1.1-2.1 0.2-0.3-0.4-0.5-1-0.7-1.5-0.2-0.8-0.3-1.7-0.3-2.6-0.1-1.2 0-2.3 0-3.5 0-1.4-0.4-2.6-1.5-3.6-1.3-1.1-2.2-2.4-2.7-4-0.6-1.8-0.1-3.6 1.4-4.8 0.8-0.6 1.6-1 2.6-1.2 0.2 0 0.3-0.1 0.5-0.1 1.6-0.6 3.2-0.3 4.8 0.4 1.1 0.5 2.1 1 3.1 1.7 1.9 1.2 4.1 1.9 6.3 2.3 1.4 0.2 2.9 0.1 4.3-0.2 2.4-0.5 4.7-1 7-1.5 2.2-0.5 4.5-0.9 6.7-1.3 1.4-0.2 2.7-0.2 4 0.4 0.7 0.3 1.3 0.8 1.8 1.4 0.8 1 0.8 1.9-0.1 2.8-0.6 0.7-1.3 1-2.1 1.4s-1.7 0.8-2.4 1.4c-1.2 0.8-2.1 1.9-2.8 3.2-0.2 0.4-0.5 0.9-0.7 1.3-0.7 1.3-1.7 2.3-3.1 2.8-0.8 0.3-1.6 0.6-2.5 0.9-1.5 0.5-2.5 1.5-2.7 3.1s-0.4 3.2-0.6 4.9c-0.2 1.4-0.4 2.7-0.7 4.1-0.1 0.5-0.3 0.9-0.5 1.4-0.5 0.7-1.3 0.8-1.8 0.2-0.4-0.4-0.7-0.9-0.8-1.5-0.4-1.4-0.7-2.7-1-4.1-0.2-1.1-0.3-2.2-0.5-3.3-0.2-0.7-0.5-1.4-0.8-2.1-0.3-0.6-0.9-0.8-1.6-0.8-0.8 0.1-1.5 0.2-2.3 0.3-1.5 0.1-2.7-0.5-3.5-1.7-0.5-0.7-0.9-1.4-1.3-2.2-0.2-0.7-0.4-1-0.7-1.4z"/></g><g fill="#d06c5d"><path class="st16" d="m203.3 276.1c0-1.4 0.6-2.6 1.7-3.6 0.9-0.7 1.8-1.3 2.9-1.6 1.5-0.4 2.9-0.1 4.1 0.8 1.2 0.8 2 1.8 2.3 3.2 0.1 0.5 0.3 0.9 0.3 1.4 0.2 1.8-0.5 3.2-1.9 4.3-1 0.8-2.2 1.3-3.5 1.3-2.4 0.1-4.4-1.1-5.5-3.3-0.2-0.7-0.4-1.5-0.4-2.5z"/><path class="st16" d="m155.1 316.9c0-0.9 0.4-1.8 1.2-2.4 0.6-0.5 1.2-0.9 2-1.1 1-0.3 2 0 2.8 0.5s1.3 1.3 1.6 2.2c0.1 0.3 0.2 0.6 0.2 1 0.1 1.2-0.3 2.2-1.3 3-0.7 0.5-1.5 0.9-2.4 0.9-1.7 0.1-3-0.7-3.7-2.3-0.3-0.6-0.4-1.2-0.4-1.8z"/></g><g fill="#972021"><path class="st17" d="m235.4 256.4c0.1-1.8 0.6-3.1 2-4 0.5-0.4 1.1-0.7 1.7-0.9 1.2-0.5 2.5-0.4 3.7 0.1 2.1 1 3.2 2.7 3.4 4.9 0.1 1.4-0.4 2.7-1.4 3.8-1.7 1.8-4.4 2.3-6.6 0.9-1.3-0.8-2-2-2.4-3.4-0.3-0.6-0.4-1.1-0.4-1.4z"/><path class="st17" d="m155.1 271.7c0.1-1.8 0.6-3.1 2-4 0.5-0.4 1.1-0.7 1.7-0.9 1.2-0.5 2.5-0.4 3.7 0.1 2.1 1 3.2 2.7 3.4 4.9 0.1 1.4-0.4 2.7-1.4 3.8-1.7 1.8-4.4 2.3-6.6 0.9-1.3-0.8-2-2-2.4-3.4-0.3-0.5-0.3-1.1-0.4-1.4z"/><path class="st17" d="m208.2 313.1c0-1.3 0.4-2.2 1.4-2.8 0.4-0.3 0.7-0.5 1.2-0.6 0.9-0.3 1.7-0.3 2.6 0.1 1.4 0.7 2.3 1.9 2.4 3.5 0.1 1-0.3 1.9-1 2.7-1.2 1.3-3.1 1.6-4.6 0.6-0.9-0.6-1.4-1.4-1.7-2.4-0.2-0.4-0.2-0.8-0.3-1.1z"/><path class="st17" d="m224.2 137.9c0.1-1.8 0.6-3.1 2-4 0.5-0.4 1.1-0.7 1.7-0.9 1.2-0.5 2.5-0.4 3.7 0.1 2.1 1 3.2 2.7 3.4 4.9 0.1 1.4-0.4 2.7-1.4 3.8-1.7 1.8-4.4 2.3-6.6 0.9-1.3-0.8-2-2-2.4-3.4-0.2-0.5-0.3-1.1-0.4-1.4z"/></g><g fill="#79986f"><path class="st18" d="m215.7 229.9c0.1-1.7 0.6-3 1.9-3.9 0.5-0.3 1-0.7 1.6-0.9 1.2-0.5 2.4-0.4 3.5 0.1 2 1 3.1 2.6 3.3 4.8 0.1 1.4-0.4 2.6-1.4 3.7-1.6 1.8-4.3 2.2-6.4 0.9-1.2-0.8-2-1.9-2.3-3.3-0.1-0.6-0.1-1.1-0.2-1.4z"/><path class="st18" d="m275.4 265.4c0-1.2 0.4-2 1.3-2.6 0.3-0.2 0.7-0.5 1.1-0.6 0.8-0.3 1.6-0.3 2.4 0.1 1.4 0.7 2.1 1.8 2.2 3.2 0.1 0.9-0.3 1.8-0.9 2.5-1.1 1.2-2.9 1.5-4.3 0.6-0.8-0.5-1.3-1.3-1.6-2.2-0.1-0.4-0.2-0.8-0.2-1z"/><path class="st18" d="m220.7 181.2c0-1.2 0.4-2 1.3-2.6 0.3-0.2 0.7-0.5 1.1-0.6 0.8-0.3 1.6-0.3 2.4 0.1 1.4 0.7 2.1 1.8 2.2 3.2 0.1 0.9-0.3 1.8-0.9 2.5-1.1 1.2-2.9 1.5-4.3 0.6-0.8-0.5-1.3-1.3-1.6-2.2-0.1-0.4-0.1-0.8-0.2-1z"/><path class="st18" d="m226.7 121.5c0-1.2 0.4-2 1.3-2.7 0.3-0.2 0.7-0.5 1.1-0.6 0.8-0.3 1.6-0.3 2.4 0.1 1.4 0.7 2.1 1.8 2.2 3.3 0.1 0.9-0.3 1.8-0.9 2.5-1.1 1.2-2.9 1.5-4.3 0.6-0.8-0.5-1.3-1.3-1.6-2.3-0.2-0.3-0.2-0.7-0.2-0.9z"/><path class="st18" d="m250.3 338.2c0.1-1.7 0.6-3 1.9-3.9 0.5-0.3 1-0.7 1.6-0.9 1.2-0.5 2.4-0.4 3.5 0.1 2 1 3.1 2.6 3.3 4.8 0.1 1.4-0.4 2.6-1.4 3.7-1.6 1.8-4.3 2.2-6.4 0.9-1.2-0.8-2-1.9-2.3-3.3-0.1-0.5-0.2-1.1-0.2-1.4z"/></g><g fill="#fff0ba"><path class="st19" d="m226.1 305c0.1-2.1 0.7-3.6 2.3-4.7 0.6-0.4 1.2-0.8 1.9-1.1 1.4-0.6 2.9-0.5 4.3 0.2 2.4 1.2 3.7 3.1 3.9 5.8 0.1 1.7-0.5 3.2-1.6 4.4-2 2.2-5.2 2.6-7.7 1.1-1.5-0.9-2.4-2.3-2.8-4-0.2-0.7-0.3-1.4-0.3-1.7z"/><path class="st19" d="m281 339.3c0.1-1.7 0.6-3 1.9-3.9 0.5-0.3 1-0.7 1.6-0.9 1.2-0.5 2.4-0.4 3.5 0.1 2 0.9 3.1 2.6 3.2 4.7 0.1 1.4-0.4 2.6-1.3 3.6-1.6 1.8-4.2 2.1-6.3 0.9-1.2-0.8-1.9-1.9-2.3-3.3-0.2-0.4-0.2-0.9-0.3-1.2z"/><path class="st19" d="m192.7 207.2c0-1.4 0.5-2.5 1.6-3.2 0.4-0.3 0.8-0.5 1.3-0.7 1-0.4 1.9-0.3 2.9 0.1 1.6 0.8 2.5 2.1 2.7 3.9 0.1 1.1-0.3 2.1-1.1 3-1.3 1.5-3.5 1.8-5.2 0.7-1-0.6-1.6-1.6-1.9-2.7-0.2-0.4-0.3-0.8-0.3-1.1z"/></g><g fill="#972021"><path class="st17" d="m208.6 290.6c-0.4 0.1-0.6 0.2-0.9 0.3-0.5 0.3-0.9 0.7-1.3 1.3-0.3 0.5-0.7 1-1 1.5-0.5 0.8-1.2 1-2.1 0.7-0.2-0.1-0.4-0.3-0.5-0.5-0.3-0.7-0.3-1.3 0.1-2 0.5-0.9 1.1-1.8 1.9-2.5 0.5-0.5 1.1-1 1.8-1.4 2.4-1.5 4.8 0.3 5.3 2.2 0.2 0.6 0.2 1.2 0.1 1.8-0.1 0.8-0.3 1.7-0.6 2.5-1 2.6-2.2 5.1-3.6 7.6-1.3 2.3-2.6 4.5-3.8 6.7-0.1 0.1-0.1 0.2-0.2 0.4-0.4 0.6-1 0.8-1.6 0.6s-1.1-0.8-1-1.5c0-0.3 0.1-0.6 0.3-0.9 0.8-1.9 1.8-3.8 2.8-5.6 1.5-2.6 2.8-5.2 3.8-8 0.3-0.9 0.5-1.8 0.5-2.7v-0.5z"/><path class="st17" d="m211.7 165.5c0 0.3 0.1 0.4 0.1 0.6 0 0.4-0.2 0.8-0.4 1.2s-0.4 0.7-0.6 1.1c-0.3 0.6-0.3 1.1 0.2 1.5 0.1 0.1 0.3 0.2 0.5 0.2 0.5 0 0.9-0.2 1.2-0.7 0.4-0.6 0.7-1.2 0.9-1.9 0.1-0.5 0.3-1 0.3-1.5 0.1-2-1.8-2.8-3.2-2.5-0.4 0.1-0.9 0.3-1.2 0.5-0.5 0.3-1 0.7-1.4 1.2-1.4 1.4-2.5 3-3.6 4.6l-3 4.5c-0.1 0.1-0.1 0.2-0.2 0.2-0.2 0.4-0.2 0.9 0.2 1.2s0.9 0.4 1.3 0.1c0.2-0.1 0.4-0.3 0.5-0.5 0.9-1.1 1.8-2.3 2.6-3.5 1.1-1.7 2.4-3.4 3.8-4.9 0.4-0.5 0.9-0.9 1.5-1.2 0.1-0.1 0.2-0.1 0.5-0.2z"/><path class="st17" d="m234.6 225.1c0.3 0.2 0.5 0.2 0.7 0.4 0.4 0.3 0.7 0.7 0.9 1.2s0.4 0.9 0.7 1.4c0.4 0.7 0.9 1 1.7 0.8 0.2 0 0.4-0.2 0.5-0.4 0.3-0.5 0.4-1.1 0.2-1.7-0.3-0.8-0.7-1.6-1.3-2.3-0.4-0.5-0.8-1-1.3-1.4-1.9-1.5-4.1-0.1-4.8 1.5-0.2 0.5-0.3 1.1-0.4 1.6 0 0.7 0 1.5 0.2 2.2 0.5 2.4 1.2 4.7 2.1 6.9 0.8 2.1 1.6 4.1 2.4 6.2 0 0.1 0.1 0.2 0.1 0.3 0.3 0.5 0.8 0.8 1.3 0.7 0.6-0.1 1-0.6 1.1-1.2 0-0.3 0-0.6-0.1-0.8-0.5-1.7-1.1-3.4-1.7-5.1-0.9-2.4-1.8-4.8-2.3-7.3-0.2-0.8-0.2-1.6-0.1-2.4-0.1-0.2 0-0.4 0.1-0.6z"/></g><g fill="#79986f"><path class="st18" d="m218.4 255.8c-0.1 0.5-0.3 0.8-0.4 1.2-0.1 0.8 0 1.6 0.3 2.4s0.5 1.5 0.8 2.3c0.4 1.2 0.1 2.2-1 2.8-0.2 0.2-0.6 0.2-0.9 0.1-0.9-0.3-1.7-0.8-2-1.7-0.5-1.3-0.9-2.7-1-4.1-0.1-1-0.1-2.1 0-3.1 0.5-3.8 4.4-4.8 6.8-3.7 0.8 0.3 1.5 0.8 2.1 1.4 0.8 0.8 1.6 1.8 2.2 2.8 2 3.3 3.6 6.7 5.1 10.3 1.3 3.3 2.6 6.5 3.9 9.8 0.1 0.2 0.1 0.4 0.2 0.5 0.3 0.9 0 1.7-0.7 2.2-0.8 0.5-1.8 0.4-2.5-0.2-0.3-0.3-0.5-0.7-0.7-1.1-1.3-2.5-2.5-5.1-3.5-7.7-1.5-3.7-3.2-7.4-5.3-10.9-0.7-1.1-1.4-2.1-2.4-2.9-0.4 0-0.6-0.2-1-0.4z"/><path class="st18" d="m252.3 317.9c0.3 0 0.6-0.1 0.8-0.1 0.5 0 1 0.2 1.5 0.4 0.4 0.3 0.9 0.5 1.3 0.8 0.7 0.4 1.3 0.3 1.9-0.3 0.1-0.1 0.2-0.4 0.2-0.6 0-0.6-0.3-1.2-0.8-1.5-0.8-0.5-1.5-0.9-2.4-1.2-0.6-0.2-1.3-0.3-1.9-0.4-2.4-0.2-3.5 2.2-3.1 4 0.1 0.5 0.3 1.1 0.6 1.5 0.4 0.6 0.9 1.2 1.4 1.7 1.8 1.7 3.7 3.1 5.7 4.5 1.8 1.2 3.7 2.5 5.5 3.7 0.1 0.1 0.2 0.1 0.3 0.2 0.5 0.3 1.1 0.2 1.5-0.2s0.5-1.1 0.2-1.6c-0.1-0.2-0.4-0.4-0.6-0.6-1.4-1.1-2.8-2.2-4.3-3.2-2.1-1.4-4.2-2.9-6-4.7-0.6-0.6-1.1-1.2-1.5-1.9-0.2-0.1-0.2-0.2-0.3-0.5z"/></g><g fill="#c9d0d6"><path class="st20" d="m307.5 229.5c-2.6-1.5-5.2-2.9-7.8-4.3v0.1c0.1 0.1 0.2 0.2 0.2 0.3 0.7 0.7 1.4 1.5 2.1 2.2 0.1 0.1 0.2 0.3 0.4 0.4 0.2 0.3 0.2 0.5 0 0.7s-0.5 0.2-0.7-0.1c-0.4-0.4-0.9-0.8-1.3-1.2-0.7-0.7-1.4-1.5-2.2-2.2-0.1-0.1-0.2-0.1-0.3-0.2 0.3 0.7 0.6 1.4 0.9 2.1s0.6 1.4 0.9 2.2c0.1 0.3 0.2 0.4 0.5 0.5 0.7 0.3 1 0.8 0.9 1.4 0 0.6-0.5 1.2-1.1 1.4-0.9 0.3-2-0.5-1.9-1.5 0-0.4 0.2-0.8 0.3-1.2-0.9-2-1.8-4-2.7-6.1h-0.1v0.5c0.2 1.9 0.4 3.8 0.5 5.7v0.6c0 0.3-0.2 0.5-0.5 0.5s-0.5-0.1-0.6-0.5c0-0.2-0.1-0.3-0.1-0.5-0.1-1.3-0.3-2.6-0.4-3.9 0-0.2-0.1-0.4-0.1-0.7h-0.1c-0.7 3.5-1.4 6.9-2 10.3 0.3 0.4 0.6 0.7 0.9 1.1 0.6 0.8 0.3 1.8-0.2 2.4-1 1.1-2.9 1-3.8-0.3-0.7-1-0.2-2.7 1-3.2 0.6-0.2 0.7-0.5 0.8-1 0.7-3.7 1.5-7.4 2.2-11.1v-0.3c-1.1 1.5-2.3 2.9-3.4 4.4 0.1 0.1 0.1 0.2 0.2 0.3 0.5 0.8 0 1.8-0.8 2.2h-0.1c-0.8 0.3-1.4 0.2-1.8-0.3-0.4-0.4-0.4-1.3 0-1.9 0.2-0.4 0.6-0.7 1-0.8 0.1 0 0.3-0.1 0.4-0.2 0.7-0.9 1.4-1.8 2-2.7 0.1-0.1 0.1-0.2 0.1-0.4-0.1 0.1-0.3 0.1-0.4 0.2-1 0.5-2.1 1.1-3.1 1.6-0.2 0.1-0.4 0.2-0.7 0.2-0.1 0-0.3 0-0.3-0.1s0-0.3 0.1-0.4c0.2-0.2 0.4-0.4 0.6-0.5 1-0.6 2-1.2 2.9-1.8l1.8-1.2c-1.7 0.4-8.4 3-9.2 3.6v0.2c0.4 1.1-0.4 2.7-1.9 3.1-1 0.3-1.8-0.2-2.4-0.9s-0.7-1.6-0.3-2.4c0.4-0.9 1.1-1.3 2-1.4 0.5 0 1 0.1 1.5 0.3 0.2 0.1 0.5 0.1 0.7 0 2.3-1.3 4.7-2.3 7.2-3.2 0.1 0 0.1-0.1 0.3-0.2-0.2 0-0.4-0.1-0.5-0.1-1.8-0.2-3.5-0.3-5.3-0.5-0.3 0-0.5 0.1-0.7 0.2-0.8 0.7-2 0.4-2.3-0.6-0.3-0.9 0.3-1.7 1.2-1.7 0.5 0 1 0.3 1.3 0.6 0.2 0.1 0.3 0.2 0.5 0.2 1.7 0.1 3.3 0.2 5 0.3 0.1 0 0.1 0 0.3-0.1-0.1-0.1-0.2-0.1-0.4-0.2-1-0.4-2-0.7-3.1-1.1-0.2-0.1-0.3-0.1-0.5-0.2-0.1-0.1-0.2-0.2-0.1-0.3 0-0.1 0.2-0.2 0.3-0.2 0.2 0 0.4 0 0.6 0.1 0.7 0.2 1.5 0.4 2.2 0.7 0.2 0.1 0.4 0.1 0.7 0.1-0.1-0.1-0.2-0.2-0.3-0.2-1-0.5-1.9-1.1-2.9-1.6-1.9-1-3.7-2-5.5-3.2-0.3 0.1-0.5 0.1-0.7 0.2-0.9 0.2-1.9-0.1-2.3-0.8-0.5-0.8-0.5-1.8 0.2-2.6 0.6-0.8 1.5-1 2.5-0.7 0.7 0.3 1.2 0.7 1.5 1.4 0.1 0.3 0.1 0.6 0.1 0.9 0 0.2-0.1 0.3-0.2 0.6 3 1.9 6.4 3.2 9.5 4.9-0.6-0.7-1.2-1.4-1.8-2.1-0.3-0.3-0.5-0.6-0.8-0.9-0.1-0.1-0.2-0.3-0.2-0.4 0-0.2 0-0.4 0.1-0.5s0.3-0.1 0.5-0.1c0.2 0.1 0.3 0.2 0.5 0.4 1.2 1.3 2.5 2.6 3.7 3.9 0.1 0.1 0.3 0.3 0.5 0.4-0.2-0.5-0.4-1-0.7-1.4-1-2-1.9-4-2.9-6-0.1-0.3-0.3-0.5-0.5-0.6s-0.3-0.2-0.4-0.4c-0.4-0.4-0.5-0.9-0.3-1.4s0.6-0.9 1.2-0.9 1 0.2 1.3 0.7c0.4 0.6 0.4 1.2-0.2 2 0.9 1.7 1.7 3.4 2.6 5h0.1v-0.4c-0.1-1.3-0.2-2.5-0.3-3.8v-0.6c0-0.4 0.2-0.6 0.5-0.6s0.4 0.2 0.5 0.5 0.1 0.6 0.2 1l0.6 4.8c0 0.2 0.1 0.4 0.2 0.6 0.1-0.3 0.2-0.7 0.2-1 0.7-3.5 1.5-7.1 2.2-10.6 0.1-0.4 0-0.6-0.2-0.9-0.6-0.6-0.8-1.4-0.6-2.2 0.1-0.3 0.1-0.5 0.2-0.8 0.2-0.6 0.6-0.9 1.1-1 0.8-0.2 1.6-0.1 2.3 0.3 1 0.6 1.2 1.5 0.9 2.5-0.4 1.2-1.2 1.9-2.5 1.9-0.8 4-1.5 8-2.3 12l0.3-0.3c1-1.4 1.9-2.7 2.9-4.1 0.1-0.1 0.1-0.3 0.1-0.5 0.1-0.3 0.1-0.6 0.2-0.8 0.2-0.5 0.6-0.9 1.2-1s1 0.3 1.4 0.7c0.1 0.2 0.2 0.4 0.2 0.6 0 0.9-1 1.7-1.9 1.6-0.1 0-0.2 0-0.3-0.1l-3 4.5s0.1 0 0.1 0.1c0.6-0.5 1.1-0.9 1.7-1.4 0.8-0.6 1.6-1.3 2.5-1.9 0.2-0.1 0.3-0.3 0.5-0.3s0.4 0 0.5 0.1 0.1 0.4 0 0.5c0 0.2-0.2 0.3-0.3 0.4l-1.2 1.2c2.4-0.9 4.7-2.1 7-3.2 0-0.2 0.1-0.4 0.1-0.6 0.3-1.2 1.3-1.8 2.5-1.4 1.1 0.3 1.7 1.2 1.7 2.2s-0.7 1.9-1.7 2.2c-0.6 0.2-1.2 0-1.7-0.4l-0.4-0.4c-3.2 1.5-6.3 2.9-9.5 4.4 1.1-0.3 2.2-0.6 3.2-0.9 0.1 0 0.3-0.1 0.5-0.1s0.4 0 0.5 0.2 0 0.4-0.3 0.5c-0.5 0.2-0.9 0.4-1.4 0.5-0.9 0.3-1.9 0.6-2.8 0.8-0.1 0-0.1 0-0.2 0.2 2.5 0.2 4.9 0.3 7.4 0.5l0.2-0.2c0.4-0.5 0.9-0.6 1.4-0.5 0.6 0.1 0.9 0.6 1 1.1s0 0.9-0.5 1.2-1 0.5-1.5 0.1c-0.4-0.3-0.9-0.3-1.4-0.3-1.1 0-2.2 0-3.5-0.1 0.2 0.1 0.3 0.2 0.5 0.2 0.9 0.2 1.8 0.5 2.7 0.7 0.1 0 0.3 0.1 0.4 0.1 0.2 0.1 0.3 0.2 0.2 0.4 0 0.2-0.2 0.3-0.4 0.3s-0.3 0-0.5-0.1c-1.5-0.4-3-0.8-4.5-1.1-0.2-0.1-0.4-0.1-0.7-0.1 0.1 0.1 0.2 0.2 0.3 0.2 2.7 1.5 5.4 2.9 8.1 4.4 0.3 0.2 0.6 0.2 0.9 0s0.7-0.2 1.1-0.1c0.9 0.2 1.5 0.9 1.8 1.7 0.1 0.4 0.1 0.8-0.1 1.1-0.3 0.8-0.9 1.2-1.7 1.3-0.9 0.1-1.7 0-2.2-0.8-0.3 0.5-0.4 0-0.3-0.6z"/><path class="st20" d="m124.2 197.5c-1.2 0.7-2.4 1.4-3.5 2.1-0.1 0.1-0.2 0.2-0.3 0.4-0.3 0.5-0.7 0.8-1.3 0.8-0.2 0-0.4 0-0.5 0.1-1.1 0.6-2.2 1.2-3.3 1.9-0.1 0-0.1 0.1-0.2 0.1 0.1 0.1 0.2 0.1 0.3 0.2 1 0.4 2 0.8 3 1.1 0.3 0.1 0.5 0.1 0.8 0 0.7-0.3 1.3-0.1 1.7 0.6 0.1 0.3 0.3 0.4 0.6 0.5 0.9 0.3 1.9 0.6 2.8 1 0.2 0.1 0.4 0.1 0.6-0.1 0.6-0.5 1.3-0.5 1.9-0.1 0.7 0.4 0.9 1 0.9 1.7s-0.5 1.3-1.3 1.4c-0.3 0-0.7 0.1-1 0.1-0.8 0-1.1-0.3-1.2-1.1v-0.2c-0.3-0.1-0.5-0.2-0.8-0.3-0.7-0.2-1.4-0.5-2.1-0.7-0.5-0.2-0.9-0.3-1.4 0-0.4 0.2-0.9 0-1.3 0-0.3 0-0.5-0.3-0.5-0.6 0-0.2 0-0.3-0.1-0.5-1.4-0.6-2.9-1.2-4.4-1.8 0.1 0.2 0.1 0.4 0.2 0.5 0.6 1.3 1.1 2.6 1.7 3.9 0.1 0.2 0.2 0.4 0.4 0.5 1 0.3 1.4 1 1 2-0.1 0.4-0.1 0.7 0.1 1 0.4 0.8 0.8 1.7 1.2 2.6h0.3c0.7 0 1.1 0.4 1.4 1l0.3 0.9c0.1 1.1-0.5 1.9-1.4 2-1.1 0.1-2.1-0.6-2.2-1.6-0.1-0.6 0.1-1.1 0.4-1.6l-1.5-3c-0.1-0.2-0.3-0.3-0.5-0.4-0.6-0.3-0.9-0.8-1-1.3-0.1-0.2 0-0.5 0.1-0.8 0.1-0.2 0.1-0.4 0-0.6-0.7-1.5-1.3-3.1-2-4.6-0.4 0-0.6 0.2-0.7 0.5-0.4 1.1-0.8 2.1-1.2 3.2-0.1 0.2-0.1 0.4 0 0.6 0.2 0.5 0.1 1-0.1 1.5-0.1 0.3-0.3 0.6-0.7 0.7-0.2 0.1-0.4 0.2-0.4 0.5-0.3 0.9-0.5 1.8-0.8 2.6-0.1 0.3-0.1 0.5 0.1 0.7l0.1 0.1c0.5 0.8 0.4 1.9-0.3 2.3-0.8 0.5-1.9 0.4-2.5-0.3-0.4-0.5-0.6-1-0.4-1.6 0.2-0.5 0.4-0.9 0.9-1 0.3-0.1 0.4-0.3 0.5-0.6 0.3-1 0.5-1.9 0.8-2.9 0.1-0.2 0.1-0.5 0-0.7-0.4-0.9-0.2-1.6 0.7-2 0.2-0.1 0.4-0.2 0.4-0.5 0.2-0.5 0.4-1 0.6-1.6-0.2 0.1-0.4 0.1-0.5 0.2-0.5 0.3-1 0.5-1.5 0.8-0.3 0.1-0.5 0.3-0.6 0.6-0.3 0.7-0.6 0.9-1.4 0.7-0.2-0.1-0.4 0-0.7 0.1-0.4 0.2-0.7 0.4-1.1 0.5-0.6 0.2-1 0.5-1.4 1-0.8 1-1.9 1-2.8 0l-0.2-0.2c-0.6-0.8-0.5-1.9 0.2-2.4 0.7-0.6 1.8-0.5 2.5 0.2l0.4 0.4c0.6-0.3 1.2-0.6 1.8-1 0.1-0.1 0.2-0.2 0.2-0.3 0.5-1.3 1-1.5 2.3-1 1.1-0.6 2.2-1.1 3.3-1.7 0.4-0.2 0.5-0.6 0.6-1-0.3-0.1-0.5-0.2-0.7-0.3-0.7-0.3-1.5-0.6-2.2-0.9-0.3-0.1-0.6-0.2-0.9 0s-0.6 0.3-0.9 0.3c-0.6 0-1.1-0.2-1.2-1.2 0-0.2 0-0.4-0.3-0.6-1-0.5-2-1-3.1-1.6-0.4 0.4-0.8 0.6-1.4 0.6-0.8 0-1.4-0.4-1.8-1-0.5-0.8-0.1-1.8 0.7-2.2 1-0.4 2-0.1 2.5 0.9 0.1 0.2 0.3 0.4 0.5 0.5 1 0.5 2.1 1 3.1 1.5 0.3 0.1 0.5 0.2 0.8 0.1 0.9-0.3 1.5 0 1.9 0.9 0.1 0.2 0.3 0.3 0.4 0.4 0.9 0.4 1.8 0.7 2.7 1 0-0.2-0.1-0.3-0.1-0.4-0.4-1.1-0.9-2.2-1.3-3.3-0.1-0.2-0.3-0.4-0.4-0.6-0.5-0.4-0.7-0.9-0.5-1.6v-0.5c-0.3-0.8-0.6-1.6-0.9-2.4-0.2 0-0.4 0-0.6-0.1-1-0.2-1.7-1.1-1.6-2.1 0-0.2 0.1-0.4 0.1-0.6 0.1-0.8 0.5-1.3 1.4-1.4 0.8-0.1 1.5 0.2 1.9 0.9 0.5 0.8 0.5 1.6 0.1 2.5-0.1 0.1-0.1 0.2-0.2 0.3 0.3 0.8 0.6 1.5 1 2.3 0.1 0.1 0.2 0.3 0.4 0.3 0.8 0.4 1.1 1 0.8 1.9-0.1 0.2-0.1 0.4 0 0.5 0.3 0.8 0.7 1.6 1 2.4 0 0.1 0.1 0.1 0.1 0.1l0.1-0.1c0.4-1.1 0.9-2.2 1.3-3.3 0.1-0.1 0-0.3 0-0.5-0.2-0.7 0-1.2 0.7-1.6 0.2-0.1 0.4-0.3 0.5-0.5 0.4-1 0.8-1.9 1.3-2.9 0.1-0.3 0-0.5-0.1-0.7-0.4-0.8-0.2-1.6 0.5-2 0.8-0.5 1.7-0.5 2.3 0.1 0.5 0.5 0.6 1.2 0.4 1.9-0.2 0.6-0.6 1-1.2 1.1-0.4 0.1-0.6 0.3-0.7 0.6-0.3 0.9-0.7 1.7-1 2.6-0.1 0.2-0.1 0.4 0 0.6 0.3 0.6 0 1.1-0.6 1.6-0.2 0.1-0.4 0.3-0.4 0.5-0.6 1.6-1.2 3.2-1.8 4.7v0.2c0.2 0.2 0.5 0.2 0.7 0.1 1.4-0.8 2.9-1.6 4.3-2.3 0.2-0.1 0.3-0.2 0.3-0.4 0.1-0.9 0.7-1.2 1.5-1 0.3 0.1 0.6 0 0.9-0.1l2.7-1.5c0.4-0.2 0.8-0.5 0.9-1 0.1-0.4 0.3-0.7 0.6-0.9 0.7-0.5 1.5-0.4 2 0.2 0.5 0.5 0.6 1.6 0.3 2.2-0.4 0.8-1.3 1.1-2.1 0.7-0.4-0.2-0.5-0.3-0.7-0.4z"/><path class="st20" d="m145.1 233.1c-0.5-0.3-1-0.5-1.5-0.7-0.9-0.4-1.8-0.6-2.6-1-1.3-0.6-1.6-1.9-0.4-2.8 0.7-0.6 1.5-1.1 2.4-1.5 1-0.5 2-0.9 3.1-1.3v-2.7-1.1c0-0.6 0.2-1.1 0.8-1.3 0.6-0.3 1.2-0.1 1.6 0.4 0.5 0.5 1 1.1 1.5 1.7 1.5 1.9 1.1 2 3.8 1.3 0.9-0.2 1.7-0.5 2.6-0.8 0.7-0.2 1.3-0.3 1.9 0.3 0.5 0.5 0.5 1.1 0.3 1.8-0.3 0.8-0.6 1.6-0.9 2.3s-0.8 1.3-1.3 2.1c0.3 0.5 0.7 1.1 1.1 1.6 0.5 0.7 1 1.3 1.4 2 0.9 1.4 0.2 2.8-1.5 2.8-1.3 0-2.6-0.1-3.9-0.4-1.1-0.2-1.9-0.1-2.8 0.7-0.8 0.8-1.8 1.4-2.8 2-0.3 0.2-0.7 0.4-1 0.5-1.3 0.4-2.3-0.4-2.2-1.7 0.1-0.9 0.3-1.9 0.4-2.8-0.1-0.6-0.1-1 0-1.4z"/><path class="st20" d="m263.1 123.8c-0.5 0.3-0.8 0.6-1.1 0.8-1 0.8-2 1.6-3 2.3-0.3 0.2-0.7 0.4-1 0.5-0.4 0.1-0.9 0-1.1-0.4-0.3-0.4-0.2-0.8 0.1-1.2l0.9-0.9c1.1-1 2.3-1.9 3.4-2.9 0.2-0.1 0.4-0.3 0.8-0.6-1.2-0.3-2.1-0.4-3-0.7-0.8-0.2-1.5-0.4-2.2-0.7s-1-0.8-0.8-1.2c0.1-0.5 0.6-0.7 1.4-0.6 1.6 0.3 3.3 0.5 4.9 0.8h0.7c-0.7-1.2-1.3-2.3-2-3.4l-0.9-1.8c-0.2-0.6-0.1-1.1 0.4-1.3 0.5-0.3 0.9 0 1.2 0.4 0.5 0.6 0.9 1.3 1.4 1.9 0.4 0.6 0.8 1.2 1.3 1.9 0.2-0.6 0.3-0.9 0.4-1.3l0.9-4.5 0.3-0.9c0.2-0.5 0.6-0.7 1.2-0.6 0.5 0.1 0.7 0.5 0.7 0.9 0 0.7 0 1.4-0.2 2.1-0.2 1.5-0.5 2.9-0.8 4.4v1c0.7-0.5 1.3-0.9 1.9-1.3 1-0.7 2-1.4 3-2 0.2-0.2 0.5-0.4 0.7-0.4 0.3 0 0.7 0 0.9 0.2s0.3 0.7 0.2 0.9c-0.2 0.4-0.6 0.8-1 1.2-1.4 1.1-2.7 2.1-4.1 3.1-0.2 0.2-0.4 0.3-0.7 0.6 0.3 0.1 0.6 0.2 0.8 0.3 1.2 0.3 2.4 0.6 3.5 0.9 0.4 0.1 0.8 0.2 1.2 0.4 0.6 0.3 0.9 0.7 0.7 1.2-0.2 0.6-0.7 0.8-1.2 0.7-0.9-0.1-1.9-0.3-2.8-0.5-0.4-0.1-0.8-0.1-1.5-0.2 0.3 0.5 0.5 0.9 0.7 1.2 0.6 1 1.3 2.1 1.9 3.1 0.3 0.5 0.3 1-0.2 1.4-0.4 0.3-1 0.3-1.5-0.3-0.6-0.7-1.1-1.5-1.7-2.3-0.6-0.9-1.2-1.7-1.9-2.7-0.1 0.5-0.3 0.8-0.3 1.1-0.3 1.5-0.6 2.9-0.9 4.4-0.1 0.3-0.1 0.5-0.2 0.8-0.2 0.6-0.7 0.8-1.2 0.7s-0.8-0.5-0.7-1.1l0.3-3.3c0-0.4 0.1-1.2 0.2-2.1z"/><path class="st20" d="m287 177.3h-2.1c-0.3 0-0.7-0.1-1-0.2s-0.6-0.4-0.5-0.8c0-0.4 0.3-0.5 0.7-0.6 0.7-0.1 1.5-0.2 2.2-0.3 0.5 0 0.8-0.2 1-0.6 0.6-1.2 1.3-2.4 1.8-3.7 0.9-2.2 0.1-4.2-2.1-5.3-0.7-0.4-1.6-0.6-2.4-0.7-1.1-0.2-2.3-0.2-3.5-0.4-0.2 0.6-0.4 1.3-0.7 1.9-0.1 0.3-0.2 0.7-0.4 0.9-0.2 0.3-0.5 0.4-0.9 0.3s-0.5-0.4-0.5-0.8 0.1-0.8 0.2-1.2c0.2-0.6 0.4-1.3 0.5-1.9 0.2-0.7 0.2-0.7-0.5-1.1-0.2-0.1-0.4-0.3-0.6-0.4-0.3-0.2-0.5-0.5-0.3-0.9 0.1-0.4 0.5-0.6 0.8-0.5 0.6 0.2 1.1 0.4 1.7 0.6 0.3 0.1 0.5 0.3 0.7 0.5 1.7-0.6 3.2-1.3 4.7-2.3 1.3-0.9 1.9-2.2 1.5-3.8l-0.3-1.2c-0.3-0.9-0.7-1.7-1.5-2.3-0.9-0.6-1.8-1.4-2.7-2.2l-1.5 0.6c-0.7 0.3-1.2 0.2-1.4-0.2s0-0.8 0.6-1.3c0.2-0.2 0.5-0.4 0.7-0.5 0.7-0.3 0.9-0.8 0.9-1.5 0-0.9 0.1-1.7 0.1-2.6 0-0.5 0.4-0.8 0.9-0.6s0.7 0.6 0.7 1.2c0 0.9 0.1 1.9 0.1 2.8v0.4c2.2 0.8 4.4 1.6 6.6 2.4 0.6 0.2 1.2 0.3 1.7 0.4 1 0.2 1.5 0 1.9-0.9s0.8-1.9 1-2.9c0.3-1.7 0.5-3.5 0.7-5.3v-0.4c-0.8-0.6-1.5-1.1-2.2-1.7-0.4-0.3-0.5-0.7-0.3-1 0.2-0.4 0.6-0.4 1-0.3 0.5 0.2 1 0.5 1.5 0.8 0.6-0.6 1.3-1.2 2-1.7 0.3-0.3 0.6-0.6 1-0.8 0.2-0.1 0.5-0.2 0.7-0.3 0.3 0 0.6 0.1 0.8 0.5 0.1 0.3 0 0.5-0.2 0.8l-1.8 1.8c-0.2 0.2-0.5 0.5-0.8 0.7 0.9 2.6 1.8 5.1 2.7 7.6 0.2 0.6 0.5 1.2 0.8 1.7 0.3 0.6 0.6 0.7 1.2 0.5 0.5-0.1 0.9-0.3 1.3-0.6 1.5-1 2.9-2.1 4.4-3.1 0.6-0.5 1.2-0.9 1.8-1.5 0.5-0.5 1-1.1 1.4-1.6 0.2-0.2 0.2-0.4 0.1-0.7-0.2-0.8-0.4-1.7-0.6-2.5 0-0.2-0.1-0.3-0.1-0.5 0-0.4 0.1-0.7 0.5-0.9s0.7-0.1 0.9 0.2 0.4 0.6 0.5 0.9c0.2 0.7 0.4 1.4 0.6 2h2.6c0.4 0 0.7 0 1.1 0.1s0.7 0.3 0.7 0.8c0 0.4-0.2 0.7-0.6 0.8-0.6 0.1-1.1 0.2-1.7 0.2-0.4 0-0.8 0.1-1.2 0.1-0.1 1.2-0.8 2.2-1.3 3.3-0.6 1.2-1.3 2.3-1.9 3.5-0.3 0.7-0.6 1.4-0.8 2.2-0.2 0.9 0.1 1.4 1 1.6 0.7 0.2 1.4 0.3 2.2 0.5 1.9 0.3 3.8 0.6 5.8 0.9 0.3 0 0.6 0 0.9 0.1 0.2-1.2 1.1-2 1.8-2.9 0.3-0.4 0.8-0.5 1.1-0.3 0.4 0.2 0.5 0.6 0.3 1.1-0.1 0.3-0.3 0.7-0.5 1s-0.3 0.5-0.5 0.8c0.6 0.7 1.1 1.4 1.7 2.1 0.2 0.2 0.4 0.5 0.5 0.7 0.3 0.5 0.2 0.9-0.1 1.2s-0.8 0.3-1.2 0c-0.3-0.2-0.5-0.5-0.8-0.8s-0.6-0.6-0.8-0.9c-1.7 0.4-3.3 0.7-4.9 1.2-0.9 0.3-1.8 0.6-2.7 1.1-0.5 0.2-0.8 0.7-1.2 1.1-0.7 0.9-0.8 1.9-0.2 2.9 0.4 0.7 0.8 1.4 1.3 1.9 1 1.1 2 2.1 3 3.2l0.3 0.3c0.6-0.3 1.1-0.6 1.7-0.8l0.6-0.3c0.5-0.1 0.9 0 1.1 0.4s0.1 0.8-0.3 1.1c-0.5 0.4-1.1 0.7-1.7 1.1 0 0.5 0.1 1 0.1 1.5 0 0.7 0.1 1.3 0.1 2 0 0.6-0.3 0.9-0.7 1-0.5 0-0.8-0.2-1-0.8-0.1-0.7-0.3-1.4-0.3-2.1 0-0.4-0.2-0.6-0.6-0.8-2-1.2-3.9-2.3-5.9-3.5-0.6-0.4-1.1-0.4-1.7-0.1-0.4 0.3-0.9 0.6-1.2 0.9-0.7 0.7-1.1 1.6-1.5 2.6-0.7 2.1-1.3 4.3-1.7 6.5-0.1 0.8-0.1 0.8 0.6 1.2 0.8 0.5 1.6 1.1 2.3 1.6 0.2 0.1 0.3 0.2 0.5 0.4 0.4 0.4 0.4 0.9 0.1 1.2-0.3 0.4-0.8 0.5-1.2 0.2-0.2-0.1-0.4-0.3-0.6-0.4-0.8-0.5-1.7-1.1-2.6-1.7-0.3 0.5-0.5 0.8-0.8 1.2l-0.6 0.9c-0.2 0.3-0.6 0.3-0.9 0.2-0.3-0.2-0.4-0.5-0.4-0.8 0.1-0.4 0.2-0.8 0.5-1.2 0.6-0.8 0.6-1.7 0.1-2.6-0.7-1.5-1.3-3-2-4.5-0.3-0.6-0.7-1.1-1.3-1.3s-1.2-0.3-1.8-0.2c-2.4 0.4-4.4 1.4-6.4 2.8-0.4 0.3-0.5 0.6-0.4 1 0.1 0.7 0.2 1.4 0.3 2 0 0.6-0.2 1-0.6 1.1s-0.8-0.2-1-0.7c-0.2-0.1-0.4-0.9-0.7-1.8zm13.9-14c0 1.6 1.4 9.8 1.9 10.7 0.7-2.7 1.6-5.2 4.1-6.8-2-1.3-3.9-2.6-6-3.9zm-9 5.8c1.8-2.3 3.6-4.5 5.4-6.8-3.4 0.4-6.7 0.7-10 1.1 1.1 0.5 2.2 1.2 3 2.2s1.3 2.1 1.6 3.5zm6.5-4c-0.1 0-0.1 0-0.2-0.1-1.8 2.2-3.5 4.5-5.2 6.9 2.1-0.5 4.2-1.1 6.4 0.2-0.3-2.5-0.6-4.7-1-7zm-10.1-4.1c2.6-0.2 5.2-0.5 7.7-1-2-1.4-4-2.8-6.1-4.2 0.3 2.1-0.3 3.8-1.6 5.2zm22-0.5c-1.6 0.1-6.6 0.8-7.4 1.1 2.3 1.4 4.5 2.9 6.7 4.3-0.2-1-0.5-1.9-0.3-2.8 0.3-0.9 0.6-1.7 1-2.6zm-19.6-7c0 0.1 0 0.1-0.1 0.2 2.3 1.5 4.5 3 7 4.5-0.3-2.7-0.5-5.2-0.8-7.7-0.4 0.6-0.7 1.2-1 1.8-0.6 1.1-1.4 1.6-2.6 1.6-0.5 0-1-0.1-1.4-0.1-0.4-0.1-0.7-0.2-1.1-0.3zm16.6-0.1c-1.5 1.6-4 5-4.2 5.6 2.4-0.4 4.8-0.7 7.1-1.1-2-0.8-3.2-2-2.9-4.5zm-7.1 4.9h0.2c1.5-2 3.1-3.9 4.6-6-0.6 0.1-1 0.4-1.5 0.5-1.3 0.4-2.6 0.5-3.7-0.5h-0.2c0.1 2.2 0.4 4.1 0.6 6z"/><path class="st20" d="m323.1 174c0 0.6-0.9 1.6-1.6 1.7-0.8 0.1-1.6-0.5-1.8-1.4-0.2-0.7 0.3-1.4 1.1-1.7 1.2-0.4 2.3 0.3 2.3 1.4z"/><path class="st20" d="m278.9 145.5c0.9 0 1.6 0.8 1.6 1.7s-0.8 1.7-1.6 1.6c-0.9 0-1.6-0.8-1.6-1.7-0.1-0.8 0.7-1.6 1.6-1.6z"/><path class="st20" d="m286.2 179.5c0 0.9-0.8 1.9-1.5 1.9s-1.6-0.9-1.6-1.6c0-0.8 0.8-1.6 1.7-1.6 0.8-0.1 1.4 0.5 1.4 1.3z"/><path class="st20" d="m303.5 184.1c0.7 0 1.5 0.9 1.5 1.7s-0.8 1.5-1.6 1.5-1.6-0.9-1.5-1.8c0.1-0.6 0.9-1.4 1.6-1.4z"/><path class="st20" d="m277.6 164.5c0 0.8-0.5 1.5-1.3 1.5s-1.8-0.8-1.8-1.7c0-0.7 0.7-1.4 1.5-1.4s1.6 0.7 1.6 1.6z"/><path class="st20" d="m295.6 138c-0.8 0-1.6-0.8-1.6-1.6 0-0.7 0.7-1.4 1.6-1.4 0.8 0 1.5 0.6 1.5 1.5-0.1 0.8-0.7 1.5-1.5 1.5z"/><path class="st20" d="m325.8 154.7c0.8 0 1.5 0.7 1.5 1.5s-0.7 1.5-1.6 1.5c-0.8 0-1.5-0.7-1.5-1.5 0.1-0.8 0.7-1.5 1.6-1.5z"/><path class="st20" d="m314.5 139.6c0-0.9 0.7-1.6 1.5-1.6 0.9 0 1.4 0.5 1.4 1.4s-0.7 1.5-1.6 1.5c-0.8 0.1-1.3-0.4-1.3-1.3z"/><path class="st20" d="m163.3 177.7c1.2-0.2 2.2-0.3 3.2-0.5 0.6-0.1 1.1-0.1 1.6-0.5 0.1-0.1 0.5-0.1 0.6 0 0.2 0.2 0.2 0.5 0.2 0.7-0.1 0.5-0.5 0.7-0.9 0.8-0.8 0.2-1.7 0.3-2.5 0.5-0.3 0-0.5 0.1-0.9 0.2 0.5 0.6 0.9 1 1.4 1.5 0.1 0.1 0.4 0.1 0.6 0.1 1.1-0.1 2.2-0.3 3.3-0.4 0.3 0 0.7-0.1 0.8 0.3 0.1 0.3-0.1 0.7-0.5 0.8-0.5 0.2-1 0.2-1.5 0.3-0.4 0.1-0.9 0.1-1.5 0.2 0.2 0.3 0.4 0.5 0.6 0.7 0.4 0.4 0.8 0.9 1.2 1.3 0.3 0.4 0.3 0.7 0.1 0.9-0.3 0.3-0.6 0.3-1 0l-0.6-0.6-0.5-0.5s-0.1 0-0.2-0.1v0.5c0 0.3-0.1 0.5-0.3 0.6-0.3 0.1-0.5-0.1-0.6-0.4-0.1-0.2-0.2-0.5-0.2-0.7 0.1-1.5-0.9-2.3-1.9-3.3-0.1 0.2-0.2 0.4-0.2 0.5-0.1 0.2-0.1 0.5-0.2 0.7-0.2 0.4-0.4 0.6-0.7 0.5-0.4-0.1-0.4-0.4-0.4-0.7 0.1-0.5 0.1-1.1 0.2-1.6 0.1-0.4 0.1-0.7-0.3-1.1-1.3-1.2-2.5-2.4-3.8-3.5-0.2-0.2-0.4-0.3-0.7-0.5v0.7c0.2 2.1 0.4 4.2 0.5 6.3 0.1 2.5 0.1 4.9-0.3 7.4-0.1 0.6-0.3 1.2-0.5 1.9-0.1 0.3-0.2 0.5-0.3 0.7-0.6 0.9-1.7 1-2.2 0-0.4-0.8-0.7-1.7-0.8-2.6-0.4-2.5-0.3-4.9-0.1-7.4 0.2-2.4 0.7-4.8 1.4-7.1 0-0.1 0.1-0.3 0.2-0.6-0.3 0.1-0.4 0.2-0.5 0.3-1 1.1-2 2.2-3.1 3.3-0.2 0.2-0.3 0.5-0.1 0.8 0.3 0.7 0.5 1.4 0.8 2.1 0.2 0.6 0.2 0.9-0.1 1.1-0.4 0.2-0.8 0-1.1-0.6-0.2-0.5-0.4-0.9-0.6-1.4 0-0.1-0.1-0.2-0.2-0.4-0.5 0.5-0.9 0.9-1.3 1.4-0.1 0.1-0.1 0.4-0.1 0.7 0.2 0.7 0.4 1.4 0.6 2.2 0.1 0.4 0.2 0.7-0.2 0.9-0.3 0.2-0.8 0-1-0.5-0.2-0.4-0.3-0.9-0.5-1.4 0-0.1-0.1-0.2-0.1-0.4-0.5 0.4-0.8 0.9-1.2 1.4-0.1 0.1-0.1 0.3-0.2 0.4-0.2 0.3-0.5 0.3-0.8 0.1s-0.4-0.4-0.3-0.7 0.2-0.5 0.4-0.8c0.5-0.7 1-1.3 1.5-2-0.1-0.5-0.5-0.6-0.9-0.7h-1.1c-0.3 0-0.5-0.1-0.8-0.2-0.2-0.1-0.4-0.4-0.3-0.6 0.1-0.1 0.3-0.3 0.5-0.3 0.3-0.1 0.7-0.1 1-0.1 0.9-0.1 1.8-0.1 2.5 0.7 0.6-0.6 1.1-1.2 1.8-2-0.4-0.1-0.7-0.1-0.9-0.1-0.3 0-0.7 0.1-1 0.1-0.2 0-0.5 0-0.7-0.2-0.2-0.1-0.3-0.3-0.3-0.5s0.3-0.4 0.4-0.4c0.5-0.1 1-0.1 1.5-0.2 0.7-0.1 1.3-0.1 1.9 0.3 0.6-0.6 1.1-1.2 1.8-1.9-0.6 0.1-1.1 0.2-1.5 0.2-1.9 0.2-3.8 0.4-5.7-0.1-0.6-0.2-1.3-0.4-1.8-0.8-1.2-0.8-1.2-2.1 0-2.9 0.5-0.3 1-0.6 1.6-0.7 2.6-0.6 5.1-0.3 7.6 0.4 0.4 0.1 0.9 0.3 1.4 0.3l-2.7-2.7c-1 0.9-2.2 0.6-3.3 0.6-0.3 0-0.6-0.2-0.6-0.6 0-0.3 0.2-0.5 0.5-0.5 0.4-0.1 0.9-0.1 1.3-0.2 0.3 0 0.5-0.1 0.9-0.2-0.3-0.7-0.9-1-1.3-1.4-0.9 0.8-1.9 0.8-2.9 0.5-0.2-0.1-0.4-0.1-0.5-0.3-0.1-0.1-0.2-0.4-0.2-0.6 0-0.1 0.3-0.2 0.4-0.2 0.3 0 0.6 0.1 0.9 0.1 0.6 0.1 0.7 0 1.3-0.5l-1-1c-0.2-0.2-0.4-0.4-0.5-0.6-0.2-0.2-0.3-0.5 0-0.7 0.2-0.3 0.5-0.2 0.8 0 0.2 0.1 0.4 0.3 0.6 0.5 0.3 0.2 0.5 0.5 0.8 0.8 0.3-0.7 0.6-1.2 0.8-1.8 0.1-0.1 0.1-0.3 0.2-0.4 0.1-0.3 0.3-0.5 0.7-0.4 0.3 0.1 0.4 0.4 0.3 0.7s-0.2 0.6-0.3 0.8c-0.2 0.6-0.5 1.3-0.8 2 0.4 0.4 0.8 0.7 1.3 1.2 0.2-0.8 0.4-1.4 0.7-2.1 0.1-0.3 0.3-0.7 0.5-1 0.2-0.2 0.5-0.4 0.8-0.2s0.3 0.5 0.2 0.8c-0.3 1.1-0.6 2.1-1 3.2 0 0.1-0.1 0.2-0.1 0.4 0.9 0.9 1.7 1.8 2.6 2.7h0.1c-0.1-0.9-0.3-1.8-0.4-2.7-0.3-3-0.4-5.9 0.2-8.8 0.1-0.6 0.4-1.3 0.7-1.9 0.2-0.5 0.6-0.8 1.1-0.8 0.6 0 0.9 0.4 1.1 1 0.2 0.8 0.4 1.7 0.4 2.5 0 2.2-0.1 4.5-0.2 6.7-0.1 1.4-0.2 2.7-0.2 4 0.1 0 0.1 0 0.2 0.1 0.7-1 1.5-2.1 2.3-3.2-0.7-1.1-0.6-2.4-0.7-3.6 0-0.3 0.1-0.6 0.4-0.7 0.4-0.1 0.6 0.2 0.6 0.6 0.1 0.4 0.2 0.9 0.3 1.3 0.1 0.3 0.1 0.6 0.2 1 0.4-0.6 0.7-1.1 1.1-1.6-0.6-0.8-0.5-1.8-0.6-2.7 0-0.2 0-0.4 0.1-0.6 0-0.3 0.2-0.5 0.5-0.5s0.5 0.2 0.6 0.5c0.1 0.4 0.1 0.7 0.2 1.1 0 0.2 0.1 0.5 0.1 0.8l0.4-0.4c0.4-0.5 0.7-1 1.1-1.4 0.3-0.4 0.7-0.5 0.9-0.3 0.3 0.2 0.3 0.5 0 1-0.4 0.6-0.8 1.2-1.3 2l1.2 0.3 1.2 0.3c0.3 0.1 0.5 0.3 0.4 0.6 0 0.3-0.3 0.4-0.6 0.4h-0.6l-1.8-0.3c-0.2 0-0.4 0-0.7-0.1-0.4 0.6-0.7 1.1-1.2 1.7 0.9 0.3 1.5 0.9 2.4 0.8 0.3 0 0.5 0.1 0.5 0.3s-0.1 0.5-0.2 0.7c-0.3 0.3-0.7 0.3-1 0.2-0.6-0.2-1.1-0.4-1.7-0.6-0.3-0.1-0.5-0.2-0.8-0.3-0.9 1.2-1.9 2.5-2.9 3.9 0.6-0.2 1-0.3 1.5-0.5 1.7-0.5 3.4-1 5.3-0.9 1.4 0.1 2.8 0.4 4.1 1.1 0.5 0.3 1 0.7 1.4 1.2 0.5 0.6 0.4 1.3-0.2 1.8-0.3 0.3-0.8 0.5-1.2 0.6-2.3 0.6-4.6 0.8-6.9 0.6-0.5-0.1-1-0.1-1.7-0.2 0.7 1.4 1.7 2.4 2.7 3.3zm-4.4-5.1c3.2 0.7 6.4 0.9 9.7-0.1-0.4-0.2-0.6-0.4-0.8-0.5-0.9-0.4-1.8-0.6-2.8-0.7-2.1-0.1-4.1 0.6-6.1 1.3zm-3.2 17.3c1.1-2.1 0.9-10.1 0.3-12.6-0.9 4.3-1.3 8.4-0.3 12.6zm-2.5-17.5c-1.5-0.8-3.1-1.1-4.8-1.2-1.1 0-2.1 0.1-3.2 0.1-0.5 0-0.9 0.2-1.2 0.7 0.4 0.6 1.1 0.6 1.6 0.7 1.8 0.3 3.5 0.1 5.3-0.1 0.8 0.1 1.6-0.1 2.3-0.2zm2.6-3.2c0-0.5 0.1-0.9 0.1-1.4l0.3-4.8c0.1-1.7 0.1-3.5 0.1-5.2 0-0.3-0.1-0.7-0.1-1h-0.2c-1.5 4.2-0.9 8.3-0.2 12.4z"/><path class="st20" d="m173.1 174.5c-0.9 0-1.4-0.6-1.4-1.6 0-0.8 0.5-1.2 1.5-1.2 0.8 0 1.4 0.5 1.4 1.4 0.1 0.9-0.4 1.4-1.5 1.4z"/><path class="st20" d="m155.6 196.2c-0.8 0-1.4-0.6-1.4-1.3s0.8-1.5 1.5-1.5c0.8 0 1.4 0.7 1.4 1.5s-0.6 1.4-1.5 1.3z"/><path class="st20" d="m156.5 151.5c0.6 0 1.3 0.6 1.3 1.2s-0.6 1.3-1.1 1.3c-0.7 0-1.4-0.6-1.5-1.3 0-0.6 0.6-1.2 1.3-1.2z"/><path class="st20" d="m139.8 170.5c0.7 0 1.3 0.6 1.3 1.3 0 0.6-0.6 1.2-1.3 1.2-0.6 0-1.3-0.7-1.3-1.3 0.1-0.7 0.6-1.2 1.3-1.2z"/><path class="st20" d="m119.1 311.4v2.9c0 0.9-0.7 1.3-1.5 1.1-0.5-0.2-0.8-0.5-0.8-1-0.1-0.6-0.1-1.2-0.2-2.1-0.4 0.4-0.7 0.7-0.9 1l-1.6 1.6c-0.3 0.2-0.6 0.3-0.9 0.1s-0.3-0.6-0.1-0.9c0.1-0.3 0.3-0.5 0.5-0.7 0.8-0.9 1.6-1.9 2.4-2.8 0.4-0.5 0.6-1 0.6-1.7-0.1-2.4-0.1-4.7-0.1-7.1 0-0.4 0-0.7-0.1-1.1-0.7 0.2-1.4 0.3-2 0.6-0.2 0.1-0.4 0.3-0.4 0.5-0.1 0.3-0.1 0.6-0.1 0.9-0.2 1.4-0.3 2.8-0.5 4.2-0.1 1.2-0.8 2.1-1.9 2.7-1.8 1-3.6 2.1-5.4 3.1-0.3 0.2-0.7 0.4-1 0.6-0.8 0.5-1.5 0.2-1.7-0.7-0.1-0.5-0.1-1 0.1-1.5l2.4-7.8c0.4-1.4 1.4-2.3 2.9-2.5 0.6-0.1 1.3-0.2 1.9-0.4l1.8-0.3c0.1-0.6 0.3-1.2 0.4-1.9-0.5 0-1-0.1-1.4-0.1-1.6-0.1-3.2-0.1-4.8-0.2-0.6 0-0.9 0.1-1.2 0.6-0.8 1.1-1.7 2.2-2.6 3.2-0.2 0.3-0.4 0.5-0.7 0.7s-0.7 0.2-1 0c-0.3-0.3-0.3-0.6-0.1-1l0.6-0.9c0.7-0.9 1.3-1.8 2.1-2.8-0.8-0.1-1.4-0.2-2-0.3-0.4-0.1-0.8-0.2-1.3-0.3-0.4-0.1-0.8-0.3-0.8-0.7 0-0.5 0.5-0.7 0.9-0.8 0.6-0.1 1.2-0.1 1.9-0.1s1.4 0 2 0.1c0-0.1 0.1-0.1 0.1-0.2l-2.1-2.1c-0.5-0.5-1-1-1.4-1.5-0.2-0.2-0.5-0.5-0.2-0.9s0.6-0.3 1-0.1h0.1c1.9 1.4 3.6 2.9 5.2 4.8 1.9 0 4 0.1 6.1 0.1 0-0.5 0.1-0.9 0.1-1.3-1.4-0.7-2.8-1.4-4.3-2.2-0.6-0.3-1.2-0.7-1.8-1-1.5-0.8-2.2-2.1-2.4-3.7 0-0.4-0.1-0.9-0.1-1.3 0.1-1 0.1-2 0.2-3s0.7-1.3 1.6-0.8l2.1 1.5c1.3 0.8 2.6 1.5 4 2.1 1.2 0.5 1.7 1.3 1.6 2.6-0.1 1.1 0.1 2.2 0.1 3.4 0.6 0.1 1.2 0.2 1.9 0.3 0-0.3 0.1-0.6 0.1-0.9 0-2.1 0-4.3 0.1-6.4 0-0.5-0.2-0.9-0.5-1.2-0.7-0.6-1.3-1.2-2-1.8-0.5-0.5-0.6-0.9-0.3-1.2s0.7-0.3 1.2 0.1 1.1 0.7 1.8 1.2c0.1-0.7 0.1-1.2 0.1-1.7 0-0.4 0.1-0.8 0.2-1.2 0.1-0.6 0.5-0.9 1-0.8s0.8 0.4 0.8 0.9c0 0.6 0 1.2 0.1 1.8v1.3c0.9-0.6 1.6-1.2 2.3-1.7 0.4-0.3 0.7-0.5 1.2-0.7 0.6-0.3 1.3 0 1.4 0.5 0.2 0.6-0.2 1.1-0.8 1.3-0.3 0.1-0.6 0.3-0.8 0.4-1 0.7-1.9 1.4-2.9 2.1-0.3 0.2-0.4 0.4-0.4 0.7v7.2c0.6-0.1 1.1-0.1 1.6-0.2 0.2-1.7 0.5-3.3 0.6-4.9 0.1-1.2 0.6-2.1 1.6-2.8 2.7-1.8 5.5-3.4 8.4-4.7 1.2-0.5 2 0.1 2.1 1.3 0 0.5-0.1 1-0.2 1.5-0.4 1.6-0.8 3.1-1.2 4.7-0.2 1.1-0.9 1.8-1.9 2.1-1.8 0.6-3.6 1.3-5.5 2-0.3 0.1-0.6 0.2-0.8 0.4-0.7 0.4-1.3 0.9-1.1 1.9 0.1 0.6 0 1.2 0.1 1.9 0.9 0 1.8-0.1 2.7-0.1 1.5-0.1 3-0.1 4.5-0.2 0.5 0 0.8-0.2 1.1-0.5 0.5-0.7 1.1-1.3 1.7-1.9 0.2-0.2 0.3-0.4 0.5-0.6 0.5-0.4 0.9-0.5 1.2-0.2s0.3 0.6-0.1 1.1c-0.5 0.6-0.9 1.2-1.4 1.9 1.1 0.1 2 0.2 3 0.3 0.3 0 0.7 0 1 0.1 0.5 0.1 0.8 0.5 0.8 1s-0.2 0.9-0.7 1c-0.3 0.1-0.6 0.1-1 0.1-0.8 0-1.7 0-2.7 0.1 0.3 0.3 0.4 0.5 0.6 0.6 0.7 0.7 1.5 1.3 2.2 2 0.3 0.3 0.5 0.6 0.7 0.9 0.2 0.4 0 1-0.4 1.2s-0.7 0.2-1.1-0.2c-1-0.9-2-1.9-3.1-2.8-0.3-0.3-0.7-0.5-1-0.8-0.7-0.8-1.5-0.9-2.4-0.9-2.1 0.2-4.3 0.2-6.5 0.3-0.2 0.5-0.3 1-0.5 1.6 1.8 0.9 3.5 1.7 5.3 2.6 0.8 0.4 1.7 0.9 2.4 1.5 0.7 0.5 1.1 1.2 0.9 2-0.2 1.8 0.1 3.6 0.5 5.4 0 0.2 0.1 0.3 0.1 0.5 0.1 0.9-0.5 1.4-1.4 1.3-0.2 0-0.4-0.1-0.6-0.2-2.3-1.2-4.7-2.3-6.8-3.9-0.5-0.4-1-0.8-1.4-1.2-0.8-0.7-1.1-1.6-0.9-2.7 0.1-0.8 0.3-1.7 0.4-2.5 0-0.3 0.1-0.6 0.1-1-0.4-0.1-0.8-0.2-1.4-0.4v2.1c0 1.8 0.1 3.6 0.1 5.4 0 0.4 0.2 0.6 0.5 0.9 1.2 1.1 2.3 2.2 3.4 3.2 0.1 0.1 0.3 0.3 0.4 0.5 0.2 0.4 0.1 0.9-0.1 1.2-0.4 0.3-0.7 0.1-1.1-0.2l-2.1-1.8c-0.2-0.1-0.4-0.3-0.9-0.7zm9-27.7c-0.2-0.1-0.3-0.1-0.3-0.1-1.5 0.8-2.9 1.6-4.3 2.5-0.3 0.2-0.6 0.7-0.7 1.1-0.2 0.8-0.4 1.6-0.5 2.4l0.1 0.1c1.9-2 3.8-3.9 5.7-6zm-21.7 23.9s0.1 0 0.1 0.1c1.5-1.8 3-3.7 4.5-5.5-0.7 0-1.2 0.1-1.8 0.2-0.7 0.1-1.1 0.5-1.4 1.2-0.4 1.3-0.9 2.6-1.4 4zm18.7-4.1c0.7 1.4 2.8 4 3.4 4.4v-2.2c0-0.2-0.1-0.5-0.3-0.6-0.9-0.6-1.9-1.2-3.1-1.6zm-15.2-12.7l0.2-0.2c-0.5-0.7-1.1-1.5-1.6-2.2s-0.9-1.5-1.6-2.1c-0.1 0.7-0.2 1.3-0.1 1.9 0 0.3 0.2 0.7 0.4 0.9 0.9 0.6 1.8 1.2 2.7 1.7zm12.1 12.8c-0.1 0-0.1 0.1-0.2 0.1 0 0.3 0 0.5-0.1 0.8-0.1 0.8 0.1 1.5 0.8 2s1.3 0.9 2 1.4c0.2 0.2 0.5 0.3 0.8 0.4 0 0 0-0.1 0.1-0.1-1.1-1.5-2.3-3.1-3.4-4.6zm-1-9.8c-0.8 0.1-1.4 0.2-2.2 0.3 0 0.6 0 1.1 0.1 1.7 0.8 0 1.5-0.1 2.2-0.1 0-0.7-0.1-1.3-0.1-1.9zm-9.1 11.2c-1.1 0.9-2.8 3.2-3 3.9 2.6-1.3 2.7-1.4 3-3.9zm4.6-9.3v-1.8c-0.6-0.1-1.1-0.2-1.7-0.2-0.1 0.8-0.1 1.4-0.2 2.1 0.6 0 1.2 0 1.9-0.1zm-4-5.6c0.1 0 0.1 0 0.2-0.1 0-0.6 0-1.1-0.1-1.7 0-0.2-0.1-0.5-0.3-0.6-0.7-0.4-1.4-0.8-2.4-1.1 1 1.4 1.8 2.5 2.6 3.5zm14.9-2.2c0 0.1 0.1 0.1 0.1 0.2 0.6-0.2 1.2-0.3 1.7-0.6 0.2-0.1 0.4-0.2 0.5-0.4 0.2-0.6 0.3-1.2 0.4-1.7-0.1 0-0.1-0.1-0.2-0.1-0.8 0.9-1.6 1.7-2.5 2.6zm-13.3 11.7c0.6-0.1 1.1-0.1 1.6-0.3 0.6-0.1 0.7-0.3 0.6-1.1-0.6 0-1.3 0-2-0.1 0 0.5-0.1 0.9-0.2 1.5zm4.9-1.5c-0.2 1.3-0.2 1.3 1.2 1.5 0.1-0.4 0.3-0.9 0.5-1.5h-1.7z"/><path class="st20" d="m119 317.3c0.3 0.1 0.8 0.3 1.2 0.6 1.1 0.9 2.1 1.8 3.2 2.8 0.5 0.4 0.5 0.8 0.2 1.1s-0.7 0.4-1.2 0c-1-0.7-2-1.5-3-2.2-0.9-0.7-1-0.7-1.7 0.1-0.4 0.4-0.7 0.8-1.1 1.2l-0.5 0.5c-0.5 0.4-0.8 0.4-1.1 0.1-0.4-0.4-0.2-0.7 0.1-1.1 0.7-0.8 1.3-1.6 2-2.4 0.3-0.4 1-0.7 1.9-0.7z"/><path class="st20" d="m138.7 295.5c0.2-0.3 0.3-0.6 0.4-0.8 0.6-0.8 1.2-1.5 1.8-2.2 0.1-0.1 0.2-0.2 0.4-0.3 0.3-0.2 0.7-0.3 1 0s0.3 0.6 0.1 0.9c-0.4 0.6-0.8 1.1-1.2 1.7-0.7 0.9-0.7 0.7-0.1 1.8 0.4 0.7 0.8 1.4 1.3 2.1 0.1 0.2 0.2 0.3 0.3 0.5 0.1 0.4 0.1 0.7-0.3 1-0.4 0.2-0.7 0.1-1-0.1-0.1-0.1-0.2-0.1-0.2-0.2-0.7-1.1-1.5-2.1-2.1-3.2-0.2-0.4-0.3-0.8-0.4-1.2z"/><path class="st20" d="m116.2 277.8c-0.1 0-0.3-0.1-0.4-0.1-1-0.6-2-1.3-3-1.9-0.3-0.2-0.4-0.5-0.2-0.9s0.6-0.5 0.9-0.4c0.5 0.2 1.1 0.5 1.6 0.8 1.3 0.8 1.3 0.8 2.4-0.2 0.4-0.3 0.9-0.7 1.3-1 0.2-0.2 0.5-0.4 0.8-0.4s0.6 0.1 0.8 0.3c0.1 0.2 0.2 0.6 0.1 0.8-1.1 1.3-2.2 2.4-3.9 2.9-0.1 0.1-0.2 0.1-0.4 0.1z"/><path class="st20" d="m99.1 295.6c-0.1 0.3-0.2 0.7-0.3 1-0.4 0.9-0.8 1.8-1.3 2.7-0.2 0.5-0.7 0.6-1 0.5-0.4-0.2-0.7-0.6-0.5-1.1 0.3-0.8 0.5-1.6 1-2.3 0.5-0.8 0.4-1.5-0.1-2.2-0.3-0.4-0.4-0.8-0.5-1.2 0-0.2 0.1-0.6 0.3-0.7 0.2-0.2 0.6-0.1 0.8 0.1 0.6 0.8 1.1 1.7 1.7 2.5-0.1 0.1-0.2 0.4-0.1 0.7z"/><path class="st20" d="m118.8 323.6c-0.6 0-1.1-0.5-1.1-1.1 0-0.5 0.6-1 1.1-0.9 0.6 0 1 0.6 0.9 1.3 0 0.5-0.3 0.7-0.9 0.7z"/><path class="st20" d="m143.6 296.4c-0.4-0.1-0.8-0.6-0.7-1 0.1-0.5 0.6-0.9 1.1-0.9 0.5 0.1 0.8 0.5 0.8 1-0.1 0.4-0.8 1-1.2 0.9z"/><path class="st20" d="m117.4 272.6c-0.1 0.5-0.3 0.8-0.8 0.8-0.6 0-1-0.6-1-1.2 0.1-0.5 0.5-0.8 1-0.7 0.5-0.1 0.8 0.5 0.8 1.1z"/><path class="st20" d="m94.8 294.8c0.4 0.1 0.8 0.4 0.7 0.8 0 0.4-0.6 0.9-1.1 0.8-0.4 0-0.6-0.4-0.6-0.9 0.2-0.4 0.6-0.7 1-0.7z"/><path class="st20" d="m319.2 274.4c-0.1-1.1-0.1-2-0.2-3 0-0.2-0.1-0.3-0.3-0.5-0.4-0.2-0.7-0.5-1.1-0.8l-0.3-0.3c-0.2-0.3-0.2-0.6 0-0.9 0.2-0.2 0.5-0.3 0.9-0.1 0.3 0.2 0.5 0.3 0.8 0.5 0.5 0.3 0.6 0.3 1-0.1s0.8-0.8 1.2-1.3c0.2-0.2 0.4-0.3 0.7-0.2s0.4 0.4 0.3 0.7c-0.1 0.2-0.1 0.4-0.3 0.5-0.2 0.3-0.4 0.5-0.6 0.7-0.3 0.3-0.8 0.6-0.9 1s0 0.9 0.1 1.4c0.1 0.8 0.1 1.5 0.2 2.4 0.8-0.5 1.6-0.8 2.3-1.3 0.3-0.2 0.5-0.3 0.7-0.1 0.3 0.2 0.4 0.5 0.2 0.8s-0.5 0.6-0.8 0.8c-0.6 0.4-1.3 0.7-1.9 1.1-0.1 0.1-0.2 0.1-0.4 0.2 0 0.8 0.1 1.6 0.1 2.3s0.1 1.5 0.1 2.2c0 0.3 0 0.6-0.1 0.9s-0.4 0.5-0.7 0.5-0.5-0.3-0.5-0.7l-0.3-4.8c0-0.4-0.1-0.7-0.5-1-0.5-0.3-0.9-0.7-1.3-1.1-0.3-0.3-0.4-0.6-0.2-0.8s0.5-0.3 0.8-0.2c0.2 0.8 0.5 1 1 1.2z"/><path class="st20" d="m319.6 301.1c0-0.9-0.1-1.7-0.1-2.5 0-0.4 0-0.9 0.1-1.3s0.4-0.6 0.7-0.6 0.5 0.3 0.5 0.7c0.1 1.1 0.2 2.2 0.2 3.3 0 0.5 0.2 0.8 0.7 1.1 0.8 0.4 1.5 1 2.3 1.5 0.4 0.3 0.5 0.7 0.3 1s-0.6 0.4-1 0.2c-0.1-0.1-0.2-0.1-0.3-0.2-0.4-0.3-0.8-0.5-1.3-0.8-0.1-0.1-0.2-0.1-0.4-0.2v1 2.4c0 0.9 0.6 1.4 1.3 1.9 0.2 0.1 0.4 0.3 0.5 0.6 0.2 0.3 0.1 0.7-0.2 0.9s-0.5 0.2-0.8 0c-0.2-0.1-0.4-0.3-0.6-0.5-0.4-0.3-0.7-0.6-1.1-1-0.4 0.3-0.7 0.6-1.1 0.8-0.5 0.3-0.8 0.4-1 0.1-0.2-0.2-0.2-0.5 0.2-1 0.4-0.4 0.8-0.8 1.1-1.2 0.1-0.1 0.2-0.3 0.2-0.5 0-1.3-0.1-2.7-0.2-4.1-0.3 0.2-0.5 0.3-0.8 0.4s-0.6 0.3-1 0.4-0.7 0-0.8-0.3 0-0.5 0.4-0.8c0.8-0.4 1.5-0.8 2.2-1.3z"/><path class="st20" d="m309 290.5c-0.5 0.9-0.9 1.7-1.4 2.4-0.2 0.3-0.4 0.4-0.7 0.3s-0.4-0.4-0.3-0.8c0.1-0.3 0.2-0.7 0.4-1 0.1-0.3 0.2-0.5 0.4-0.8-0.9 0.1-1.8 0.1-2.7 0.2-0.1 0.2-0.3 0.5-0.4 0.8-0.1 0.2-0.2 0.4-0.4 0.6s-0.4 0.4-0.7 0.2c-0.3-0.1-0.3-0.4-0.3-0.7 0.1-0.4 0.3-0.9 0.5-1.3s0.1-0.7-0.1-1-0.4-0.7-0.7-1c-0.1-0.2-0.2-0.3-0.2-0.5s0.1-0.5 0.3-0.6c0.1-0.1 0.4 0 0.6 0 0.1 0 0.1 0.1 0.2 0.2 0.5 0.6 1 1.3 1.6 2 0.5-0.1 1-0.2 1.7-0.3l-0.6-1.2-0.3-0.6c-0.1-0.4 0-0.7 0.3-0.8 0.3-0.2 0.6-0.1 0.9 0.2 0.4 0.6 0.8 1.2 1.1 1.8 0.2 0.4 0.5 0.6 1 0.5l3.9-0.3h0.3c0.3 0 0.5 0.1 0.6 0.4s0 0.6-0.2 0.7-0.5 0.3-0.8 0.3c-0.9 0.1-1.7 0.2-2.6 0.3h-1.4z"/><path class="st20" d="m332.5 288.9c0.4 0.6 0.7 1 1 1.4 0.1 0.1 0.2 0.2 0.3 0.4 0.1 0.3 0.1 0.5-0.2 0.7-0.2 0.2-0.5 0.2-0.7 0-0.2-0.1-0.3-0.3-0.4-0.4-0.4-0.6-0.9-1.1-1.3-1.8-1 0.1-2 0.2-2.9 0.3-0.2 0-0.5 0.1-0.7 0-0.2 0-0.4-0.2-0.5-0.4s0-0.5 0.2-0.6c0.3-0.1 0.6-0.3 0.9-0.3 0.9-0.2 1.7-0.3 2.6-0.4 0.4 0 0.6-0.1 0.8-0.4 0.4-0.6 0.9-1.1 1.4-1.7 0.2-0.2 0.3-0.4 0.6-0.5 0.2-0.1 0.5-0.1 0.6 0s0.1 0.4 0.1 0.6c-0.1 0.2-0.2 0.4-0.4 0.6-0.2 0.3-0.5 0.7-0.8 1.1 0.6 0 1.2 0 1.7-0.1 0.1 0 0.3-0.2 0.4-0.3 0.6-0.6 1.2-1.3 1.8-1.9 0.4-0.4 0.7-0.4 0.9-0.2s0.2 0.6-0.2 1c-0.6 0.6-1.1 1.2-1.7 1.8-0.1 0.1-0.2 0.2-0.3 0.4l1.4 1.4 0.3 0.3c0.1 0.1 0.1 0.3 0 0.4s-0.2 0.2-0.4 0.2c-0.1 0-0.3 0-0.4-0.1-0.6-0.4-1.3-0.7-1.9-1.3-0.1-0.1-0.3-0.2-0.4-0.2-0.4-0.2-1-0.1-1.8 0z"/><path class="st20" d="m332.2 276.1c0.8 0.2 1.5 0.5 2.2 0.7 0.2 0.1 0.4 0.1 0.6 0.2 0.3 0.1 0.4 0.4 0.4 0.6 0 0.3-0.2 0.5-0.6 0.6h-0.7c-0.7-0.1-1.4-0.3-2.2-0.5-0.1 0.1-0.2 0.2-0.3 0.4-0.5 0.7-1.1 1.5-1.6 2.2-0.4 0.5-0.8 0.7-1.1 0.4-0.3-0.2-0.3-0.7 0-1.2 0.5-0.8 1.1-1.5 1.7-2.3 0.2-0.2 0.2-0.5 0.2-0.8 0-0.7 0.1-1.5 0.1-2.2 0-0.3 0.2-0.5 0.5-0.5s0.5 0.1 0.6 0.4c0.1 0.2 0.1 0.5 0.1 0.8 0.2 0.3 0.1 0.7 0.1 1.2z"/><path class="st20" d="m305.5 300.2c0.1 0 0.4-0.1 0.6-0.1 0.6 0.1 1.1 0.1 1.7 0.3 0.3 0.1 0.5 0 0.8-0.3 0.5-0.6 1.1-1.1 1.6-1.6 0.2-0.2 0.4-0.3 0.6-0.4 0.2 0 0.5 0 0.6 0.1s0.2 0.4 0.1 0.6c-0.1 0.3-0.4 0.5-0.6 0.8-0.5 0.6-1 1.1-1.5 1.7-0.1 0.1-0.2 0.4-0.1 0.5 0.1 0.6 0.2 1.1 0.3 1.7 0 0.2 0.1 0.4 0.1 0.6 0 0.4-0.2 0.6-0.5 0.7s-0.5-0.1-0.7-0.4c-0.1-0.3-0.2-0.6-0.3-0.8l-0.3-1.2c-0.1-0.4-0.3-0.6-0.7-0.7-0.5-0.1-1-0.3-1.5-0.5s-0.5-0.6-0.2-1z"/><path class="st20" d="m306.3 278c0.2-0.7 0.3-1.3 0.5-1.9 0.1-0.2 0.1-0.4 0.2-0.6 0.2-0.4 0.6-0.7 0.9-0.5 0.4 0.1 0.5 0.4 0.5 0.9-0.1 0.4-0.2 0.7-0.3 1s-0.2 0.6-0.3 1c1 0.6 1.8 1.3 2.6 2.1 0.4 0.5 0.5 0.8 0.2 1.1s-0.6 0.3-1.1-0.2-1.1-1-1.6-1.4c-0.2-0.2-0.4-0.3-0.6-0.5-0.7 0.5-1.4 0.4-2.1 0.3-0.4-0.1-0.6-0.3-0.7-0.5 0-0.3 0.2-0.6 0.6-0.6 0.5-0.1 0.8-0.1 1.2-0.2z"/><path class="st20" d="m330.1 300.7c-0.3-0.3-0.8-0.6-1.2-1-0.3-0.3-0.5-0.5-0.8-0.9s-0.3-0.8 0-1 0.6-0.2 0.9 0.2c0.4 0.4 0.8 0.7 1.1 1.2 0.6 0.8 1.2 1.1 2.2 0.7l1.2-0.3c0.2 0 0.3-0.1 0.5 0 0.3 0 0.5 0.2 0.6 0.5s-0.1 0.5-0.3 0.6c-0.3 0.1-0.5 0.2-0.8 0.3-0.7 0.2-1.4 0.3-2.1 0.5v1.3c0 0.3-0.1 0.7-0.1 1-0.1 0.2-0.2 0.4-0.5 0.3-0.3 0-0.3-0.2-0.3-0.4-0.2-1-0.3-1.9-0.4-3z"/><path class="st20" d="m327.3 297.2c-0.3 0.2-0.6 0.4-0.8 0.4-0.7 0.2-1.5 0.4-2.2 0.6h-0.3c-0.3 0-0.5 0-0.6-0.3s0-0.5 0.2-0.7 0.4-0.3 0.6-0.3c0.5-0.2 1-0.4 1.5-0.5 0.3-0.1 0.5-0.3 0.6-0.6l0.6-2.1c0.1-0.2 0.1-0.5 0.3-0.7 0.2-0.3 0.5-0.4 0.8-0.3s0.5 0.3 0.5 0.7c0 0.2 0 0.4-0.1 0.6-0.2 0.8-0.3 1.5-0.6 2.3-0.1 0.2-0.3 0.5-0.5 0.9z"/><path class="st20" d="m313 282.6v1.7 0.9c0 0.3-0.2 0.5-0.6 0.6-0.3 0-0.5-0.2-0.6-0.5-0.3-1-0.4-2-0.3-3 0-0.5 0.4-0.9 0.9-1.1 1.1-0.3 2.3-0.5 3.4-0.5 0.1 0 0.2 0 0.3 0.1 0.4 0.1 0.6 0.4 0.5 0.8s-0.3 0.5-0.8 0.5h-0.5c-0.7 0.2-1.5 0.4-2.3 0.5z"/><path class="st20" d="m324.6 294.3c0.1-0.7 0.2-1.3 0.3-2 0.1-0.4 0.1-0.8 0.1-1.3 0.1-0.4 0.4-0.7 0.8-0.7 0.3 0 0.6 0.3 0.6 0.7v0.3c-0.1 0.8-0.1 1.5-0.2 2.3l-0.3 1.2c-0.2 0.5-0.5 0.7-1 0.8-0.7 0.1-1.3 0.1-2 0.1-0.3 0-0.5-0.1-0.6-0.4 0-0.3 0.1-0.6 0.4-0.7 0.2-0.1 0.5-0.1 0.7-0.2 0.4 0.1 0.8 0 1.2-0.1z"/><path class="st20" d="m316.3 294.2c0.6 0 1 0.1 1.5 0.1 0.6 0.1 0.8 0.3 0.8 0.6 0 0.4-0.3 0.6-0.9 0.6h-1.5c-0.7 0-1.1-0.3-1.2-0.9-0.3-1.2-0.2-2.4-0.1-3.5 0-0.4 0.4-0.6 0.7-0.6s0.5 0.2 0.6 0.6c0.1 0.8 0.1 1.6 0.2 2.3-0.2 0.3-0.2 0.5-0.1 0.8z"/><path class="st20" d="m313.5 295.7c0.9 0.3 1.8 0.6 2.6 0.9 0.2 0.1 0.5 0.2 0.7 0.3 0.3 0.2 0.3 0.4 0.3 0.7-0.1 0.3-0.4 0.5-0.7 0.5h-0.2l-3-0.9c-0.8-0.3-1.1-0.7-0.9-1.6l0.3-1.5c0-0.2 0-0.3 0.1-0.4s0.4-0.3 0.5-0.3c0.2 0 0.4 0.2 0.4 0.4v0.8c0 0.3-0.1 0.7-0.1 1.1z"/><path class="st20" d="m328.3 281.5c0.3 0.6 0.7 1.3 1 2 0.2 0.3 0 0.7-0.3 0.8s-0.6 0.1-0.8-0.2c-0.3-0.3-0.6-0.7-0.8-1.1s-0.6-0.6-1-0.6-0.9-0.1-1.3-0.2c-0.3 0-0.6-0.2-0.8-0.3-0.3-0.1-0.4-0.3-0.3-0.6 0-0.3 0.2-0.5 0.5-0.5 1.1 0.1 2.3 0.2 3.4 0.3 0.1 0.1 0.2 0.3 0.4 0.4z"/><path class="st20" d="m315.5 284.4c-0.2 0.6-0.1 1.1-0.1 1.7 0 0.3 0.1 0.6 0.1 0.9s-0.2 0.5-0.5 0.6c-0.3 0-0.4-0.2-0.5-0.4-0.3-0.8-0.4-1.7-0.4-2.6 0-1 0.5-1.5 1.5-1.6 0.7-0.1 1.4 0 2.1 0 0.4 0 0.6 0.2 0.6 0.5s-0.2 0.5-0.6 0.6c-0.5 0.1-1 0.1-1.5 0.2-0.2 0.1-0.4 0.1-0.7 0.1z"/><path class="st20" d="m324.8 284.2h-1.6c-0.5 0-0.7-0.1-0.8-0.5 0-0.3 0.2-0.7 0.6-0.7 0.7-0.1 1.3-0.2 2-0.2 0.6 0 1 0.3 1.1 0.8 0.2 0.8 0.3 1.7 0.4 2.5 0 0.3-0.1 0.6-0.5 0.6-0.3 0.1-0.5-0.1-0.6-0.4s-0.2-0.7-0.3-1c-0.1-0.4-0.2-0.7-0.3-1.1z"/><path class="st20" d="m322.4 291.1c-0.3 0.3-0.8 0.3-1.1 0-0.2-0.2-0.2-0.7 0.1-0.9 0.3-0.3 0.8-0.2 1.1 0 0.2 0.3 0.2 0.6-0.1 0.9z"/><path class="st20" d="m323.9 292.9c-0.3 0.3-0.7 0.3-0.9 0s-0.2-0.7 0.1-1 0.6-0.3 0.8 0c0.3 0.3 0.3 0.8 0 1z"/><path class="st20" d="m316.9 286c0.2-0.2 0.7-0.3 0.9 0 0.2 0.2 0.2 0.6 0 0.8-0.3 0.3-0.7 0.3-0.9 0-0.3-0.1-0.3-0.5 0-0.8z"/><path class="st20" d="m319.3 288.4c-0.3 0.2-0.6 0.2-0.9 0-0.2-0.3-0.2-0.6 0.1-0.9 0.3-0.2 0.6-0.2 0.8 0.1 0.3 0.2 0.3 0.6 0 0.8z"/><path class="st20" d="m320.6 288.9c0.2 0.2 0.2 0.6-0.1 0.8-0.2 0.2-0.6 0.2-0.8 0s-0.2-0.6 0.1-0.8c0.3-0.3 0.7-0.3 0.8 0z"/><path class="st20" d="m323.7 287c-0.2 0.2-0.6 0.2-0.8 0s-0.2-0.6 0-0.8 0.6-0.2 0.8 0c0.3 0.2 0.3 0.6 0 0.8z"/><path class="st20" d="m318.2 291.9c0.2 0.2 0.1 0.6-0.1 0.8s-0.6 0.2-0.8 0-0.1-0.5 0.1-0.7 0.6-0.3 0.8-0.1z"/><path class="st20" d="m319.6 290.2c0.2 0.2 0.2 0.5 0 0.8-0.2 0.2-0.5 0.2-0.7 0.1-0.2-0.2-0.2-0.5 0-0.8 0.2-0.2 0.5-0.3 0.7-0.1z"/><path class="st20" d="m321.6 287.5c0.2-0.2 0.5-0.2 0.7 0s0.1 0.5-0.1 0.7-0.6 0.2-0.7 0-0.1-0.6 0.1-0.7z"/><path class="st20" d="m181.9 125.8c0.5 0.7 0.8 1.3 1.2 1.9 0.2 0.3 0.4 0.4 0.8 0.5 1.7 0.2 3.4 0.5 5 0.7 0.2 0 0.5 0.1 0.7 0.2 0.4 0.1 0.6 0.4 0.6 0.9 0 0.4-0.3 0.8-0.7 0.9-0.3 0.1-0.6 0.1-0.9 0.1-1.1-0.1-2.1-0.2-3.3-0.2 0 0.3 0.3 0.5 0.4 0.7 0.3 0.5 0.6 0.9 0.8 1.4 0.3 0.7 0.1 1.3-0.5 1.7s-1.2 0.3-1.8-0.2l-1.3-1.3c0 0.6 0 1-0.1 1.4-0.1 0.5-0.1 1-0.2 1.4-0.1 0.5-0.6 0.7-1 0.7-0.4-0.1-0.7-0.4-0.7-1 0-1.8 0-3.6-0.1-5.3 0-0.2 0-0.3-0.1-0.5-0.7-1-1.5-2-2.3-3.1-0.1 0.3-0.2 0.5-0.2 0.6-0.2 1.3-0.5 2.7-0.7 4l-0.3 0.9c-0.2 0.3-0.5 0.5-0.9 0.4s-0.6-0.3-0.6-0.7c0-0.3-0.1-0.7 0-1 0.3-2.1 0.5-4.1 0.8-6.2 0.1-0.3 0-0.6-0.2-0.8-0.6-0.7-1.2-1.5-1.7-2.1-1.1 0.1-2.2 0.3-3.4 0.4 0 0.1-0.1 0.2-0.2 0.4-0.4 1.5-0.8 2.9-1.1 4.4-0.1 0.4 0 0.6 0.3 0.9 1.1 1 2.1 2 3.1 3 0.2 0.2 0.3 0.3 0.4 0.5 0.2 0.4 0.2 0.9-0.1 1.2s-0.8 0.4-1.3 0.2c-0.2-0.1-0.3-0.2-0.5-0.3-0.7-0.7-1.5-1.3-2.2-2l-0.4-0.4c-0.1 0.2-0.2 0.3-0.2 0.4l-0.6 2.4c-0.1 0.3 0 0.6 0.2 0.9 1 1 2 2 3 3.1 0.4 0.4 0.5 0.9 0.2 1.3s-0.9 0.5-1.4 0.2c-0.6-0.4-1.1-0.9-1.7-1.4-0.3-0.3-0.7-0.5-1.1-0.9-0.2 0.7-0.4 1.2-0.5 1.8s-0.5 1-1.1 1.2c-0.8 0.3-1.4-0.1-1.5-0.9 0-0.4 0-0.8 0.1-1.1 0-0.4 0.1-0.8 0.2-1.2s0.1-0.7 0.3-1.3c-0.4 0.3-0.6 0.4-0.9 0.6-0.6 0.4-1.1 0.8-1.8 1.2-0.4 0.2-0.8 0.3-1.2 0.4-0.3 0.1-0.7-0.1-0.8-0.4-0.2-0.3-0.1-0.6 0.2-0.9l0.3-0.3c0.9-0.7 1.8-1.4 2.8-2.1 0.6-0.5 1.2-0.9 2.1-0.9 0.2-0.9 0.5-1.8 0.7-2.6l-0.1-0.1c-0.8 0.4-1.6 0.9-2.3 1.3l-1.2 0.6c-0.6 0.2-1.1 0-1.3-0.4s0-1 0.5-1.3c1.5-0.9 3.1-1.9 4.7-2.7 0.3-0.2 0.5-0.4 0.6-0.8 0.3-1.7 0.6-3.4 1-5.2 0.1-0.5-0.4-1.2-0.9-1.2h-0.2c-2.3-0.2-4.6-0.3-6.9-0.5h-0.2c-0.9 1.4-1.7 2.8-2.6 4.1-0.2 0.2-0.3 0.5-0.6 0.7-0.4 0.3-0.9 0.4-1.2 0.1s-0.4-0.6-0.1-1.1c0.5-1.1 1.1-2.2 1.6-3.2 0.1-0.2 0.2-0.5 0.4-0.8-0.6-0.1-1-0.2-1.5-0.2-0.4-0.1-0.8-0.1-1.1-0.2-0.6-0.2-0.9 0.1-1.2 0.5-0.6 0.8-1.3 1.5-2 2.2-0.6 0.6-1.1 0.6-1.4 0.2-0.4-0.3-0.3-0.7 0.1-1.4l1.2-1.8c-0.7 0-1.3 0-1.8-0.1-0.4 0-0.9-0.1-1.3-0.3-0.5-0.2-0.7-0.6-0.7-1.1 0.1-0.5 0.4-0.8 0.9-0.9 0.7-0.1 1.4-0.1 2.1-0.2 0.3 0 0.5 0 0.9-0.1-0.5-0.7-1-1.2-1.5-1.8-0.2-0.3-0.5-0.6-0.6-0.9-0.3-0.5-0.1-1 0.3-1.3s0.8-0.3 1.2 0.2c0.5 0.5 1 1 1.5 1.6 0.7 0.8 1.4 1.5 2 2.3 0.1 0.1 0.3 0.2 0.4 0.2 0.6 0 1.3 0.1 2.1 0.1-0.2-0.3-0.3-0.6-0.5-0.8-0.5-0.7-0.9-1.5-1.4-2.2-0.1-0.2-0.3-0.5-0.3-0.8-0.1-0.4 0.2-0.8 0.5-1 0.4-0.2 0.8-0.2 1.1 0.1 0.3 0.2 0.5 0.5 0.7 0.8 0.8 1.2 1.6 2.4 2.4 3.5 0.2 0.3 0.5 0.5 0.9 0.5h5.9c0.4-1.2 0.8-2.4 1.2-3.7-1-1.2-2-2.5-3-3.9-0.2-0.3-0.5-0.3-0.8-0.3-1.3 0-2.6-0.1-3.9-0.2-0.4 0-0.9-0.1-1.3-0.2s-0.6-0.3-0.6-0.7 0.2-0.7 0.5-0.8 0.7-0.2 1.1-0.2c0.9 0 1.9 0 2.9-0.1 0-0.4-0.3-0.6-0.4-0.8-0.4-0.5-0.7-1.1-1.1-1.4-0.5-0.3-1.1-0.3-1.7-0.4s-1.2-0.2-1.8-0.4c-0.3-0.1-0.6-0.1-0.9-0.2-0.5-0.2-0.7-0.5-0.7-0.9s0.3-0.8 0.7-0.9c0.3-0.1 0.6-0.1 1 0 0.4 0 0.8 0.1 1.5 0.2-0.3-0.4-0.4-0.6-0.6-0.8-0.4-0.6-0.4-1-0.1-1.4 0.4-0.4 1.1-0.6 1.6-0.3 0.3 0.2 0.6 0.5 0.9 0.8 0.1 0.1 0.2 0.1 0.3 0.3 0.1-0.3 0.1-0.5 0.2-0.7 0.1-0.7 0.2-1.4 0.4-2.1 0.1-0.3 0.3-0.7 0.5-0.9 0.4-0.4 1-0.2 1.2 0.3 0.1 0.3 0.1 0.6 0.1 0.9-0.1 1.4 0 2.8-0.4 4.2 0 0.2 0 0.4 0.1 0.5 0.6 0.7 1.2 1.4 1.8 2.2 0.1-0.3 0.2-0.6 0.2-0.8 0.2-1 0.4-2 0.6-2.9 0.1-0.3 0.2-0.7 0.4-0.9 0.2-0.3 0.6-0.4 0.9-0.3s0.5 0.4 0.6 0.7v0.7c-0.2 1.7-0.5 3.4-0.8 5-0.1 0.4 0 0.8 0.3 1.1 1 1.2 2 2.4 3.1 3.6 1.4-0.5 2.8-0.6 4.3-0.2 0.6-2.3 1.1-4.6 1.6-6.8-1-1.3-2-2.5-3-3.8-0.3-0.3-0.5-0.7-0.6-1.1-0.2-0.4-0.1-0.8 0.2-1 0.3-0.3 0.7-0.3 1.1 0 0.3 0.2 0.7 0.5 1 0.9 0.7 0.8 1.4 1.6 2.1 2.5 0.1-0.5 0.3-0.8 0.4-1.2s0.2-0.7 0.3-1c-0.7-0.9-1.4-1.8-2.1-2.7-0.1-0.1-0.2-0.3-0.3-0.5-0.3-0.5-0.2-0.9 0.1-1.3 0.4-0.3 0.8-0.4 1.3-0.1 0.2 0.1 0.4 0.3 0.6 0.5 0.4 0.4 0.8 0.9 1.2 1.4 0.1-0.4 0.2-0.6 0.3-0.9 0.2-0.5 0.4-1.1 0.6-1.6 0.1-0.3 0.4-0.6 0.6-0.7 0.6-0.4 1.4 0.1 1.4 0.9 0 0.5-0.2 1-0.3 1.5-0.1 0.3-0.1 0.6-0.2 1 0.9-0.3 1.8-0.5 2.7-0.8 0.1-0.1 0.3-0.2 0.4-0.2 0.4-0.1 0.7 0.1 0.9 0.4s0.2 0.8-0.1 1.1c-0.2 0.2-0.5 0.4-0.8 0.5-1.2 0.5-2.3 1-3.6 1.5-0.2 1-0.4 2.1-0.6 3.3 0.3-0.1 0.6-0.1 0.8-0.1 1.3-0.3 2.7-0.5 4-0.8 0.2 0 0.4-0.1 0.6-0.1 0.5 0 0.9 0.3 1 0.7s-0.1 0.9-0.5 1.1c-0.2 0.1-0.5 0.3-0.8 0.3-1.8 0.4-3.6 0.8-5.5 1.3-0.6 2.4-1.2 4.9-1.8 7.5 0.3 0.3 0.6 0.7 0.9 1.1s0.4 0.9 0.7 1.4h1.3c1.6 0 3.2 0 4.9 0.1 0.5 0 0.7-0.1 1-0.5 1.2-1.7 2.6-3.3 4.1-4.7 0.3-0.3 0.6-0.5 0.9-0.7s0.6-0.2 0.9 0.1c0.3 0.2 0.4 0.6 0.3 0.9-0.2 0.4-0.4 0.7-0.6 1-0.9 1.1-1.9 2.2-2.8 3.3-0.1 0.2-0.3 0.3-0.5 0.6h3.4c0.2 0 0.4-0.2 0.5-0.3 1.2-1.1 2.3-2.2 3.5-3.4 0.2-0.1 0.3-0.3 0.5-0.4 0.4-0.2 0.9-0.2 1.2 0.1s0.3 0.7 0.1 1.1c-0.1 0.2-0.2 0.4-0.4 0.5-0.7 0.7-1.4 1.5-2.1 2.2 0.6 0.1 1.1 0.2 1.6 0.4 0.6 0.2 0.9 0.6 0.9 1.3 0 0.6-0.3 1-0.9 1.2-0.5 0.1-0.9 0.2-1.4 0.2-0.5 0.1-0.9 0.1-1.4 0.1l-0.1 0.1 1.2 2.1c0.2 0.3 0.3 0.6 0.4 0.9 0.2 0.5 0 0.9-0.4 1.1s-0.8 0.1-1.1-0.3c-0.5-0.7-0.9-1.4-1.4-2.1-0.3-0.5-0.7-0.9-1-1.4-0.2-0.3-0.4-0.4-0.8-0.4-0.6 0-1.1 0-1.8 0.1 0.4 0.8 0.8 1.4 1.2 2.1 0.1 0.2 0.2 0.4 0.3 0.7 0.1 0.4 0 0.7-0.3 0.9s-0.7 0.3-1.1 0c-0.3-0.2-0.5-0.5-0.7-0.8-0.6-0.8-1.2-1.7-1.7-2.5-0.2-0.3-0.4-0.5-0.8-0.5-2.4-0.1-4.7-0.2-7.1-0.4-0.5 0.9-0.9 1.6-1.4 2.5 0.1 0.1 0.1 0.3 0.2 0.4 0.5 0.7 1.1 1.3 1.5 2 0.5 0.9 1.1 1.2 2.1 1.3 1.4 0.1 2.7 0.4 4.1 0.6 0.4 0.1 0.9 0.2 1.3 0.3 0.5 0.1 0.7 0.5 0.7 0.9s-0.3 0.8-0.8 0.8c-0.4 0.1-0.8 0.1-1.2 0.1-1.4-0.1-2.6-0.2-3.9-0.3zm-10.3-12.1c-1.4 1-1.7 2.8-0.8 4.1 0.7 1.1 2.1 1.4 3.2 0.6 1-0.7 1.7-1.7 1.9-2.9 0.1-0.5 0-0.9-0.3-1.3-0.7-1.1-2.8-1.5-4-0.5z"/><path class="st20" d="m164.9 124.1c-0.7 0.5-1.6 0.4-2.1-0.3-0.5-0.6-0.3-1.6 0.3-2.1 0.7-0.5 1.7-0.4 2.2 0.2 0.5 0.7 0.3 1.7-0.4 2.2z"/><path class="st20" d="m182.1 111.6c-0.7 0.5-1.6 0.4-2.1-0.3s-0.4-1.5 0.3-2 1.8-0.4 2.2 0.3c0.5 0.6 0.3 1.5-0.4 2z"/><path class="st20" d="m172.5 124.6c0.4-0.3 1-0.2 1.2 0.1 0.3 0.3 0.2 0.9-0.2 1.2s-0.9 0.2-1.2-0.1c-0.2-0.4-0.1-1 0.2-1.2z"/><path class="st20" d="m181.5 120.6c-0.4 0.3-0.9 0.2-1.1-0.1-0.3-0.3-0.2-0.9 0.2-1.1 0.4-0.3 0.9-0.2 1.2 0.1 0.2 0.3 0.1 0.9-0.3 1.1z"/><path class="st20" d="m164.3 113.4c-0.4 0.3-0.7 0.2-1-0.1-0.3-0.4-0.2-0.9 0.1-1.1s0.9-0.2 1.1 0.2c0.4 0.2 0.2 0.7-0.2 1z"/><path class="st20" d="m171.5 106.5c0.3 0.3 0.2 0.8-0.2 1.1-0.3 0.2-0.8 0.2-1-0.1-0.3-0.3-0.2-0.8 0.1-1.1 0.3-0.2 0.8-0.2 1.1 0.1z"/><path class="st20" d="m174.3 115c0.4 0.5 0.3 1.4-0.3 1.9-0.7 0.6-1.6 0.5-2.1-0.1s-0.3-1.6 0.3-2c0.6-0.6 1.6-0.4 2.1 0.2z"/></g></g></svg>
