<?xml version="1.0" encoding="UTF-8" standalone="no"?>
<svg
   xmlns:dc="http://purl.org/dc/elements/1.1/"
   xmlns:cc="http://creativecommons.org/ns#"
   xmlns:rdf="http://www.w3.org/1999/02/22-rdf-syntax-ns#"
   xmlns:svg="http://www.w3.org/2000/svg"
   xmlns="http://www.w3.org/2000/svg"
   xmlns:sodipodi="http://sodipodi.sourceforge.net/DTD/sodipodi-0.dtd"
   xmlns:inkscape="http://www.inkscape.org/namespaces/inkscape"
   version="1.0"
   width="1011.1pt"
   height="843.97662pt"
   viewBox="0 0 1011.1 843.97662"
   preserveAspectRatio="xMidYMid meet"
   id="svg32"
   sodipodi:docname="winterwalks004.svg"
   inkscape:version="0.92.2 (5c3e80d, 2017-08-06)">
  <metadata
     id="metadata38">
    <rdf:RDF>
      <cc:Work
         rdf:about="">
        <dc:format>image/svg+xml</dc:format>
        <dc:type
           rdf:resource="http://purl.org/dc/dcmitype/StillImage" />
        <dc:title></dc:title>
      </cc:Work>
    </rdf:RDF>
  </metadata>
  <defs
     id="defs36" />
  <sodipodi:namedview
     pagecolor="#ffffcc"
     bordercolor="#666666"
     borderopacity="1"
     objecttolerance="10"
     gridtolerance="10"
     guidetolerance="10"
     inkscape:pageopacity="0"
     inkscape:pageshadow="2"
     inkscape:window-width="1920"
     inkscape:window-height="1017"
     id="namedview34"
     showgrid="false"
     inkscape:zoom="0.75443787"
     inkscape:cx="442.10588"
     inkscape:cy="562.53333"
     inkscape:window-x="-8"
     inkscape:window-y="-8"
     inkscape:window-maximized="1"
     inkscape:current-layer="svg32"
     fit-margin-top="0"
     fit-margin-left="0"
     fit-margin-right="0"
     fit-margin-bottom="0" />
  <g
     transform="matrix(0.1,0,0,-0.1,-0.45,844.57664)"
     id="g30"
     style="fill:#004221;fill-opacity:1;stroke:none">
    <path
       d="M 4650,8440 C 3256,8335 2033,7801 1158,6914 497,6244 130,5506 18,4620 0,4479 0,3971 18,3830 76,3375 192,2985 385,2601 583,2204 820,1879 1158,1536 1929,755 2999,233 4185,61 4506,14 4637,6 5060,6 c 423,0 554,8 875,55 1846,268 3378,1385 3948,2879 111,291 177,559 219,890 18,141 18,649 0,790 -42,331 -108,599 -219,890 -570,1494 -2102,2611 -3948,2879 -284,42 -442,52 -810,56 -198,2 -412,0 -475,-5 z m 1000,-234 c 960,-108 1797,-409 2511,-902 254,-176 583,-458 738,-633 58,-66 66,-80 82,-149 10,-42 16,-78 12,-81 -3,-4 -8,0 -10,7 -3,7 -14,17 -25,23 -18,10 -20,9 -14,-7 6,-18 -8,-5 -66,64 -11,13 -22,21 -25,18 -4,-3 14,-32 40,-65 25,-32 39,-58 31,-57 -8,1 -35,31 -61,66 -25,36 -48,59 -50,53 -3,-7 1,-22 7,-34 10,-18 6,-17 -34,10 -76,52 -52,19 48,-69 81,-71 115,-114 102,-127 -2,-2 -21,19 -42,47 -43,57 -63,66 -37,18 9,-18 16,-37 15,-42 -4,-11 23,-91 65,-194 18,-46 33,-87 33,-93 0,-5 -14,5 -30,23 -22,24 -29,28 -24,13 3,-11 -8,4 -25,34 -36,63 -39,66 -47,58 -3,-3 15,-45 40,-93 33,-61 40,-82 25,-68 -11,10 -32,41 -46,68 -14,28 -28,44 -32,38 -4,-7 -21,7 -44,35 -38,47 -45,63 -27,63 6,0 10,13 10,29 0,29 -14,41 -51,41 -16,0 -18,3 -9,19 19,36 12,70 -17,84 -22,10 -28,9 -36,-5 -10,-15 -12,-14 -22,5 -14,28 -37,28 -50,-1 -5,-12 -18,-25 -27,-28 -10,-3 -18,-15 -18,-27 -1,-22 -1,-22 -12,-2 -21,38 -47,45 -72,19 -14,-14 -14,-18 -1,-37 8,-12 15,-26 15,-32 -1,-5 -8,2 -16,18 -16,29 -33,34 -52,15 -10,-10 -15,-10 -22,2 -8,12 -12,12 -36,0 -14,-8 -29,-20 -31,-27 -4,-9 -9,-9 -23,-1 -26,17 -70,-14 -70,-48 0,-14 -5,-34 -10,-45 -10,-18 -13,-18 -33,-4 -12,8 -28,15 -37,15 -8,0 -29,27 -47,63 -31,60 -32,63 -18,102 8,22 14,49 15,60 0,11 9,34 20,50 27,40 26,80 -2,99 -21,15 -24,14 -42,-3 -20,-21 -24,-68 -8,-97 6,-11 2,-34 -11,-70 l -20,-54 -38,43 c -32,34 -38,48 -34,71 3,16 5,50 5,77 v 48 l 53,25 c 76,35 99,39 161,26 73,-15 120,-47 124,-85 4,-33 28,-65 48,-65 28,0 42,29 40,87 -1,51 -4,59 -28,73 -22,12 -32,13 -47,3 -15,-10 -27,-9 -58,2 -21,7 -51,16 -66,20 l -28,6 36,43 36,44 58,-5 c 69,-6 101,7 101,42 0,28 -39,59 -67,53 -10,-2 -25,-17 -34,-35 -9,-18 -20,-28 -27,-24 -18,11 28,150 61,182 20,20 27,37 27,66 0,53 -15,66 -51,47 -40,-20 -52,-48 -44,-100 8,-57 -22,-173 -36,-136 -8,22 -6,102 4,118 16,28 17,75 1,105 l -16,32 -19,-24 c -11,-13 -22,-36 -25,-51 -4,-16 -12,-28 -19,-28 -7,0 -15,-10 -18,-22 -5,-18 -9,-19 -21,-9 -11,9 -20,10 -35,1 -30,-15 -41,-42 -35,-81 5,-31 1,-40 -36,-77 -23,-23 -45,-42 -49,-42 -13,0 -30,142 -19,165 20,44 -34,113 -66,86 -22,-19 -20,-63 5,-94 11,-15 23,-44 26,-64 5,-36 5,-37 -10,-18 -9,11 -17,28 -17,39 0,25 -63,86 -89,86 -16,0 -21,-6 -21,-25 0,-14 -6,-34 -12,-45 -18,-28 6,-70 54,-93 20,-10 55,-38 77,-62 l 41,-45 v -96 -97 l -20,26 c -11,14 -20,36 -20,50 0,37 -37,79 -68,75 -61,-7 -50,-76 18,-110 19,-10 41,-30 49,-45 13,-27 12,-26 -35,11 -133,106 -155,143 -162,262 -4,69 0,94 22,160 25,75 35,95 80,158 22,31 16,84 -14,111 -17,15 -22,16 -36,4 -26,-21 -33,-53 -23,-100 8,-35 7,-51 -7,-82 -23,-51 -34,-36 -41,58 -5,66 -10,83 -33,108 -32,36 -60,32 -60,-8 v -26 l -26,20 c -40,32 -54,27 -54,-18 0,-43 31,-91 58,-91 10,0 34,-27 57,-62 47,-72 57,-95 25,-54 l -24,29 -22,-26 c -23,-27 -27,-26 -86,16 -21,15 -30,16 -52,6 -30,-14 -33,-35 -10,-67 8,-12 12,-27 9,-32 -14,-22 17,-82 49,-95 29,-13 136,-106 136,-119 0,-12 -42,-6 -56,9 -9,8 -31,15 -50,15 -27,0 -34,4 -34,19 0,28 -27,51 -61,51 -37,0 -48,-24 -28,-59 11,-19 26,-28 59,-33 25,-4 47,-13 49,-20 2,-6 15,-23 28,-36 l 24,-24 -55,7 c -50,7 -57,5 -80,-18 -32,-32 -32,-42 -1,-63 27,-18 58,-12 90,16 18,16 118,60 138,60 4,0 7,-7 7,-16 0,-8 -4,-13 -8,-10 -16,10 -52,-25 -52,-50 0,-27 35,-67 53,-61 22,7 37,52 33,99 l -5,47 67,-52 c 93,-73 231,-206 270,-261 18,-25 30,-46 27,-46 -13,0 -51,23 -77,48 -24,22 -31,24 -53,14 -27,-13 -35,-58 -13,-80 14,-14 74,-16 82,-3 9,14 63,-10 94,-42 15,-16 20,-26 12,-22 -25,9 -62,-37 -58,-71 2,-21 -3,-32 -17,-39 -11,-6 -26,-24 -34,-40 -12,-25 -12,-33 1,-56 9,-15 12,-32 8,-39 -4,-7 -8,-39 -8,-72 0,-48 4,-61 22,-76 13,-9 28,-27 35,-40 10,-20 9,-22 -10,-22 -12,0 -46,12 -76,27 -39,20 -52,32 -48,44 3,9 1,29 -5,44 -8,20 -7,31 2,42 17,21 11,73 -11,98 -10,11 -23,35 -30,54 -6,19 -19,43 -28,53 -17,19 -48,24 -58,9 -3,-5 -18,-12 -35,-16 -16,-3 -41,-16 -56,-28 -18,-14 -25,-16 -22,-6 2,8 20,24 39,36 58,36 79,61 79,91 0,36 -41,77 -69,69 -19,-5 -20,-1 -14,39 7,55 -7,74 -57,74 -31,0 -44,-7 -73,-39 -20,-22 -43,-54 -52,-70 -8,-17 -18,-31 -20,-31 -9,0 16,54 46,98 17,25 27,51 24,61 -8,25 -49,45 -80,39 -17,-4 -25,-2 -22,6 3,6 8,18 11,27 4,9 -2,23 -14,34 -48,43 -108,-21 -117,-125 -7,-76 -19,-84 -27,-20 -6,42 -3,53 14,70 22,22 27,69 9,87 -15,15 -75,-42 -85,-81 -9,-37 -24,-15 -24,37 0,29 -4,37 -18,37 -27,0 -42,-20 -42,-58 v -35 l -21,27 c -17,21 -24,24 -40,16 -10,-6 -26,-22 -35,-36 -16,-23 -15,-26 1,-44 10,-11 28,-20 40,-20 12,0 42,-20 69,-46 36,-36 42,-45 24,-40 -13,4 -53,10 -89,13 -75,6 -88,-4 -64,-51 8,-15 12,-33 9,-41 -8,-19 33,-57 54,-51 9,3 31,2 47,-3 l 30,-9 -43,-7 c -74,-13 -84,-84 -18,-120 37,-20 43,-19 113,26 21,13 38,17 47,12 12,-6 5,-14 -29,-32 -25,-13 -45,-27 -45,-32 0,-4 -14,-10 -31,-14 -56,-12 -88,-97 -52,-137 22,-24 46,-23 80,6 20,17 34,22 44,15 23,-14 30,-11 67,28 25,27 31,31 21,12 -8,-13 -37,-46 -65,-72 l -52,-47 -80,14 c -45,7 -94,12 -111,10 -35,-4 -34,5 6,68 29,47 30,62 4,48 -52,-27 -73,7 -41,67 13,24 20,56 19,88 0,48 -1,49 -16,28 -18,-27 -33,-30 -33,-7 0,24 -59,140 -81,160 -17,15 -18,15 -24,-12 -16,-78 -28,-107 -45,-111 -12,-3 -22,-21 -30,-53 -6,-27 -18,-57 -26,-67 -13,-17 -15,-17 -28,0 -22,28 -26,20 -26,-45 0,-62 -25,-137 -49,-152 -7,-5 -17,6 -25,26 -15,35 -15,35 -35,-39 -7,-26 -18,-43 -26,-43 -18,0 -20,31 -2,49 10,11 8,12 -8,8 -11,-3 -37,-9 -58,-13 -34,-6 -39,-4 -44,15 -6,23 -27,22 -70,-5 -86,-54 27,57 120,118 23,16 67,53 97,83 30,30 77,73 103,97 27,23 53,50 58,60 9,17 7,17 -23,-2 -37,-23 -62,-27 -33,-6 17,12 15,14 -23,14 -23,0 -49,5 -58,10 -14,8 -12,12 13,31 15,13 46,34 68,48 35,21 37,24 12,18 -25,-5 -27,-4 -18,14 6,11 23,29 38,41 19,15 24,23 15,29 -17,11 25,47 64,55 35,8 129,64 121,72 -3,3 -14,1 -24,-4 -10,-5 -35,-12 -56,-15 l -39,-6 39,28 c 21,16 52,43 68,61 l 30,32 -56,-31 c -72,-40 -91,-40 -22,0 29,17 74,51 100,75 l 48,45 -47,-26 c -74,-41 -80,-24 -9,24 35,24 72,52 83,63 10,10 33,28 51,38 l 32,20 h -34 c -33,0 -34,1 -15,16 18,15 17,15 -16,10 -41,-6 -27,2 64,35 33,12 75,37 95,56 36,34 36,34 6,20 -16,-8 -43,-17 -60,-20 -16,-3 -39,-9 -50,-13 -11,-3 0,7 25,23 48,31 110,96 131,135 9,18 3,15 -29,-14 -22,-20 -50,-42 -62,-48 -21,-11 -21,-11 -6,17 8,15 24,42 35,58 12,17 21,33 21,37 0,13 -46,-6 -71,-29 l -27,-25 29,84 c 26,73 27,80 9,58 -11,-14 -36,-53 -56,-87 -40,-70 -72,-105 -54,-59 14,39 28,136 19,136 -4,0 -11,-9 -14,-20 -4,-12 -19,-49 -35,-83 l -28,-62 5,50 c 3,28 3,47 -1,44 -11,-11 -64,-174 -70,-220 -4,-26 -14,-55 -22,-65 -15,-18 -15,-18 -10,-1 22,68 46,181 46,214 v 38 l -15,-30 c -8,-16 -24,-52 -35,-80 -10,-27 -19,-42 -20,-33 0,9 5,29 10,44 16,41 3,41 -16,0 -13,-27 -21,-33 -30,-25 -10,8 -15,4 -20,-18 -9,-34 -44,-94 -44,-74 0,7 14,54 31,103 17,49 28,92 25,95 -2,3 -18,-21 -35,-53 -16,-33 -41,-72 -55,-89 l -25,-30 9,38 c 4,20 15,49 24,62 22,33 76,175 76,198 0,10 8,34 19,55 40,81 35,90 -19,32 l -52,-55 22,42 c 38,74 18,74 -37,1 -29,-38 -53,-68 -53,-65 0,3 27,48 60,101 82,130 102,178 106,261 4,70 4,70 -9,30 -11,-32 -82,-154 -101,-173 -3,-2 4,25 15,59 23,74 35,230 20,274 l -9,30 -1,-31 c -1,-31 -35,-171 -44,-180 -3,-3 -11,42 -18,100 l -13,105 -24,-26 c -19,-21 -26,-41 -30,-90 l -5,-63 -24,68 c -14,37 -32,90 -41,117 l -17,50 -3,-47 c -2,-27 4,-88 12,-138 9,-49 16,-105 16,-123 -1,-29 -4,-26 -40,43 -22,41 -51,89 -65,105 l -25,30 6,-30 c 4,-16 21,-75 39,-130 18,-55 32,-101 31,-103 -2,-1 -20,23 -41,53 -21,31 -40,53 -43,51 -6,-7 84,-230 118,-291 21,-38 26,-59 23,-88 l -5,-38 -25,73 c -35,105 -90,216 -114,228 -19,11 -20,9 -13,-27 4,-21 19,-75 34,-120 15,-46 26,-83 23,-83 -2,0 -20,34 -40,75 -34,71 -50,95 -39,58 2,-10 8,-38 12,-63 6,-41 5,-43 -10,-31 -25,21 -29,7 -13,-46 9,-26 18,-66 21,-88 5,-33 4,-37 -6,-24 -71,87 -70,85 -63,59 4,-14 24,-63 46,-108 35,-75 47,-112 35,-112 -2,0 -30,18 -63,40 -55,37 -59,42 -55,71 3,22 1,30 -7,25 -6,-4 -11,-14 -11,-23 0,-13 -3,-13 -15,-3 -12,10 -14,24 -10,54 3,25 -1,53 -9,71 l -14,30 -2,-40 c -1,-22 -5,-49 -10,-60 -8,-18 -9,-18 -10,5 0,24 -35,110 -43,110 -2,0 -2,-24 0,-52 l 5,-53 -28,38 c -27,36 -29,37 -36,17 -4,-12 -5,-33 -2,-46 l 6,-25 -36,22 c -42,24 -45,16 -13,-32 41,-61 41,-60 12,-49 -15,6 -38,10 -53,10 -25,0 -24,-2 18,-31 44,-30 45,-30 13,-24 -18,4 -33,3 -33,-2 0,-9 77,-43 127,-58 11,-3 24,-12 26,-20 4,-9 -10,-6 -43,11 -26,13 -63,24 -81,24 h -33 l 35,-26 34,-25 -30,6 c -27,6 -28,5 -13,-8 13,-10 15,-16 6,-25 -7,-7 -8,-12 -2,-12 5,0 20,-10 34,-21 l 25,-20 -32,4 c -47,5 -41,-10 10,-24 23,-6 49,-14 57,-16 8,-3 -16,-13 -54,-22 l -69,-17 30,-13 c 23,-9 44,-10 84,-2 49,9 56,8 74,-11 l 20,-20 -22,11 c -13,7 -23,9 -23,5 0,-3 10,-14 23,-25 22,-18 22,-18 -53,-19 -68,-1 -73,-2 -56,-15 11,-8 32,-15 47,-15 33,0 46,-26 18,-35 -17,-6 -11,-11 31,-33 50,-26 68,-49 29,-39 -20,5 -20,5 -3,-14 10,-11 19,-27 20,-37 1,-9 8,-59 15,-110 9,-66 9,-96 2,-103 -8,-8 -16,11 -29,67 l -18,79 -9,-55 c -5,-30 -14,-59 -19,-65 -8,-7 -9,-5 -5,6 3,9 1,22 -4,30 -7,11 -9,9 -9,-7 0,-11 -7,-29 -16,-40 -15,-19 -15,-19 -10,1 3,11 8,32 11,48 3,15 8,39 11,55 4,22 3,25 -7,15 -7,-7 -19,-13 -26,-13 -11,0 -10,7 2,31 24,46 15,73 -10,31 l -20,-34 -6,44 c -4,34 -7,39 -13,23 -24,-61 -24,-62 -32,-37 -9,30 -19,28 -36,-8 l -14,-30 -22,20 -22,21 v -21 c 0,-12 5,-30 11,-42 14,-26 8,-30 -29,-17 -62,21 -50,62 33,105 40,21 53,33 49,44 -23,55 -8,88 46,99 l 35,7 -65,38 c -72,42 -82,53 -74,79 7,21 4,21 -32,2 -50,-26 -104,-12 -104,25 0,30 -16,24 -30,-11 -26,-61 -159,-137 -198,-112 -10,5 -19,23 -22,39 l -6,29 -18,-35 c -27,-51 -46,-70 -73,-70 -15,0 -27,8 -32,22 -7,21 -8,20 -18,-9 -9,-25 -18,-31 -47,-35 -44,-5 -46,6 -6,58 34,44 36,54 15,54 -19,0 -19,9 5,125 11,53 20,99 20,101 0,2 -13,-5 -30,-14 -23,-13 -34,-14 -47,-6 -22,14 -28,56 -13,84 10,19 9,21 -7,16 -31,-9 -44,8 -53,72 -5,34 -21,88 -36,119 l -27,58 -11,-42 c -6,-23 -13,-44 -16,-47 -3,-2 -34,40 -70,95 -36,54 -68,99 -71,99 -3,0 -5,-10 -5,-21 2,-35 -34,-40 -90,-13 -31,15 -67,24 -97,24 -51,0 -137,-18 -137,-29 0,-3 20,-19 45,-34 56,-36 69,-72 35,-97 l -23,-18 31,-7 c 75,-16 108,-77 52,-98 -38,-14 -38,-21 0,-37 44,-18 70,-56 70,-101 0,-28 -6,-42 -20,-51 -25,-16 -26,-28 0,-28 21,0 40,-27 40,-59 0,-29 -35,-28 -54,2 -8,12 -24,63 -36,112 -12,50 -25,94 -29,98 -4,4 -13,-10 -19,-32 -7,-21 -19,-41 -27,-45 -8,-3 -37,10 -64,28 -33,23 -57,32 -74,29 -26,-5 -91,24 -144,65 l -33,24 v -26 c 0,-46 -36,-71 -125,-86 -108,-17 -114,-21 -72,-50 44,-30 76,-78 84,-123 5,-30 1,-40 -20,-59 l -25,-22 37,-17 c 20,-9 64,-37 99,-63 68,-51 79,-81 35,-101 -13,-5 -23,-13 -23,-16 0,-12 92,-39 153,-46 41,-4 55,-9 48,-16 -22,-22 -10,-30 34,-24 24,4 47,3 50,-2 2,-5 -11,-32 -30,-60 -19,-28 -35,-53 -35,-57 0,-3 21,-3 46,1 32,4 44,3 40,-4 -13,-20 6,-82 35,-112 25,-27 35,-31 69,-27 38,3 40,2 40,-24 0,-16 12,-41 29,-61 l 29,-33 -41,-26 c -59,-37 -124,-68 -140,-68 -10,0 -16,19 -20,64 -7,78 -24,119 -69,171 -31,34 -38,38 -51,26 -14,-11 -22,-9 -56,18 -80,63 -200,102 -271,86 -38,-8 -95,-56 -117,-98 -8,-17 -16,-52 -16,-79 l -1,-48 -13,31 c -13,32 -19,33 -67,13 -17,-7 -17,-4 4,23 18,26 21,36 13,60 -7,19 -16,27 -30,26 -21,-2 -23,3 -74,300 l -20,118 36,40 c 19,22 56,72 82,112 25,40 64,89 86,110 22,20 36,37 30,37 -23,0 -68,-48 -129,-139 -35,-53 -64,-93 -64,-89 0,18 81,142 122,187 26,28 42,51 36,51 -24,0 -106,-99 -148,-178 -24,-45 -47,-82 -51,-82 -4,0 5,29 22,65 16,35 29,71 29,78 0,7 12,24 26,38 15,13 41,44 59,69 23,30 44,47 70,55 20,5 37,15 37,20 0,6 4,15 10,22 7,9 2,10 -24,3 -43,-13 -51,-13 -42,3 4,6 -2,4 -13,-5 -27,-24 -41,-23 -46,5 -3,19 -5,18 -12,-10 -8,-35 -24,-45 -26,-15 0,11 -5,7 -15,-13 l -15,-30 6,30 c 5,28 4,29 -10,11 -8,-11 -15,-25 -15,-31 0,-7 -9,-20 -20,-30 -20,-18 -20,-17 -20,11 0,35 5,43 50,77 33,24 42,26 110,22 46,-3 64,-1 45,3 -29,8 -29,8 -7,16 12,4 36,19 53,33 23,20 27,28 17,34 -9,6 -5,9 12,9 18,0 21,3 11,9 -8,5 -10,14 -5,22 6,12 5,12 -8,1 -11,-9 -22,-10 -39,-2 l -24,10 25,-4 c 20,-4 26,-1 26,14 0,14 -6,18 -26,15 -14,-2 -43,-6 -65,-9 -39,-5 -39,-5 -15,9 14,8 49,19 79,26 37,7 50,14 40,19 -11,7 -9,10 6,15 11,4 30,11 43,16 13,5 33,9 45,10 18,0 17,3 -10,15 -25,10 -31,18 -26,31 7,17 5,17 -17,2 -25,-16 -141,-37 -128,-23 4,4 51,22 105,41 93,32 95,34 48,30 -32,-2 -83,-19 -139,-45 -92,-44 -120,-51 -114,-29 6,18 167,94 218,103 71,11 93,23 45,24 h -40 l 25,20 c 32,25 15,26 -25,2 -17,-11 -70,-37 -118,-60 -64,-30 -85,-36 -78,-23 5,9 34,24 63,34 29,9 80,33 113,53 l 60,36 55,-15 c 63,-18 74,-15 33,7 l -28,15 40,1 c 32,1 36,3 20,10 -11,5 -32,9 -47,9 -31,1 -34,8 -13,35 11,15 28,19 79,20 36,0 66,4 66,9 0,4 -5,7 -12,7 -6,0 -4,6 5,13 15,10 13,12 -15,13 -18,1 -58,6 -88,12 l -55,10 50,1 c 52,1 53,16 0,24 l -30,4 32,7 c 50,13 31,33 -30,32 l -51,-2 34,14 c 19,8 55,18 80,22 33,5 40,9 27,15 -24,10 -72,0 -137,-30 l -55,-26 30,26 c 17,16 23,24 13,21 -41,-13 -13,7 50,36 37,17 61,33 54,35 -7,3 -36,-6 -65,-20 l -52,-26 45,40 c 25,21 40,39 33,39 -13,0 -58,-34 -116,-89 l -38,-36 40,70 c 22,39 43,90 46,115 5,33 4,41 -4,30 -6,-8 -11,-24 -12,-35 0,-11 -3,-14 -6,-7 -3,7 -29,-36 -59,-95 -29,-59 -54,-102 -54,-95 0,8 16,43 36,78 41,73 40,99 -1,32 -17,-27 -24,-34 -19,-18 4,14 17,41 30,60 29,42 31,64 4,31 l -20,-23 v 31 c 0,18 -4,30 -9,27 -5,-4 -11,0 -14,6 -2,7 -4,-12 -3,-42 0,-31 -6,-70 -13,-88 -17,-41 -24,-36 -11,8 7,25 5,46 -7,84 l -17,51 -13,-85 c -6,-47 -13,-92 -13,-100 0,-8 -7,-1 -14,15 -7,17 -20,37 -27,45 -8,8 -20,26 -26,40 -12,25 -12,25 -7,-5 5,-29 5,-29 -10,-11 -18,23 -22,5 -5,-26 6,-11 12,-54 12,-94 2,-52 -1,-68 -7,-54 -5,11 -13,20 -18,20 -4,0 -8,8 -9,18 0,10 -3,12 -6,5 -3,-9 -11,-8 -31,4 l -27,17 27,-30 c 22,-24 27,-40 30,-96 1,-36 -1,-70 -5,-74 -4,-4 -8,8 -8,27 -1,23 -3,27 -6,11 -5,-24 -14,-19 -46,28 -22,32 -22,14 1,-25 13,-22 16,-42 11,-75 -3,-25 -7,-33 -7,-19 -1,14 -9,34 -18,45 -15,19 -16,19 -9,-1 4,-11 11,-49 16,-85 8,-62 34,-163 58,-222 7,-20 7,-36 0,-55 -11,-28 -11,-27 -25,25 -7,29 -18,82 -24,118 -9,56 -48,159 -50,130 0,-6 -7,-1 -16,10 -15,19 -16,19 -9,-1 19,-54 18,-60 -5,-32 -12,15 -25,26 -28,23 -3,-3 -12,0 -21,7 -18,13 3,-23 44,-79 51,-68 72,-153 55,-224 -6,-28 -8,-18 -9,47 -1,45 -4,84 -8,86 -5,3 -7,-18 -6,-46 l 2,-52 -19,58 c -23,74 -33,84 -24,27 8,-52 0,-50 -20,6 l -14,39 2,-64 c 2,-55 1,-61 -11,-46 -23,32 -14,7 23,-68 29,-57 32,-68 15,-53 -28,25 -27,13 2,-27 27,-37 52,-95 44,-103 -3,-3 -10,10 -16,28 -12,38 -63,98 -82,98 -7,0 1,-15 18,-32 40,-43 56,-76 82,-173 12,-44 28,-89 35,-100 7,-11 16,-65 19,-120 3,-55 22,-185 41,-289 20,-104 36,-195 36,-202 0,-7 -9,-18 -21,-24 -19,-10 -20,-10 -10,9 14,25 14,88 1,96 -6,3 -7,17 -4,30 9,34 -12,40 -42,10 -22,-22 -26,-33 -21,-67 5,-35 1,-44 -30,-79 -20,-22 -38,-38 -40,-35 -2,2 7,27 21,54 39,77 49,135 32,177 -27,63 -96,57 -96,-9 v -31 l -20,33 c -17,27 -25,32 -60,32 -29,0 -42,-5 -50,-20 -6,-11 -8,-25 -4,-31 3,-6 3,-45 -2,-87 l -8,-77 -7,98 c -7,106 -20,137 -68,161 -24,13 -31,13 -49,0 -11,-8 -26,-30 -32,-50 -12,-35 -12,-35 -27,-14 -13,18 -21,21 -52,15 -47,-9 -58,-19 -65,-60 -5,-27 -1,-45 19,-78 14,-24 25,-57 24,-73 l -1,-29 -11,30 c -27,68 -79,145 -98,145 -25,0 -71,-23 -88,-44 -8,-9 -25,-16 -39,-16 -35,0 -72,-37 -72,-71 0,-17 -11,-39 -30,-57 -38,-39 -40,-85 -5,-136 l 26,-38 -30,7 c -23,5 -32,2 -45,-17 -9,-12 -16,-34 -16,-47 0,-14 -6,-49 -12,-78 -16,-67 -34,-68 -70,-5 -15,26 -45,66 -66,89 -77,85 -77,82 19,181 47,48 112,118 145,157 32,38 85,97 118,132 55,59 59,62 79,48 33,-23 80,-19 107,10 20,21 22,31 17,79 l -5,55 44,-6 c 38,-5 55,-1 119,31 89,44 171,116 207,183 49,90 87,273 57,273 -29,0 -155,-141 -220,-246 -38,-61 -87,-128 -110,-148 -38,-35 -42,-36 -54,-19 -11,15 -11,23 3,48 10,19 17,64 20,121 5,103 -20,224 -67,329 -27,59 -88,125 -116,125 -24,0 -55,-50 -55,-90 0,-41 60,-170 134,-290 35,-56 46,-84 46,-115 0,-52 -15,-77 -24,-41 -6,25 -50,56 -80,56 -8,0 -30,-13 -48,-29 -26,-22 -40,-27 -65,-24 -26,4 -38,-1 -63,-25 -24,-25 -30,-39 -30,-74 1,-51 16,-74 59,-89 22,-8 30,-16 27,-26 -3,-8 -6,-28 -6,-43 0,-23 -29,-62 -139,-187 -76,-87 -157,-176 -180,-198 l -41,-39 1,94 c 1,52 4,120 7,150 6,49 10,56 43,75 38,21 167,154 187,192 20,37 15,46 -20,39 -37,-7 -129,-72 -176,-125 l -33,-36 3,80 2,80 48,50 c 136,145 163,185 122,185 -17,0 -148,-127 -175,-170 -16,-24 -17,-20 -24,85 -4,66 -4,110 2,112 5,2 44,24 85,49 121,71 201,174 136,174 -29,0 -228,-116 -228,-133 0,-8 -4,-7 -10,3 -5,8 -10,38 -10,67 v 51 l 62,47 c 34,26 81,56 103,67 49,25 75,47 75,65 0,34 -107,-1 -193,-64 -47,-35 -50,-36 -63,-18 -25,34 -15,58 43,105 101,81 133,116 133,144 0,36 -22,34 -79,-7 -94,-68 -97,-55 -10,38 39,41 59,70 55,80 -3,8 -9,15 -14,15 -16,0 -152,-139 -164,-168 l -12,-27 -4,30 c -2,16 1,31 7,33 31,10 69,142 42,142 -6,0 -11,21 -13,46 -2,31 -9,51 -20,58 -27,16 -46,-18 -54,-96 -4,-38 -8,-68 -9,-68 -2,0 -21,18 -44,41 -27,27 -46,39 -57,35 -8,-3 -22,1 -30,9 -19,18 -43,19 -50,2 -7,-20 24,-87 55,-116 15,-14 37,-43 50,-63 12,-21 27,-38 32,-38 5,0 9,-9 9,-21 v -20 l -25,20 c -36,27 -159,55 -185,41 -11,-6 -20,-19 -20,-29 0,-22 54,-71 77,-71 9,0 13,-6 9,-15 -6,-17 11,-74 31,-96 12,-14 12,-17 -2,-23 -9,-3 -32,-6 -51,-6 -29,0 -34,-3 -34,-25 0,-20 7,-26 43,-36 23,-6 56,-12 72,-11 17,0 54,-2 83,-5 49,-4 53,-7 68,-41 9,-20 20,-51 24,-69 l 8,-32 -27,19 c -34,26 -236,83 -261,75 -30,-9 -25,-20 26,-59 40,-31 163,-85 230,-102 25,-6 54,-53 54,-87 0,-16 -8,-12 -46,22 -42,40 -98,71 -125,71 -8,0 -10,-13 -6,-40 l 5,-39 -45,6 c -40,5 -45,4 -42,-12 4,-16 128,-89 230,-136 22,-10 28,-23 38,-74 6,-34 11,-76 11,-94 v -31 l -32,35 c -18,19 -69,55 -113,80 -130,74 -181,53 -87,-36 68,-66 123,-106 174,-128 l 45,-19 6,-77 c 10,-110 9,-215 -2,-215 -5,0 -14,7 -21,15 -7,8 -16,12 -22,9 -12,-8 -119,46 -125,63 -3,7 -13,13 -23,13 -24,0 -45,28 -42,56 4,27 -32,114 -47,114 -22,0 -12,62 14,82 34,26 31,54 -8,92 -17,17 -43,53 -57,79 -20,39 -29,47 -47,44 -13,-2 -24,2 -27,10 -11,26 -56,35 -108,19 -61,-18 -56,-11 25,28 59,29 62,33 65,70 4,50 -13,83 -47,91 -35,8 -114,-17 -157,-50 -19,-15 -38,-24 -41,-21 -10,9 28,46 74,73 29,17 43,32 43,46 0,25 -27,57 -49,57 -29,-1 -98,-38 -140,-75 -39,-36 -41,-36 -41,-14 1,45 37,108 76,131 l 37,22 -27,23 c -15,13 -33,23 -41,23 -24,0 -83,-59 -97,-96 -6,-19 -15,-34 -19,-34 -10,0 -19,57 -19,126 0,55 -3,65 -22,75 -18,10 -24,8 -39,-10 -15,-18 -16,-25 -4,-49 7,-15 15,-46 18,-70 l 5,-43 -26,35 c -22,29 -34,35 -64,36 -28,0 -38,-5 -43,-20 -7,-24 1,-40 20,-40 15,0 65,-60 65,-78 0,-6 -10,-12 -22,-14 -16,-2 -23,-10 -22,-23 0,-18 -7,-20 -65,-23 -124,-4 -171,-43 -123,-102 l 17,-21 55,25 c 35,17 73,26 104,26 62,0 57,-5 -24,-23 -72,-17 -136,-39 -150,-53 -5,-5 -12,-28 -16,-51 -8,-50 -1,-52 54,-24 20,10 47,21 58,25 19,6 21,3 16,-20 -3,-19 1,-31 12,-40 16,-11 14,-14 -21,-23 -21,-6 -45,-11 -54,-11 -9,0 -24,-9 -34,-20 -15,-17 -16,-24 -7,-45 10,-22 9,-27 -12,-40 -35,-23 -49,-61 -36,-100 18,-54 35,-55 100,-3 29,22 136,68 159,68 3,0 -17,-13 -45,-30 -63,-36 -127,-107 -150,-166 -20,-53 -12,-67 41,-68 27,-1 34,-4 29,-16 -30,-72 -17,-140 30,-161 20,-10 30,-9 51,5 22,15 25,15 25,1 0,-9 -7,-18 -15,-21 -8,-3 -19,-21 -25,-40 -6,-19 -18,-34 -26,-34 -10,0 -14,-12 -14,-39 0,-22 -6,-44 -15,-51 -8,-7 -12,-16 -9,-21 9,-15 -18,-10 -76,13 -30,12 -57,24 -59,25 -2,2 1,15 8,29 11,25 11,26 -14,20 -34,-9 -41,13 -27,83 10,47 10,57 -3,64 -19,10 -19,28 -1,97 8,30 13,57 11,59 -7,6 -96,-50 -135,-85 -38,-34 -50,-35 -50,-2 0,10 -4,18 -9,18 -14,0 -41,-90 -39,-131 0,-20 -2,-41 -6,-47 -11,-18 -34,-14 -48,8 -22,35 -29,22 -22,-38 l 6,-57 -58,-11 c -33,-6 -61,-9 -64,-7 -10,9 56,112 108,165 l 55,56 -64,-5 -64,-6 55,50 c 30,28 70,77 89,109 19,33 47,81 63,108 31,53 31,64 0,47 -29,-15 -32,-14 -32,11 0,36 39,105 78,139 39,35 42,44 14,44 -25,1 -19,46 12,91 17,25 23,45 20,63 -4,19 4,40 30,79 l 36,52 h -47 c -27,0 -64,-4 -82,-10 -19,-5 -36,-8 -38,-6 -6,6 245,233 367,331 809,654 1854,1047 3000,1129 146,10 831,-3 970,-18 z M 4225,7813 c -10,-53 -18,-32 -9,24 4,26 10,40 12,30 2,-11 1,-35 -3,-54 z m -46,-118 c 0,-23 -4,-17 -19,30 -25,75 -24,92 1,40 10,-22 18,-53 18,-70 z m -52,28 c -3,-10 -5,-4 -5,12 0,17 2,24 5,18 2,-7 2,-21 0,-30 z m 10,-45 c -3,-8 -6,-5 -6,6 -1,11 2,17 5,13 3,-3 4,-12 1,-19 z m 213,18 c 0,-2 -8,-10 -17,-17 -16,-13 -17,-12 -4,4 13,16 21,21 21,13 z m 80,-25 c -56,-30 -81,-35 -74,-17 6,16 52,34 89,35 14,0 10,-5 -15,-18 z m -343,-48 c -3,-10 -5,-4 -5,12 0,17 2,24 5,18 2,-7 2,-21 0,-30 z m 326,0 c -7,-2 -19,-2 -25,0 -7,3 -2,5 12,5 14,0 19,-2 13,-5 z m 105,-22 c 8,-5 -13,-8 -52,-9 -37,-1 -66,3 -66,8 0,12 100,13 118,1 z m -351,-33 c -3,-8 -6,-5 -6,6 -1,11 2,17 5,13 3,-3 4,-12 1,-19 z m -18,-108 c 0,-40 -3,-59 -8,-50 -15,27 -22,92 -15,134 8,41 8,41 15,11 3,-16 7,-59 8,-95 z m 126,110 c -3,-5 -12,-10 -18,-10 -7,0 -6,4 3,10 19,12 23,12 15,0 z m 79,-10 c -21,-22 -124,-65 -124,-52 1,12 103,71 125,72 19,0 19,0 -1,-20 z m 56,10 c -20,-13 -33,-13 -25,0 3,6 14,10 23,10 15,0 15,-2 2,-10 z m 16,-25 c -11,-8 -31,-15 -45,-14 -24,0 -23,2 9,14 46,18 59,18 36,0 z m -249,-57 c -2,-13 -4,-3 -4,22 0,25 2,35 4,23 2,-13 2,-33 0,-45 z m -77,-13 c 0,-5 -5,-3 -10,5 -5,8 -10,20 -10,25 0,6 5,3 10,-5 5,-8 10,-19 10,-25 z m 260,21 c 0,-5 -69,-46 -76,-46 -11,0 52,49 64,50 6,0 12,-2 12,-4 z m -140,-31 c -7,-9 -15,-13 -19,-10 -3,3 1,10 9,15 21,14 24,12 10,-5 z m 55,5 c -7,-12 -81,-60 -91,-60 -12,0 79,68 94,70 2,0 0,-5 -3,-10 z m -176,-79 c 13,-65 6,-127 -11,-97 -5,9 -12,48 -15,86 -7,87 10,94 26,11 z m -24,-105 c 11,-24 14,-40 7,-52 -12,-22 -31,53 -37,145 l -4,66 9,-62 c 5,-34 16,-78 25,-97 z m 52,82 c -3,-7 -5,-2 -5,12 0,14 2,19 5,13 2,-7 2,-19 0,-25 z m 243,-88 c -8,-5 -28,-10 -45,-10 -23,0 -27,3 -15,10 8,5 29,10 45,10 23,0 27,-3 15,-10 z m -109,-42 c -25,-4 -61,-19 -82,-33 -21,-14 -50,-25 -64,-25 -23,0 -25,3 -19,23 8,27 2,21 47,44 33,16 46,18 100,9 l 61,-11 z m -303,-171 c -2,-15 -14,6 -35,60 -42,106 -41,115 3,30 19,-38 34,-79 32,-90 z m 149,86 c -9,-9 -19,-14 -23,-11 -10,10 6,28 24,28 15,0 15,-1 -1,-17 z m 47,-41 c -80,-70 -102,-77 -90,-28 4,18 22,34 53,50 67,34 87,22 37,-22 z m 3480,-29 c 3,-13 9,-33 12,-45 4,-15 -5,-8 -25,20 -17,23 -34,57 -38,75 l -6,32 25,-30 c 14,-16 28,-40 32,-52 z m -3609,-61 c -2,-2 -11,12 -20,32 -12,24 -15,45 -10,63 7,25 9,21 20,-32 7,-33 11,-61 10,-63 z m 215,99 c 0,-3 -24,-16 -53,-28 l -52,-23 37,35 c 23,21 43,32 53,29 8,-3 15,-9 15,-13 z m 35,-31 c -32,-21 -85,-35 -107,-28 -15,5 87,47 117,47 16,1 15,-3 -10,-19 z m 2342,-89 c -2,-10 -9,-3 -19,20 -28,65 -30,85 -3,40 14,-25 24,-52 22,-60 z m -1452,-67 c 42,-84 75,-209 74,-273 -1,-43 -2,-41 -10,18 -17,130 -70,267 -144,367 l -36,49 41,-45 c 22,-25 56,-77 75,-116 z m -1095,92 c 0,-3 -4,-8 -10,-11 -5,-3 -10,-1 -10,4 0,6 5,11 10,11 6,0 10,-2 10,-4 z m -51,-61 c 0,-20 0,-20 -14,-1 -8,11 -15,29 -15,40 0,20 0,20 15,0 8,-10 14,-28 14,-39 z m 251,21 c 0,-2 -13,-6 -29,-8 -17,-2 -28,-1 -25,4 5,8 54,12 54,4 z m -83,-22 c -3,-3 -12,-4 -19,-1 -8,3 -5,6 6,6 11,1 17,-2 13,-5 z m 2514,-51 c -11,-21 -20,-32 -21,-25 0,20 33,87 38,74 2,-6 -6,-28 -17,-49 z m 1494,-51 c 16,-40 16,-42 -3,-69 -38,-53 -77,-81 -154,-111 l -76,-29 -4,51 c -5,56 -15,41 135,196 20,22 37,44 37,50 0,20 48,-45 65,-88 z m -4187,-37 c 0,-63 -12,-28 -21,60 -6,59 -6,59 7,25 8,-19 14,-57 14,-85 z m 114,83 c -8,-8 -9,-4 -5,13 4,13 8,18 11,10 2,-7 -1,-18 -6,-23 z m 38,13 c -16,-31 -32,-36 -18,-7 6,14 15,26 20,26 5,0 4,-9 -2,-19 z m 3395,11 c 14,-10 40,-69 55,-122 7,-25 17,-52 24,-60 6,-8 -8,1 -30,20 -44,37 -64,69 -64,99 0,10 -7,24 -15,31 -12,10 -13,16 -4,26 13,16 20,17 34,6 z m -3458,-34 c -3,-7 -5,-2 -5,12 0,14 2,19 5,13 2,-7 2,-19 0,-25 z m -27,-31 c 0,-21 -8,-41 -20,-52 -20,-18 -20,-17 -20,21 0,37 13,64 32,64 4,0 8,-15 8,-33 z m 2301,-19 c -9,-20 -10,-18 -10,17 0,31 2,36 9,23 6,-10 7,-25 1,-40 z m 1500,5 c 23,-47 23,-49 -5,-24 -14,14 -26,30 -26,38 0,22 16,15 31,-14 z m -234,-15 c -3,-7 -5,-2 -5,12 0,14 2,19 5,13 2,-7 2,-19 0,-25 z m -1230,-10 c -3,-7 -5,-2 -5,12 0,14 2,19 5,13 2,-7 2,-19 0,-25 z m 36,-40 c -9,-21 -10,-20 -15,15 -3,33 -2,36 11,23 11,-12 12,-21 4,-38 z M 4729,6680 c 121,-81 241,-182 241,-203 0,-6 -24,12 -52,40 -73,71 -224,182 -324,238 -46,26 -84,49 -84,51 0,10 109,-53 219,-126 z m 1668,98 c -3,-7 -5,-2 -5,12 0,14 2,19 5,13 2,-7 2,-19 0,-25 z m 369,-26 c -20,-20 -22,-1 -3,28 10,18 12,18 15,4 2,-9 -3,-24 -12,-32 z m -2725,-3 -9,-34 -1,31 c -1,17 2,34 6,37 12,13 14,-1 4,-34 z m 2449,-9 c 0,-41 -14,-61 -24,-34 -9,22 4,85 15,78 5,-3 9,-23 9,-44 z m 51,-70 -7,-45 -6,38 c -7,40 0,74 12,60 4,-4 5,-28 1,-53 z m -231,5 c 14,-19 14,-19 -2,-6 -10,7 -18,18 -18,24 0,6 1,8 3,6 1,-2 9,-13 17,-24 z m 620,-19 c 0,-2 -12,-12 -27,-21 l -28,-18 19,21 c 17,20 36,29 36,18 z m -857,-73 c -7,-2 -19,-2 -25,0 -7,3 -2,5 12,5 14,0 19,-2 13,-5 z m 2977,-99 c 0,-8 -4,-14 -10,-14 -5,0 -10,6 -10,14 0,7 -7,19 -15,26 -8,7 -15,20 -15,29 1,21 50,-33 50,-55 z m -3200,12 c 0,-8 -185,-121 -259,-158 -108,-54 -113,-46 -6,11 50,26 128,71 175,99 88,54 90,55 90,48 z m 3256,-107 c -16,-23 -16,-23 -16,16 0,36 1,38 16,23 15,-15 15,-18 0,-39 z m -3776,17 c 0,-8 3,-21 6,-29 8,-22 -47,-80 -65,-68 -13,8 -13,16 -1,53 7,24 15,46 17,51 7,13 43,7 43,-7 z m -147,-2 c 23,-8 1,-79 -29,-92 -13,-6 -25,-8 -28,-3 -4,6 34,99 41,101 1,0 8,-3 16,-6 z m 3778,-11 c 13,-16 12,-17 -3,-4 -10,7 -18,15 -18,17 0,8 8,3 21,-13 z m -3722,-31 c -6,-18 -15,-32 -20,-32 -8,0 3,39 17,62 12,19 14,0 3,-30 z m 3882,-23 c -12,-19 -21,-29 -21,-22 0,16 34,74 38,64 2,-5 -6,-24 -17,-42 z m 24,-101 c -27,-46 -55,-92 -62,-103 -27,-38 -4,54 35,143 35,82 36,83 55,63 20,-19 20,-20 -28,-103 z M 941,6172 c -8,-3 -5,-15 10,-38 19,-32 20,-36 6,-58 -20,-31 -88,-61 -173,-79 -38,-8 -71,-13 -73,-11 -5,4 67,118 153,241 l 71,103 9,-77 c 6,-57 6,-78 -3,-81 z m 4151,112 c 4,-3 8,-18 8,-35 0,-27 -2,-29 -40,-29 -36,0 -40,2 -40,26 0,14 -4,34 -10,44 -9,16 -6,17 32,8 23,-5 45,-11 50,-14 z m 4201,-111 c 47,-71 109,-168 137,-217 45,-79 48,-88 28,-81 -47,15 -174,16 -240,2 -44,-9 -68,-10 -68,-3 0,5 -15,-4 -32,-21 -40,-38 -78,-58 -78,-43 0,6 -4,9 -9,5 -23,-14 106,205 146,248 43,46 54,79 15,44 -10,-10 -24,-17 -30,-17 -7,0 -12,-4 -12,-8 0,-4 -14,-23 -31,-42 -17,-19 -27,-28 -21,-20 25,37 73,142 68,147 -8,8 -6,11 -66,-99 -28,-54 -53,-98 -55,-98 -12,0 21,81 67,165 63,113 92,165 95,165 0,0 40,-57 86,-127 z m -8182,41 c -11,-38 -20,-63 -20,-55 -1,20 31,133 36,128 2,-3 -5,-35 -16,-73 z m 7828,40 c 12,-20 21,-44 19,-53 -2,-9 -13,8 -25,37 -26,61 -23,66 6,16 z m -2958,-12 c -27,-3 -30,-6 -20,-18 9,-11 9,-14 -1,-14 -10,0 -10,-3 0,-15 10,-12 10,-15 -1,-15 -8,-1 -3,-7 10,-14 l 24,-14 -24,-8 c -21,-8 -19,-9 21,-14 l 45,-5 -60,-22 c -45,-16 -53,-22 -33,-22 15,-1 50,4 78,10 40,9 55,8 63,-1 9,-10 8,-12 -5,-7 -10,4 -18,2 -18,-3 0,-6 6,-10 13,-11 26,-2 -40,-17 -81,-18 -58,-1 -45,-21 14,-21 45,0 55,-19 11,-21 -13,0 1,-9 35,-22 65,-26 87,-41 38,-27 -44,12 -49,6 -13,-15 15,-9 19,-14 9,-10 -31,9 1,-23 46,-46 22,-11 38,-27 38,-37 0,-19 -56,-77 -102,-105 l -27,-17 -31,45 c -17,24 -63,77 -103,118 -58,60 -84,79 -137,98 -50,20 -65,30 -70,49 -3,16 -18,30 -38,39 -22,10 -32,21 -32,37 0,28 17,34 93,34 88,0 108,7 101,34 -7,30 22,55 83,70 35,9 56,9 77,2 l 29,-11 z m 406,-39 c -3,-10 -5,-2 -5,17 0,19 2,27 5,18 2,-10 2,-26 0,-35 z m -312,27 c 7,-12 -2,-12 -30,0 -19,8 -19,9 2,9 12,1 25,-3 28,-9 z m 2740,-138 c 31,-41 51,-71 45,-67 -9,5 -10,-1 -6,-21 15,-76 18,-108 9,-99 -5,6 -26,32 -47,58 -21,26 -41,46 -43,43 -3,-3 22,-49 55,-103 56,-93 90,-173 72,-173 -4,0 -11,8 -14,17 -6,14 -9,15 -15,4 -6,-9 -14,4 -25,43 -9,31 -21,56 -26,56 -10,0 -5,-32 11,-78 27,-72 0,-53 -61,43 -30,46 -56,82 -58,80 -2,-2 13,-38 32,-80 20,-43 36,-79 36,-81 0,-2 -40,-4 -89,-4 -85,0 -90,1 -93,23 -2,13 5,29 19,40 25,20 47,80 40,108 -3,10 -2,19 3,19 4,0 13,14 20,31 12,27 11,33 -9,60 -23,31 -24,52 -1,24 32,-38 70,1 69,71 -2,85 -1,85 76,-14 z m -7728,26 c -3,-8 -6,-5 -6,6 -1,11 2,17 5,13 3,-3 4,-12 1,-19 z m 4271,-19 c -20,-13 -26,-11 -38,11 -10,18 -8,18 21,8 23,-8 27,-13 17,-19 z m -4281,-21 c -3,-8 -6,-5 -6,6 -1,11 2,17 5,13 3,-3 4,-12 1,-19 z m 4080,0 c -3,-8 -6,-5 -6,6 -1,11 2,17 5,13 3,-3 4,-12 1,-19 z M 993,6012 c -24,-6 -36,14 -28,45 l 7,28 18,-35 c 16,-30 16,-35 3,-38 z m 4142,10 c -15,-16 -16,-15 -4,12 7,15 15,23 17,16 3,-7 -3,-19 -13,-28 z m -4068,6 c -3,-8 -6,-5 -6,6 -1,11 2,17 5,13 3,-3 4,-12 1,-19 z m 3177,-42 c 10,-41 83,-140 130,-176 29,-23 45,-43 46,-57 0,-28 -9,-28 -85,-2 -33,12 -79,20 -102,20 -28,-1 -43,3 -43,11 0,7 -9,55 -19,105 l -18,93 23,-6 c 16,-4 26,0 36,15 17,27 24,26 32,-3 z m 858,2 c -6,-6 -15,-8 -19,-4 -4,4 -1,11 7,16 19,12 27,3 12,-12 z m -977,-13 c 3,-14 7,-36 10,-50 6,-28 -6,-33 -26,-9 -7,8 -36,27 -63,42 l -51,26 35,7 c 73,13 89,11 95,-16 z m 2356,-9 c -14,-17 -119,-61 -127,-53 -8,7 38,37 84,53 48,17 57,17 43,0 z m -1481,-66 c 0,-47 -4,-62 -16,-67 -10,-4 -20,1 -27,13 -6,10 -21,28 -33,39 l -22,19 46,28 c 26,15 48,27 50,27 1,1 2,-26 2,-59 z m 3928,-70 c -4,-37 -2,-43 -34,105 -2,11 5,0 16,-25 12,-26 20,-59 18,-80 z m -4046,53 c -5,-10 -13,-48 -17,-85 -3,-38 -10,-68 -14,-68 -5,0 -6,11 -3,25 4,22 0,26 -27,31 -23,5 -30,11 -27,21 4,8 6,25 6,37 0,16 10,25 43,38 23,8 43,16 45,17 1,0 -1,-7 -6,-16 z m -1075,-53 c 6,0 13,-6 16,-12 3,-7 12,-30 21,-50 14,-33 14,-38 2,-38 -8,0 -24,21 -36,47 -11,26 -28,56 -38,68 -17,20 -17,20 4,3 11,-10 25,-18 31,-18 z m 209,-32 c 27,-24 71,-24 79,0 8,27 51,46 59,26 16,-42 8,-51 -51,-56 -32,-3 -65,-8 -73,-11 -9,-3 -30,12 -54,40 -39,44 -40,44 -10,32 16,-7 38,-21 50,-31 z m -341,-58 c 3,-5 1,-10 -4,-10 -6,0 -11,5 -11,10 0,6 2,10 4,10 3,0 8,-4 11,-10 z m 1115,0 c 11,-7 4,-10 -25,-10 -29,0 -36,3 -25,10 8,5 20,10 25,10 6,0 17,-5 25,-10 z m 1515,0 c -3,-5 -16,-10 -28,-9 -20,1 -20,2 3,9 14,4 26,8 28,9 2,1 0,-3 -3,-9 z M 3788,5555 c 57,-17 80,-39 93,-88 17,-62 -5,-115 -59,-142 l -43,-22 26,-11 c 33,-15 62,-64 77,-130 9,-40 18,-57 35,-65 13,-5 23,-18 23,-29 0,-15 -8,-18 -58,-18 h -59 l -13,73 c -24,136 -42,157 -141,157 h -50 l 3,-92 3,-93 31,-3 c 26,-3 31,-7 27,-23 -5,-17 -15,-19 -104,-19 -88,0 -99,2 -99,18 0,10 12,22 30,29 l 30,11 -2,204 -3,203 -27,3 c -22,3 -28,9 -28,28 v 25 l 132,-2 c 76,-1 151,-7 176,-14 z m 1360,-83 3,-92 28,21 c 38,28 98,40 142,29 127,-34 147,-265 29,-352 -37,-27 -117,-31 -168,-8 -41,19 -42,19 -52,-1 -6,-11 -21,-19 -35,-19 h -25 l -2,233 -3,232 -22,3 c -17,3 -23,10 -23,28 0,24 2,25 63,22 l 62,-3 z m 440,-139 c 2,-231 4,-239 35,-234 4,0 7,-10 7,-24 0,-25 -1,-25 -80,-25 -72,0 -80,2 -80,19 0,11 9,23 20,26 19,6 20,15 20,216 v 209 h -25 c -20,0 -25,5 -25,25 0,25 1,26 63,23 l 62,-3 z m -1328,79 c 33,-25 38,-47 39,-185 1,-110 2,-119 21,-124 27,-7 25,-39 -2,-47 -38,-10 -48,-7 -74,19 l -25,25 -27,-20 c -39,-28 -109,-36 -155,-16 -67,27 -86,126 -34,175 29,27 107,43 168,35 l 49,-7 v 36 c 0,53 -8,66 -49,77 -38,10 -105,0 -124,-19 -6,-6 -19,-11 -29,-11 -13,0 -18,8 -18,29 0,24 6,31 33,40 81,25 187,22 227,-7 z m 236,-2 6,-29 44,25 c 30,18 61,26 95,27 44,2 54,-2 74,-25 l 24,-27 46,25 c 62,35 136,37 168,6 20,-21 22,-33 25,-167 3,-132 5,-145 23,-150 10,-4 19,-15 19,-26 0,-17 -8,-19 -85,-19 -78,0 -85,2 -85,20 0,15 7,20 25,20 h 25 v 133 c 0,90 -4,137 -12,145 -17,17 -60,15 -108,-4 l -40,-16 v -129 -129 h 25 c 18,0 25,-5 25,-20 0,-19 -7,-20 -90,-20 -83,0 -90,1 -90,20 0,15 7,20 25,20 h 25 v 133 c 0,90 -4,137 -12,145 -17,17 -60,15 -108,-4 l -40,-16 v -130 -130 l 25,4 c 21,4 25,1 25,-18 0,-23 -2,-24 -85,-24 -84,0 -85,0 -85,25 0,14 3,24 8,24 31,-5 33,2 30,144 -3,139 -4,142 -25,145 -17,3 -23,10 -23,28 0,23 3,24 60,24 59,0 61,-1 66,-30 z m 1409,19 c 67,-18 98,-57 110,-141 l 7,-47 -138,-3 -139,-3 1,-39 c 1,-27 9,-46 28,-65 23,-22 35,-26 85,-26 42,0 64,5 78,18 30,26 63,22 63,-8 0,-29 -34,-49 -101,-59 -102,-15 -178,18 -217,94 -42,81 -18,202 49,252 46,34 111,44 174,27 z m 261,-19 6,-29 33,24 c 17,14 45,28 62,31 26,5 31,3 35,-18 7,-38 -1,-48 -38,-48 -19,0 -48,-7 -64,-15 l -30,-16 v -125 c 0,-113 2,-125 18,-123 33,3 42,-1 42,-21 0,-19 -7,-20 -89,-20 -50,0 -92,4 -96,9 -6,10 21,41 36,41 6,0 8,57 7,143 -3,139 -4,142 -25,145 -17,3 -23,10 -23,28 0,23 3,24 60,24 59,0 61,-1 66,-30 z m 394,22 c 42,-7 45,-9 51,-44 5,-33 3,-38 -13,-38 -11,0 -31,9 -45,20 -52,41 -147,15 -141,-38 3,-28 22,-38 123,-61 60,-15 83,-33 91,-76 18,-96 -70,-155 -207,-139 -71,8 -78,12 -81,54 -4,44 20,51 56,16 43,-44 150,-30 162,21 8,30 -10,51 -55,62 -20,5 -54,14 -77,20 -56,15 -79,43 -79,97 0,87 79,126 215,106 z M 5514,4856 c 120,-50 82,-226 -49,-226 -129,0 -169,174 -52,225 41,18 60,18 101,1 z M 3020,4675 v -165 h -74 -73 l -7,73 c -13,130 8,117 -192,117 h -174 v -180 -180 h 80 80 v 38 c 0,78 4,82 81,82 h 69 v -195 -195 h -69 -68 l -7,31 c -3,17 -6,47 -6,65 v 34 h -80 -80 v -170 -170 h 70 70 v -65 -65 h -245 -245 v 65 65 h 38 c 21,0 43,5 50,12 9,9 12,113 12,407 0,439 1,431 -67,431 h -33 v 65 65 h 435 435 z m 4844,149 c 14,-14 16,-71 16,-478 0,-346 3,-465 12,-474 7,-7 29,-12 50,-12 h 38 v -65 -65 h -215 -215 v 65 65 h 38 c 21,0 43,5 50,12 9,9 12,113 12,407 0,439 1,431 -67,431 h -33 v 65 65 h 149 c 123,0 152,-3 165,-16 z M 4990,4670 v -110 h 85 86 l -3,-67 -3,-68 -82,-3 -83,-3 v -253 c 0,-304 -2,-297 104,-304 l 66,-4 v -59 c 0,-56 -1,-59 -27,-66 -16,-4 -68,-7 -118,-8 -151,0 -222,42 -244,145 -6,29 -11,158 -11,300 v 250 h -50 -50 v 70 70 h 50 50 v 110 110 h 115 115 z M 3602,4540 c 29,-11 70,-33 90,-50 69,-57 118,-196 118,-337 v -53 h -281 -281 l 7,-32 c 16,-78 31,-114 65,-149 77,-80 233,-78 309,5 22,23 32,26 88,26 h 63 v -75 -75 l -40,-20 c -135,-69 -374,-76 -507,-15 -153,70 -233,244 -205,447 27,185 132,306 302,345 72,17 205,8 272,-17 z m 878,7 55,-12 3,-93 3,-92 h -64 c -57,0 -67,3 -80,24 -39,59 -199,76 -252,26 -21,-20 -25,-32 -23,-64 4,-52 36,-71 150,-92 137,-25 202,-50 241,-94 47,-52 65,-127 49,-212 -19,-104 -73,-160 -188,-195 -81,-24 -269,-23 -381,2 l -83,18 v 93 94 h 60 c 56,0 62,-2 99,-39 95,-95 281,-66 281,44 0,50 -36,81 -108,95 -125,23 -187,41 -228,65 -100,59 -123,235 -44,344 33,44 112,88 187,101 60,11 250,4 323,-13 z m 2742,-7 c 74,-27 122,-80 137,-149 6,-30 11,-151 11,-279 0,-245 1,-252 52,-252 27,0 28,-1 28,-55 0,-51 -2,-56 -27,-67 -39,-16 -162,-16 -200,1 -18,7 -42,29 -54,48 l -21,34 -27,-25 c -47,-45 -118,-69 -206,-70 -93,-1 -143,14 -191,57 -55,47 -78,100 -78,182 -2,135 72,217 221,245 64,13 218,9 256,-5 15,-6 17,0 17,64 0,64 -3,74 -29,103 -26,29 -35,33 -99,36 -78,5 -131,-8 -179,-44 -24,-18 -45,-24 -82,-24 h -51 v 85 84 l 68,21 c 147,45 350,49 454,10 z m -1651,-10 c 4,-14 7,-165 8,-336 1,-227 4,-313 13,-322 7,-7 29,-12 50,-12 h 38 v -65 -65 h -215 -215 v 65 65 h 38 c 21,0 43,5 50,12 9,9 12,82 12,268 0,186 -3,259 -12,268 -7,7 -29,12 -50,12 h -38 v 70 71 l 157,-3 157,-3 z m 529,-40 v -70 h -50 c -27,0 -50,-4 -50,-9 0,-10 159,-453 165,-459 5,-5 5,-6 91,227 35,96 64,184 64,196 0,29 -19,45 -52,45 h -28 v 70 70 h 175 176 l -3,-67 c -3,-66 -4,-68 -30,-71 -15,-2 -34,-13 -42,-24 -8,-11 -74,-166 -148,-344 l -133,-325 -99,3 -100,3 -131,326 c -71,179 -136,333 -144,343 -7,9 -24,16 -37,16 -23,0 -24,3 -24,70 v 70 h 200 200 z M 3068,3494 c 32,-9 30,-44 -4,-44 -44,0 -64,-17 -64,-55 0,-34 1,-35 40,-35 36,0 40,-2 40,-25 0,-22 -4,-25 -40,-25 h -40 v -145 -145 l 29,-6 c 22,-5 27,-10 24,-25 -5,-17 -15,-19 -88,-19 -73,0 -83,2 -88,19 -3,14 2,21 19,25 24,6 24,7 24,151 v 145 h -25 c -20,0 -25,5 -25,25 0,20 5,25 25,25 20,0 25,5 25,25 0,49 26,93 62,104 41,11 57,12 86,5 z m 382,-29 c 0,-21 -5,-25 -30,-25 -17,0 -30,-5 -30,-12 0,-19 78,-340 84,-345 3,-3 8,8 12,23 4,16 28,108 53,204 l 46,175 32,3 c 36,4 31,17 94,-223 23,-88 45,-166 48,-173 4,-7 26,64 49,159 23,94 39,175 36,180 -3,5 -16,9 -30,9 -19,0 -24,5 -24,25 0,25 1,25 85,25 82,0 85,-1 85,-23 0,-13 -9,-26 -22,-32 -18,-8 -29,-38 -64,-175 -24,-91 -50,-193 -60,-227 l -16,-63 h -44 c -40,0 -44,2 -52,33 -5,17 -26,98 -47,180 -21,81 -41,147 -45,147 -4,0 -28,-81 -55,-180 l -48,-180 h -43 c -50,0 -37,-32 -109,260 -33,130 -52,190 -66,202 -10,9 -19,26 -19,37 0,20 5,21 90,21 89,0 90,0 90,-25 z m 634,9 c 30,-29 10,-74 -33,-74 -14,0 -41,29 -41,45 0,7 7,21 16,29 8,9 22,16 29,16 7,0 21,-7 29,-16 z m 1766,-9 c 0,-21 -5,-25 -30,-25 -17,0 -30,-5 -30,-12 0,-19 78,-340 84,-345 3,-3 8,8 12,23 4,16 28,108 53,204 l 46,175 32,3 c 36,4 31,17 94,-223 23,-88 45,-166 48,-173 4,-7 26,64 49,159 23,94 39,175 36,180 -3,5 -16,9 -30,9 -19,0 -24,5 -24,25 0,25 1,25 85,25 82,0 85,-1 85,-23 0,-13 -9,-26 -22,-32 -18,-8 -29,-38 -64,-175 -24,-91 -50,-193 -60,-227 l -16,-63 h -44 c -40,0 -44,2 -52,33 -5,17 -26,98 -47,180 -21,81 -41,147 -45,147 -4,0 -28,-81 -55,-180 l -48,-180 h -43 c -50,0 -37,-32 -109,260 -33,130 -52,190 -66,202 -10,9 -19,26 -19,37 0,20 5,21 90,21 89,0 90,0 90,-25 z m 1028,-212 c 2,-216 4,-232 21,-238 10,-3 21,-15 24,-25 5,-19 0,-20 -83,-20 -83,0 -88,1 -83,20 3,10 14,22 24,25 18,6 19,19 19,216 v 209 h -25 c -20,0 -25,5 -25,25 0,25 1,26 63,23 l 62,-3 z m 200,68 3,-165 64,64 c 64,64 79,90 50,90 -9,0 -15,9 -15,25 0,25 1,25 80,25 79,0 80,0 80,-25 0,-17 -6,-25 -17,-25 -10,0 -43,-25 -74,-56 l -58,-57 59,-87 c 32,-48 66,-90 74,-93 9,-4 16,-16 16,-27 0,-17 -6,-20 -42,-20 -43,0 -43,1 -98,85 -30,47 -57,85 -60,85 -3,-1 -17,-12 -32,-25 -22,-19 -28,-33 -28,-65 0,-37 2,-41 23,-38 16,2 23,-3 25,-19 3,-22 1,-23 -82,-23 -78,0 -86,2 -86,19 0,11 9,23 20,26 19,6 20,15 20,216 v 209 h -25 c -20,0 -25,5 -25,25 0,25 1,26 63,23 l 62,-3 z m -2338,90 v -50 l 43,-3 c 34,-2 42,-7 42,-23 0,-16 -8,-21 -42,-23 l -43,-3 v -138 c 0,-151 4,-161 57,-161 26,0 33,-4 33,-19 0,-39 -111,-38 -147,1 -15,17 -18,42 -21,169 l -3,149 h -25 c -19,0 -24,5 -24,25 0,20 5,25 25,25 23,0 25,3 25,50 v 50 h 40 40 z m -2000,-76 c 62,-32 94,-90 94,-170 0,-118 -70,-188 -189,-189 -110,-1 -181,61 -192,168 -10,99 48,183 141,207 38,10 112,1 146,-16 z m 1358,-147 c 2,-153 4,-167 21,-173 10,-3 21,-15 24,-25 5,-19 0,-20 -79,-20 -76,0 -84,2 -84,19 0,11 9,23 20,26 20,6 20,13 18,148 -3,139 -4,142 -25,145 -17,3 -23,10 -23,28 0,24 2,25 63,22 l 62,-3 z m 208,143 6,-28 45,25 c 61,34 143,36 176,4 20,-21 22,-33 25,-167 3,-132 5,-145 23,-150 10,-4 19,-15 19,-26 0,-17 -8,-19 -85,-19 -78,0 -85,2 -85,20 0,15 7,20 25,20 h 25 v 129 c 0,104 -3,133 -16,145 -20,20 -63,20 -114,0 l -40,-16 v -129 -129 h 25 c 18,0 25,-5 25,-20 0,-18 -7,-20 -85,-20 -77,0 -85,2 -85,19 0,11 9,23 20,26 20,6 20,13 18,148 -3,139 -4,142 -25,145 -17,3 -23,10 -23,28 0,23 3,24 60,24 59,0 61,-1 66,-29 z m 795,18 c 53,-18 87,-56 98,-111 18,-84 28,-78 -130,-78 h -142 l 6,-42 c 3,-26 15,-51 31,-67 23,-22 35,-26 85,-26 42,0 64,5 78,18 30,26 63,22 63,-8 0,-64 -181,-86 -263,-31 -17,12 -42,41 -55,66 -42,81 -18,202 49,252 46,35 123,46 180,27 z m 254,-19 7,-30 32,25 c 18,14 47,28 64,31 31,6 32,6 32,-30 0,-35 -1,-36 -35,-36 -20,0 -49,-7 -65,-15 l -30,-16 v -125 -126 l 30,4 c 26,4 30,1 30,-19 0,-22 -2,-23 -90,-23 -82,0 -90,2 -90,19 0,11 9,23 20,26 20,6 20,13 18,148 -3,139 -4,142 -25,145 -17,3 -23,10 -23,28 0,23 3,24 59,24 58,0 60,-1 66,-30 z m 1276,9 c 36,-19 49,-70 49,-195 0,-107 1,-116 20,-121 27,-7 25,-39 -2,-47 -38,-10 -48,-7 -74,19 -25,25 -25,25 -50,6 -55,-43 -168,-34 -202,16 -25,39 -21,107 8,138 28,30 106,48 171,39 l 49,-7 v 39 c 0,22 -4,44 -8,51 -21,34 -110,38 -159,7 -36,-23 -53,-18 -53,15 0,30 18,41 90,55 37,7 138,-2 161,-15 z m 969,13 c 42,-7 45,-9 51,-44 5,-33 3,-38 -13,-38 -11,0 -31,9 -45,20 -52,41 -147,15 -141,-38 3,-28 22,-38 123,-61 60,-15 83,-33 91,-76 18,-96 -70,-155 -207,-139 -71,8 -78,12 -81,54 -4,44 20,51 56,16 43,-44 150,-30 162,21 8,30 -10,51 -55,62 -20,5 -54,14 -77,20 -56,15 -79,43 -79,97 0,87 79,126 215,106 z M 1666,2711 c -3,-5 1,-14 9,-21 9,-7 15,-29 15,-51 0,-27 4,-39 14,-39 8,0 20,-15 26,-34 6,-19 17,-37 25,-40 8,-3 15,-12 15,-20 0,-13 -4,-13 -29,1 -27,16 -30,16 -54,0 -41,-27 -50,-91 -23,-157 5,-12 -2,-15 -29,-16 -53,-1 -61,-15 -41,-68 22,-59 86,-130 150,-167 40,-23 45,-28 21,-23 -50,12 -108,40 -149,73 -21,17 -42,31 -45,31 -15,-1 -31,-18 -41,-45 -14,-36 1,-77 36,-100 21,-13 22,-18 12,-40 -9,-21 -8,-28 7,-45 10,-11 28,-20 39,-21 12,0 36,-6 55,-13 29,-10 32,-14 17,-19 -14,-5 -17,-15 -14,-37 3,-17 3,-30 0,-30 -2,0 -31,12 -63,26 -33,15 -62,24 -66,21 -10,-11 11,-89 27,-98 49,-25 98,-41 153,-52 l 62,-12 -51,-3 c -39,-2 -65,3 -105,22 l -54,25 -17,-20 c -48,-57 -1,-96 122,-101 59,-3 66,-5 65,-23 0,-13 8,-21 23,-23 12,-2 22,-9 22,-17 0,-19 -49,-75 -65,-75 -19,0 -27,-17 -20,-40 10,-32 73,-27 102,8 l 22,27 1,-35 c 0,-19 -7,-47 -14,-62 -13,-25 -13,-30 3,-49 15,-18 21,-20 39,-10 19,10 22,20 23,84 1,40 4,83 8,97 7,24 8,24 29,-16 20,-40 74,-94 92,-94 18,0 59,23 64,36 3,7 -10,22 -30,33 -34,20 -73,86 -74,124 0,24 7,22 48,-14 36,-32 106,-68 131,-69 23,0 51,31 51,56 0,15 -12,29 -43,47 -46,27 -84,64 -74,73 3,3 21,-6 40,-20 46,-35 115,-58 153,-51 38,7 56,38 52,91 -3,38 -5,40 -78,77 -41,21 -67,36 -58,33 81,-23 98,-25 121,-17 14,5 28,15 32,20 3,6 16,11 28,11 16,0 29,13 47,48 14,26 40,61 57,78 39,38 42,66 8,92 -26,20 -36,82 -14,82 15,0 51,87 47,114 -3,28 18,56 42,56 10,0 20,6 23,13 6,17 113,71 125,63 6,-3 15,1 22,9 7,8 16,15 21,15 11,0 12,-105 2,-215 l -6,-77 -45,-19 c -51,-22 -106,-62 -174,-128 -94,-89 -43,-110 87,-36 44,25 95,61 113,80 l 32,35 v -31 c 0,-18 -5,-60 -11,-94 -10,-51 -16,-64 -38,-74 -102,-47 -226,-120 -230,-136 -3,-16 2,-17 42,-12 l 45,6 -5,-39 c -4,-27 -2,-40 6,-40 25,0 81,30 119,64 45,41 52,43 52,19 -1,-45 -27,-65 -129,-103 -130,-48 -213,-103 -196,-131 4,-6 21,-9 39,-6 58,8 211,57 237,77 l 27,19 -8,-32 c -11,-44 -39,-107 -48,-107 -54,-3 -211,-20 -225,-25 -9,-4 -17,-18 -17,-31 0,-19 5,-24 28,-24 15,0 37,-3 50,-6 20,-6 21,-9 9,-23 -20,-22 -37,-79 -31,-96 4,-9 0,-15 -9,-15 -23,0 -77,-49 -77,-70 0,-38 26,-45 105,-26 41,10 86,27 100,37 22,18 25,19 25,4 0,-17 -30,-58 -90,-122 -33,-36 -63,-100 -56,-120 7,-18 45,-16 52,2 4,10 13,13 26,10 13,-5 30,5 60,34 22,23 41,41 43,41 1,0 5,-30 9,-67 8,-79 27,-113 54,-97 11,7 18,27 20,58 2,25 7,46 13,46 27,0 -11,132 -42,142 -6,2 -9,17 -7,33 l 4,30 12,-27 c 14,-33 150,-168 169,-168 27,0 11,32 -47,95 -86,93 -82,106 11,38 57,-41 79,-43 79,-7 0,28 -32,63 -133,144 -58,47 -68,71 -44,104 13,17 16,16 63,-17 87,-63 194,-98 194,-64 0,19 -26,40 -80,67 -25,13 -71,43 -102,68 -57,44 -58,46 -58,97 0,28 3,54 6,57 3,3 52,-23 110,-58 109,-67 154,-80 154,-44 0,42 -96,125 -214,185 l -38,20 6,74 c 3,41 6,90 7,110 v 36 l 17,-25 c 30,-45 159,-170 176,-170 41,0 13,41 -127,190 -42,45 -43,46 -45,125 l -3,80 28,-32 c 63,-73 189,-150 210,-130 12,13 -13,51 -82,128 -41,45 -92,92 -112,104 -35,19 -39,25 -45,75 -3,30 -6,98 -7,150 l -1,94 41,-39 c 23,-22 102,-109 177,-194 120,-137 136,-160 143,-200 8,-53 5,-61 -21,-61 -29,0 -60,-47 -60,-92 0,-55 46,-102 93,-95 25,3 39,-2 65,-24 18,-16 39,-29 47,-29 33,0 67,22 79,51 10,25 14,28 20,14 17,-45 5,-91 -45,-175 -79,-131 -129,-239 -129,-281 0,-41 32,-89 59,-89 25,0 79,56 107,112 13,26 36,93 50,149 22,84 26,117 22,193 -3,56 -10,102 -20,121 -14,26 -14,33 -3,49 13,17 16,15 57,-22 24,-22 68,-82 98,-134 54,-91 201,-258 228,-258 31,0 -6,181 -56,273 -35,66 -117,138 -205,182 -62,32 -78,36 -119,31 l -47,-7 6,56 c 5,49 3,59 -17,80 -27,29 -74,33 -107,10 -19,-13 -24,-11 -79,48 -33,34 -86,94 -119,132 -32,39 -97,109 -144,157 -97,99 -96,97 -18,181 21,23 51,63 65,89 36,63 54,62 70,-5 6,-29 12,-64 12,-78 0,-13 7,-35 16,-47 13,-19 22,-22 45,-17 l 30,7 -26,-38 c -35,-51 -33,-97 5,-136 18,-18 30,-40 30,-56 0,-34 37,-72 71,-72 14,0 32,-7 40,-16 17,-21 63,-44 88,-44 19,0 71,77 98,145 l 11,30 1,-29 c 1,-16 -10,-49 -24,-73 -20,-33 -24,-51 -19,-78 7,-41 18,-51 65,-60 31,-6 39,-3 52,15 15,21 15,21 27,-14 6,-20 21,-42 32,-50 18,-13 25,-13 49,0 48,24 61,55 68,161 l 7,98 8,-72 c 4,-39 5,-80 2,-90 -8,-24 12,-51 39,-53 43,-4 56,1 75,33 l 20,32 v -27 c 0,-39 10,-58 30,-58 32,0 50,12 66,42 20,38 6,111 -35,186 -35,62 -27,67 22,13 31,-34 35,-44 30,-78 -4,-32 -1,-45 19,-68 28,-32 53,-26 44,10 -3,13 -2,27 4,30 13,8 13,56 0,90 -9,24 -8,25 10,15 11,-6 20,-17 20,-24 0,-7 -16,-98 -36,-202 -19,-104 -38,-234 -41,-289 -3,-55 -12,-109 -19,-120 -7,-11 -23,-56 -35,-100 -26,-97 -42,-130 -82,-172 -17,-18 -26,-33 -20,-33 21,0 54,36 78,85 13,28 25,44 25,37 0,-18 -40,-99 -56,-113 -8,-6 -14,-16 -14,-22 0,-5 10,-2 21,9 17,15 14,4 -15,-53 -37,-75 -46,-100 -23,-68 12,15 13,9 11,-46 l -2,-64 14,39 c 21,57 27,58 21,1 l -6,-50 24,70 24,70 -2,-52 c -1,-28 1,-49 6,-46 4,2 7,41 7,85 0,94 10,99 15,7 3,-67 -15,-123 -59,-182 -44,-60 -62,-92 -46,-82 8,5 19,10 25,10 5,0 20,15 32,34 27,40 29,35 8,-16 -8,-20 -13,-38 -10,-41 2,-3 7,3 11,12 3,9 9,14 13,11 13,-7 40,62 51,130 6,35 17,88 24,117 14,52 14,53 25,25 8,-21 7,-36 -4,-65 -23,-60 -44,-143 -54,-212 -5,-36 -12,-74 -16,-85 -7,-20 -6,-20 9,-1 9,11 17,31 18,45 0,14 4,6 7,-19 5,-35 2,-53 -12,-78 -11,-18 -17,-36 -13,-39 3,-4 6,-2 6,3 0,5 11,22 24,37 l 24,28 5,-23 c 3,-17 5,-13 6,11 0,19 4,31 8,27 4,-4 6,-38 5,-74 -3,-56 -8,-72 -30,-96 l -27,-30 28,17 c 20,13 27,14 28,5 0,-9 2,-8 6,2 3,8 13,22 22,31 15,16 16,12 15,-50 -1,-37 -6,-76 -13,-88 -16,-32 -14,-50 4,-27 15,18 16,17 11,-16 l -6,-35 12,30 c 6,16 18,36 26,44 8,8 21,29 28,46 7,16 14,23 14,15 0,-8 7,-53 13,-100 l 13,-85 17,51 c 12,38 14,59 7,84 -13,44 -6,49 11,8 7,-18 13,-57 13,-88 -1,-30 1,-49 3,-42 3,6 9,10 14,6 5,-3 9,9 9,27 v 31 l 20,-23 c 27,-33 25,-11 -4,31 -13,19 -26,46 -30,60 -5,16 2,10 19,-18 14,-23 28,-42 31,-42 10,0 2,20 -31,74 -19,32 -35,66 -35,75 0,9 25,-33 54,-92 30,-59 56,-102 59,-95 3,7 6,4 6,-7 1,-11 6,-27 12,-35 8,-11 9,-3 4,30 -6,42 -23,81 -70,155 -18,30 -18,30 21,-6 64,-58 105,-89 117,-89 7,0 -6,16 -28,35 l -40,35 48,-21 c 75,-32 79,-16 4,19 -62,29 -90,49 -49,36 9,-4 4,5 -13,20 l -30,27 53,-26 c 58,-28 136,-43 145,-27 4,5 -11,12 -36,14 -23,3 -58,12 -77,20 l -34,14 51,-2 c 61,-1 81,19 30,31 l -32,8 38,7 c 57,11 56,20 -4,21 l -54,1 55,10 c 30,6 70,11 89,11 30,0 32,2 15,14 -10,7 -12,13 -6,13 7,0 12,3 12,8 0,4 -30,8 -66,8 -51,1 -68,5 -79,20 -21,28 -18,34 18,34 17,0 39,5 47,10 11,7 5,10 -25,10 -33,1 -36,3 -19,10 12,5 25,14 30,21 5,9 2,10 -11,6 -10,-4 -36,-12 -59,-18 -39,-10 -45,-8 -101,26 -33,19 -84,43 -113,52 -29,10 -58,25 -63,34 -7,13 14,7 77,-23 48,-22 102,-49 121,-60 18,-11 36,-18 40,-15 3,4 -7,12 -23,19 l -28,13 39,6 40,5 -60,13 c -102,23 -283,121 -222,121 8,0 54,-19 102,-42 57,-27 104,-42 138,-45 52,-4 52,-4 -33,25 -119,40 -141,54 -70,46 30,-4 66,-14 80,-23 22,-15 24,-15 18,1 -5,12 1,19 23,27 44,15 35,22 -20,15 -31,-4 -56,-2 -67,5 -16,10 -11,11 25,7 30,-3 40,-1 30,5 -7,5 -22,9 -31,9 -10,0 -15,5 -12,13 3,10 -11,17 -48,26 -81,18 -95,33 -27,28 55,-3 57,-3 54,20 -2,20 0,21 14,11 9,-7 13,-8 9,-4 -4,5 -3,15 3,23 9,10 8,13 -5,13 -10,0 -15,4 -12,9 6,10 -28,43 -64,62 l -25,13 25,8 c 15,4 -5,6 -48,3 -64,-5 -78,-2 -105,16 -45,31 -57,48 -57,82 0,29 0,30 20,12 11,-10 20,-23 20,-30 0,-6 7,-20 15,-31 14,-18 15,-17 10,11 l -6,30 15,-30 c 10,-20 15,-24 15,-12 2,29 18,19 26,-15 7,-29 9,-30 12,-10 5,26 11,27 42,5 14,-9 21,-11 17,-5 -9,15 -1,15 44,2 32,-9 33,-8 16,5 -11,8 -14,15 -7,15 25,0 -1,19 -34,26 -26,5 -44,18 -69,53 -19,25 -46,57 -60,70 -14,14 -26,31 -26,38 0,7 -13,43 -29,78 -17,36 -26,65 -22,65 4,0 27,-37 51,-82 41,-78 124,-178 147,-178 6,0 -9,21 -33,48 -39,41 -130,182 -119,182 3,0 31,-40 64,-89 58,-85 101,-131 125,-131 6,0 -3,12 -21,26 -18,14 -58,64 -89,111 -31,47 -72,103 -91,124 l -34,38 20,118 c 51,296 52,299 74,299 14,-1 24,8 31,26 8,23 6,33 -14,60 -20,28 -21,30 -4,24 48,-20 54,-19 67,13 l 13,31 1,-48 c 1,-81 52,-152 125,-174 73,-22 193,14 281,84 32,25 40,28 54,17 13,-12 21,-8 51,26 45,52 62,93 69,171 3,36 11,64 17,64 17,0 110,-45 150,-73 l 36,-24 -25,-23 c -14,-13 -28,-40 -31,-60 -6,-34 -7,-35 -43,-32 -31,3 -43,-1 -68,-27 -31,-30 -49,-85 -38,-113 5,-13 1,-14 -34,-5 -22,6 -43,8 -46,5 -4,-3 10,-30 29,-58 20,-29 33,-56 31,-61 -3,-5 -26,-6 -50,-2 -44,6 -56,-2 -34,-24 7,-7 -7,-12 -48,-16 -61,-7 -153,-34 -153,-46 0,-3 10,-11 23,-16 44,-20 33,-50 -35,-101 -35,-26 -79,-54 -99,-63 l -37,-17 25,-22 c 21,-19 25,-29 20,-59 -8,-46 -47,-103 -88,-127 -40,-23 -31,-29 76,-46 88,-15 125,-40 125,-84 v -26 l 60,40 c 61,38 111,57 129,46 5,-3 32,10 60,29 29,19 58,32 66,29 8,-4 20,-24 27,-45 6,-22 15,-36 19,-32 4,4 17,49 29,98 12,50 28,100 36,112 19,30 54,31 54,2 0,-32 -19,-59 -40,-59 -26,0 -25,-12 0,-28 14,-8 20,-23 20,-48 0,-48 -13,-70 -62,-100 l -41,-26 31,-14 c 21,-8 32,-20 32,-33 0,-24 -44,-60 -83,-68 l -30,-6 23,-17 c 34,-25 21,-62 -35,-97 -25,-15 -45,-31 -45,-34 0,-11 86,-29 135,-29 25,0 68,9 95,21 60,26 95,23 94,-8 0,-13 2,-23 5,-23 3,0 35,45 71,99 36,55 67,97 70,95 3,-3 10,-24 16,-47 l 11,-42 28,58 c 15,32 30,82 34,112 9,63 26,88 53,79 17,-5 18,-3 9,14 -32,60 11,112 64,78 14,-9 25,-15 25,-13 0,2 -9,51 -21,107 -20,97 -20,105 -4,116 15,11 14,16 -14,55 -41,55 -40,66 5,61 29,-4 38,-10 47,-35 10,-29 11,-30 18,-9 6,15 17,22 34,22 20,0 33,-11 58,-52 32,-50 32,-51 37,-23 3,15 13,33 22,39 37,23 160,-46 193,-108 22,-40 35,-46 35,-16 0,12 10,25 26,32 25,12 30,11 98,-17 15,-7 17,-5 12,12 -8,26 11,46 74,78 61,31 70,45 31,45 -43,0 -67,38 -52,81 6,18 10,33 9,34 -2,1 -27,15 -56,30 -80,43 -91,83 -30,104 37,13 43,9 29,-17 -6,-12 -11,-30 -11,-42 v -21 l 23,21 c 20,19 22,20 26,4 3,-17 24,-44 34,-44 3,0 8,10 11,23 8,24 8,23 32,-38 6,-16 9,-11 13,23 l 6,44 20,-34 c 25,-42 34,-15 10,31 -12,24 -13,31 -2,31 7,0 19,-6 26,-12 10,-11 11,-8 7,15 -3,15 -8,39 -11,55 -3,15 -8,36 -11,47 -5,20 -5,20 10,1 9,-11 16,-29 16,-40 0,-16 2,-18 9,-7 5,8 7,21 3,29 -3,10 -1,13 6,8 6,-3 14,-35 18,-69 l 8,-62 19,84 c 13,59 22,80 30,72 7,-7 7,-37 -2,-103 -7,-51 -14,-101 -15,-110 -1,-10 -10,-26 -20,-37 -17,-19 -17,-19 3,-14 12,3 21,1 21,-3 -1,-13 -68,-54 -88,-54 -14,-1 -14,-3 3,-13 33,-20 29,-37 -8,-37 -18,0 -42,-7 -53,-15 -17,-13 -12,-14 55,-15 h 74 l -24,-26 -24,-27 25,13 25,12 -20,-21 c -19,-19 -25,-20 -75,-11 -41,8 -62,7 -84,-2 -29,-12 -29,-12 40,-29 38,-9 62,-19 54,-22 -8,-2 -34,-10 -57,-17 -51,-16 -57,-28 -10,-23 l 32,4 -25,-20 c -14,-11 -29,-21 -34,-21 -5,0 -3,-6 3,-14 10,-11 8,-17 -6,-26 -15,-9 -13,-10 12,-5 l 30,6 -34,-25 -35,-26 h 35 c 19,0 55,11 80,23 29,14 45,18 42,10 -3,-7 -15,-15 -26,-18 -45,-13 -127,-50 -127,-58 0,-5 15,-6 33,-2 l 32,7 -40,-28 c -31,-22 -36,-29 -22,-32 10,-2 31,1 47,7 17,5 30,8 30,5 0,-2 -13,-23 -30,-46 -40,-54 -38,-65 6,-39 l 37,22 -6,-23 c -4,-12 -4,-33 0,-46 5,-23 6,-23 35,10 l 29,33 -4,-47 c -3,-27 -3,-48 0,-48 8,0 43,86 44,110 l 1,25 8,-25 c 4,-14 9,-41 10,-60 l 2,-35 15,34 c 9,22 12,47 8,68 -4,24 -1,38 10,49 13,14 15,14 15,0 0,-8 5,-18 11,-22 8,-5 10,3 7,25 -4,29 -1,34 38,57 23,14 48,31 54,39 7,8 16,15 21,15 17,0 8,-33 -30,-113 -22,-45 -43,-93 -46,-107 l -6,-25 20,23 c 11,13 30,36 41,50 l 20,27 -6,-45 c -4,-25 -13,-65 -21,-88 -16,-49 -12,-62 13,-41 15,12 16,10 10,-31 -4,-25 -10,-53 -12,-63 -12,-40 8,-12 40,58 19,41 37,75 39,75 2,0 -8,-37 -23,-82 -50,-151 -48,-198 5,-121 27,40 104,229 106,260 1,10 5,0 9,-22 7,-34 4,-47 -20,-90 -34,-60 -124,-284 -118,-291 3,-2 22,20 43,51 21,30 39,54 41,53 1,-2 -13,-48 -31,-103 -18,-55 -35,-113 -39,-130 l -6,-30 25,30 c 14,17 43,64 65,105 36,69 39,72 40,43 0,-18 -7,-74 -16,-123 -8,-50 -14,-111 -12,-138 l 3,-47 17,50 c 9,28 28,80 41,118 l 24,67 6,-66 c 3,-47 10,-70 21,-76 9,-5 16,-16 16,-23 0,-8 4,-15 8,-15 5,0 14,48 21,107 l 14,108 14,-40 c 8,-22 20,-71 27,-110 l 13,-70 8,49 c 10,63 -1,182 -25,258 -10,33 -17,58 -14,56 19,-19 90,-141 101,-173 13,-40 13,-40 10,30 -5,81 -35,152 -116,275 -66,98 -65,111 2,22 55,-74 73,-74 36,0 l -21,43 51,-55 c 55,-58 61,-49 20,32 -11,21 -19,45 -19,55 0,24 -35,115 -67,178 -14,28 -30,65 -34,84 l -8,35 24,-30 c 13,-16 38,-55 56,-87 17,-32 33,-56 36,-54 2,3 -9,46 -26,95 -17,49 -31,96 -31,103 0,20 35,-40 44,-74 5,-22 10,-26 20,-18 9,8 17,2 30,-25 19,-41 32,-41 16,0 -5,15 -10,35 -9,44 0,9 10,-10 22,-43 13,-33 28,-69 35,-80 10,-18 11,-16 12,18 0,34 -27,159 -46,214 -6,14 -4,15 6,6 6,-6 18,-42 26,-80 15,-69 63,-213 72,-213 2,0 2,21 -1,48 l -5,47 28,-62 c 16,-34 31,-71 35,-83 3,-11 10,-20 14,-20 8,0 0,67 -15,124 -11,44 9,25 50,-47 20,-34 45,-73 56,-87 18,-22 17,-15 -9,58 l -29,84 27,-25 c 25,-23 71,-42 71,-29 0,4 -9,21 -21,37 -11,17 -27,43 -35,58 -15,28 -15,28 6,17 12,-6 40,-28 63,-48 l 41,-37 -31,45 c -32,46 -69,84 -113,114 l -25,17 40,-6 c 22,-4 50,-13 62,-21 34,-21 39,-17 12,12 -29,31 -63,49 -149,80 -55,20 -59,23 -25,18 38,-5 39,-4 21,10 -19,15 -18,16 15,16 l 34,1 -30,16 c -16,9 -41,27 -55,41 -14,13 -51,42 -83,64 -32,22 -56,42 -54,44 7,7 73,-22 81,-35 4,-6 12,-11 18,-11 20,0 -44,59 -107,101 -68,44 -65,52 4,13 l 46,-25 -58,55 c -54,52 -56,56 -32,56 15,0 35,-5 47,-11 11,-6 22,-9 24,-6 8,8 -86,66 -119,72 -40,9 -83,45 -65,56 9,6 4,14 -15,29 -15,12 -32,31 -38,42 -10,18 -8,19 11,13 32,-10 16,11 -23,31 -18,9 -42,26 -55,37 -28,26 -15,37 48,37 42,1 44,2 26,15 -29,22 -6,18 32,-5 30,-19 32,-19 23,-2 -5,10 -31,37 -58,60 -26,24 -70,65 -98,92 -27,27 -73,67 -102,87 -92,68 -163,128 -153,131 5,2 19,-3 32,-11 43,-28 65,-30 71,-6 5,19 10,21 44,15 21,-4 47,-10 58,-13 16,-4 18,-3 8,8 -18,18 -16,49 2,49 8,0 19,-17 26,-42 20,-75 20,-75 35,-40 8,20 18,31 25,26 24,-15 49,-90 49,-151 0,-59 11,-81 24,-48 11,29 37,2 53,-55 10,-39 22,-60 34,-63 16,-4 28,-34 44,-109 3,-16 9,-28 13,-28 11,0 67,99 83,145 18,53 18,53 39,25 l 20,-25 v 49 c 0,31 -8,65 -22,93 -20,40 -21,45 -5,60 13,14 21,14 42,5 33,-15 32,-3 -5,56 -16,27 -30,52 -30,55 0,4 14,5 31,3 16,-2 66,3 111,10 l 80,14 52,-47 c 28,-26 57,-59 65,-73 10,-18 4,-15 -22,13 -37,39 -44,42 -66,28 -10,-7 -24,-2 -44,15 -34,28 -54,30 -79,7 -39,-35 -6,-125 51,-138 17,-4 31,-10 31,-14 0,-5 20,-19 45,-32 34,-18 41,-26 29,-32 -9,-5 -26,-1 -47,12 -70,45 -76,46 -113,26 -66,-36 -56,-110 18,-121 38,-7 40,-8 18,-16 -14,-5 -35,-6 -47,-3 -26,6 -68,-28 -59,-50 3,-8 -2,-28 -10,-44 -23,-46 -11,-54 65,-48 36,3 76,9 89,13 18,5 12,-4 -24,-40 -27,-26 -57,-46 -69,-46 -33,0 -59,-33 -46,-59 11,-20 49,-51 63,-51 4,0 14,12 22,28 l 15,27 1,-36 c 0,-39 15,-59 42,-59 14,0 18,8 18,38 0,51 15,73 24,36 10,-39 70,-96 85,-81 18,18 13,65 -9,87 -17,17 -20,28 -14,70 8,59 24,57 24,-3 2,-115 73,-194 124,-138 14,15 15,24 7,40 -15,28 -14,29 15,23 30,-6 71,14 79,39 3,10 -7,36 -24,61 -30,44 -55,98 -46,98 2,0 12,-14 20,-31 9,-16 32,-48 52,-70 29,-32 42,-39 73,-39 50,0 64,19 57,74 -6,40 -5,44 14,39 28,-8 69,33 69,69 0,30 -21,55 -79,91 -19,12 -37,29 -39,37 -4,13 -2,12 14,-1 21,-19 110,-59 129,-59 18,0 43,32 56,71 7,19 20,43 30,54 22,25 28,77 11,98 -9,11 -10,22 -2,42 6,15 8,35 5,44 -4,12 9,24 48,44 30,15 64,27 76,27 19,0 20,-2 10,-22 -7,-13 -22,-31 -35,-40 -18,-15 -22,-28 -22,-76 0,-33 4,-65 8,-72 4,-7 1,-24 -8,-39 -13,-23 -13,-31 -1,-56 8,-17 24,-34 36,-40 17,-7 21,-15 16,-38 -7,-33 31,-81 57,-72 8,4 2,-7 -14,-24 -32,-33 -82,-55 -91,-40 -9,13 -69,11 -83,-3 -22,-22 -14,-67 13,-80 22,-10 29,-8 53,14 26,25 64,48 77,48 3,0 -9,-21 -27,-46 -39,-55 -177,-188 -270,-261 l -67,-52 5,47 c 4,47 -11,92 -33,99 -18,6 -53,-34 -53,-62 0,-18 9,-31 30,-43 16,-9 30,-22 30,-29 0,-14 -116,31 -145,57 -32,28 -63,34 -90,16 -31,-21 -31,-31 1,-63 23,-23 30,-25 82,-18 l 57,7 -25,-25 c -14,-14 -31,-32 -38,-41 -7,-9 -28,-16 -47,-16 -64,0 -91,-82 -29,-88 35,-3 64,18 64,49 0,15 7,19 39,19 22,0 44,6 51,15 12,14 50,21 50,9 0,-13 -107,-106 -136,-119 -32,-13 -63,-73 -49,-95 3,-5 -1,-20 -9,-32 -23,-32 -20,-53 10,-67 22,-10 31,-9 52,6 59,43 64,43 85,16 l 21,-26 24,29 c 33,38 26,21 -23,-54 -23,-35 -47,-62 -57,-62 -27,0 -58,-48 -58,-91 0,-45 14,-50 54,-18 l 26,20 v -26 c 0,-40 28,-44 60,-8 23,25 28,42 33,106 7,98 15,109 38,57 15,-33 17,-50 10,-82 -10,-44 -2,-76 23,-97 14,-12 19,-11 36,4 30,27 36,80 14,111 -45,63 -55,83 -80,158 -34,102 -32,217 7,286 27,50 192,194 168,147 -8,-15 -30,-35 -49,-45 -68,-34 -79,-103 -18,-110 31,-4 68,38 68,75 0,14 9,36 20,50 l 20,26 v -99 -99 l -43,-43 c -23,-24 -58,-51 -77,-60 -46,-22 -70,-64 -52,-92 6,-11 12,-31 12,-45 0,-20 5,-25 24,-25 27,0 86,60 86,88 0,9 8,26 17,37 15,19 15,18 10,-18 -3,-20 -15,-49 -26,-64 -25,-31 -27,-75 -5,-94 32,-27 86,42 66,86 -10,22 6,165 18,165 3,0 25,-19 49,-42 39,-39 42,-46 37,-79 -8,-52 24,-93 65,-84 22,5 29,3 29,-8 0,-9 4,-17 10,-19 5,-1 20,-23 33,-48 13,-25 28,-44 33,-44 28,4 39,91 17,127 -10,16 -12,97 -4,119 14,37 44,-79 36,-136 -8,-52 4,-80 44,-100 36,-19 51,-6 51,47 0,29 -7,46 -27,66 -33,32 -79,171 -61,182 7,4 18,-6 27,-24 19,-38 43,-45 76,-23 30,20 32,47 5,71 -16,14 -31,17 -79,12 l -60,-5 -35,43 c -37,45 -34,55 15,55 11,0 34,7 51,16 22,11 33,13 41,5 17,-17 52,-13 69,7 23,26 21,117 -3,138 -17,15 -20,16 -44,0 -17,-11 -25,-26 -25,-45 0,-47 -60,-84 -156,-96 -41,-6 -59,-2 -116,24 l -68,30 v 43 c 0,24 -2,59 -5,78 -5,30 0,41 34,77 l 38,43 21,-57 c 15,-40 18,-61 11,-69 -18,-22 -13,-74 9,-97 21,-20 22,-20 42,-2 25,23 26,61 0,100 -11,17 -20,39 -20,50 -1,11 -7,38 -15,60 -14,39 -13,42 18,102 18,37 39,63 48,63 8,0 24,6 34,14 17,12 21,12 32,-3 7,-9 13,-27 13,-40 0,-43 56,-81 75,-52 3,5 17,-1 32,-15 29,-26 49,-31 56,-11 4,10 7,9 18,0 20,-20 37,-15 53,15 8,15 15,22 16,17 0,-6 -7,-20 -15,-32 -13,-19 -13,-23 1,-37 23,-24 52,-19 68,11 15,27 15,27 16,5 0,-14 7,-26 18,-29 10,-2 22,-14 27,-26 13,-28 36,-28 50,0 10,19 12,20 22,5 8,-14 14,-15 36,-5 29,13 36,53 17,83 -8,12 -3,16 23,20 28,4 32,9 35,38 2,18 -1,32 -7,32 -20,0 -12,18 28,64 22,25 41,40 43,34 2,-6 18,13 35,43 52,92 66,87 17,-5 -25,-48 -43,-90 -40,-93 8,-8 11,-5 47,58 17,30 28,45 25,34 -5,-15 2,-11 24,13 16,18 30,28 30,23 0,-6 -15,-47 -33,-93 -46,-114 -70,-188 -63,-195 3,-3 -4,-21 -15,-40 -32,-52 -5,-39 36,17 21,28 39,49 41,47 14,-13 -25,-62 -105,-131 -98,-85 -120,-117 -45,-65 40,27 44,28 34,10 -19,-36 -6,-46 19,-15 12,16 34,45 49,64 15,19 33,36 40,37 6,2 -9,-24 -35,-57 -25,-33 -43,-63 -40,-66 3,-4 15,4 26,17 63,76 71,83 64,65 -7,-21 6,-17 40,13 17,15 18,14 12,-14 -29,-125 -33,-135 -96,-206 C 8757,1619 8440,1343 8210,1180 7570,726 6780,412 5960,286 c -353,-54 -445,-61 -900,-61 -455,0 -547,7 -900,61 -926,142 -1798,518 -2480,1069 -111,90 -370,322 -370,332 0,2 9,1 21,-2 32,-10 133,-23 141,-18 4,2 -8,27 -28,56 -26,38 -34,59 -30,78 3,18 -3,38 -20,63 -30,43 -37,90 -14,91 26,0 22,14 -14,46 -38,32 -76,102 -76,137 0,25 3,26 32,11 31,-17 31,-6 0,47 -16,27 -44,75 -63,108 -19,32 -59,81 -89,108 l -55,50 64,-5 64,-5 -54,53 c -49,49 -120,159 -108,168 2,3 30,-1 63,-7 l 58,-11 -6,-57 c -7,-60 0,-73 22,-38 14,22 37,26 48,8 4,-6 6,-27 6,-47 -2,-41 25,-131 39,-131 5,0 9,8 9,18 0,33 12,32 50,-2 39,-35 128,-91 135,-85 2,2 -3,29 -11,59 -18,69 -18,87 1,97 13,7 13,17 3,64 -14,70 -7,92 27,83 25,-6 25,-5 14,20 -7,14 -10,27 -8,29 2,1 27,12 54,24 53,22 90,29 81,14 z m 2014,5 c 0,-3 -4,-8 -10,-11 -5,-3 -10,-1 -10,4 0,6 5,11 10,11 6,0 10,-2 10,-4 z m 170,-23 c -18,-50 -33,-73 -47,-73 -7,0 -16,-7 -19,-15 -4,-8 -10,-15 -15,-15 -5,0 2,15 15,34 12,19 29,48 36,65 16,40 44,44 30,4 z m 568,4 c 2,-10 -10,-28 -30,-45 -59,-49 -98,-96 -125,-152 -15,-30 -28,-56 -29,-58 -1,-2 -12,6 -24,18 -13,13 -28,19 -39,15 -17,-5 -17,-2 0,87 10,51 19,99 19,106 0,8 15,12 43,11 23,0 67,8 97,19 65,23 84,23 88,-1 z m 366,11 c -15,-7 -28,-7 -40,1 -16,9 -12,10 21,10 35,0 37,-2 19,-11 z m 81,-55 c 4,-38 11,-75 16,-84 8,-15 5,-15 -36,0 -39,14 -45,20 -45,43 0,16 0,31 -1,36 0,4 10,10 23,13 17,4 23,12 23,32 -1,54 14,25 20,-40 z m 1273,-7 c 42,-40 41,-61 -6,-85 -45,-23 -77,-55 -46,-46 10,4 7,-1 -8,-10 -37,-21 -35,-26 5,-19 22,3 14,-3 -28,-20 -38,-16 -52,-25 -37,-25 39,-2 23,-21 -17,-21 -22,0 -43,-4 -46,-10 -4,-6 8,-10 28,-10 19,0 49,-3 66,-6 27,-6 30,-9 19,-22 -11,-14 -10,-15 7,-8 16,6 17,5 8,-5 -10,-10 -24,-10 -64,-1 -86,20 -113,14 -44,-11 l 60,-22 -45,-6 c -39,-5 -42,-7 -21,-14 l 23,-8 -23,-13 c -13,-7 -18,-13 -10,-14 11,0 11,-3 0,-17 -13,-15 -11,-16 16,-10 l 30,7 -28,-15 c -33,-19 -26,-37 11,-30 l 27,5 -29,-14 c -58,-27 -163,17 -159,67 2,30 -16,37 -104,37 -76,0 -93,6 -93,34 0,14 11,26 33,36 19,9 34,25 37,40 5,19 19,29 70,49 54,20 79,38 143,103 43,44 89,98 103,119 l 25,40 32,-22 c 18,-12 47,-36 65,-53 z m 166,65 c 3,-4 -6,-6 -19,-3 -14,2 -25,6 -25,8 0,8 39,4 44,-5 z m 2476,5 c 0,-2 -16,-38 -36,-81 -19,-42 -34,-79 -31,-81 2,-2 24,27 48,66 24,39 49,79 56,88 20,30 25,5 9,-49 -19,-62 -18,-59 -7,-59 6,0 18,25 27,55 11,34 21,50 25,43 6,-9 10,-8 15,5 3,9 10,17 14,17 18,0 -16,-80 -72,-173 -33,-54 -58,-100 -55,-103 2,-3 22,17 43,43 21,26 42,53 47,58 9,9 6,-23 -9,-99 -5,-22 -3,-27 7,-20 7,4 -13,-26 -45,-67 -32,-41 -63,-74 -69,-74 -8,0 -11,20 -9,54 3,75 -35,116 -68,76 -23,-28 -22,-7 1,24 20,27 21,33 9,60 -7,17 -16,31 -20,31 -5,0 -6,9 -3,19 7,28 -15,88 -40,108 -14,11 -21,27 -19,41 3,21 8,22 93,22 49,0 89,-2 89,-4 z m -4677,-34 c 59,-5 67,-14 51,-56 -8,-20 -51,-1 -59,26 -8,24 -52,24 -79,0 -12,-10 -34,-24 -50,-31 -30,-12 -29,-12 10,32 24,28 45,43 54,40 8,-3 41,-8 73,-11 z m 4807,-142 c -11,-25 -18,-36 -16,-25 32,148 30,142 34,105 2,-21 -6,-54 -18,-80 z m 208,57 c 17,-17 32,-26 32,-21 0,7 24,6 68,-3 66,-14 193,-13 240,2 20,7 17,-2 -28,-81 -28,-49 -90,-147 -137,-217 l -86,-128 -31,53 c -68,113 -119,212 -126,244 -4,19 -7,34 -5,34 2,0 27,-44 55,-97 58,-109 58,-109 66,-101 6,6 -18,60 -56,125 l -22,38 31,-35 c 17,-19 31,-38 31,-42 0,-4 5,-8 12,-8 6,0 20,-7 30,-17 39,-35 28,-2 -14,44 -25,26 -56,68 -70,93 -73,131 -88,161 -79,155 6,-3 11,-1 11,5 0,15 38,-5 78,-43 z m -4120,-45 3,-63 -49,28 -49,27 28,29 c 16,16 29,33 29,39 0,5 8,8 18,6 14,-3 18,-16 20,-66 z m -868,-50 c -4,-23 -10,-45 -13,-49 -3,-3 -32,-1 -64,4 l -58,9 45,23 c 25,13 56,32 69,43 13,10 25,17 27,16 1,-2 -1,-22 -6,-46 z m 2306,7 c 51,-21 69,-43 27,-33 -37,9 -100,41 -109,55 -8,13 17,6 82,-22 z M 800,2449 c 75,-16 135,-46 155,-75 15,-23 15,-27 -4,-58 -14,-23 -17,-36 -10,-43 7,-7 8,-36 3,-82 l -7,-71 -45,62 c -53,73 -171,253 -178,273 -4,9 0,12 13,10 10,-2 43,-9 73,-16 z m 4303,7 c 4,-10 1,-13 -9,-9 -15,6 -19,23 -5,23 5,0 11,-7 14,-14 z M 998,2413 c -18,-43 -26,-48 -33,-20 -8,32 0,47 25,47 17,0 18,-3 8,-27 z m 4150,-13 c -2,-7 -10,1 -17,16 -12,27 -11,28 4,12 10,-9 16,-21 13,-28 z m -4071,-42 c -3,-8 -6,-5 -6,6 -1,11 2,17 5,13 3,-3 4,-12 1,-19 z m 4080,0 c -3,-8 -6,-5 -6,6 -1,11 2,17 5,13 3,-3 4,-12 1,-19 z m 201,-7 c 10,-6 6,-11 -17,-19 -29,-10 -31,-10 -21,8 12,22 18,24 38,11 z m -4271,-33 c -3,-8 -6,-5 -6,6 -1,11 2,17 5,13 3,-3 4,-12 1,-19 z m 8048,-92 c 56,-97 56,-99 38,-118 -19,-19 -20,-18 -55,64 -31,71 -60,174 -45,158 3,-3 30,-49 62,-104 z m -8016,-31 c -2,-17 -27,69 -27,90 0,11 6,-2 14,-30 7,-27 13,-54 13,-60 z m 5268,18 c -3,-10 -5,-2 -5,17 0,19 2,27 5,18 2,-10 2,-26 0,-35 z m 2552,-17 c -29,-50 -31,-45 -6,15 12,29 23,45 25,37 2,-9 -7,-32 -19,-52 z m -3839,4 c 0,-34 -3,-36 -58,-48 -38,-9 -41,-8 -32,8 6,10 10,29 10,42 0,21 5,24 40,25 38,2 40,0 40,-27 z m 975,20 c -3,-5 -16,-10 -28,-9 -21,0 -21,1 -2,9 28,12 37,12 30,0 z m -887,-131 c 8,-31 7,-39 -6,-44 -8,-3 -15,-4 -16,-3 -1,2 -11,23 -23,47 -26,50 -22,65 11,49 16,-7 28,-24 34,-49 z m 148,-16 c -3,-8 -6,-21 -6,-30 0,-9 -8,-13 -22,-11 -30,4 -61,94 -37,109 18,12 73,-46 65,-68 z m 247,43 c 63,-31 250,-144 266,-162 8,-10 -3,-4 -100,54 -47,28 -123,71 -170,96 -100,54 -98,60 4,12 z m 3557,-49 c 0,-6 -9,2 -20,18 -11,17 -20,37 -20,45 0,8 9,0 20,-18 11,-18 20,-38 20,-45 z m -3901,22 c 13,-39 14,-42 2,-35 -13,8 -32,66 -21,66 4,0 13,-14 19,-31 z m 1496,-7 c -3,-3 -11,0 -18,7 -9,10 -8,11 6,5 10,-3 15,-9 12,-12 z m 2371,-60 c -15,-15 -16,-13 -16,23 0,39 0,39 16,16 15,-21 15,-24 0,-39 z m -136,44 c 0,-2 -8,-10 -17,-17 -16,-13 -17,-12 -4,4 13,16 21,21 21,13 z M 4915,1912 c -80,-76 -385,-281 -385,-259 0,2 36,25 79,50 94,55 261,179 315,236 22,22 42,38 45,35 3,-3 -21,-31 -54,-62 z m 4135,54 c 0,-8 -11,-28 -25,-43 -19,-22 -24,-24 -25,-10 0,9 4,17 10,17 5,0 12,11 16,25 7,27 24,34 24,11 z M 6067,1864 c -3,-3 -12,-4 -19,-1 -8,3 -5,6 6,6 11,1 17,-2 13,-5 z m -830,-103 c -11,-134 -84,-298 -178,-401 -35,-39 -33,-35 12,25 88,118 159,299 159,407 0,21 3,38 6,38 4,0 4,-31 1,-69 z m 1688,31 c -3,-3 -16,5 -28,17 l -22,23 28,-17 c 15,-10 25,-20 22,-23 z m -383,-66 c -11,-19 -21,23 -15,60 l 7,39 7,-45 c 3,-25 4,-49 1,-54 z m 1601,-14 c 16,-15 38,-40 49,-55 19,-27 19,-29 3,-69 -17,-43 -65,-108 -65,-88 0,6 -17,28 -37,50 -150,155 -140,140 -135,196 l 4,51 76,-29 c 43,-17 90,-42 105,-56 z m -1833,57 c -7,-11 -14,-18 -17,-15 -3,3 0,12 7,21 18,21 23,19 10,-6 z m 180,-59 c 0,-21 -4,-41 -9,-44 -11,-7 -24,56 -15,78 10,27 24,7 24,-34 z m -2441,-38 c 1,-7 -3,-10 -9,-7 -5,3 -10,21 -9,38 1,31 1,31 9,7 4,-14 8,-31 9,-38 z m 2731,-11 c 0,-11 -4,-10 -15,5 -8,10 -14,26 -14,34 0,11 3,10 14,-4 8,-11 15,-27 15,-35 z m 840,7 c -11,-24 -20,-49 -20,-57 0,-26 -41,-101 -55,-101 -7,0 -18,6 -24,14 -9,10 -8,16 4,26 8,7 15,21 15,32 0,28 16,54 58,93 20,19 38,35 39,35 1,0 -7,-19 -17,-42 z m -1223,-20 c -3,-7 -5,-2 -5,12 0,14 2,19 5,13 2,-7 2,-19 0,-25 z m 42,-24 c -13,-13 -14,-10 -11,23 5,35 6,36 15,15 8,-17 7,-26 -4,-38 z m -2444,-79 -15,-40 5,50 c 3,28 9,66 13,85 l 7,35 3,-45 c 1,-25 -4,-63 -13,-85 z m 75,38 c 0,-18 -4,-33 -8,-33 -19,0 -32,27 -32,64 0,38 0,39 20,21 12,-11 20,-31 20,-52 z m 3803,18 c -18,-32 -33,-40 -33,-19 0,13 41,60 47,54 2,-2 -4,-17 -14,-35 z m -1466,-3 c -3,-7 -5,-2 -5,12 0,14 2,19 5,13 2,-7 2,-19 0,-25 z m -37,-36 c -7,-13 -9,-8 -9,23 0,35 1,37 10,17 6,-15 5,-30 -1,-40 z m 1267,26 c -3,-7 -5,-2 -5,12 0,14 2,19 5,13 2,-7 2,-19 0,-25 z m -917,-98 c 0,-28 -28,13 -34,50 l -7,35 20,-35 c 11,-19 20,-42 21,-50 z m -2623,38 c -3,-7 -5,-2 -5,12 0,14 2,19 5,13 2,-7 2,-19 0,-25 z m 63,1 c 6,-10 7,-19 2,-19 -5,0 -14,12 -20,26 -14,29 2,24 18,-7 z m -32,-10 c -3,-8 -7,-3 -11,10 -4,17 -3,21 5,13 5,-5 8,-16 6,-23 z m -122,-71 c -14,-19 -16,-20 -16,-5 0,10 5,28 12,40 11,19 13,20 16,5 2,-10 -4,-28 -12,-40 z m 181,36 c -3,-3 -12,-4 -19,-1 -8,3 -5,6 6,6 11,1 17,-2 13,-5 z m 59,-22 c -10,-2 -22,0 -28,6 -6,6 0,7 19,4 21,-5 23,-7 9,-10 z m 2349,-73 c -27,-45 -25,-25 3,40 10,23 17,30 19,20 2,-8 -8,-35 -22,-60 z m -2530,41 c 3,-5 1,-10 -4,-10 -6,0 -11,5 -11,10 0,6 2,10 4,10 3,0 8,-4 11,-10 z m -50,-65 c -11,-53 -13,-57 -20,-32 -5,18 -2,39 10,63 9,20 18,34 20,32 1,-2 -3,-30 -10,-63 z m 3624,20 c -13,-46 -59,-108 -59,-79 0,17 61,127 67,121 1,-2 -2,-21 -8,-42 z m -3710,-87 c -18,-37 -34,-66 -36,-64 -3,2 11,41 29,87 20,52 34,77 36,65 2,-11 -11,-50 -29,-88 z m 205,55 c 66,-53 59,-73 -13,-40 -25,12 -47,22 -48,23 -9,3 -14,64 -5,64 5,0 35,-21 66,-47 z m 141,6 30,-21 -33,6 c -18,3 -52,15 -75,26 l -42,20 45,-5 c 24,-3 58,-15 75,-26 z m -45,-39 c -17,-11 -37,0 -70,35 l -25,27 54,-27 c 39,-19 50,-29 41,-35 z m -119,-26 c 12,-14 11,-16 -5,-13 -11,2 -21,10 -24,17 -5,17 13,15 29,-4 z m 176,-10 c -3,-3 -12,-4 -19,-1 -8,3 -5,6 6,6 11,1 17,-2 13,-5 z m -109,-39 c 20,-13 53,-28 72,-32 l 35,-7 -50,-12 c -44,-9 -55,-8 -90,9 -48,23 -41,17 -49,45 -6,19 -4,22 19,22 14,0 42,-11 63,-25 z m -103,-81 c -9,-19 -20,-63 -25,-97 l -9,-62 4,66 c 6,92 25,167 37,145 7,-12 4,-28 -7,-52 z m 24,-102 c -17,-91 -33,-92 -26,-1 3,41 9,83 13,93 7,18 8,17 16,-5 6,-15 5,-47 -3,-87 z m 28,-4 c -3,-7 -5,-2 -5,12 0,14 2,19 5,13 2,-7 2,-19 0,-25 z m 17,-138 c -6,-52 -7,-53 -16,-25 -8,30 -3,101 10,140 11,31 15,-49 6,-115 z m 127,64 c 13,-16 12,-16 -16,-1 -16,9 -41,26 -55,37 l -25,21 41,-20 c 22,-11 47,-27 55,-37 z m -51,1 c 11,-13 10,-14 -4,-9 -9,3 -16,10 -16,15 0,13 6,11 20,-6 z m 106,-7 c 21,-12 32,-24 26,-26 -7,-2 -26,8 -43,22 -37,32 -32,33 17,4 z m -235,-25 c -12,-20 -14,-14 -5,12 4,9 9,14 11,11 3,-2 0,-13 -6,-23 z m 86,-35 c -2,-13 -4,-3 -4,22 0,25 2,35 4,23 2,-13 2,-33 0,-45 z m 169,-19 c 17,-14 18,-29 3,-29 -14,0 -119,63 -119,71 0,9 97,-26 116,-42 z m 80,6 c 23,-18 10,-18 -36,0 -32,12 -33,14 -9,14 14,1 34,-6 45,-14 z m -259,-37 c -3,-8 -6,-5 -6,6 -1,11 2,17 5,13 3,-3 4,-12 1,-19 z m 108,12 c 3,-5 2,-10 -4,-10 -5,0 -13,5 -16,10 -3,6 -2,10 4,10 5,0 13,-4 16,-10 z m 135,0 c 13,-8 13,-10 -2,-10 -9,0 -20,5 -23,10 -8,13 5,13 25,0 z m 114,-31 c -3,-5 -32,-9 -65,-9 -35,0 -58,4 -54,9 3,6 32,9 65,9 33,0 57,-5 54,-9 z m -437,-46 c -3,-10 -5,-4 -5,12 0,17 2,24 5,18 2,-7 2,-21 0,-30 z m 320,21 c -3,-3 -12,-4 -19,-1 -8,3 -5,6 6,6 11,1 17,-2 13,-5 z m 8,-39 c 53,-25 45,-32 -17,-15 -20,6 -39,17 -42,25 -7,19 -1,18 59,-10 z m -245,-81 c -7,-25 -17,-47 -23,-51 -6,-4 -8,1 -5,13 3,10 12,41 19,68 8,27 16,41 17,31 2,-9 -2,-37 -8,-61 z m 171,59 c 13,-16 12,-17 -3,-4 -10,7 -18,15 -18,17 0,8 8,3 21,-13 z m -214,-60 c -3,-10 -5,-4 -5,12 0,17 2,24 5,18 2,-7 2,-21 0,-30 z m 101,-103 v -35 l -8,30 c -4,17 -8,41 -8,55 -1,23 0,23 8,5 5,-11 8,-36 8,-55 z"
       id="path10"
       style="fill:#004221;fill-opacity:1"
       inkscape:connector-curvature="0" />
    <path
       d="m 3620,5425 v -95 h 64 c 48,0 69,5 89,20 34,27 42,69 23,114 -18,43 -46,56 -122,56 h -54 z"
       id="path12"
       style="fill:#004221;fill-opacity:1"
       inkscape:connector-curvature="0" />
    <path
       d="m 5220,5381 c -67,-21 -70,-26 -70,-143 0,-104 1,-108 25,-124 35,-23 100,-22 127,2 72,65 62,227 -16,259 -20,8 -37,15 -38,14 -2,0 -14,-4 -28,-8 z"
       id="path14"
       style="fill:#004221;fill-opacity:1"
       inkscape:connector-curvature="0" />
    <path
       d="m 4105,5233 c -58,-15 -76,-88 -30,-119 31,-20 97,-14 126,12 27,24 27,104 0,104 -10,0 -31,2 -47,4 -16,2 -38,2 -49,-1 z"
       id="path16"
       style="fill:#004221;fill-opacity:1"
       inkscape:connector-curvature="0" />
    <path
       d="m 5781,5369 c -21,-20 -41,-59 -41,-80 0,-5 45,-9 100,-9 94,0 100,1 100,20 0,29 -26,76 -45,84 -35,13 -91,6 -114,-15 z"
       id="path18"
       style="fill:#004221;fill-opacity:1"
       inkscape:connector-curvature="0" />
    <path
       d="m 3345,4410 c -38,-24 -72,-82 -81,-138 l -7,-42 h 162 161 v 28 c 0,51 -22,106 -55,139 -30,30 -39,33 -91,33 -41,0 -68,-6 -89,-20 z"
       id="path20"
       style="fill:#004221;fill-opacity:1"
       inkscape:connector-curvature="0" />
    <path
       d="m 6920,4078 c -45,-31 -62,-64 -56,-112 10,-83 79,-127 170,-107 26,6 61,21 77,32 30,21 30,21 27,112 l -3,92 -91,3 c -80,2 -94,0 -124,-20 z"
       id="path22"
       style="fill:#004221;fill-opacity:1"
       inkscape:connector-curvature="0" />
    <path
       d="m 2589,3296 c -82,-47 -77,-234 7,-266 88,-34 164,26 164,129 0,49 -19,99 -48,124 -27,25 -90,31 -123,13 z"
       id="path24"
       style="fill:#004221;fill-opacity:1"
       inkscape:connector-curvature="0" />
    <path
       d="m 4973,3292 c -20,-16 -43,-60 -43,-83 0,-5 45,-9 100,-9 94,0 100,1 100,20 0,29 -26,76 -45,84 -31,12 -90,6 -112,-12 z"
       id="path26"
       style="fill:#004221;fill-opacity:1"
       inkscape:connector-curvature="0" />
    <path
       d="m 6485,3153 c -34,-9 -55,-34 -55,-69 0,-45 35,-69 91,-61 57,7 79,31 79,82 0,41 -1,43 -37,49 -41,6 -48,6 -78,-1 z"
       id="path28"
       style="fill:#004221;fill-opacity:1"
       inkscape:connector-curvature="0" />
  </g>
</svg>
