<?xml version="1.0" encoding="UTF-8" standalone="no"?>
<!-- Generator: Adobe Illustrator 22.0.0, SVG Export Plug-In . SVG Version: 6.00 Build 0)  -->

<svg
   xmlns:dc="http://purl.org/dc/elements/1.1/"
   xmlns:cc="http://creativecommons.org/ns#"
   xmlns:rdf="http://www.w3.org/1999/02/22-rdf-syntax-ns#"
   xmlns:svg="http://www.w3.org/2000/svg"
   xmlns="http://www.w3.org/2000/svg"
   xmlns:sodipodi="http://sodipodi.sourceforge.net/DTD/sodipodi-0.dtd"
   xmlns:inkscape="http://www.inkscape.org/namespaces/inkscape"
   version="1.1"
   id="Calque_1"
   x="0px"
   y="0px"
   viewBox="0 0 244.23137 302.50528"
   xml:space="preserve"
   sodipodi:docname="xmastree002.svg"
   inkscape:version="0.92.2 (5c3e80d, 2017-08-06)"
   width="244.23137"
   height="302.50528"><metadata
     id="metadata215"><rdf:RDF><cc:Work
         rdf:about=""><dc:format>image/svg+xml</dc:format><dc:type
           rdf:resource="http://purl.org/dc/dcmitype/StillImage" /><dc:title></dc:title></cc:Work></rdf:RDF></metadata><defs
     id="defs213" /><sodipodi:namedview
     pagecolor="#ffffff"
     bordercolor="#666666"
     borderopacity="1"
     objecttolerance="10"
     gridtolerance="10"
     guidetolerance="10"
     inkscape:pageopacity="0"
     inkscape:pageshadow="2"
     inkscape:window-width="1920"
     inkscape:window-height="1057"
     id="namedview211"
     showgrid="false"
     inkscape:zoom="3.0903185"
     inkscape:cx="90.166102"
     inkscape:cy="293.58015"
     inkscape:window-x="-8"
     inkscape:window-y="-8"
     inkscape:window-maximized="1"
     inkscape:current-layer="Calque_1" /><style
     type="text/css"
     id="style2">
	.st0{fill:#E0EDF3;}
	.st1{fill:#A5C0DF;}
	.st2{fill:#3F668A;}
	.st3{fill:#162740;}
	.st4{fill:#7B9EC7;}
	.st5{fill:#571419;}
	.st6{fill:#020203;}
	.st7{fill:#F39323;}
	.st8{fill:#8C633A;}
	.st9{fill:#6189B1;}
	.st10{fill:#A8C4D3;}
	.st11{fill:#989389;}
	.st12{fill:#DED3C6;}
	.st13{fill:#36502D;}
	.st14{fill:#DAA405;}
	.st15{fill:#DFE6ED;}
	.st16{fill:#D06C5D;}
	.st17{fill:#972021;}
	.st18{fill:#79986F;}
	.st19{fill:#FFF0BA;}
	.st20{fill:#C9D0D6;}
	.st21{fill:#E7E6E6;}
	.st22{fill:#CDCCCC;}
	.st23{fill:#B4B4B4;}
	.st24{fill:#FFFFFF;}
	.st25{fill:#9F1E29;}
	.st26{fill:#754D24;}
	.st27{fill:#A67D52;}
	.st28{fill:#CDE3EA;}
	.st29{fill:#F2F2F2;}
	.st30{fill:#C7B29A;}
	.st31{fill:#BCA48A;}
	.st32{fill:#D79A5D;}
	.st33{fill:#90443F;}
	.st34{fill:#D6A14D;}
	.st35{fill:#365461;}
	.st36{fill:#4C672C;}
	.st37{fill:#7D915E;}
	.st38{fill:#67302B;}
	.st39{fill:#96B8AA;}
	.st40{fill:#C5463F;}
	.st41{fill:#AFA453;}
	.st42{fill:#F1969D;}
	.st43{fill:#603914;}
	.st44{fill:#82171C;}
	.st45{fill:#066938;}
	.st46{fill:#9A9999;}
	.st47{fill:#C9913E;}
	.st48{fill:#E2A1BC;}
	.st49{fill:#808181;}
	.st50{fill:#C1292E;}
	.st51{fill:#EDCBA9;}
	.st52{fill:#699CBB;}
	.st53{fill:#4E4D4D;}
	.st54{fill:#C29245;}
	.st55{fill:#BB7E28;}
	.st56{fill:#C8904C;}
	.st57{fill:#BB7926;}
	.st58{fill:#A3282E;}
</style><g
     id="g208"
     transform="translate(-93.8,-64.694721)"><g
       id="g74"><path
         class="st13"
         d="m 295.4,341.8 c 0.3,0.2 0.5,0.4 0.7,0.6 0.4,0.3 0.8,0.6 1.2,1 1,1.1 0.8,2.3 -0.4,3.1 -0.5,0.3 -1,0.6 -1.6,0.7 -1.3,0.2 -2.5,0.4 -3.8,0.5 -4.8,0.1 -9.4,-0.8 -13.8,-2.5 -2.7,-1 -5.3,-2.1 -8,-3.2 -0.2,-0.1 -0.5,-0.2 -0.9,-0.3 0.2,0.5 0.4,0.8 0.5,1.1 0.4,0.8 0.8,1.6 0.8,2.6 0.1,1.4 -0.5,2.4 -1.7,3 -1.3,0.7 -2.7,0.7 -4.1,0.4 -1,-0.2 -2,-0.4 -3.1,-0.7 0,0.3 0.1,0.6 0.1,0.8 0.2,1.7 -0.7,2.8 -2.4,3.1 -1.4,0.2 -2.7,0 -4,-0.5 -1.6,-0.5 -3.2,-1.1 -4.8,-1.6 -0.3,-0.1 -0.7,-0.2 -1,-0.3 -0.1,0.1 -0.1,0.2 -0.2,0.3 -0.4,1.8 -2,2.8 -4.2,2.2 -1,-0.3 -1.8,-0.8 -2.7,-1.4 -0.4,-0.3 -0.8,-0.6 -1.2,-0.9 -0.1,1.2 -0.2,2.2 -0.3,3.3 -0.1,0.6 -0.1,1.1 -0.3,1.7 -0.6,1.6 -2.1,2 -3.4,1.4 -0.3,-0.1 -0.6,-0.3 -0.9,-0.5 -1.5,-1.1 -2.9,-2.3 -4.1,-3.6 -0.1,-0.1 -0.2,-0.2 -0.4,-0.4 -0.1,0.5 -0.2,1 -0.2,1.4 -0.1,2.5 -0.3,5.1 -0.4,7.6 -0.1,1.7 -0.2,3.4 -0.3,5.1 -0.1,1.1 -0.4,1.4 -1.6,1.4 -1.4,0 -2.7,-0.1 -4,-0.5 -0.2,-0.1 -0.5,-0.1 -0.7,-0.2 -0.8,-0.3 -1.2,-0.8 -1.2,-1.7 0,-0.8 -0.1,-1.5 -0.1,-2.3 0,-3.1 -0.1,-6.1 0.2,-9.2 0.1,-0.9 0.1,-1.9 0.2,-2.9 -1.4,0.4 -2.5,0.1 -3.6,-0.7 -0.3,0.3 -0.5,0.7 -0.7,0.9 -0.5,0.5 -1,1.1 -1.5,1.6 -1.9,1.4 -4,0.9 -4.9,-1.3 -0.4,-1 -0.6,-2.1 -0.8,-3.2 -0.2,-0.9 -0.2,-1.8 -0.4,-2.8 -0.2,0.2 -0.3,0.3 -0.4,0.4 -0.6,0.8 -1.2,1.7 -1.8,2.4 -1.4,1.6 -3.1,2.8 -5.2,3.1 -1.5,0.2 -2.9,-0.1 -4.1,-1.1 -0.1,-0.1 -0.3,-0.2 -0.4,-0.3 -0.7,-0.7 -1.5,-0.9 -2.5,-0.7 -0.5,0.1 -0.9,0.1 -1.4,0.2 -1.5,0.2 -2.4,-0.3 -3.1,-1.6 -0.1,-0.2 -0.2,-0.3 -0.3,-0.5 -0.4,0.1 -0.7,0.3 -1.1,0.4 -1.5,0.5 -3,1.1 -4.6,1.5 -0.6,0.2 -1.2,0.2 -1.9,0.1 -1.2,-0.1 -1.8,-1.2 -1.3,-2.3 0.3,-0.6 0.7,-1.2 1.2,-1.9 -0.9,0.1 -1.7,0.1 -2.5,0.2 -3.9,0.2 -7.7,0.5 -11.6,-0.3 -1.4,-0.3 -2.8,-0.7 -4.2,-1.2 -0.6,-0.2 -1.3,-0.6 -1.8,-1.1 -1.1,-0.9 -1.1,-2.2 -0.1,-3.1 0.7,-0.6 1.4,-1.2 2.2,-1.7 2.2,-1.4 4.5,-2.8 6.8,-4.1 0.2,-0.1 0.3,-0.2 0.6,-0.4 -1.8,0.2 -3.5,0.5 -5.3,0.6 -1.1,0.1 -2.2,0.1 -3.3,0.1 -0.6,0 -1.1,-0.2 -1.6,-0.4 -1.3,-0.7 -1.8,-2.1 -1.1,-3.4 0.2,-0.4 0.5,-0.8 0.8,-1.1 0.9,-1.1 2,-2 3.2,-2.8 0.3,-0.2 0.5,-0.4 0.8,-0.7 -0.2,0 -0.3,0 -0.5,0.1 -1.8,0.4 -3.6,0.8 -5.4,1.1 -0.9,0.1 -1.9,0.1 -2.8,-0.1 -0.6,-0.1 -1.3,-0.4 -1.8,-0.8 -0.6,-0.4 -1.1,-0.6 -1.8,-0.6 -0.8,-0.1 -1.7,-0.2 -2.5,-0.4 -0.5,-0.1 -1,-0.3 -1.5,-0.6 -1.4,-0.8 -1.9,-2.3 -1.4,-3.8 0.1,-0.3 0.2,-0.5 0.3,-0.9 -0.3,-0.1 -0.5,-0.2 -0.8,-0.3 -1,-0.3 -2,-0.5 -3,-0.8 -1,-0.3 -1.9,-0.7 -2.8,-1.2 -0.5,-0.2 -0.9,-0.6 -1.2,-1.1 -0.8,-1 -0.6,-2.1 0.3,-2.9 0.5,-0.4 1.1,-0.7 1.7,-0.8 1.2,-0.3 2.3,-0.5 3.5,-0.6 2.2,-0.2 4.4,-0.4 6.6,-0.5 3.6,-0.2 7.2,-0.6 10.7,-1.5 0.3,-0.1 0.5,-0.1 0.8,-0.2 -0.1,-0.2 -0.2,-0.3 -0.3,-0.5 -0.6,-0.9 -0.6,-1.8 0,-2.7 0.4,-0.7 1,-1.2 1.7,-1.5 1.3,-0.6 2.6,-1.3 3.9,-1.8 4.5,-1.7 9,-3.3 13.5,-4.9 3.5,-1.2 6.8,-2.8 9.8,-4.9 0.6,-0.4 1.2,-0.9 1.6,-1.6 -1.1,0.2 -2.2,0.5 -3.2,0.1 -1,-0.3 -1.8,-1.1 -2.4,-2 -0.4,0.1 -0.8,0.2 -1.1,0.4 -2.3,1 -4.7,2 -7,2.9 -3.4,1.3 -7,2.2 -10.6,2.5 -0.8,0.1 -1.6,0.2 -2.4,0.2 -0.5,0 -1,-0.1 -1.5,-0.3 -1.2,-0.5 -1.7,-1.8 -1.2,-3 0.3,-0.6 0.6,-1.3 1.1,-1.8 1.1,-1.2 2.2,-2.3 3.3,-3.4 0.3,-0.3 0.7,-0.6 1.1,-1 -2.2,-0.8 -3.2,-2.2 -2.5,-4.6 -0.3,0.1 -0.5,0.2 -0.8,0.3 -3.8,1.6 -7.6,3.1 -11.6,4.2 -1.5,0.4 -3.1,0.7 -4.7,1 -0.9,0.1 -1.7,0.2 -2.6,0.1 -2.2,-0.2 -3.2,-2.2 -2,-4 0.5,-0.8 1.2,-1.4 2,-1.9 0.3,-0.2 0.7,-0.5 1.1,-0.7 -0.8,-0.7 -1.5,-1.4 -1.7,-2.4 -0.2,-1 0.1,-1.9 0.5,-2.9 -1.3,-0.3 -2.4,-0.5 -3.6,-0.7 -1.2,-0.3 -2.4,-0.6 -3.5,-1 -0.6,-0.2 -1.2,-0.6 -1.8,-1 -1.2,-1 -1.2,-2.4 -0.3,-3.6 0.6,-0.7 1.3,-1.2 2.1,-1.5 1.3,-0.4 2.5,-0.8 3.8,-1.2 2.5,-0.6 5,-0.8 7.5,-1.2 3.8,-0.5 7.5,-1.1 11.2,-2.1 0.6,-0.2 1.1,-0.4 1.8,-0.6 -0.5,-0.2 -0.7,-0.3 -1,-0.5 -1.2,-0.6 -2.5,-1.1 -3.7,-1.8 -0.7,-0.4 -1.3,-0.8 -1.8,-1.5 -0.9,-1.3 -0.6,-2.7 0.7,-3.6 0.9,-0.6 2,-0.9 3.1,-1 1.1,-0.1 2.2,-0.2 3.3,-0.2 2.7,-0.1 5.5,0 8.2,-0.2 6.2,-0.4 12.3,-1.4 18.2,-3.8 2,-0.8 4.1,-1.5 5.9,-2.5 2.2,-1.3 4.3,-2.7 6.1,-4.6 0.6,-0.7 1.1,-1.4 1.7,-2.3 -0.5,0.2 -0.7,0.2 -1,0.3 -3,1.3 -6.1,2.1 -9.4,2.5 -1.3,0.2 -2.6,0.1 -3.9,0.1 -0.4,0 -0.8,-0.1 -1.2,-0.3 -1.8,-0.7 -2.7,-2.3 -2.4,-4.2 0.1,-0.5 0.2,-1 0.3,-1.6 -0.5,-0.2 -0.9,-0.3 -1.3,-0.5 -0.5,-0.2 -1,-0.4 -1.5,-0.7 -1.2,-0.9 -1.5,-2.3 -0.5,-3.5 0.4,-0.5 1,-1 1.6,-1.3 1.6,-0.8 3.3,-1.4 5,-2.1 2.4,-0.9 4.7,-1.6 7.1,-2.5 3.9,-1.4 7.5,-3.3 10.7,-5.9 0.2,-0.1 0.3,-0.3 0.5,-0.4 0,0 0,-0.1 0.1,-0.2 -0.2,0 -0.4,0 -0.6,0 -1.5,0.1 -2.9,0.1 -4.2,-0.7 -0.3,-0.2 -0.8,-0.1 -1.3,-0.1 -0.7,0 -1.5,0.1 -2.2,0.1 -0.7,0 -1.3,-0.3 -1.7,-0.8 -0.6,-0.7 -0.7,-1.4 -0.3,-2.2 0.3,-0.5 0.6,-1 1,-1.5 0.9,-0.9 1.8,-1.8 2.8,-2.7 -0.3,0 -0.4,0 -0.6,0.1 -0.9,0.4 -1.8,0.8 -2.6,1.3 -2.9,1.7 -5.7,3.3 -8.5,5 -1,0.6 -2.1,1.1 -3.4,1.1 -1.2,0 -2.1,-0.4 -2.8,-1.3 -0.4,-0.5 -0.9,-1 -1.5,-1.4 -0.7,-0.4 -1.1,-1.1 -1.4,-1.9 -0.1,-0.2 -0.1,-0.4 -0.2,-0.7 -0.8,0.1 -1.5,0.2 -2.2,0.2 -1,0.1 -2,0.2 -2.9,0.2 -0.7,0 -1.5,-0.2 -2.1,-0.4 -0.8,-0.3 -1.4,-0.9 -1.5,-1.9 -0.1,-0.9 0.4,-1.6 1.1,-2 1,-0.7 2.1,-1.1 3.3,-1.4 2.8,-0.8 5.7,-1.6 8.4,-2.6 0.7,-0.3 1.4,-0.6 2.1,-0.9 0,-0.1 0,-0.1 0,-0.2 -0.2,0 -0.4,0 -0.6,0 -1,0 -1.9,0 -2.9,-0.1 -1.2,-0.1 -2.2,-0.6 -3,-1.5 -0.5,-0.5 -1.1,-0.8 -1.8,-1 -0.6,-0.2 -1.2,-0.3 -1.7,-0.6 -0.5,-0.2 -0.9,-0.5 -1.3,-0.8 -1.2,-1 -1,-2.6 0.2,-3.5 0.8,-0.6 1.7,-0.8 2.7,-0.8 2,-0.1 4.1,-0.1 6.1,-0.1 8.2,0 16.2,-1.5 23.9,-4.3 1.2,-0.5 2.4,-1 3.7,-1.6 -0.5,-0.4 -0.9,-0.7 -1.2,-1.1 -0.3,-0.4 -0.5,-0.9 -0.8,-1.4 -0.4,0 -0.8,0.1 -1.2,0.1 -1.2,0.1 -2.5,0.3 -3.7,0.4 -1.1,0 -2.1,-0.3 -2.8,-1.2 -0.3,-0.3 -0.4,-0.7 -0.7,-1.2 -0.4,0 -0.8,-0.1 -1.3,-0.2 -0.2,0 -0.3,0 -0.5,-0.1 -1.2,-0.2 -2,-1 -2.2,-2 -0.2,-1.1 0.4,-2 1.3,-2.5 1,-0.5 2,-0.9 3,-1.2 2,-0.6 4,-1.1 6,-1.6 1.2,-0.3 2.4,-0.7 3.5,-1.4 -0.4,-0.5 -0.9,-0.9 -1.3,-1.5 -0.4,-0.5 -0.6,-1.1 -1,-1.8 -0.3,0.1 -0.6,0.1 -1,0.3 -1.6,0.7 -3.2,1.4 -4.9,2.2 -1.8,0.8 -3.5,1.6 -5.5,2 -1.2,0.2 -2.3,0.4 -3.5,0.1 -1,-0.2 -1.8,-0.7 -2.1,-1.7 -0.1,-0.4 -0.4,-0.5 -0.7,-0.6 -0.5,-0.1 -1.1,-0.2 -1.6,-0.4 -1.8,-0.7 -2.1,-2.6 -0.8,-3.9 0.4,-0.4 1,-0.8 1.6,-1 2.7,-1.3 5.6,-2.2 8.5,-2.7 0.3,0 0.5,-0.1 0.9,-0.2 -1.5,-0.1 -2.8,-0.3 -4.2,-0.4 -1.1,0 -2.1,0.1 -3.2,0.2 -1.1,0.1 -2.3,0.1 -3.4,0.1 -0.8,0 -1.5,-0.2 -2.2,-0.7 -1.4,-0.9 -1.5,-2.6 -0.1,-3.5 0.5,-0.4 1.1,-0.6 1.7,-0.8 1.7,-0.4 3.5,-0.8 5.3,-1.1 5.3,-1.1 10.6,-2.1 15.7,-3.9 1.3,-0.5 2.5,-1.1 3.7,-1.6 0.2,-0.1 0.3,-0.2 0.5,-0.4 -0.8,0.2 -1.6,0.4 -2.4,0.5 -0.7,0.1 -1.4,0.1 -2,-0.1 -1.6,-0.4 -2,-2 -0.9,-3.3 0.3,-0.3 0.6,-0.6 1,-0.8 1,-0.7 2,-1.3 3,-2 1.1,-0.8 2.2,-1.7 2.9,-2.8 0.2,-0.3 0.4,-0.7 0.5,-1.1 0,0 -0.1,-0.1 -0.1,-0.1 -0.3,0.2 -0.7,0.3 -1,0.5 -1.2,0.6 -2.4,1.2 -3.6,1.7 -0.7,0.3 -1.4,0.4 -2.1,0.4 -1.3,0.1 -2.1,-0.5 -2.6,-1.7 0,-0.1 -0.1,-0.1 -0.1,-0.3 -0.5,0 -0.9,0 -1.4,0 -1.2,0 -2.5,0 -3.7,-0.3 -0.4,-0.1 -0.8,-0.3 -1.2,-0.5 -1.4,-0.8 -1.6,-2.4 -0.3,-3.4 0.6,-0.5 1.3,-0.8 2,-1.1 1.3,-0.5 2.7,-0.8 4.1,-1.2 1.3,-0.4 2.5,-0.8 3.8,-1.3 0.2,-0.1 0.5,-0.2 0.8,-0.4 -0.2,-0.2 -0.4,-0.3 -0.5,-0.4 -0.9,-0.7 -1,-1.8 -0.1,-2.6 0.4,-0.4 0.9,-0.6 1.4,-0.9 1.6,-0.8 3,-1.7 4.3,-2.9 0.2,-0.2 0.4,-0.4 0.7,-0.7 -0.6,0.1 -1.1,0.3 -1.5,0.3 -1.6,0.2 -2.4,-0.4 -2.7,-2 0,0 -0.1,-0.1 -0.1,-0.2 -0.3,0.1 -0.7,0.1 -1.1,0.2 -0.6,0 -1.3,0.1 -1.9,0.1 -0.7,-0.1 -1.3,-0.4 -1.6,-1.2 -0.3,-0.7 0,-1.4 0.5,-1.8 0.4,-0.4 0.9,-0.6 1.4,-0.9 0.8,-0.4 1.6,-0.8 2.3,-1.2 2.7,-1.4 5.1,-3.3 7.3,-5.4 0.5,-0.5 1,-1.1 1.5,-1.7 -0.6,-0.5 -1.1,-1 -1.7,-1.5 -0.5,0 -1,0.2 -1.6,0.1 -1.2,0 -2.1,-1.1 -1.8,-2.3 0.1,-0.5 0.3,-1 0.5,-1.4 0.9,-1.7 1.8,-3.4 2.7,-5 2,-3.8 3.4,-7.8 4.1,-12 0.4,-2.5 0.7,-5 0.6,-7.5 0,-0.9 -0.2,-1.8 -0.2,-2.7 0,-0.5 0,-1 0.1,-1.5 0.1,-0.3 0.3,-0.6 0.5,-0.8 0.6,-0.8 1.5,-0.7 1.9,0.2 0.3,0.6 0.6,1.2 0.7,1.9 0.3,1.4 0.5,2.9 0.6,4.4 0.3,3.2 0.8,6.4 2,9.5 0.7,1.9 1.6,3.7 2.4,5.6 0.4,0.9 0.9,1.8 1.2,2.8 0.6,1.5 0.3,2.6 -1.1,3.4 -0.5,0.3 -1,0.5 -1.6,0.7 -0.8,0.4 -0.9,0.5 -0.7,1.4 0.2,0.8 0.6,1.5 1.2,2.1 1.2,1.2 2.4,2.4 3.7,3.6 0.3,0.3 0.7,0.7 0.9,1 0.7,1.1 0.5,2.4 -0.6,3.1 -0.4,0.3 -1,0.5 -1.5,0.7 -0.2,0.1 -0.5,0.2 -0.8,0.3 0.2,0.2 0.4,0.3 0.6,0.4 1.9,1.1 3.9,2.2 5.8,3.3 0.3,0.2 0.6,0.4 0.9,0.7 1.2,1 1.1,2.5 -0.1,3.5 -0.9,0.7 -1.9,1 -3,1.1 -0.8,0 -1.6,0 -2.4,0 -0.2,0 -0.4,0 -0.5,0 0,0.1 0,0.1 -0.1,0.2 0.4,0.2 0.7,0.5 1.1,0.6 2.3,1 4.6,2.1 6.9,3.1 0.5,0.2 1.1,0.4 1.6,0.7 0.4,0.2 0.7,0.4 1,0.7 0.9,0.9 0.9,2.2 -0.1,3 -0.6,0.6 -1.3,0.8 -2.1,0.8 -0.6,0 -1.1,0 -1.7,0 -0.4,0 -0.8,0 -1.2,0 0,0.1 -0.1,0.2 -0.1,0.2 0.1,1.5 -0.5,2.3 -2,2.4 -1.1,0.1 -2.3,0 -3.4,0 -0.2,0 -0.4,0 -0.7,-0.1 0.2,0.4 0.4,0.6 0.6,0.9 1.2,1.5 2.6,2.7 4.3,3.6 1,0.6 2.1,1.1 3.2,1.7 0.5,0.3 1,0.6 1.5,1 1.3,1.3 0.9,3.1 -0.9,3.5 -0.7,0.2 -1.3,0.2 -2,0.3 -0.5,0.1 -1,0.1 -1.4,0.1 0,0.1 0,0.1 0,0.2 0.4,0.2 0.8,0.4 1.3,0.5 1.9,0.5 3.8,0.9 5.7,1.3 2.8,0.6 5.7,0.9 8.4,1.7 0.4,0.1 0.8,0.2 1.2,0.4 1.7,0.7 2.1,2.5 0.7,3.8 -0.5,0.5 -1.2,0.9 -1.8,1.2 -1.4,0.7 -2.9,1 -4.4,1.3 -1,0.2 -2.1,0.4 -3.1,0.7 -0.3,0.1 -0.5,0.2 -0.8,0.3 0.2,0.4 0.4,0.7 0.5,1.1 0.2,0.5 0.5,1 0.7,1.5 0.4,1.3 -0.4,2.5 -1.8,2.6 -0.7,0 -1.4,-0.1 -2,-0.2 -0.6,-0.1 -1.2,-0.2 -1.8,-0.3 0.2,0.1 0.4,0.3 0.7,0.4 1.5,0.8 3,1.7 4.3,2.8 0.4,0.3 0.8,0.7 1,1.1 0.7,1.1 0.4,2.3 -0.7,2.9 -0.5,0.3 -1.1,0.4 -1.6,0.5 -1.2,0.1 -2.5,0.1 -3.7,0.1 -0.8,0 -1.4,0.1 -2,0.7 -0.4,0.4 -1,0.6 -1.5,0.8 -0.4,0.1 -0.8,0.2 -1.3,0.3 0.3,0.3 0.4,0.6 0.7,0.8 1,1 2.1,1.6 3.4,2.1 2.8,1.2 5.8,1.9 8.8,2.3 3.3,0.5 6.6,1 9.9,1.5 0.8,0.1 1.6,0.4 2.4,0.6 0.2,0 0.3,0.1 0.5,0.2 2,0.9 2.3,2.6 0.6,4 -0.7,0.6 -1.5,1 -2.4,1.2 -1.9,0.4 -3.8,0.8 -5.7,1.1 -0.4,0.1 -0.8,0.1 -1,0.5 -0.7,1.2 -1.8,1.7 -3.1,1.9 -0.1,0 -0.2,0 -0.4,0.1 0.3,0.1 0.5,0.2 0.7,0.2 3.3,0.7 6.7,1.2 10.1,1.5 1.7,0.2 3.4,0.4 5.1,0.6 0.4,0.1 0.9,0.2 1.2,0.4 1.4,0.6 1.6,2 0.5,3.1 -0.5,0.5 -1.1,0.8 -1.7,1.1 -0.6,0.3 -1.3,0.6 -1.9,0.8 -0.5,0.2 -0.9,0.4 -1.4,0.6 0.2,0.2 0.3,0.4 0.4,0.5 0.4,0.4 0.9,0.8 1.3,1.2 1,1.1 0.7,2.4 -0.8,2.9 -1.1,0.4 -2.2,0.5 -3.3,0.4 -2.5,-0.2 -4.9,-0.8 -7.3,-1.3 -0.3,-0.1 -0.6,-0.1 -1,-0.1 0.3,0.2 0.5,0.3 0.8,0.5 1.4,0.7 2.9,1.4 4.3,2.1 1,0.5 2.1,1.1 3.1,1.7 0.3,0.2 0.6,0.4 0.8,0.6 1.1,1 0.8,2.3 -0.6,2.8 -0.5,0.2 -1,0.3 -1.4,0.2 -1.1,-0.1 -2.2,-0.2 -3.2,-0.4 -0.8,-0.1 -1.5,-0.3 -2.3,-0.4 -0.3,0 -0.6,-0.1 -0.8,0.1 -0.8,0.8 -1.8,0.9 -2.9,0.9 -2,-0.1 -3.9,-0.5 -5.8,-1.3 -1.6,-0.7 -3.3,-1.4 -4.9,-2.1 -0.3,-0.1 -0.6,-0.2 -1,-0.2 0.3,0.3 0.6,0.7 1,0.9 1.7,1.3 3.3,2.6 5,4 0.4,0.4 0.9,0.7 1.3,1.2 0.5,0.6 0.8,1.3 0.5,2 -0.3,0.8 -1,1.2 -1.8,1.2 -0.7,0 -1.4,0 -2,0 -0.5,0 -0.9,0 -1.5,0 0.2,0.2 0.4,0.3 0.5,0.4 1.5,0.9 3,1.7 4.4,2.7 0.8,0.5 1.6,1.2 2.4,1.9 0.7,0.6 1.1,1.3 0.8,2.3 -0.3,1 -1.2,1.4 -2.1,1.4 -1.1,0 -2.2,-0.1 -3.3,-0.2 -0.5,0 -1,-0.1 -1.5,-0.1 0.4,0.2 0.8,0.5 1.3,0.6 2,0.9 4.2,1.4 6.3,2 3.4,0.9 6.8,1.3 10.2,1.8 2,0.3 4,0.6 5.9,1.3 0.7,0.2 1.4,0.5 2,0.9 1.6,1.1 1.4,2.9 -0.4,3.7 -0.8,0.4 -1.7,0.5 -2.6,0.5 -2,0 -3.9,-0.1 -5.9,-0.2 -0.5,0 -0.8,0 -1.1,0.4 -0.4,0.5 -1.1,0.8 -1.8,0.9 -2.1,0.5 -4.2,0.4 -6.3,0.1 -2.4,-0.4 -4.8,-0.8 -7.3,-1.2 -0.1,0 -0.1,0 -0.3,0 0.3,0.2 0.5,0.4 0.7,0.6 1.9,1.4 4,2.3 6.2,3.1 3.7,1.3 7.5,2.1 11.5,2.6 1.2,0.1 2.4,0.4 3.5,0.7 0.5,0.1 1.1,0.4 1.5,0.7 1,0.8 1,2.1 -0.1,2.8 -0.5,0.3 -1.1,0.5 -1.6,0.7 -0.4,0.1 -0.8,0.2 -1.2,0.3 0,0.1 0,0.1 0,0.2 0.8,0.2 1.6,0.4 2.4,0.5 2.7,0.3 5.5,0.6 8.2,0.9 3.8,0.3 7.7,0.6 11.5,1.3 0.6,0.1 1.2,0.3 1.7,0.5 0.3,0.1 0.7,0.3 0.9,0.5 1.1,0.8 1.2,2.1 0.1,2.9 -0.4,0.4 -1,0.7 -1.6,0.8 -0.9,0.3 -1.8,0.5 -2.8,0.8 0.2,0.1 0.4,0.3 0.5,0.3 0.9,0.5 1.9,1 2.8,1.5 0.5,0.3 0.9,0.6 1.3,1 0.7,0.8 0.6,1.8 -0.3,2.4 -0.4,0.3 -0.9,0.5 -1.4,0.8 0.2,0.1 0.4,0.2 0.5,0.3 0.6,0.3 1.3,0.6 1.9,1 0.3,0.2 0.6,0.4 0.9,0.6 1.1,1 1,2.2 -0.2,3 -1.1,0.7 -2.3,1 -3.6,1.2 -1.4,0.2 -2.7,0.1 -4.1,0 -3.1,-0.3 -6.2,-0.7 -9.2,-1.6 -2.4,-0.7 -4.9,-1.4 -7.3,-2.1 -0.3,-0.1 -0.6,-0.2 -1.1,-0.3 0.3,0.5 0.5,0.8 0.6,1.2 1,2 -0.1,3.8 -2.3,3.8 -1.2,0 -2.3,-0.3 -3.5,-0.4 -0.3,0 -0.6,-0.1 -0.8,0 -1.2,0.4 -2.3,0.2 -3.4,-0.2 -1.5,-0.7 -2.9,-1.4 -4.3,-2.1 -0.2,-0.1 -0.5,-0.2 -0.8,-0.3 0.3,0.3 0.5,0.6 0.8,0.9 2.8,3.1 6.2,5.6 9.9,7.6 3.2,1.7 6.5,3.3 9.7,4.9 1.9,1 3.9,1.9 5.8,2.9 0.4,0.2 0.9,0.5 1.2,0.8 0.9,0.9 0.6,2.1 -0.6,2.5 -0.4,0.1 -0.8,0.2 -1.2,0.2 -1.3,0 -2.7,-0.1 -4,-0.2 -0.8,0 -1.6,-0.1 -2.5,-0.2 0.1,0.3 0.2,0.6 0.3,0.9 0.5,1.3 -0.1,2.3 -1.5,2.5 -1.1,0.2 -2.2,0 -3.2,-0.4 -0.4,-0.1 -0.7,-0.3 -1.1,-0.4 1,0.8 2.1,1.5 3.3,1.9 2.8,1 5.6,1.7 8.6,2 3.6,0.4 7.2,0.8 10.6,1.8 0.7,0.2 1.4,0.4 2,0.8 1.6,0.9 1.8,2.5 0.5,3.7 -0.3,0.3 -0.6,0.5 -1,0.9 0.2,0.2 0.4,0.4 0.6,0.6 1.3,1.3 1,2.9 -0.7,3.7 -1.2,0.5 -2.4,0.8 -3.7,0.9 -4,0.4 -7.9,0.5 -11.9,-0.3 -0.2,0 -0.4,0 -0.5,0 -0.1,0.1 -0.1,0.1 -0.2,0.1 -1.2,2.1 -3.1,2.4 -5.2,2 -1.5,-0.2 -2.9,-0.9 -4.1,-1.7 -1.4,-0.8 -2.7,-1.7 -4.1,-2.6 -0.2,-0.1 -0.4,-0.2 -0.6,-0.3 -1.4,1.5 -3.2,1.8 -5.2,1.6 0.3,0.1 0.5,0.3 0.8,0.4 3.1,1.4 6.3,2.4 9.6,3.1 3,0.6 6.1,1.2 9.1,1.8 1.8,0.4 3.6,0.8 5.4,1.3 0.6,0.2 1.2,0.4 1.8,0.8 1.3,0.8 1.4,2.3 0.1,3.2 -0.8,0.6 -1.7,1 -2.7,1.2 -1.1,0.2 -2.2,0.5 -3.4,0.7 0.2,0.2 0.3,0.3 0.4,0.5 0.4,0.4 0.8,0.7 1.2,1.1 0.3,0.3 0.6,0.7 0.8,1 0.7,1.3 0.3,2.5 -0.9,3.2 -0.4,0.2 -0.7,0.3 -1.1,0.5 -0.4,0.1 -0.7,0.2 -1.3,0.3 0.4,0.1 0.6,0.2 0.8,0.3 6.7,1.6 13.4,3 20.2,4.3 1.3,0.3 2.7,0.6 4,1 0.7,0.2 1.4,0.6 2,0.9 0.6,0.3 1.1,0.9 1.4,1.5 0.6,1.1 0.3,2.3 -0.7,3.1 -0.5,0.4 -1.1,0.7 -1.8,0.9 -1.1,0.3 -2.2,0.6 -3.3,0.8 -0.6,0.4 -0.8,0.4 -1,0.5 z"
         id="path4"
         inkscape:connector-curvature="0"
         style="fill:#36502d" /><g
         id="g72"><path
           class="st14"
           d="m 223.5,73.2 c 0.6,-1.5 1.1,-2.9 1.8,-4.4 0.3,-0.8 0.7,-1.5 1.1,-2.2 0.2,-0.3 0.4,-0.6 0.6,-0.9 1.4,-1.7 3.6,-1 4.4,0.3 0.5,0.8 0.9,1.6 1.3,2.4 0.6,1.2 1.1,2.4 1.6,3.6 0.2,0.4 0.5,0.8 0.8,1.1 0.1,0.1 0.3,0.1 0.5,0.1 1,0 1.9,-0.1 2.9,-0.2 0.8,0 1.6,-0.1 2.4,0 1.4,0.1 2,1.2 1.5,2.5 -0.2,0.4 -0.4,0.7 -0.6,1 -0.2,0.3 -0.5,0.6 -0.8,0.9 -0.9,0.8 -1.7,1.6 -2.6,2.4 -0.7,0.5 -0.8,1.1 -0.6,1.9 0.3,1.5 0.7,3 1.2,4.4 0.2,0.6 0.4,1.2 0.6,1.8 0,0.1 0.1,0.2 0.1,0.4 0.3,1.7 -0.8,2.9 -2.5,2.7 -0.8,-0.1 -1.5,-0.4 -2.1,-0.7 -1.7,-0.8 -3.2,-1.9 -4.7,-3 -0.2,-0.1 -0.4,-0.3 -0.6,-0.4 -0.5,-0.4 -0.9,-0.4 -1.5,-0.1 -0.8,0.4 -1.6,0.8 -2.4,1.2 -1.5,0.7 -3,1.5 -4.5,2.2 -0.3,0.2 -0.7,0.3 -1,0.3 -0.9,0.1 -1.6,-0.4 -1.8,-1.3 -0.1,-0.4 0,-0.9 0,-1.3 0.2,-1.3 0.7,-2.4 1.4,-3.6 0.4,-0.6 0.7,-1.2 1.1,-1.9 -0.3,-0.2 -0.6,-0.4 -0.9,-0.6 -1.6,-1 -3.1,-2 -4.7,-3 -0.4,-0.2 -0.7,-0.5 -1,-0.8 -0.7,-0.7 -0.7,-1.7 0,-2.4 0.4,-0.4 0.8,-0.7 1.3,-0.9 1.6,-0.7 3.4,-1.1 5.2,-1.3 0.7,0 1.6,-0.1 2.5,-0.2 z"
           id="path6"
           inkscape:connector-curvature="0"
           style="fill:#daa405" /><g
           id="g70"><g
             id="g16"><path
               class="st15"
               d="m 227.8,326.3 c 2.7,-0.1 5.5,-0.2 8.2,0.2 1.6,0.2 3.1,0.7 4.5,1.5 0.6,0.4 1.2,0.8 1.6,1.3 0.8,1 0.5,2.1 -0.6,2.7 -0.4,0.2 -0.8,0.3 -1.2,0.5 -1.3,0.5 -2.6,0.9 -3.9,1.3 -2.4,0.8 -4.2,2.4 -5.4,4.7 -0.4,0.7 -0.7,1.3 -1.1,1.9 -0.7,1.1 -1.7,2.1 -2.9,2.8 -1.5,0.9 -3.1,1 -4.7,0.3 -0.4,-0.2 -0.9,-0.4 -1.3,-0.7 -1.4,-0.8 -2.8,-1.3 -4.4,-1.5 -1.6,-0.2 -3.1,-0.6 -4.5,-1.1 -4,-1.5 -7.8,-3.3 -11.6,-5.1 -2,-0.9 -3.7,-2.1 -5.2,-3.6 -0.9,-0.9 -1.8,-1.8 -2.7,-2.7 -1.7,-1.6 -3.7,-2.8 -5.9,-3.6 -1.1,-0.4 -2.3,-0.6 -3.5,-0.5 -1.5,0.1 -2.3,0.8 -2.6,2.3 -0.4,1.7 -0.4,3.4 -0.3,5.2 0.1,2.9 0.2,5.8 -0.4,8.6 -0.3,1.3 -0.6,2.6 -1.3,3.7 -0.3,0.4 -0.6,0.9 -1,1.2 -0.9,0.8 -2.1,0.6 -2.8,-0.4 -0.4,-0.5 -0.7,-1.1 -0.8,-1.7 -0.4,-1.8 -0.8,-3.5 -1.2,-5.3 -0.5,-2.1 -0.9,-4.3 -1.3,-6.4 -0.4,-1.6 -1,-3.1 -1.9,-4.5 -1.9,-3.1 -2.6,-6.5 -2.5,-10.1 0,-1 0.1,-2 0.1,-3 0,-1 -0.4,-1.8 -0.8,-2.7 -0.5,-1.1 -1.1,-2.1 -1.5,-3.3 -0.6,-1.4 -0.9,-2.9 -0.8,-4.4 0.1,-0.8 0.3,-1.5 0.6,-2.2 1.3,-2.4 3.3,-3.9 6.1,-4.1 3.2,-0.2 6.3,-0.5 9.5,-0.9 0.6,-0.1 1.1,-0.1 1.7,-0.1 1.7,0.1 2.5,0.9 2.5,2.6 0,1.6 -0.1,3.1 -0.1,4.7 0,0.5 0,1.1 0,1.6 0,0.5 0.2,1 0.5,1.4 0.6,0.7 1.4,1.3 2.2,1.8 0.9,0.4 1.8,0.8 2.7,1.2 0.6,0.3 1.3,0.5 1.9,0.7 2.3,0.8 4.3,2.2 5.8,4.1 0.6,0.8 1.3,1.5 1.9,2.2 2,2.3 4.4,4 7.2,5.1 3.9,1.6 7.9,2.9 12.1,3.7 3.1,0.6 6.1,0.7 9.1,0.6 z"
               id="path8"
               inkscape:connector-curvature="0"
               style="fill:#dfe6ed" /><path
               class="st15"
               d="m 178.5,246.2 c 1.6,0.1 3.8,0.3 6,0.5 4.1,0.3 8.1,0.4 12.2,-0.3 2.5,-0.4 5,-0.9 7.5,-1.3 1.1,-0.2 2.3,-0.4 3.4,-0.1 1.2,0.3 2.3,0.8 3.3,1.6 1.4,1.1 1.5,2.6 0.4,3.9 -0.3,0.4 -0.7,0.7 -1.1,1.1 -0.9,0.8 -1.9,1.5 -2.9,2.3 -0.6,0.5 -1.2,1.2 -1.8,1.8 -1,1 -1.4,2.3 -1.4,3.7 0,0.4 0,0.8 -0.1,1.3 -0.1,1.1 -0.5,1.9 -1.2,2.7 -1.1,1.2 -2.3,2.3 -3.6,3.2 -1.6,1.2 -3.3,2.4 -4.9,3.7 -2.4,2 -4.2,4.4 -5.1,7.4 -0.4,1.2 -0.6,2.4 -1,3.6 -0.4,1.2 -0.7,2.5 -1.2,3.6 -0.3,0.8 -0.8,1.4 -1.3,2.1 -0.3,0.3 -0.6,0.6 -1,0.8 -0.8,0.4 -1.5,0.3 -2,-0.5 -0.5,-0.6 -0.7,-1.4 -0.8,-2.1 -0.2,-1.5 0,-3.1 0.2,-4.6 0.3,-2.2 0.6,-4.5 0.4,-6.8 -0.1,-1.2 -0.2,-2.3 -0.6,-3.4 -0.2,-0.4 -0.3,-0.9 -0.6,-1.3 -0.7,-1.3 -1.8,-2.1 -3.4,-2.4 -0.8,-0.1 -1.7,-0.3 -2.5,-0.5 -1.8,-0.5 -3,-1.6 -3.6,-3.3 -0.3,-0.7 -0.5,-1.4 -0.7,-2.1 -0.4,-1.3 -1.2,-2.4 -2.4,-3.1 -0.3,-0.2 -0.6,-0.4 -0.8,-0.6 -3,-2.2 -2.5,-5.7 -0.6,-7.7 1,-1 2.2,-1.7 3.5,-2.2 2.4,-0.7 4.7,-1 7.7,-1 z"
               id="path10"
               inkscape:connector-curvature="0"
               style="fill:#dfe6ed" /><path
               class="st15"
               d="m 207.6,189.1 c 2.3,0 4.2,0.5 6.1,0.8 3.7,0.6 7.5,1.3 11.2,1.9 1.6,0.3 3.3,0.1 4.9,-0.2 3.3,-0.5 6.5,-1 9.8,-1.4 4.3,-0.5 8.5,-0.3 12.6,0.9 2.2,0.6 4.2,1.7 6,3.2 0.5,0.5 1,1 1.4,1.6 0.7,1 0.8,2.1 0.1,3.1 -0.4,0.6 -0.8,1.1 -1.3,1.7 -0.7,0.7 -1.5,1.4 -2.2,2.1 -0.4,0.4 -0.9,0.9 -1.3,1.4 -1.8,2 -2.3,4.3 -1.8,6.9 0.4,2 0.8,4 1.1,5.9 0.4,2.4 0.6,4.8 0.4,7.2 -0.1,1.5 -0.4,3 -1,4.4 -0.2,0.5 -0.6,1.1 -1,1.5 -0.9,0.9 -2.1,0.9 -2.9,0 -0.5,-0.5 -0.9,-1.1 -1.1,-1.8 -0.5,-1.2 -1,-2.5 -1.5,-3.8 -0.3,-0.8 -0.6,-1.5 -0.9,-2.3 -0.6,-1.2 -1.5,-2.1 -2.8,-2.5 -0.3,-0.1 -0.5,-0.2 -0.8,-0.3 -2.7,-0.8 -4.6,-2.5 -6.1,-4.9 -0.4,-0.6 -0.7,-1.3 -1.1,-1.9 -0.4,-0.5 -0.8,-1 -1.3,-1.5 -0.7,-0.7 -1.6,-0.7 -2.4,-0.1 -0.7,0.5 -1.4,1.1 -2.1,1.6 -0.9,0.7 -1.8,1.3 -2.8,1.7 -0.7,0.3 -1.5,0.5 -2.3,0.4 -1.3,-0.1 -2.3,-0.6 -2.9,-1.8 -0.4,-0.8 -0.7,-1.6 -0.9,-2.4 -0.2,-0.6 -0.3,-1.2 -0.5,-1.7 -0.6,-1.7 -1.7,-3 -3.3,-3.7 -0.3,-0.2 -0.6,-0.3 -1,-0.4 -1.5,-0.6 -2.8,-1.4 -4,-2.5 -0.1,-0.1 -0.3,-0.2 -0.4,-0.3 -1,-1.1 -2.3,-1.6 -3.8,-1.7 -1.1,-0.1 -2.2,-0.3 -3.3,-0.5 -1.3,-0.3 -2.5,-0.9 -3.6,-1.7 -0.8,-0.6 -1.4,-1.4 -1.8,-2.4 -0.4,-1 -0.3,-2 0.2,-3 0.6,-1.2 1.6,-2 2.8,-2.5 2,-0.7 3.9,-1 5.6,-1 z"
               id="path12"
               inkscape:connector-curvature="0"
               style="fill:#dfe6ed" /><path
               class="st15"
               d="m 222.3,167 c -0.7,0.5 -0.8,1.1 -1,1.7 -0.3,1 -0.5,2.1 -0.8,3.2 -0.2,0.8 -0.6,1.5 -0.9,2.3 -0.5,1 -1.5,1.1 -2.1,0.2 -0.3,-0.4 -0.5,-1 -0.7,-1.5 -0.2,-0.8 -0.3,-1.7 -0.3,-2.6 -0.1,-1.2 0,-2.3 0,-3.5 0,-1.4 -0.4,-2.6 -1.5,-3.6 -1.3,-1.1 -2.2,-2.4 -2.7,-4 -0.6,-1.8 -0.1,-3.6 1.4,-4.8 0.8,-0.6 1.6,-1 2.6,-1.2 0.2,0 0.3,-0.1 0.5,-0.1 1.6,-0.6 3.2,-0.3 4.8,0.4 1.1,0.5 2.1,1 3.1,1.7 1.9,1.2 4.1,1.9 6.3,2.3 1.4,0.2 2.9,0.1 4.3,-0.2 2.4,-0.5 4.7,-1 7,-1.5 2.2,-0.5 4.5,-0.9 6.7,-1.3 1.4,-0.2 2.7,-0.2 4,0.4 0.7,0.3 1.3,0.8 1.8,1.4 0.8,1 0.8,1.9 -0.1,2.8 -0.6,0.7 -1.3,1 -2.1,1.4 -0.8,0.4 -1.7,0.8 -2.4,1.4 -1.2,0.8 -2.1,1.9 -2.8,3.2 -0.2,0.4 -0.5,0.9 -0.7,1.3 -0.7,1.3 -1.7,2.3 -3.1,2.8 -0.8,0.3 -1.6,0.6 -2.5,0.9 -1.5,0.5 -2.5,1.5 -2.7,3.1 -0.2,1.6 -0.4,3.2 -0.6,4.9 -0.2,1.4 -0.4,2.7 -0.7,4.1 -0.1,0.5 -0.3,0.9 -0.5,1.4 -0.5,0.7 -1.3,0.8 -1.8,0.2 -0.4,-0.4 -0.7,-0.9 -0.8,-1.5 -0.4,-1.4 -0.7,-2.7 -1,-4.1 -0.2,-1.1 -0.3,-2.2 -0.5,-3.3 -0.2,-0.7 -0.5,-1.4 -0.8,-2.1 -0.3,-0.6 -0.9,-0.8 -1.6,-0.8 -0.8,0.1 -1.5,0.2 -2.3,0.3 -1.5,0.1 -2.7,-0.5 -3.5,-1.7 -0.5,-0.7 -0.9,-1.4 -1.3,-2.2 -0.2,-0.7 -0.4,-1 -0.7,-1.4 z"
               id="path14"
               inkscape:connector-curvature="0"
               style="fill:#dfe6ed" /></g><g
             id="g68"><g
               id="g22"><path
                 class="st16"
                 d="m 203.3,276.1 c 0,-1.4 0.6,-2.6 1.7,-3.6 0.9,-0.7 1.8,-1.3 2.9,-1.6 1.5,-0.4 2.9,-0.1 4.1,0.8 1.2,0.8 2,1.8 2.3,3.2 0.1,0.5 0.3,0.9 0.3,1.4 0.2,1.8 -0.5,3.2 -1.9,4.3 -1,0.8 -2.2,1.3 -3.5,1.3 -2.4,0.1 -4.4,-1.1 -5.5,-3.3 -0.2,-0.7 -0.4,-1.5 -0.4,-2.5 z"
                 id="path18"
                 inkscape:connector-curvature="0"
                 style="fill:#d06c5d" /><path
                 class="st16"
                 d="m 155.1,316.9 c 0,-0.9 0.4,-1.8 1.2,-2.4 0.6,-0.5 1.2,-0.9 2,-1.1 1,-0.3 2,0 2.8,0.5 0.8,0.5 1.3,1.3 1.6,2.2 0.1,0.3 0.2,0.6 0.2,1 0.1,1.2 -0.3,2.2 -1.3,3 -0.7,0.5 -1.5,0.9 -2.4,0.9 -1.7,0.1 -3,-0.7 -3.7,-2.3 -0.3,-0.6 -0.4,-1.2 -0.4,-1.8 z"
                 id="path20"
                 inkscape:connector-curvature="0"
                 style="fill:#d06c5d" /></g><g
               id="g32"><path
                 class="st17"
                 d="m 235.4,256.4 c 0.1,-1.8 0.6,-3.1 2,-4 0.5,-0.4 1.1,-0.7 1.7,-0.9 1.2,-0.5 2.5,-0.4 3.7,0.1 2.1,1 3.2,2.7 3.4,4.9 0.1,1.4 -0.4,2.7 -1.4,3.8 -1.7,1.8 -4.4,2.3 -6.6,0.9 -1.3,-0.8 -2,-2 -2.4,-3.4 -0.3,-0.6 -0.4,-1.1 -0.4,-1.4 z"
                 id="path24"
                 inkscape:connector-curvature="0"
                 style="fill:#972021" /><path
                 class="st17"
                 d="m 155.1,271.7 c 0.1,-1.8 0.6,-3.1 2,-4 0.5,-0.4 1.1,-0.7 1.7,-0.9 1.2,-0.5 2.5,-0.4 3.7,0.1 2.1,1 3.2,2.7 3.4,4.9 0.1,1.4 -0.4,2.7 -1.4,3.8 -1.7,1.8 -4.4,2.3 -6.6,0.9 -1.3,-0.8 -2,-2 -2.4,-3.4 -0.3,-0.5 -0.3,-1.1 -0.4,-1.4 z"
                 id="path26"
                 inkscape:connector-curvature="0"
                 style="fill:#972021" /><path
                 class="st17"
                 d="m 208.2,313.1 c 0,-1.3 0.4,-2.2 1.4,-2.8 0.4,-0.3 0.7,-0.5 1.2,-0.6 0.9,-0.3 1.7,-0.3 2.6,0.1 1.4,0.7 2.3,1.9 2.4,3.5 0.1,1 -0.3,1.9 -1,2.7 -1.2,1.3 -3.1,1.6 -4.6,0.6 -0.9,-0.6 -1.4,-1.4 -1.7,-2.4 -0.2,-0.4 -0.2,-0.8 -0.3,-1.1 z"
                 id="path28"
                 inkscape:connector-curvature="0"
                 style="fill:#972021" /><path
                 class="st17"
                 d="m 224.2,137.9 c 0.1,-1.8 0.6,-3.1 2,-4 0.5,-0.4 1.1,-0.7 1.7,-0.9 1.2,-0.5 2.5,-0.4 3.7,0.1 2.1,1 3.2,2.7 3.4,4.9 0.1,1.4 -0.4,2.7 -1.4,3.8 -1.7,1.8 -4.4,2.3 -6.6,0.9 -1.3,-0.8 -2,-2 -2.4,-3.4 -0.2,-0.5 -0.3,-1.1 -0.4,-1.4 z"
                 id="path30"
                 inkscape:connector-curvature="0"
                 style="fill:#972021" /></g><g
               id="g44"><path
                 class="st18"
                 d="m 215.7,229.9 c 0.1,-1.7 0.6,-3 1.9,-3.9 0.5,-0.3 1,-0.7 1.6,-0.9 1.2,-0.5 2.4,-0.4 3.5,0.1 2,1 3.1,2.6 3.3,4.8 0.1,1.4 -0.4,2.6 -1.4,3.7 -1.6,1.8 -4.3,2.2 -6.4,0.9 -1.2,-0.8 -2,-1.9 -2.3,-3.3 -0.1,-0.6 -0.1,-1.1 -0.2,-1.4 z"
                 id="path34"
                 inkscape:connector-curvature="0"
                 style="fill:#79986f" /><path
                 class="st18"
                 d="m 275.4,265.4 c 0,-1.2 0.4,-2 1.3,-2.6 0.3,-0.2 0.7,-0.5 1.1,-0.6 0.8,-0.3 1.6,-0.3 2.4,0.1 1.4,0.7 2.1,1.8 2.2,3.2 0.1,0.9 -0.3,1.8 -0.9,2.5 -1.1,1.2 -2.9,1.5 -4.3,0.6 -0.8,-0.5 -1.3,-1.3 -1.6,-2.2 -0.1,-0.4 -0.2,-0.8 -0.2,-1 z"
                 id="path36"
                 inkscape:connector-curvature="0"
                 style="fill:#79986f" /><path
                 class="st18"
                 d="m 220.7,181.2 c 0,-1.2 0.4,-2 1.3,-2.6 0.3,-0.2 0.7,-0.5 1.1,-0.6 0.8,-0.3 1.6,-0.3 2.4,0.1 1.4,0.7 2.1,1.8 2.2,3.2 0.1,0.9 -0.3,1.8 -0.9,2.5 -1.1,1.2 -2.9,1.5 -4.3,0.6 -0.8,-0.5 -1.3,-1.3 -1.6,-2.2 -0.1,-0.4 -0.1,-0.8 -0.2,-1 z"
                 id="path38"
                 inkscape:connector-curvature="0"
                 style="fill:#79986f" /><path
                 class="st18"
                 d="m 226.7,121.5 c 0,-1.2 0.4,-2 1.3,-2.7 0.3,-0.2 0.7,-0.5 1.1,-0.6 0.8,-0.3 1.6,-0.3 2.4,0.1 1.4,0.7 2.1,1.8 2.2,3.3 0.1,0.9 -0.3,1.8 -0.9,2.5 -1.1,1.2 -2.9,1.5 -4.3,0.6 -0.8,-0.5 -1.3,-1.3 -1.6,-2.3 -0.2,-0.3 -0.2,-0.7 -0.2,-0.9 z"
                 id="path40"
                 inkscape:connector-curvature="0"
                 style="fill:#79986f" /><path
                 class="st18"
                 d="m 250.3,338.2 c 0.1,-1.7 0.6,-3 1.9,-3.9 0.5,-0.3 1,-0.7 1.6,-0.9 1.2,-0.5 2.4,-0.4 3.5,0.1 2,1 3.1,2.6 3.3,4.8 0.1,1.4 -0.4,2.6 -1.4,3.7 -1.6,1.8 -4.3,2.2 -6.4,0.9 -1.2,-0.8 -2,-1.9 -2.3,-3.3 -0.1,-0.5 -0.2,-1.1 -0.2,-1.4 z"
                 id="path42"
                 inkscape:connector-curvature="0"
                 style="fill:#79986f" /></g><g
               id="g52"><path
                 class="st19"
                 d="m 226.1,305 c 0.1,-2.1 0.7,-3.6 2.3,-4.7 0.6,-0.4 1.2,-0.8 1.9,-1.1 1.4,-0.6 2.9,-0.5 4.3,0.2 2.4,1.2 3.7,3.1 3.9,5.8 0.1,1.7 -0.5,3.2 -1.6,4.4 -2,2.2 -5.2,2.6 -7.7,1.1 -1.5,-0.9 -2.4,-2.3 -2.8,-4 -0.2,-0.7 -0.3,-1.4 -0.3,-1.7 z"
                 id="path46"
                 inkscape:connector-curvature="0"
                 style="fill:#fff0ba" /><path
                 class="st19"
                 d="m 281,339.3 c 0.1,-1.7 0.6,-3 1.9,-3.9 0.5,-0.3 1,-0.7 1.6,-0.9 1.2,-0.5 2.4,-0.4 3.5,0.1 2,0.9 3.1,2.6 3.2,4.7 0.1,1.4 -0.4,2.6 -1.3,3.6 -1.6,1.8 -4.2,2.1 -6.3,0.9 -1.2,-0.8 -1.9,-1.9 -2.3,-3.3 -0.2,-0.4 -0.2,-0.9 -0.3,-1.2 z"
                 id="path48"
                 inkscape:connector-curvature="0"
                 style="fill:#fff0ba" /><path
                 class="st19"
                 d="m 192.7,207.2 c 0,-1.4 0.5,-2.5 1.6,-3.2 0.4,-0.3 0.8,-0.5 1.3,-0.7 1,-0.4 1.9,-0.3 2.9,0.1 1.6,0.8 2.5,2.1 2.7,3.9 0.1,1.1 -0.3,2.1 -1.1,3 -1.3,1.5 -3.5,1.8 -5.2,0.7 -1,-0.6 -1.6,-1.6 -1.9,-2.7 -0.2,-0.4 -0.3,-0.8 -0.3,-1.1 z"
                 id="path50"
                 inkscape:connector-curvature="0"
                 style="fill:#fff0ba" /></g><g
               id="g60"><path
                 class="st17"
                 d="m 208.6,290.6 c -0.4,0.1 -0.6,0.2 -0.9,0.3 -0.5,0.3 -0.9,0.7 -1.3,1.3 -0.3,0.5 -0.7,1 -1,1.5 -0.5,0.8 -1.2,1 -2.1,0.7 -0.2,-0.1 -0.4,-0.3 -0.5,-0.5 -0.3,-0.7 -0.3,-1.3 0.1,-2 0.5,-0.9 1.1,-1.8 1.9,-2.5 0.5,-0.5 1.1,-1 1.8,-1.4 2.4,-1.5 4.8,0.3 5.3,2.2 0.2,0.6 0.2,1.2 0.1,1.8 -0.1,0.8 -0.3,1.7 -0.6,2.5 -1,2.6 -2.2,5.1 -3.6,7.6 -1.3,2.3 -2.6,4.5 -3.8,6.7 -0.1,0.1 -0.1,0.2 -0.2,0.4 -0.4,0.6 -1,0.8 -1.6,0.6 -0.6,-0.2 -1.1,-0.8 -1,-1.5 0,-0.3 0.1,-0.6 0.3,-0.9 0.8,-1.9 1.8,-3.8 2.8,-5.6 1.5,-2.6 2.8,-5.2 3.8,-8 0.3,-0.9 0.5,-1.8 0.5,-2.7 0,0 0,-0.2 0,-0.5 z"
                 id="path54"
                 inkscape:connector-curvature="0"
                 style="fill:#972021" /><path
                 class="st17"
                 d="m 211.7,165.5 c 0,0.3 0.1,0.4 0.1,0.6 0,0.4 -0.2,0.8 -0.4,1.2 -0.2,0.4 -0.4,0.7 -0.6,1.1 -0.3,0.6 -0.3,1.1 0.2,1.5 0.1,0.1 0.3,0.2 0.5,0.2 0.5,0 0.9,-0.2 1.2,-0.7 0.4,-0.6 0.7,-1.2 0.9,-1.9 0.1,-0.5 0.3,-1 0.3,-1.5 0.1,-2 -1.8,-2.8 -3.2,-2.5 -0.4,0.1 -0.9,0.3 -1.2,0.5 -0.5,0.3 -1,0.7 -1.4,1.2 -1.4,1.4 -2.5,3 -3.6,4.6 -1,1.5 -2,3 -3,4.5 -0.1,0.1 -0.1,0.2 -0.2,0.2 -0.2,0.4 -0.2,0.9 0.2,1.2 0.4,0.3 0.9,0.4 1.3,0.1 0.2,-0.1 0.4,-0.3 0.5,-0.5 0.9,-1.1 1.8,-2.3 2.6,-3.5 1.1,-1.7 2.4,-3.4 3.8,-4.9 0.4,-0.5 0.9,-0.9 1.5,-1.2 0.1,-0.1 0.2,-0.1 0.5,-0.2 z"
                 id="path56"
                 inkscape:connector-curvature="0"
                 style="fill:#972021" /><path
                 class="st17"
                 d="m 234.6,225.1 c 0.3,0.2 0.5,0.2 0.7,0.4 0.4,0.3 0.7,0.7 0.9,1.2 0.2,0.5 0.4,0.9 0.7,1.4 0.4,0.7 0.9,1 1.7,0.8 0.2,0 0.4,-0.2 0.5,-0.4 0.3,-0.5 0.4,-1.1 0.2,-1.7 -0.3,-0.8 -0.7,-1.6 -1.3,-2.3 -0.4,-0.5 -0.8,-1 -1.3,-1.4 -1.9,-1.5 -4.1,-0.1 -4.8,1.5 -0.2,0.5 -0.3,1.1 -0.4,1.6 0,0.7 0,1.5 0.2,2.2 0.5,2.4 1.2,4.7 2.1,6.9 0.8,2.1 1.6,4.1 2.4,6.2 0,0.1 0.1,0.2 0.1,0.3 0.3,0.5 0.8,0.8 1.3,0.7 0.6,-0.1 1,-0.6 1.1,-1.2 0,-0.3 0,-0.6 -0.1,-0.8 -0.5,-1.7 -1.1,-3.4 -1.7,-5.1 -0.9,-2.4 -1.8,-4.8 -2.3,-7.3 -0.2,-0.8 -0.2,-1.6 -0.1,-2.4 -0.1,-0.2 0,-0.4 0.1,-0.6 z"
                 id="path58"
                 inkscape:connector-curvature="0"
                 style="fill:#972021" /></g><g
               id="g66"><path
                 class="st18"
                 d="m 218.4,255.8 c -0.1,0.5 -0.3,0.8 -0.4,1.2 -0.1,0.8 0,1.6 0.3,2.4 0.3,0.8 0.5,1.5 0.8,2.3 0.4,1.2 0.1,2.2 -1,2.8 -0.2,0.2 -0.6,0.2 -0.9,0.1 -0.9,-0.3 -1.7,-0.8 -2,-1.7 -0.5,-1.3 -0.9,-2.7 -1,-4.1 -0.1,-1 -0.1,-2.1 0,-3.1 0.5,-3.8 4.4,-4.8 6.8,-3.7 0.8,0.3 1.5,0.8 2.1,1.4 0.8,0.8 1.6,1.8 2.2,2.8 2,3.3 3.6,6.7 5.1,10.3 1.3,3.3 2.6,6.5 3.9,9.8 0.1,0.2 0.1,0.4 0.2,0.5 0.3,0.9 0,1.7 -0.7,2.2 -0.8,0.5 -1.8,0.4 -2.5,-0.2 -0.3,-0.3 -0.5,-0.7 -0.7,-1.1 -1.3,-2.5 -2.5,-5.1 -3.5,-7.7 -1.5,-3.7 -3.2,-7.4 -5.3,-10.9 -0.7,-1.1 -1.4,-2.1 -2.4,-2.9 -0.4,0 -0.6,-0.2 -1,-0.4 z"
                 id="path62"
                 inkscape:connector-curvature="0"
                 style="fill:#79986f" /><path
                 class="st18"
                 d="m 252.3,317.9 c 0.3,0 0.6,-0.1 0.8,-0.1 0.5,0 1,0.2 1.5,0.4 0.4,0.3 0.9,0.5 1.3,0.8 0.7,0.4 1.3,0.3 1.9,-0.3 0.1,-0.1 0.2,-0.4 0.2,-0.6 0,-0.6 -0.3,-1.2 -0.8,-1.5 -0.8,-0.5 -1.5,-0.9 -2.4,-1.2 -0.6,-0.2 -1.3,-0.3 -1.9,-0.4 -2.4,-0.2 -3.5,2.2 -3.1,4 0.1,0.5 0.3,1.1 0.6,1.5 0.4,0.6 0.9,1.2 1.4,1.7 1.8,1.7 3.7,3.1 5.7,4.5 1.8,1.2 3.7,2.5 5.5,3.7 0.1,0.1 0.2,0.1 0.3,0.2 0.5,0.3 1.1,0.2 1.5,-0.2 0.4,-0.4 0.5,-1.1 0.2,-1.6 -0.1,-0.2 -0.4,-0.4 -0.6,-0.6 -1.4,-1.1 -2.8,-2.2 -4.3,-3.2 -2.1,-1.4 -4.2,-2.9 -6,-4.7 -0.6,-0.6 -1.1,-1.2 -1.5,-1.9 -0.2,-0.1 -0.2,-0.2 -0.3,-0.5 z"
                 id="path64"
                 inkscape:connector-curvature="0"
                 style="fill:#79986f" /></g></g></g></g></g><g
       id="g206"><path
         class="st20"
         d="m 307.5,229.5 c -2.6,-1.5 -5.2,-2.9 -7.8,-4.3 0,0 0,0 0,0.1 0.1,0.1 0.2,0.2 0.2,0.3 0.7,0.7 1.4,1.5 2.1,2.2 0.1,0.1 0.2,0.3 0.4,0.4 0.2,0.3 0.2,0.5 0,0.7 -0.2,0.2 -0.5,0.2 -0.7,-0.1 -0.4,-0.4 -0.9,-0.8 -1.3,-1.2 -0.7,-0.7 -1.4,-1.5 -2.2,-2.2 -0.1,-0.1 -0.2,-0.1 -0.3,-0.2 0.3,0.7 0.6,1.4 0.9,2.1 0.3,0.7 0.6,1.4 0.9,2.2 0.1,0.3 0.2,0.4 0.5,0.5 0.7,0.3 1,0.8 0.9,1.4 0,0.6 -0.5,1.2 -1.1,1.4 -0.9,0.3 -2,-0.5 -1.9,-1.5 0,-0.4 0.2,-0.8 0.3,-1.2 -0.9,-2 -1.8,-4 -2.7,-6.1 0,0 -0.1,0 -0.1,0 0,0.2 0,0.4 0,0.5 0.2,1.9 0.4,3.8 0.5,5.7 0,0.2 0,0.4 0,0.6 0,0.3 -0.2,0.5 -0.5,0.5 -0.3,0 -0.5,-0.1 -0.6,-0.5 0,-0.2 -0.1,-0.3 -0.1,-0.5 -0.1,-1.3 -0.3,-2.6 -0.4,-3.9 0,-0.2 -0.1,-0.4 -0.1,-0.7 0,0 -0.1,0 -0.1,0 -0.7,3.5 -1.4,6.9 -2,10.3 0.3,0.4 0.6,0.7 0.9,1.1 0.6,0.8 0.3,1.8 -0.2,2.4 -1,1.1 -2.9,1 -3.8,-0.3 -0.7,-1 -0.2,-2.7 1,-3.2 0.6,-0.2 0.7,-0.5 0.8,-1 0.7,-3.7 1.5,-7.4 2.2,-11.1 0,-0.1 0,-0.2 0,-0.3 -1.1,1.5 -2.3,2.9 -3.4,4.4 0.1,0.1 0.1,0.2 0.2,0.3 0.5,0.8 0,1.8 -0.8,2.2 0,0 -0.1,0 -0.1,0 -0.8,0.3 -1.4,0.2 -1.8,-0.3 -0.4,-0.4 -0.4,-1.3 0,-1.9 0.2,-0.4 0.6,-0.7 1,-0.8 0.1,0 0.3,-0.1 0.4,-0.2 0.7,-0.9 1.4,-1.8 2,-2.7 0.1,-0.1 0.1,-0.2 0.1,-0.4 -0.1,0.1 -0.3,0.1 -0.4,0.2 -1,0.5 -2.1,1.1 -3.1,1.6 -0.2,0.1 -0.4,0.2 -0.7,0.2 -0.1,0 -0.3,0 -0.3,-0.1 0,-0.1 0,-0.3 0.1,-0.4 0.2,-0.2 0.4,-0.4 0.6,-0.5 1,-0.6 2,-1.2 2.9,-1.8 0.6,-0.4 1.2,-0.8 1.8,-1.2 -1.7,0.4 -8.4,3 -9.2,3.6 0,0 0,0.1 0,0.2 0.4,1.1 -0.4,2.7 -1.9,3.1 -1,0.3 -1.8,-0.2 -2.4,-0.9 -0.6,-0.7 -0.7,-1.6 -0.3,-2.4 0.4,-0.9 1.1,-1.3 2,-1.4 0.5,0 1,0.1 1.5,0.3 0.2,0.1 0.5,0.1 0.7,0 2.3,-1.3 4.7,-2.3 7.2,-3.2 0.1,0 0.1,-0.1 0.3,-0.2 -0.2,0 -0.4,-0.1 -0.5,-0.1 -1.8,-0.2 -3.5,-0.3 -5.3,-0.5 -0.3,0 -0.5,0.1 -0.7,0.2 -0.8,0.7 -2,0.4 -2.3,-0.6 -0.3,-0.9 0.3,-1.7 1.2,-1.7 0.5,0 1,0.3 1.3,0.6 0.2,0.1 0.3,0.2 0.5,0.2 1.7,0.1 3.3,0.2 5,0.3 0.1,0 0.1,0 0.3,-0.1 -0.1,-0.1 -0.2,-0.1 -0.4,-0.2 -1,-0.4 -2,-0.7 -3.1,-1.1 -0.2,-0.1 -0.3,-0.1 -0.5,-0.2 -0.1,-0.1 -0.2,-0.2 -0.1,-0.3 0,-0.1 0.2,-0.2 0.3,-0.2 0.2,0 0.4,0 0.6,0.1 0.7,0.2 1.5,0.4 2.2,0.7 0.2,0.1 0.4,0.1 0.7,0.1 -0.1,-0.1 -0.2,-0.2 -0.3,-0.2 -1,-0.5 -1.9,-1.1 -2.9,-1.6 -1.9,-1 -3.7,-2 -5.5,-3.2 -0.3,0.1 -0.5,0.1 -0.7,0.2 -0.9,0.2 -1.9,-0.1 -2.3,-0.8 -0.5,-0.8 -0.5,-1.8 0.2,-2.6 0.6,-0.8 1.5,-1 2.5,-0.7 0.7,0.3 1.2,0.7 1.5,1.4 0.1,0.3 0.1,0.6 0.1,0.9 0,0.2 -0.1,0.3 -0.2,0.6 3,1.9 6.4,3.2 9.5,4.9 -0.6,-0.7 -1.2,-1.4 -1.8,-2.1 -0.3,-0.3 -0.5,-0.6 -0.8,-0.9 -0.1,-0.1 -0.2,-0.3 -0.2,-0.4 0,-0.2 0,-0.4 0.1,-0.5 0.1,-0.1 0.3,-0.1 0.5,-0.1 0.2,0.1 0.3,0.2 0.5,0.4 1.2,1.3 2.5,2.6 3.7,3.9 0.1,0.1 0.3,0.3 0.5,0.4 -0.2,-0.5 -0.4,-1 -0.7,-1.4 -1,-2 -1.9,-4 -2.9,-6 -0.1,-0.3 -0.3,-0.5 -0.5,-0.6 -0.2,-0.1 -0.3,-0.2 -0.4,-0.4 -0.4,-0.4 -0.5,-0.9 -0.3,-1.4 0.2,-0.5 0.6,-0.9 1.2,-0.9 0.6,0 1,0.2 1.3,0.7 0.4,0.6 0.4,1.2 -0.2,2 0.9,1.7 1.7,3.4 2.6,5 0,0 0,0 0.1,0 0,-0.1 0,-0.3 0,-0.4 -0.1,-1.3 -0.2,-2.5 -0.3,-3.8 0,-0.2 0,-0.4 0,-0.6 0,-0.4 0.2,-0.6 0.5,-0.6 0.3,0 0.4,0.2 0.5,0.5 0.1,0.3 0.1,0.6 0.2,1 0.2,1.6 0.4,3.2 0.6,4.8 0,0.2 0.1,0.4 0.2,0.6 0.1,-0.3 0.2,-0.7 0.2,-1 0.7,-3.5 1.5,-7.1 2.2,-10.6 0.1,-0.4 0,-0.6 -0.2,-0.9 -0.6,-0.6 -0.8,-1.4 -0.6,-2.2 0.1,-0.3 0.1,-0.5 0.2,-0.8 0.2,-0.6 0.6,-0.9 1.1,-1 0.8,-0.2 1.6,-0.1 2.3,0.3 1,0.6 1.2,1.5 0.9,2.5 -0.4,1.2 -1.2,1.9 -2.5,1.9 -0.8,4 -1.5,8 -2.3,12 0.1,-0.1 0.2,-0.2 0.3,-0.3 1,-1.4 1.9,-2.7 2.9,-4.1 0.1,-0.1 0.1,-0.3 0.1,-0.5 0.1,-0.3 0.1,-0.6 0.2,-0.8 0.2,-0.5 0.6,-0.9 1.2,-1 0.6,-0.1 1,0.3 1.4,0.7 0.1,0.2 0.2,0.4 0.2,0.6 0,0.9 -1,1.7 -1.9,1.6 -0.1,0 -0.2,0 -0.3,-0.1 -1,1.5 -2,3 -3,4.5 0,0 0.1,0 0.1,0.1 0.6,-0.5 1.1,-0.9 1.7,-1.4 0.8,-0.6 1.6,-1.3 2.5,-1.9 0.2,-0.1 0.3,-0.3 0.5,-0.3 0.2,0 0.4,0 0.5,0.1 0.1,0.1 0.1,0.4 0,0.5 0,0.2 -0.2,0.3 -0.3,0.4 -0.4,0.4 -0.8,0.8 -1.2,1.2 2.4,-0.9 4.7,-2.1 7,-3.2 0,-0.2 0.1,-0.4 0.1,-0.6 0.3,-1.2 1.3,-1.8 2.5,-1.4 1.1,0.3 1.7,1.2 1.7,2.2 0,1 -0.7,1.9 -1.7,2.2 -0.6,0.2 -1.2,0 -1.7,-0.4 -0.1,-0.1 -0.3,-0.3 -0.4,-0.4 -3.2,1.5 -6.3,2.9 -9.5,4.4 0,0 0,0 0,0 1.1,-0.3 2.2,-0.6 3.2,-0.9 0.1,0 0.3,-0.1 0.5,-0.1 0.2,0 0.4,0 0.5,0.2 0.1,0.2 0,0.4 -0.3,0.5 -0.5,0.2 -0.9,0.4 -1.4,0.5 -0.9,0.3 -1.9,0.6 -2.8,0.8 -0.1,0 -0.1,0 -0.2,0.2 2.5,0.2 4.9,0.3 7.4,0.5 0.1,-0.1 0.1,-0.1 0.2,-0.2 0.4,-0.5 0.9,-0.6 1.4,-0.5 0.6,0.1 0.9,0.6 1,1.1 0.1,0.5 0,0.9 -0.5,1.2 -0.5,0.3 -1,0.5 -1.5,0.1 -0.4,-0.3 -0.9,-0.3 -1.4,-0.3 -1.1,0 -2.2,0 -3.5,-0.1 0.2,0.1 0.3,0.2 0.5,0.2 0.9,0.2 1.8,0.5 2.7,0.7 0.1,0 0.3,0.1 0.4,0.1 0.2,0.1 0.3,0.2 0.2,0.4 0,0.2 -0.2,0.3 -0.4,0.3 -0.2,0 -0.3,0 -0.5,-0.1 -1.5,-0.4 -3,-0.8 -4.5,-1.1 -0.2,-0.1 -0.4,-0.1 -0.7,-0.1 0.1,0.1 0.2,0.2 0.3,0.2 2.7,1.5 5.4,2.9 8.1,4.4 0.3,0.2 0.6,0.2 0.9,0 0.3,-0.2 0.7,-0.2 1.1,-0.1 0.9,0.2 1.5,0.9 1.8,1.7 0.1,0.4 0.1,0.8 -0.1,1.1 -0.3,0.8 -0.9,1.2 -1.7,1.3 -0.9,0.1 -1.7,0 -2.2,-0.8 -0.3,0.5 -0.4,0 -0.3,-0.6 z"
         id="path76"
         inkscape:connector-curvature="0"
         style="fill:#c9d0d6" /><path
         class="st20"
         d="m 124.2,197.5 c -1.2,0.7 -2.4,1.4 -3.5,2.1 -0.1,0.1 -0.2,0.2 -0.3,0.4 -0.3,0.5 -0.7,0.8 -1.3,0.8 -0.2,0 -0.4,0 -0.5,0.1 -1.1,0.6 -2.2,1.2 -3.3,1.9 -0.1,0 -0.1,0.1 -0.2,0.1 0.1,0.1 0.2,0.1 0.3,0.2 1,0.4 2,0.8 3,1.1 0.3,0.1 0.5,0.1 0.8,0 0.7,-0.3 1.3,-0.1 1.7,0.6 0.1,0.3 0.3,0.4 0.6,0.5 0.9,0.3 1.9,0.6 2.8,1 0.2,0.1 0.4,0.1 0.6,-0.1 0.6,-0.5 1.3,-0.5 1.9,-0.1 0.7,0.4 0.9,1 0.9,1.7 0,0.7 -0.5,1.3 -1.3,1.4 -0.3,0 -0.7,0.1 -1,0.1 -0.8,0 -1.1,-0.3 -1.2,-1.1 0,-0.1 0,-0.1 0,-0.2 -0.3,-0.1 -0.5,-0.2 -0.8,-0.3 -0.7,-0.2 -1.4,-0.5 -2.1,-0.7 -0.5,-0.2 -0.9,-0.3 -1.4,0 -0.4,0.2 -0.9,0 -1.3,0 -0.3,0 -0.5,-0.3 -0.5,-0.6 0,-0.2 0,-0.3 -0.1,-0.5 -1.4,-0.6 -2.9,-1.2 -4.4,-1.8 0.1,0.2 0.1,0.4 0.2,0.5 0.6,1.3 1.1,2.6 1.7,3.9 0.1,0.2 0.2,0.4 0.4,0.5 1,0.3 1.4,1 1,2 -0.1,0.4 -0.1,0.7 0.1,1 0.4,0.8 0.8,1.7 1.2,2.6 0.1,0 0.2,0 0.3,0 0.7,0 1.1,0.4 1.4,1 0.1,0.3 0.2,0.6 0.3,0.9 0.1,1.1 -0.5,1.9 -1.4,2 -1.1,0.1 -2.1,-0.6 -2.2,-1.6 -0.1,-0.6 0.1,-1.1 0.4,-1.6 -0.5,-1 -1,-2 -1.5,-3 -0.1,-0.2 -0.3,-0.3 -0.5,-0.4 -0.6,-0.3 -0.9,-0.8 -1,-1.3 -0.1,-0.2 0,-0.5 0.1,-0.8 0.1,-0.2 0.1,-0.4 0,-0.6 -0.7,-1.5 -1.3,-3.1 -2,-4.6 -0.4,0 -0.6,0.2 -0.7,0.5 -0.4,1.1 -0.8,2.1 -1.2,3.2 -0.1,0.2 -0.1,0.4 0,0.6 0.2,0.5 0.1,1 -0.1,1.5 -0.1,0.3 -0.3,0.6 -0.7,0.7 -0.2,0.1 -0.4,0.2 -0.4,0.5 -0.3,0.9 -0.5,1.8 -0.8,2.6 -0.1,0.3 -0.1,0.5 0.1,0.7 0,0 0.1,0.1 0.1,0.1 0.5,0.8 0.4,1.9 -0.3,2.3 -0.8,0.5 -1.9,0.4 -2.5,-0.3 -0.4,-0.5 -0.6,-1 -0.4,-1.6 0.2,-0.5 0.4,-0.9 0.9,-1 0.3,-0.1 0.4,-0.3 0.5,-0.6 0.3,-1 0.5,-1.9 0.8,-2.9 0.1,-0.2 0.1,-0.5 0,-0.7 -0.4,-0.9 -0.2,-1.6 0.7,-2 0.2,-0.1 0.4,-0.2 0.4,-0.5 0.2,-0.5 0.4,-1 0.6,-1.6 -0.2,0.1 -0.4,0.1 -0.5,0.2 -0.5,0.3 -1,0.5 -1.5,0.8 -0.3,0.1 -0.5,0.3 -0.6,0.6 -0.3,0.7 -0.6,0.9 -1.4,0.7 -0.2,-0.1 -0.4,0 -0.7,0.1 -0.4,0.2 -0.7,0.4 -1.1,0.5 -0.6,0.2 -1,0.5 -1.4,1 -0.8,1 -1.9,1 -2.8,0 -0.1,-0.1 -0.1,-0.1 -0.2,-0.2 -0.6,-0.8 -0.5,-1.9 0.2,-2.4 0.7,-0.6 1.8,-0.5 2.5,0.2 0.1,0.1 0.2,0.2 0.4,0.4 0.6,-0.3 1.2,-0.6 1.8,-1 0.1,-0.1 0.2,-0.2 0.2,-0.3 0.5,-1.3 1,-1.5 2.3,-1 1.1,-0.6 2.2,-1.1 3.3,-1.7 0.4,-0.2 0.5,-0.6 0.6,-1 -0.3,-0.1 -0.5,-0.2 -0.7,-0.3 -0.7,-0.3 -1.5,-0.6 -2.2,-0.9 -0.3,-0.1 -0.6,-0.2 -0.9,0 -0.3,0.2 -0.6,0.3 -0.9,0.3 -0.6,0 -1.1,-0.2 -1.2,-1.2 0,-0.2 0,-0.4 -0.3,-0.6 -1,-0.5 -2,-1 -3.1,-1.6 -0.4,0.4 -0.8,0.6 -1.4,0.6 -0.8,0 -1.4,-0.4 -1.8,-1 -0.5,-0.8 -0.1,-1.8 0.7,-2.2 1,-0.4 2,-0.1 2.5,0.9 0.1,0.2 0.3,0.4 0.5,0.5 1,0.5 2.1,1 3.1,1.5 0.3,0.1 0.5,0.2 0.8,0.1 0.9,-0.3 1.5,0 1.9,0.9 0.1,0.2 0.3,0.3 0.4,0.4 0.9,0.4 1.8,0.7 2.7,1 0,-0.2 -0.1,-0.3 -0.1,-0.4 -0.4,-1.1 -0.9,-2.2 -1.3,-3.3 -0.1,-0.2 -0.3,-0.4 -0.4,-0.6 -0.5,-0.4 -0.7,-0.9 -0.5,-1.6 0,-0.2 0,-0.3 0,-0.5 -0.3,-0.8 -0.6,-1.6 -0.9,-2.4 -0.2,0 -0.4,0 -0.6,-0.1 -1,-0.2 -1.7,-1.1 -1.6,-2.1 0,-0.2 0.1,-0.4 0.1,-0.6 0.1,-0.8 0.5,-1.3 1.4,-1.4 0.8,-0.1 1.5,0.2 1.9,0.9 0.5,0.8 0.5,1.6 0.1,2.5 -0.1,0.1 -0.1,0.2 -0.2,0.3 0.3,0.8 0.6,1.5 1,2.3 0.1,0.1 0.2,0.3 0.4,0.3 0.8,0.4 1.1,1 0.8,1.9 -0.1,0.2 -0.1,0.4 0,0.5 0.3,0.8 0.7,1.6 1,2.4 0,0.1 0.1,0.1 0.1,0.1 0.1,-0.1 0.1,-0.1 0.1,-0.1 0.4,-1.1 0.9,-2.2 1.3,-3.3 0.1,-0.1 0,-0.3 0,-0.5 -0.2,-0.7 0,-1.2 0.7,-1.6 0.2,-0.1 0.4,-0.3 0.5,-0.5 0.4,-1 0.8,-1.9 1.3,-2.9 0.1,-0.3 0,-0.5 -0.1,-0.7 -0.4,-0.8 -0.2,-1.6 0.5,-2 0.8,-0.5 1.7,-0.5 2.3,0.1 0.5,0.5 0.6,1.2 0.4,1.9 -0.2,0.6 -0.6,1 -1.2,1.1 -0.4,0.1 -0.6,0.3 -0.7,0.6 -0.3,0.9 -0.7,1.7 -1,2.6 -0.1,0.2 -0.1,0.4 0,0.6 0.3,0.6 0,1.1 -0.6,1.6 -0.2,0.1 -0.4,0.3 -0.4,0.5 -0.6,1.6 -1.2,3.2 -1.8,4.7 0,0.1 0,0.1 0,0.2 0.2,0.2 0.5,0.2 0.7,0.1 1.4,-0.8 2.9,-1.6 4.3,-2.3 0.2,-0.1 0.3,-0.2 0.3,-0.4 0.1,-0.9 0.7,-1.2 1.5,-1 0.3,0.1 0.6,0 0.9,-0.1 0.9,-0.5 1.8,-1 2.7,-1.5 0.4,-0.2 0.8,-0.5 0.9,-1 0.1,-0.4 0.3,-0.7 0.6,-0.9 0.7,-0.5 1.5,-0.4 2,0.2 0.5,0.5 0.6,1.6 0.3,2.2 -0.4,0.8 -1.3,1.1 -2.1,0.7 -0.4,-0.2 -0.5,-0.3 -0.7,-0.4 z"
         id="path78"
         inkscape:connector-curvature="0"
         style="fill:#c9d0d6" /><path
         class="st20"
         d="m 145.1,233.1 c -0.5,-0.3 -1,-0.5 -1.5,-0.7 -0.9,-0.4 -1.8,-0.6 -2.6,-1 -1.3,-0.6 -1.6,-1.9 -0.4,-2.8 0.7,-0.6 1.5,-1.1 2.4,-1.5 1,-0.5 2,-0.9 3.1,-1.3 0,-0.9 0,-1.8 0,-2.7 0,-0.4 0,-0.7 0,-1.1 0,-0.6 0.2,-1.1 0.8,-1.3 0.6,-0.3 1.2,-0.1 1.6,0.4 0.5,0.5 1,1.1 1.5,1.7 1.5,1.9 1.1,2 3.8,1.3 0.9,-0.2 1.7,-0.5 2.6,-0.8 0.7,-0.2 1.3,-0.3 1.9,0.3 0.5,0.5 0.5,1.1 0.3,1.8 -0.3,0.8 -0.6,1.6 -0.9,2.3 -0.3,0.7 -0.8,1.3 -1.3,2.1 0.3,0.5 0.7,1.1 1.1,1.6 0.5,0.7 1,1.3 1.4,2 0.9,1.4 0.2,2.8 -1.5,2.8 -1.3,0 -2.6,-0.1 -3.9,-0.4 -1.1,-0.2 -1.9,-0.1 -2.8,0.7 -0.8,0.8 -1.8,1.4 -2.8,2 -0.3,0.2 -0.7,0.4 -1,0.5 -1.3,0.4 -2.3,-0.4 -2.2,-1.7 0.1,-0.9 0.3,-1.9 0.4,-2.8 -0.1,-0.6 -0.1,-1 0,-1.4 z"
         id="path80"
         inkscape:connector-curvature="0"
         style="fill:#c9d0d6" /><path
         class="st20"
         d="m 263.1,123.8 c -0.5,0.3 -0.8,0.6 -1.1,0.8 -1,0.8 -2,1.6 -3,2.3 -0.3,0.2 -0.7,0.4 -1,0.5 -0.4,0.1 -0.9,0 -1.1,-0.4 -0.3,-0.4 -0.2,-0.8 0.1,-1.2 0.3,-0.3 0.6,-0.6 0.9,-0.9 1.1,-1 2.3,-1.9 3.4,-2.9 0.2,-0.1 0.4,-0.3 0.8,-0.6 -1.2,-0.3 -2.1,-0.4 -3,-0.7 -0.8,-0.2 -1.5,-0.4 -2.2,-0.7 -0.7,-0.3 -1,-0.8 -0.8,-1.2 0.1,-0.5 0.6,-0.7 1.4,-0.6 1.6,0.3 3.3,0.5 4.9,0.8 0.2,0 0.4,0 0.7,0 -0.7,-1.2 -1.3,-2.3 -2,-3.4 -0.3,-0.6 -0.6,-1.2 -0.9,-1.8 -0.2,-0.6 -0.1,-1.1 0.4,-1.3 0.5,-0.3 0.9,0 1.2,0.4 0.5,0.6 0.9,1.3 1.4,1.9 0.4,0.6 0.8,1.2 1.3,1.9 0.2,-0.6 0.3,-0.9 0.4,-1.3 0.3,-1.5 0.6,-3 0.9,-4.5 0.1,-0.3 0.2,-0.6 0.3,-0.9 0.2,-0.5 0.6,-0.7 1.2,-0.6 0.5,0.1 0.7,0.5 0.7,0.9 0,0.7 0,1.4 -0.2,2.1 -0.2,1.5 -0.5,2.9 -0.8,4.4 0,0.3 0,0.5 0,1 0.7,-0.5 1.3,-0.9 1.9,-1.3 1,-0.7 2,-1.4 3,-2 0.2,-0.2 0.5,-0.4 0.7,-0.4 0.3,0 0.7,0 0.9,0.2 0.2,0.2 0.3,0.7 0.2,0.9 -0.2,0.4 -0.6,0.8 -1,1.2 -1.4,1.1 -2.7,2.1 -4.1,3.1 -0.2,0.2 -0.4,0.3 -0.7,0.6 0.3,0.1 0.6,0.2 0.8,0.3 1.2,0.3 2.4,0.6 3.5,0.9 0.4,0.1 0.8,0.2 1.2,0.4 0.6,0.3 0.9,0.7 0.7,1.2 -0.2,0.6 -0.7,0.8 -1.2,0.7 -0.9,-0.1 -1.9,-0.3 -2.8,-0.5 -0.4,-0.1 -0.8,-0.1 -1.5,-0.2 0.3,0.5 0.5,0.9 0.7,1.2 0.6,1 1.3,2.1 1.9,3.1 0.3,0.5 0.3,1 -0.2,1.4 -0.4,0.3 -1,0.3 -1.5,-0.3 -0.6,-0.7 -1.1,-1.5 -1.7,-2.3 -0.6,-0.9 -1.2,-1.7 -1.9,-2.7 -0.1,0.5 -0.3,0.8 -0.3,1.1 -0.3,1.5 -0.6,2.9 -0.9,4.4 -0.1,0.3 -0.1,0.5 -0.2,0.8 -0.2,0.6 -0.7,0.8 -1.2,0.7 -0.5,-0.1 -0.8,-0.5 -0.7,-1.1 0.1,-1.1 0.2,-2.2 0.3,-3.3 0,-0.4 0.1,-1.2 0.2,-2.1 z"
         id="path82"
         inkscape:connector-curvature="0"
         style="fill:#c9d0d6" /><g
         id="g102"><path
           class="st20"
           d="m 287,177.3 c -0.8,0 -1.4,0 -2.1,0 -0.3,0 -0.7,-0.1 -1,-0.2 -0.3,-0.1 -0.6,-0.4 -0.5,-0.8 0,-0.4 0.3,-0.5 0.7,-0.6 0.7,-0.1 1.5,-0.2 2.2,-0.3 0.5,0 0.8,-0.2 1,-0.6 0.6,-1.2 1.3,-2.4 1.8,-3.7 0.9,-2.2 0.1,-4.2 -2.1,-5.3 -0.7,-0.4 -1.6,-0.6 -2.4,-0.7 -1.1,-0.2 -2.3,-0.2 -3.5,-0.4 -0.2,0.6 -0.4,1.3 -0.7,1.9 -0.1,0.3 -0.2,0.7 -0.4,0.9 -0.2,0.3 -0.5,0.4 -0.9,0.3 -0.4,-0.1 -0.5,-0.4 -0.5,-0.8 0,-0.4 0.1,-0.8 0.2,-1.2 0.2,-0.6 0.4,-1.3 0.5,-1.9 0.2,-0.7 0.2,-0.7 -0.5,-1.1 -0.2,-0.1 -0.4,-0.3 -0.6,-0.4 -0.3,-0.2 -0.5,-0.5 -0.3,-0.9 0.1,-0.4 0.5,-0.6 0.8,-0.5 0.6,0.2 1.1,0.4 1.7,0.6 0.3,0.1 0.5,0.3 0.7,0.5 1.7,-0.6 3.2,-1.3 4.7,-2.3 1.3,-0.9 1.9,-2.2 1.5,-3.8 -0.1,-0.4 -0.2,-0.8 -0.3,-1.2 -0.3,-0.9 -0.7,-1.7 -1.5,-2.3 -0.9,-0.6 -1.8,-1.4 -2.7,-2.2 -0.5,0.2 -1,0.4 -1.5,0.6 -0.7,0.3 -1.2,0.2 -1.4,-0.2 -0.2,-0.4 0,-0.8 0.6,-1.3 0.2,-0.2 0.5,-0.4 0.7,-0.5 0.7,-0.3 0.9,-0.8 0.9,-1.5 0,-0.9 0.1,-1.7 0.1,-2.6 0,-0.5 0.4,-0.8 0.9,-0.6 0.5,0.2 0.7,0.6 0.7,1.2 0,0.9 0.1,1.9 0.1,2.8 0,0.2 0,0.3 0,0.4 2.2,0.8 4.4,1.6 6.6,2.4 0.6,0.2 1.2,0.3 1.7,0.4 1,0.2 1.5,0 1.9,-0.9 0.4,-0.9 0.8,-1.9 1,-2.9 0.3,-1.7 0.5,-3.5 0.7,-5.3 0,-0.2 0,-0.4 0,-0.4 -0.8,-0.6 -1.5,-1.1 -2.2,-1.7 -0.4,-0.3 -0.5,-0.7 -0.3,-1 0.2,-0.4 0.6,-0.4 1,-0.3 0.5,0.2 1,0.5 1.5,0.8 0.6,-0.6 1.3,-1.2 2,-1.7 0.3,-0.3 0.6,-0.6 1,-0.8 0.2,-0.1 0.5,-0.2 0.7,-0.3 0.3,0 0.6,0.1 0.8,0.5 0.1,0.3 0,0.5 -0.2,0.8 -0.6,0.6 -1.2,1.2 -1.8,1.8 -0.2,0.2 -0.5,0.5 -0.8,0.7 0.9,2.6 1.8,5.1 2.7,7.6 0.2,0.6 0.5,1.2 0.8,1.7 0.3,0.6 0.6,0.7 1.2,0.5 0.5,-0.1 0.9,-0.3 1.3,-0.6 1.5,-1 2.9,-2.1 4.4,-3.1 0.6,-0.5 1.2,-0.9 1.8,-1.5 0.5,-0.5 1,-1.1 1.4,-1.6 0.2,-0.2 0.2,-0.4 0.1,-0.7 -0.2,-0.8 -0.4,-1.7 -0.6,-2.5 0,-0.2 -0.1,-0.3 -0.1,-0.5 0,-0.4 0.1,-0.7 0.5,-0.9 0.4,-0.2 0.7,-0.1 0.9,0.2 0.2,0.3 0.4,0.6 0.5,0.9 0.2,0.7 0.4,1.4 0.6,2 0.9,0 1.7,0 2.6,0 0.4,0 0.7,0 1.1,0.1 0.4,0.1 0.7,0.3 0.7,0.8 0,0.4 -0.2,0.7 -0.6,0.8 -0.6,0.1 -1.1,0.2 -1.7,0.2 -0.4,0 -0.8,0.1 -1.2,0.1 -0.1,1.2 -0.8,2.2 -1.3,3.3 -0.6,1.2 -1.3,2.3 -1.9,3.5 -0.3,0.7 -0.6,1.4 -0.8,2.2 -0.2,0.9 0.1,1.4 1,1.6 0.7,0.2 1.4,0.3 2.2,0.5 1.9,0.3 3.8,0.6 5.8,0.9 0.3,0 0.6,0 0.9,0.1 0.2,-1.2 1.1,-2 1.8,-2.9 0.3,-0.4 0.8,-0.5 1.1,-0.3 0.4,0.2 0.5,0.6 0.3,1.1 -0.1,0.3 -0.3,0.7 -0.5,1 -0.2,0.3 -0.3,0.5 -0.5,0.8 0.6,0.7 1.1,1.4 1.7,2.1 0.2,0.2 0.4,0.5 0.5,0.7 0.3,0.5 0.2,0.9 -0.1,1.2 -0.3,0.3 -0.8,0.3 -1.2,0 -0.3,-0.2 -0.5,-0.5 -0.8,-0.8 -0.3,-0.3 -0.6,-0.6 -0.8,-0.9 -1.7,0.4 -3.3,0.7 -4.9,1.2 -0.9,0.3 -1.8,0.6 -2.7,1.1 -0.5,0.2 -0.8,0.7 -1.2,1.1 -0.7,0.9 -0.8,1.9 -0.2,2.9 0.4,0.7 0.8,1.4 1.3,1.9 1,1.1 2,2.1 3,3.2 0.1,0.1 0.2,0.2 0.3,0.3 0.6,-0.3 1.1,-0.6 1.7,-0.8 0.2,-0.1 0.4,-0.2 0.6,-0.3 0.5,-0.1 0.9,0 1.1,0.4 0.2,0.4 0.1,0.8 -0.3,1.1 -0.5,0.4 -1.1,0.7 -1.7,1.1 0,0.5 0.1,1 0.1,1.5 0,0.7 0.1,1.3 0.1,2 0,0.6 -0.3,0.9 -0.7,1 -0.5,0 -0.8,-0.2 -1,-0.8 -0.1,-0.7 -0.3,-1.4 -0.3,-2.1 0,-0.4 -0.2,-0.6 -0.6,-0.8 -2,-1.2 -3.9,-2.3 -5.9,-3.5 -0.6,-0.4 -1.1,-0.4 -1.7,-0.1 -0.4,0.3 -0.9,0.6 -1.2,0.9 -0.7,0.7 -1.1,1.6 -1.5,2.6 -0.7,2.1 -1.3,4.3 -1.7,6.5 -0.1,0.8 -0.1,0.8 0.6,1.2 0.8,0.5 1.6,1.1 2.3,1.6 0.2,0.1 0.3,0.2 0.5,0.4 0.4,0.4 0.4,0.9 0.1,1.2 -0.3,0.4 -0.8,0.5 -1.2,0.2 -0.2,-0.1 -0.4,-0.3 -0.6,-0.4 -0.8,-0.5 -1.7,-1.1 -2.6,-1.7 -0.3,0.5 -0.5,0.8 -0.8,1.2 -0.2,0.3 -0.4,0.6 -0.6,0.9 -0.2,0.3 -0.6,0.3 -0.9,0.2 -0.3,-0.2 -0.4,-0.5 -0.4,-0.8 0.1,-0.4 0.2,-0.8 0.5,-1.2 0.6,-0.8 0.6,-1.7 0.1,-2.6 -0.7,-1.5 -1.3,-3 -2,-4.5 -0.3,-0.6 -0.7,-1.1 -1.3,-1.3 -0.6,-0.2 -1.2,-0.3 -1.8,-0.2 -2.4,0.4 -4.4,1.4 -6.4,2.8 -0.4,0.3 -0.5,0.6 -0.4,1 0.1,0.7 0.2,1.4 0.3,2 0,0.6 -0.2,1 -0.6,1.1 -0.4,0.1 -0.8,-0.2 -1,-0.7 -0.2,-0.1 -0.4,-0.9 -0.7,-1.8 z m 13.9,-14 c 0,1.6 1.4,9.8 1.9,10.7 0.7,-2.7 1.6,-5.2 4.1,-6.8 -2,-1.3 -3.9,-2.6 -6,-3.9 z m -9,5.8 c 1.8,-2.3 3.6,-4.5 5.4,-6.8 -3.4,0.4 -6.7,0.7 -10,1.1 1.1,0.5 2.2,1.2 3,2.2 0.8,1 1.3,2.1 1.6,3.5 z m 6.5,-4 c -0.1,0 -0.1,0 -0.2,-0.1 -1.8,2.2 -3.5,4.5 -5.2,6.9 2.1,-0.5 4.2,-1.1 6.4,0.2 -0.3,-2.5 -0.6,-4.7 -1,-7 z M 288.3,161 c 2.6,-0.2 5.2,-0.5 7.7,-1 -2,-1.4 -4,-2.8 -6.1,-4.2 0.3,2.1 -0.3,3.8 -1.6,5.2 z m 22,-0.5 c -1.6,0.1 -6.6,0.8 -7.4,1.1 2.3,1.4 4.5,2.9 6.7,4.3 -0.2,-1 -0.5,-1.9 -0.3,-2.8 0.3,-0.9 0.6,-1.7 1,-2.6 z m -19.6,-7 c 0,0.1 0,0.1 -0.1,0.2 2.3,1.5 4.5,3 7,4.5 -0.3,-2.7 -0.5,-5.2 -0.8,-7.7 -0.4,0.6 -0.7,1.2 -1,1.8 -0.6,1.1 -1.4,1.6 -2.6,1.6 -0.5,0 -1,-0.1 -1.4,-0.1 -0.4,-0.1 -0.7,-0.2 -1.1,-0.3 z m 16.6,-0.1 c -1.5,1.6 -4,5 -4.2,5.6 2.4,-0.4 4.8,-0.7 7.1,-1.1 -2,-0.8 -3.2,-2 -2.9,-4.5 z m -7.1,4.9 c 0.1,0 0.1,0 0.2,0 1.5,-2 3.1,-3.9 4.6,-6 -0.6,0.1 -1,0.4 -1.5,0.5 -1.3,0.4 -2.6,0.5 -3.7,-0.5 0,0 -0.1,0 -0.2,0 0.1,2.2 0.4,4.1 0.6,6 z"
           id="path84"
           inkscape:connector-curvature="0"
           style="fill:#c9d0d6" /><path
           class="st20"
           d="m 323.1,174 c 0,0.6 -0.9,1.6 -1.6,1.7 -0.8,0.1 -1.6,-0.5 -1.8,-1.4 -0.2,-0.7 0.3,-1.4 1.1,-1.7 1.2,-0.4 2.3,0.3 2.3,1.4 z"
           id="path86"
           inkscape:connector-curvature="0"
           style="fill:#c9d0d6" /><path
           class="st20"
           d="m 278.9,145.5 c 0.9,0 1.6,0.8 1.6,1.7 0,0.9 -0.8,1.7 -1.6,1.6 -0.9,0 -1.6,-0.8 -1.6,-1.7 -0.1,-0.8 0.7,-1.6 1.6,-1.6 z"
           id="path88"
           inkscape:connector-curvature="0"
           style="fill:#c9d0d6" /><path
           class="st20"
           d="m 286.2,179.5 c 0,0.9 -0.8,1.9 -1.5,1.9 -0.7,0 -1.6,-0.9 -1.6,-1.6 0,-0.8 0.8,-1.6 1.7,-1.6 0.8,-0.1 1.4,0.5 1.4,1.3 z"
           id="path90"
           inkscape:connector-curvature="0"
           style="fill:#c9d0d6" /><path
           class="st20"
           d="m 303.5,184.1 c 0.7,0 1.5,0.9 1.5,1.7 0,0.8 -0.8,1.5 -1.6,1.5 -0.8,0 -1.6,-0.9 -1.5,-1.8 0.1,-0.6 0.9,-1.4 1.6,-1.4 z"
           id="path92"
           inkscape:connector-curvature="0"
           style="fill:#c9d0d6" /><path
           class="st20"
           d="m 277.6,164.5 c 0,0.8 -0.5,1.5 -1.3,1.5 -0.8,0 -1.8,-0.8 -1.8,-1.7 0,-0.7 0.7,-1.4 1.5,-1.4 0.8,0 1.6,0.7 1.6,1.6 z"
           id="path94"
           inkscape:connector-curvature="0"
           style="fill:#c9d0d6" /><path
           class="st20"
           d="m 295.6,138 c -0.8,0 -1.6,-0.8 -1.6,-1.6 0,-0.7 0.7,-1.4 1.6,-1.4 0.8,0 1.5,0.6 1.5,1.5 -0.1,0.8 -0.7,1.5 -1.5,1.5 z"
           id="path96"
           inkscape:connector-curvature="0"
           style="fill:#c9d0d6" /><path
           class="st20"
           d="m 325.8,154.7 c 0.8,0 1.5,0.7 1.5,1.5 0,0.8 -0.7,1.5 -1.6,1.5 -0.8,0 -1.5,-0.7 -1.5,-1.5 0.1,-0.8 0.7,-1.5 1.6,-1.5 z"
           id="path98"
           inkscape:connector-curvature="0"
           style="fill:#c9d0d6" /><path
           class="st20"
           d="m 314.5,139.6 c 0,-0.9 0.7,-1.6 1.5,-1.6 0.9,0 1.4,0.5 1.4,1.4 0,0.9 -0.7,1.5 -1.6,1.5 -0.8,0.1 -1.3,-0.4 -1.3,-1.3 z"
           id="path100"
           inkscape:connector-curvature="0"
           style="fill:#c9d0d6" /></g><g
         id="g114"><path
           class="st20"
           d="m 163.3,177.7 c 1.2,-0.2 2.2,-0.3 3.2,-0.5 0.6,-0.1 1.1,-0.1 1.6,-0.5 0.1,-0.1 0.5,-0.1 0.6,0 0.2,0.2 0.2,0.5 0.2,0.7 -0.1,0.5 -0.5,0.7 -0.9,0.8 -0.8,0.2 -1.7,0.3 -2.5,0.5 -0.3,0 -0.5,0.1 -0.9,0.2 0.5,0.6 0.9,1 1.4,1.5 0.1,0.1 0.4,0.1 0.6,0.1 1.1,-0.1 2.2,-0.3 3.3,-0.4 0.3,0 0.7,-0.1 0.8,0.3 0.1,0.3 -0.1,0.7 -0.5,0.8 -0.5,0.2 -1,0.2 -1.5,0.3 -0.4,0.1 -0.9,0.1 -1.5,0.2 0.2,0.3 0.4,0.5 0.6,0.7 0.4,0.4 0.8,0.9 1.2,1.3 0.3,0.4 0.3,0.7 0.1,0.9 -0.3,0.3 -0.6,0.3 -1,0 -0.2,-0.2 -0.4,-0.4 -0.6,-0.6 -0.2,-0.2 -0.3,-0.3 -0.5,-0.5 0,0 -0.1,0 -0.2,-0.1 0,0.2 0,0.4 0,0.5 0,0.3 -0.1,0.5 -0.3,0.6 -0.3,0.1 -0.5,-0.1 -0.6,-0.4 -0.1,-0.2 -0.2,-0.5 -0.2,-0.7 0.1,-1.5 -0.9,-2.3 -1.9,-3.3 -0.1,0.2 -0.2,0.4 -0.2,0.5 -0.1,0.2 -0.1,0.5 -0.2,0.7 -0.2,0.4 -0.4,0.6 -0.7,0.5 -0.4,-0.1 -0.4,-0.4 -0.4,-0.7 0.1,-0.5 0.1,-1.1 0.2,-1.6 0.1,-0.4 0.1,-0.7 -0.3,-1.1 -1.3,-1.2 -2.5,-2.4 -3.8,-3.5 -0.2,-0.2 -0.4,-0.3 -0.7,-0.5 0,0.3 0,0.5 0,0.7 0.2,2.1 0.4,4.2 0.5,6.3 0.1,2.5 0.1,4.9 -0.3,7.4 -0.1,0.6 -0.3,1.2 -0.5,1.9 -0.1,0.3 -0.2,0.5 -0.3,0.7 -0.6,0.9 -1.7,1 -2.2,0 -0.4,-0.8 -0.7,-1.7 -0.8,-2.6 -0.4,-2.5 -0.3,-4.9 -0.1,-7.4 0.2,-2.4 0.7,-4.8 1.4,-7.1 0,-0.1 0.1,-0.3 0.2,-0.6 -0.3,0.1 -0.4,0.2 -0.5,0.3 -1,1.1 -2,2.2 -3.1,3.3 -0.2,0.2 -0.3,0.5 -0.1,0.8 0.3,0.7 0.5,1.4 0.8,2.1 0.2,0.6 0.2,0.9 -0.1,1.1 -0.4,0.2 -0.8,0 -1.1,-0.6 -0.2,-0.5 -0.4,-0.9 -0.6,-1.4 0,-0.1 -0.1,-0.2 -0.2,-0.4 -0.5,0.5 -0.9,0.9 -1.3,1.4 -0.1,0.1 -0.1,0.4 -0.1,0.7 0.2,0.7 0.4,1.4 0.6,2.2 0.1,0.4 0.2,0.7 -0.2,0.9 -0.3,0.2 -0.8,0 -1,-0.5 -0.2,-0.4 -0.3,-0.9 -0.5,-1.4 0,-0.1 -0.1,-0.2 -0.1,-0.4 -0.5,0.4 -0.8,0.9 -1.2,1.4 -0.1,0.1 -0.1,0.3 -0.2,0.4 -0.2,0.3 -0.5,0.3 -0.8,0.1 -0.3,-0.2 -0.4,-0.4 -0.3,-0.7 0.1,-0.3 0.2,-0.5 0.4,-0.8 0.5,-0.7 1,-1.3 1.5,-2 -0.1,-0.5 -0.5,-0.6 -0.9,-0.7 -0.4,0 -0.7,0 -1.1,0 -0.3,0 -0.5,-0.1 -0.8,-0.2 -0.2,-0.1 -0.4,-0.4 -0.3,-0.6 0.1,-0.1 0.3,-0.3 0.5,-0.3 0.3,-0.1 0.7,-0.1 1,-0.1 0.9,-0.1 1.8,-0.1 2.5,0.7 0.6,-0.6 1.1,-1.2 1.8,-2 -0.4,-0.1 -0.7,-0.1 -0.9,-0.1 -0.3,0 -0.7,0.1 -1,0.1 -0.2,0 -0.5,0 -0.7,-0.2 -0.2,-0.1 -0.3,-0.3 -0.3,-0.5 0,-0.2 0.3,-0.4 0.4,-0.4 0.5,-0.1 1,-0.1 1.5,-0.2 0.7,-0.1 1.3,-0.1 1.9,0.3 0.6,-0.6 1.1,-1.2 1.8,-1.9 -0.6,0.1 -1.1,0.2 -1.5,0.2 -1.9,0.2 -3.8,0.4 -5.7,-0.1 -0.6,-0.2 -1.3,-0.4 -1.8,-0.8 -1.2,-0.8 -1.2,-2.1 0,-2.9 0.5,-0.3 1,-0.6 1.6,-0.7 2.6,-0.6 5.1,-0.3 7.6,0.4 0.4,0.1 0.9,0.3 1.4,0.3 -0.9,-0.9 -1.8,-1.8 -2.7,-2.7 -1,0.9 -2.2,0.6 -3.3,0.6 -0.3,0 -0.6,-0.2 -0.6,-0.6 0,-0.3 0.2,-0.5 0.5,-0.5 0.4,-0.1 0.9,-0.1 1.3,-0.2 0.3,0 0.5,-0.1 0.9,-0.2 -0.3,-0.7 -0.9,-1 -1.3,-1.4 -0.9,0.8 -1.9,0.8 -2.9,0.5 -0.2,-0.1 -0.4,-0.1 -0.5,-0.3 -0.1,-0.1 -0.2,-0.4 -0.2,-0.6 0,-0.1 0.3,-0.2 0.4,-0.2 0.3,0 0.6,0.1 0.9,0.1 0.6,0.1 0.7,0 1.3,-0.5 -0.3,-0.3 -0.7,-0.7 -1,-1 -0.2,-0.2 -0.4,-0.4 -0.5,-0.6 -0.2,-0.2 -0.3,-0.5 0,-0.7 0.2,-0.3 0.5,-0.2 0.8,0 0.2,0.1 0.4,0.3 0.6,0.5 0.3,0.2 0.5,0.5 0.8,0.8 0.3,-0.7 0.6,-1.2 0.8,-1.8 0.1,-0.1 0.1,-0.3 0.2,-0.4 0.1,-0.3 0.3,-0.5 0.7,-0.4 0.3,0.1 0.4,0.4 0.3,0.7 -0.1,0.3 -0.2,0.6 -0.3,0.8 -0.2,0.6 -0.5,1.3 -0.8,2 0.4,0.4 0.8,0.7 1.3,1.2 0.2,-0.8 0.4,-1.4 0.7,-2.1 0.1,-0.3 0.3,-0.7 0.5,-1 0.2,-0.2 0.5,-0.4 0.8,-0.2 0.3,0.2 0.3,0.5 0.2,0.8 -0.3,1.1 -0.6,2.1 -1,3.2 0,0.1 -0.1,0.2 -0.1,0.4 0.9,0.9 1.7,1.8 2.6,2.7 0,0 0.1,0 0.1,0 -0.1,-0.9 -0.3,-1.8 -0.4,-2.7 -0.3,-3 -0.4,-5.9 0.2,-8.8 0.1,-0.6 0.4,-1.3 0.7,-1.9 0.2,-0.5 0.6,-0.8 1.1,-0.8 0.6,0 0.9,0.4 1.1,1 0.2,0.8 0.4,1.7 0.4,2.5 0,2.2 -0.1,4.5 -0.2,6.7 -0.1,1.4 -0.2,2.7 -0.2,4 0.1,0 0.1,0 0.2,0.1 0.7,-1 1.5,-2.1 2.3,-3.2 -0.7,-1.1 -0.6,-2.4 -0.7,-3.6 0,-0.3 0.1,-0.6 0.4,-0.7 0.4,-0.1 0.6,0.2 0.6,0.6 0.1,0.4 0.2,0.9 0.3,1.3 0.1,0.3 0.1,0.6 0.2,1 0.4,-0.6 0.7,-1.1 1.1,-1.6 -0.6,-0.8 -0.5,-1.8 -0.6,-2.7 0,-0.2 0,-0.4 0.1,-0.6 0,-0.3 0.2,-0.5 0.5,-0.5 0.3,0 0.5,0.2 0.6,0.5 0.1,0.4 0.1,0.7 0.2,1.1 0,0.2 0.1,0.5 0.1,0.8 0.2,-0.2 0.3,-0.3 0.4,-0.4 0.4,-0.5 0.7,-1 1.1,-1.4 0.3,-0.4 0.7,-0.5 0.9,-0.3 0.3,0.2 0.3,0.5 0,1 -0.4,0.6 -0.8,1.2 -1.3,2 0.4,0.1 0.8,0.2 1.2,0.3 0.4,0.1 0.8,0.2 1.2,0.3 0.3,0.1 0.5,0.3 0.4,0.6 0,0.3 -0.3,0.4 -0.6,0.4 -0.2,0 -0.4,0 -0.6,0 -0.6,-0.1 -1.2,-0.2 -1.8,-0.3 -0.2,0 -0.4,0 -0.7,-0.1 -0.4,0.6 -0.7,1.1 -1.2,1.7 0.9,0.3 1.5,0.9 2.4,0.8 0.3,0 0.5,0.1 0.5,0.3 0,0.2 -0.1,0.5 -0.2,0.7 -0.3,0.3 -0.7,0.3 -1,0.2 -0.6,-0.2 -1.1,-0.4 -1.7,-0.6 -0.3,-0.1 -0.5,-0.2 -0.8,-0.3 -0.9,1.2 -1.9,2.5 -2.9,3.9 0.6,-0.2 1,-0.3 1.5,-0.5 1.7,-0.5 3.4,-1 5.3,-0.9 1.4,0.1 2.8,0.4 4.1,1.1 0.5,0.3 1,0.7 1.4,1.2 0.5,0.6 0.4,1.3 -0.2,1.8 -0.3,0.3 -0.8,0.5 -1.2,0.6 -2.3,0.6 -4.6,0.8 -6.9,0.6 -0.5,-0.1 -1,-0.1 -1.7,-0.2 0.7,1.4 1.7,2.4 2.7,3.3 z m -4.4,-5.1 c 3.2,0.7 6.4,0.9 9.7,-0.1 -0.4,-0.2 -0.6,-0.4 -0.8,-0.5 -0.9,-0.4 -1.8,-0.6 -2.8,-0.7 -2.1,-0.1 -4.1,0.6 -6.1,1.3 z m -3.2,17.3 c 1.1,-2.1 0.9,-10.1 0.3,-12.6 -0.9,4.3 -1.3,8.4 -0.3,12.6 z m -2.5,-17.5 c -1.5,-0.8 -3.1,-1.1 -4.8,-1.2 -1.1,0 -2.1,0.1 -3.2,0.1 -0.5,0 -0.9,0.2 -1.2,0.7 0.4,0.6 1.1,0.6 1.6,0.7 1.8,0.3 3.5,0.1 5.3,-0.1 0.8,0.1 1.6,-0.1 2.3,-0.2 z m 2.6,-3.2 c 0,-0.5 0.1,-0.9 0.1,-1.4 0.1,-1.6 0.2,-3.2 0.3,-4.8 0.1,-1.7 0.1,-3.5 0.1,-5.2 0,-0.3 -0.1,-0.7 -0.1,-1 -0.1,0 -0.2,0 -0.2,0 -1.5,4.2 -0.9,8.3 -0.2,12.4 z"
           id="path104"
           inkscape:connector-curvature="0"
           style="fill:#c9d0d6" /><path
           class="st20"
           d="m 173.1,174.5 c -0.9,0 -1.4,-0.6 -1.4,-1.6 0,-0.8 0.5,-1.2 1.5,-1.2 0.8,0 1.4,0.5 1.4,1.4 0.1,0.9 -0.4,1.4 -1.5,1.4 z"
           id="path106"
           inkscape:connector-curvature="0"
           style="fill:#c9d0d6" /><path
           class="st20"
           d="m 155.6,196.2 c -0.8,0 -1.4,-0.6 -1.4,-1.3 0,-0.7 0.8,-1.5 1.5,-1.5 0.8,0 1.4,0.7 1.4,1.5 0,0.8 -0.6,1.4 -1.5,1.3 z"
           id="path108"
           inkscape:connector-curvature="0"
           style="fill:#c9d0d6" /><path
           class="st20"
           d="m 156.5,151.5 c 0.6,0 1.3,0.6 1.3,1.2 0,0.6 -0.6,1.3 -1.1,1.3 -0.7,0 -1.4,-0.6 -1.5,-1.3 0,-0.6 0.6,-1.2 1.3,-1.2 z"
           id="path110"
           inkscape:connector-curvature="0"
           style="fill:#c9d0d6" /><path
           class="st20"
           d="m 139.8,170.5 c 0.7,0 1.3,0.6 1.3,1.3 0,0.6 -0.6,1.2 -1.3,1.2 -0.6,0 -1.3,-0.7 -1.3,-1.3 0.1,-0.7 0.6,-1.2 1.3,-1.2 z"
           id="path112"
           inkscape:connector-curvature="0"
           style="fill:#c9d0d6" /></g><g
         id="g134"><path
           class="st20"
           d="m 119.1,311.4 c 0,1.1 0,2 0,2.9 0,0.9 -0.7,1.3 -1.5,1.1 -0.5,-0.2 -0.8,-0.5 -0.8,-1 -0.1,-0.6 -0.1,-1.2 -0.2,-2.1 -0.4,0.4 -0.7,0.7 -0.9,1 -0.5,0.5 -1.1,1.1 -1.6,1.6 -0.3,0.2 -0.6,0.3 -0.9,0.1 -0.3,-0.2 -0.3,-0.6 -0.1,-0.9 0.1,-0.3 0.3,-0.5 0.5,-0.7 0.8,-0.9 1.6,-1.9 2.4,-2.8 0.4,-0.5 0.6,-1 0.6,-1.7 -0.1,-2.4 -0.1,-4.7 -0.1,-7.1 0,-0.4 0,-0.7 -0.1,-1.1 -0.7,0.2 -1.4,0.3 -2,0.6 -0.2,0.1 -0.4,0.3 -0.4,0.5 -0.1,0.3 -0.1,0.6 -0.1,0.9 -0.2,1.4 -0.3,2.8 -0.5,4.2 -0.1,1.2 -0.8,2.1 -1.9,2.7 -1.8,1 -3.6,2.1 -5.4,3.1 -0.3,0.2 -0.7,0.4 -1,0.6 -0.8,0.5 -1.5,0.2 -1.7,-0.7 -0.1,-0.5 -0.1,-1 0.1,-1.5 0.8,-2.6 1.6,-5.2 2.4,-7.8 0.4,-1.4 1.4,-2.3 2.9,-2.5 0.6,-0.1 1.3,-0.2 1.9,-0.4 0.6,-0.1 1.2,-0.2 1.8,-0.3 0.1,-0.6 0.3,-1.2 0.4,-1.9 -0.5,0 -1,-0.1 -1.4,-0.1 -1.6,-0.1 -3.2,-0.1 -4.8,-0.2 -0.6,0 -0.9,0.1 -1.2,0.6 -0.8,1.1 -1.7,2.2 -2.6,3.2 -0.2,0.3 -0.4,0.5 -0.7,0.7 -0.3,0.2 -0.7,0.2 -1,0 -0.3,-0.3 -0.3,-0.6 -0.1,-1 0.2,-0.3 0.4,-0.6 0.6,-0.9 0.7,-0.9 1.3,-1.8 2.1,-2.8 -0.8,-0.1 -1.4,-0.2 -2,-0.3 -0.4,-0.1 -0.8,-0.2 -1.3,-0.3 -0.4,-0.1 -0.8,-0.3 -0.8,-0.7 0,-0.5 0.5,-0.7 0.9,-0.8 0.6,-0.1 1.2,-0.1 1.9,-0.1 0.7,0 1.4,0 2,0.1 0,-0.1 0.1,-0.1 0.1,-0.2 -0.7,-0.7 -1.4,-1.4 -2.1,-2.1 -0.5,-0.5 -1,-1 -1.4,-1.5 -0.2,-0.2 -0.5,-0.5 -0.2,-0.9 0.3,-0.4 0.6,-0.3 1,-0.1 0,0 0.1,0 0.1,0 1.9,1.4 3.6,2.9 5.2,4.8 1.9,0 4,0.1 6.1,0.1 0,-0.5 0.1,-0.9 0.1,-1.3 -1.4,-0.7 -2.8,-1.4 -4.3,-2.2 -0.6,-0.3 -1.2,-0.7 -1.8,-1 -1.5,-0.8 -2.2,-2.1 -2.4,-3.7 0,-0.4 -0.1,-0.9 -0.1,-1.3 0.1,-1 0.1,-2 0.2,-3 0.1,-1 0.7,-1.3 1.6,-0.8 0.7,0.5 1.4,1 2.1,1.5 1.3,0.8 2.6,1.5 4,2.1 1.2,0.5 1.7,1.3 1.6,2.6 -0.1,1.1 0.1,2.2 0.1,3.4 0.6,0.1 1.2,0.2 1.9,0.3 0,-0.3 0.1,-0.6 0.1,-0.9 0,-2.1 0,-4.3 0.1,-6.4 0,-0.5 -0.2,-0.9 -0.5,-1.2 -0.7,-0.6 -1.3,-1.2 -2,-1.8 -0.5,-0.5 -0.6,-0.9 -0.3,-1.2 0.3,-0.3 0.7,-0.3 1.2,0.1 0.5,0.4 1.1,0.7 1.8,1.2 0.1,-0.7 0.1,-1.2 0.1,-1.7 0,-0.4 0.1,-0.8 0.2,-1.2 0.1,-0.6 0.5,-0.9 1,-0.8 0.5,0.1 0.8,0.4 0.8,0.9 0,0.6 0,1.2 0.1,1.8 0,0.4 0,0.8 0,1.3 0.9,-0.6 1.6,-1.2 2.3,-1.7 0.4,-0.3 0.7,-0.5 1.2,-0.7 0.6,-0.3 1.3,0 1.4,0.5 0.2,0.6 -0.2,1.1 -0.8,1.3 -0.3,0.1 -0.6,0.3 -0.8,0.4 -1,0.7 -1.9,1.4 -2.9,2.1 -0.3,0.2 -0.4,0.4 -0.4,0.7 0,2.4 0,4.7 0,7.2 0.6,-0.1 1.1,-0.1 1.6,-0.2 0.2,-1.7 0.5,-3.3 0.6,-4.9 0.1,-1.2 0.6,-2.1 1.6,-2.8 2.7,-1.8 5.5,-3.4 8.4,-4.7 1.2,-0.5 2,0.1 2.1,1.3 0,0.5 -0.1,1 -0.2,1.5 -0.4,1.6 -0.8,3.1 -1.2,4.7 -0.2,1.1 -0.9,1.8 -1.9,2.1 -1.8,0.6 -3.6,1.3 -5.5,2 -0.3,0.1 -0.6,0.2 -0.8,0.4 -0.7,0.4 -1.3,0.9 -1.1,1.9 0.1,0.6 0,1.2 0.1,1.9 0.9,0 1.8,-0.1 2.7,-0.1 1.5,-0.1 3,-0.1 4.5,-0.2 0.5,0 0.8,-0.2 1.1,-0.5 0.5,-0.7 1.1,-1.3 1.7,-1.9 0.2,-0.2 0.3,-0.4 0.5,-0.6 0.5,-0.4 0.9,-0.5 1.2,-0.2 0.3,0.3 0.3,0.6 -0.1,1.1 -0.5,0.6 -0.9,1.2 -1.4,1.9 1.1,0.1 2,0.2 3,0.3 0.3,0 0.7,0 1,0.1 0.5,0.1 0.8,0.5 0.8,1 0,0.5 -0.2,0.9 -0.7,1 -0.3,0.1 -0.6,0.1 -1,0.1 -0.8,0 -1.7,0 -2.7,0.1 0.3,0.3 0.4,0.5 0.6,0.6 0.7,0.7 1.5,1.3 2.2,2 0.3,0.3 0.5,0.6 0.7,0.9 0.2,0.4 0,1 -0.4,1.2 -0.4,0.2 -0.7,0.2 -1.1,-0.2 -1,-0.9 -2,-1.9 -3.1,-2.8 -0.3,-0.3 -0.7,-0.5 -1,-0.8 -0.7,-0.8 -1.5,-0.9 -2.4,-0.9 -2.1,0.2 -4.3,0.2 -6.5,0.3 -0.2,0.5 -0.3,1 -0.5,1.6 1.8,0.9 3.5,1.7 5.3,2.6 0.8,0.4 1.7,0.9 2.4,1.5 0.7,0.5 1.1,1.2 0.9,2 -0.2,1.8 0.1,3.6 0.5,5.4 0,0.2 0.1,0.3 0.1,0.5 0.1,0.9 -0.5,1.4 -1.4,1.3 -0.2,0 -0.4,-0.1 -0.6,-0.2 -2.3,-1.2 -4.7,-2.3 -6.8,-3.9 -0.5,-0.4 -1,-0.8 -1.4,-1.2 -0.8,-0.7 -1.1,-1.6 -0.9,-2.7 0.1,-0.8 0.3,-1.7 0.4,-2.5 0,-0.3 0.1,-0.6 0.1,-1 -0.4,-0.1 -0.8,-0.2 -1.4,-0.4 0,0.8 0,1.5 0,2.1 0,1.8 0.1,3.6 0.1,5.4 0,0.4 0.2,0.6 0.5,0.9 1.2,1.1 2.3,2.2 3.4,3.2 0.1,0.1 0.3,0.3 0.4,0.5 0.2,0.4 0.1,0.9 -0.1,1.2 -0.4,0.3 -0.7,0.1 -1.1,-0.2 -0.7,-0.6 -1.4,-1.2 -2.1,-1.8 -0.2,-0.1 -0.4,-0.3 -0.9,-0.7 z m 9,-27.7 c -0.2,-0.1 -0.3,-0.1 -0.3,-0.1 -1.5,0.8 -2.9,1.6 -4.3,2.5 -0.3,0.2 -0.6,0.7 -0.7,1.1 -0.2,0.8 -0.4,1.6 -0.5,2.4 0,0 0.1,0.1 0.1,0.1 1.9,-2 3.8,-3.9 5.7,-6 z m -21.7,23.9 c 0,0 0.1,0 0.1,0.1 1.5,-1.8 3,-3.7 4.5,-5.5 -0.7,0 -1.2,0.1 -1.8,0.2 -0.7,0.1 -1.1,0.5 -1.4,1.2 -0.4,1.3 -0.9,2.6 -1.4,4 z m 18.7,-4.1 c 0.7,1.4 2.8,4 3.4,4.4 0,-0.8 0,-1.5 0,-2.2 0,-0.2 -0.1,-0.5 -0.3,-0.6 -0.9,-0.6 -1.9,-1.2 -3.1,-1.6 z m -15.2,-12.7 c 0.1,-0.1 0.1,-0.1 0.2,-0.2 -0.5,-0.7 -1.1,-1.5 -1.6,-2.2 -0.5,-0.7 -0.9,-1.5 -1.6,-2.1 -0.1,0.7 -0.2,1.3 -0.1,1.9 0,0.3 0.2,0.7 0.4,0.9 0.9,0.6 1.8,1.2 2.7,1.7 z m 12.1,12.8 c -0.1,0 -0.1,0.1 -0.2,0.1 0,0.3 0,0.5 -0.1,0.8 -0.1,0.8 0.1,1.5 0.8,2 0.7,0.5 1.3,0.9 2,1.4 0.2,0.2 0.5,0.3 0.8,0.4 0,0 0,-0.1 0.1,-0.1 -1.1,-1.5 -2.3,-3.1 -3.4,-4.6 z m -1,-9.8 c -0.8,0.1 -1.4,0.2 -2.2,0.3 0,0.6 0,1.1 0.1,1.7 0.8,0 1.5,-0.1 2.2,-0.1 0,-0.7 -0.1,-1.3 -0.1,-1.9 z m -9.1,11.2 c -1.1,0.9 -2.8,3.2 -3,3.9 2.6,-1.3 2.7,-1.4 3,-3.9 z m 4.6,-9.3 c 0,-0.7 0,-1.2 0,-1.8 -0.6,-0.1 -1.1,-0.2 -1.7,-0.2 -0.1,0.8 -0.1,1.4 -0.2,2.1 0.6,0 1.2,0 1.9,-0.1 z m -4,-5.6 c 0.1,0 0.1,0 0.2,-0.1 0,-0.6 0,-1.1 -0.1,-1.7 0,-0.2 -0.1,-0.5 -0.3,-0.6 -0.7,-0.4 -1.4,-0.8 -2.4,-1.1 1,1.4 1.8,2.5 2.6,3.5 z m 14.9,-2.2 c 0,0.1 0.1,0.1 0.1,0.2 0.6,-0.2 1.2,-0.3 1.7,-0.6 0.2,-0.1 0.4,-0.2 0.5,-0.4 0.2,-0.6 0.3,-1.2 0.4,-1.7 -0.1,0 -0.1,-0.1 -0.2,-0.1 -0.8,0.9 -1.6,1.7 -2.5,2.6 z m -13.3,11.7 c 0.6,-0.1 1.1,-0.1 1.6,-0.3 0.6,-0.1 0.7,-0.3 0.6,-1.1 -0.6,0 -1.3,0 -2,-0.1 0,0.5 -0.1,0.9 -0.2,1.5 z m 4.9,-1.5 c -0.2,1.3 -0.2,1.3 1.2,1.5 0.1,-0.4 0.3,-0.9 0.5,-1.5 -0.6,0 -1.2,0 -1.7,0 z"
           id="path116"
           inkscape:connector-curvature="0"
           style="fill:#c9d0d6" /><path
           class="st20"
           d="m 119,317.3 c 0.3,0.1 0.8,0.3 1.2,0.6 1.1,0.9 2.1,1.8 3.2,2.8 0.5,0.4 0.5,0.8 0.2,1.1 -0.3,0.3 -0.7,0.4 -1.2,0 -1,-0.7 -2,-1.5 -3,-2.2 -0.9,-0.7 -1,-0.7 -1.7,0.1 -0.4,0.4 -0.7,0.8 -1.1,1.2 -0.2,0.2 -0.3,0.3 -0.5,0.5 -0.5,0.4 -0.8,0.4 -1.1,0.1 -0.4,-0.4 -0.2,-0.7 0.1,-1.1 0.7,-0.8 1.3,-1.6 2,-2.4 0.3,-0.4 1,-0.7 1.9,-0.7 z"
           id="path118"
           inkscape:connector-curvature="0"
           style="fill:#c9d0d6" /><path
           class="st20"
           d="m 138.7,295.5 c 0.2,-0.3 0.3,-0.6 0.4,-0.8 0.6,-0.8 1.2,-1.5 1.8,-2.2 0.1,-0.1 0.2,-0.2 0.4,-0.3 0.3,-0.2 0.7,-0.3 1,0 0.3,0.3 0.3,0.6 0.1,0.9 -0.4,0.6 -0.8,1.1 -1.2,1.7 -0.7,0.9 -0.7,0.7 -0.1,1.8 0.4,0.7 0.8,1.4 1.3,2.1 0.1,0.2 0.2,0.3 0.3,0.5 0.1,0.4 0.1,0.7 -0.3,1 -0.4,0.2 -0.7,0.1 -1,-0.1 -0.1,-0.1 -0.2,-0.1 -0.2,-0.2 -0.7,-1.1 -1.5,-2.1 -2.1,-3.2 -0.2,-0.4 -0.3,-0.8 -0.4,-1.2 z"
           id="path120"
           inkscape:connector-curvature="0"
           style="fill:#c9d0d6" /><path
           class="st20"
           d="m 116.2,277.8 c -0.1,0 -0.3,-0.1 -0.4,-0.1 -1,-0.6 -2,-1.3 -3,-1.9 -0.3,-0.2 -0.4,-0.5 -0.2,-0.9 0.2,-0.4 0.6,-0.5 0.9,-0.4 0.5,0.2 1.1,0.5 1.6,0.8 1.3,0.8 1.3,0.8 2.4,-0.2 0.4,-0.3 0.9,-0.7 1.3,-1 0.2,-0.2 0.5,-0.4 0.8,-0.4 0.3,0 0.6,0.1 0.8,0.3 0.1,0.2 0.2,0.6 0.1,0.8 -1.1,1.3 -2.2,2.4 -3.9,2.9 -0.1,0.1 -0.2,0.1 -0.4,0.1 z"
           id="path122"
           inkscape:connector-curvature="0"
           style="fill:#c9d0d6" /><path
           class="st20"
           d="m 99.1,295.6 c -0.1,0.3 -0.2,0.7 -0.3,1 -0.4,0.9 -0.8,1.8 -1.3,2.7 -0.2,0.5 -0.7,0.6 -1,0.5 -0.4,-0.2 -0.7,-0.6 -0.5,-1.1 0.3,-0.8 0.5,-1.6 1,-2.3 0.5,-0.8 0.4,-1.5 -0.1,-2.2 -0.3,-0.4 -0.4,-0.8 -0.5,-1.2 0,-0.2 0.1,-0.6 0.3,-0.7 0.2,-0.2 0.6,-0.1 0.8,0.1 0.6,0.8 1.1,1.7 1.7,2.5 -0.1,0.1 -0.2,0.4 -0.1,0.7 z"
           id="path124"
           inkscape:connector-curvature="0"
           style="fill:#c9d0d6" /><path
           class="st20"
           d="m 118.8,323.6 c -0.6,0 -1.1,-0.5 -1.1,-1.1 0,-0.5 0.6,-1 1.1,-0.9 0.6,0 1,0.6 0.9,1.3 0,0.5 -0.3,0.7 -0.9,0.7 z"
           id="path126"
           inkscape:connector-curvature="0"
           style="fill:#c9d0d6" /><path
           class="st20"
           d="m 143.6,296.4 c -0.4,-0.1 -0.8,-0.6 -0.7,-1 0.1,-0.5 0.6,-0.9 1.1,-0.9 0.5,0.1 0.8,0.5 0.8,1 -0.1,0.4 -0.8,1 -1.2,0.9 z"
           id="path128"
           inkscape:connector-curvature="0"
           style="fill:#c9d0d6" /><path
           class="st20"
           d="m 117.4,272.6 c -0.1,0.5 -0.3,0.8 -0.8,0.8 -0.6,0 -1,-0.6 -1,-1.2 0.1,-0.5 0.5,-0.8 1,-0.7 0.5,-0.1 0.8,0.5 0.8,1.1 z"
           id="path130"
           inkscape:connector-curvature="0"
           style="fill:#c9d0d6" /><path
           class="st20"
           d="m 94.8,294.8 c 0.4,0.1 0.8,0.4 0.7,0.8 0,0.4 -0.6,0.9 -1.1,0.8 -0.4,0 -0.6,-0.4 -0.6,-0.9 0.2,-0.4 0.6,-0.7 1,-0.7 z"
           id="path132"
           inkscape:connector-curvature="0"
           style="fill:#c9d0d6" /></g><g
         id="g186"><path
           class="st20"
           d="m 319.2,274.4 c -0.1,-1.1 -0.1,-2 -0.2,-3 0,-0.2 -0.1,-0.3 -0.3,-0.5 -0.4,-0.2 -0.7,-0.5 -1.1,-0.8 -0.1,-0.1 -0.2,-0.2 -0.3,-0.3 -0.2,-0.3 -0.2,-0.6 0,-0.9 0.2,-0.2 0.5,-0.3 0.9,-0.1 0.3,0.2 0.5,0.3 0.8,0.5 0.5,0.3 0.6,0.3 1,-0.1 0.4,-0.4 0.8,-0.8 1.2,-1.3 0.2,-0.2 0.4,-0.3 0.7,-0.2 0.3,0.1 0.4,0.4 0.3,0.7 -0.1,0.2 -0.1,0.4 -0.3,0.5 -0.2,0.3 -0.4,0.5 -0.6,0.7 -0.3,0.3 -0.8,0.6 -0.9,1 -0.1,0.4 0,0.9 0.1,1.4 0.1,0.8 0.1,1.5 0.2,2.4 0.8,-0.5 1.6,-0.8 2.3,-1.3 0.3,-0.2 0.5,-0.3 0.7,-0.1 0.3,0.2 0.4,0.5 0.2,0.8 -0.2,0.3 -0.5,0.6 -0.8,0.8 -0.6,0.4 -1.3,0.7 -1.9,1.1 -0.1,0.1 -0.2,0.1 -0.4,0.2 0,0.8 0.1,1.6 0.1,2.3 0,0.7 0.1,1.5 0.1,2.2 0,0.3 0,0.6 -0.1,0.9 -0.1,0.3 -0.4,0.5 -0.7,0.5 -0.3,0 -0.5,-0.3 -0.5,-0.7 -0.1,-1.6 -0.2,-3.2 -0.3,-4.8 0,-0.4 -0.1,-0.7 -0.5,-1 -0.5,-0.3 -0.9,-0.7 -1.3,-1.1 -0.3,-0.3 -0.4,-0.6 -0.2,-0.8 0.2,-0.2 0.5,-0.3 0.8,-0.2 0.2,0.8 0.5,1 1,1.2 z"
           id="path136"
           inkscape:connector-curvature="0"
           style="fill:#c9d0d6" /><path
           class="st20"
           d="m 319.6,301.1 c 0,-0.9 -0.1,-1.7 -0.1,-2.5 0,-0.4 0,-0.9 0.1,-1.3 0.1,-0.4 0.4,-0.6 0.7,-0.6 0.3,0 0.5,0.3 0.5,0.7 0.1,1.1 0.2,2.2 0.2,3.3 0,0.5 0.2,0.8 0.7,1.1 0.8,0.4 1.5,1 2.3,1.5 0.4,0.3 0.5,0.7 0.3,1 -0.2,0.3 -0.6,0.4 -1,0.2 -0.1,-0.1 -0.2,-0.1 -0.3,-0.2 -0.4,-0.3 -0.8,-0.5 -1.3,-0.8 -0.1,-0.1 -0.2,-0.1 -0.4,-0.2 0,0.4 0,0.7 0,1 0,0.8 0,1.6 0,2.4 0,0.9 0.6,1.4 1.3,1.9 0.2,0.1 0.4,0.3 0.5,0.6 0.2,0.3 0.1,0.7 -0.2,0.9 -0.3,0.2 -0.5,0.2 -0.8,0 -0.2,-0.1 -0.4,-0.3 -0.6,-0.5 -0.4,-0.3 -0.7,-0.6 -1.1,-1 -0.4,0.3 -0.7,0.6 -1.1,0.8 -0.5,0.3 -0.8,0.4 -1,0.1 -0.2,-0.2 -0.2,-0.5 0.2,-1 0.4,-0.4 0.8,-0.8 1.1,-1.2 0.1,-0.1 0.2,-0.3 0.2,-0.5 0,-1.3 -0.1,-2.7 -0.2,-4.1 -0.3,0.2 -0.5,0.3 -0.8,0.4 -0.3,0.1 -0.6,0.3 -1,0.4 -0.4,0.1 -0.7,0 -0.8,-0.3 -0.1,-0.3 0,-0.5 0.4,-0.8 0.8,-0.4 1.5,-0.8 2.2,-1.3 z"
           id="path138"
           inkscape:connector-curvature="0"
           style="fill:#c9d0d6" /><path
           class="st20"
           d="m 309,290.5 c -0.5,0.9 -0.9,1.7 -1.4,2.4 -0.2,0.3 -0.4,0.4 -0.7,0.3 -0.3,-0.1 -0.4,-0.4 -0.3,-0.8 0.1,-0.3 0.2,-0.7 0.4,-1 0.1,-0.3 0.2,-0.5 0.4,-0.8 -0.9,0.1 -1.8,0.1 -2.7,0.2 -0.1,0.2 -0.3,0.5 -0.4,0.8 -0.1,0.2 -0.2,0.4 -0.4,0.6 -0.2,0.2 -0.4,0.4 -0.7,0.2 -0.3,-0.1 -0.3,-0.4 -0.3,-0.7 0.1,-0.4 0.3,-0.9 0.5,-1.3 0.2,-0.4 0.1,-0.7 -0.1,-1 -0.2,-0.3 -0.4,-0.7 -0.7,-1 -0.1,-0.2 -0.2,-0.3 -0.2,-0.5 0,-0.2 0.1,-0.5 0.3,-0.6 0.1,-0.1 0.4,0 0.6,0 0.1,0 0.1,0.1 0.2,0.2 0.5,0.6 1,1.3 1.6,2 0.5,-0.1 1,-0.2 1.7,-0.3 -0.2,-0.4 -0.4,-0.8 -0.6,-1.2 -0.1,-0.2 -0.2,-0.4 -0.3,-0.6 -0.1,-0.4 0,-0.7 0.3,-0.8 0.3,-0.2 0.6,-0.1 0.9,0.2 0.4,0.6 0.8,1.2 1.1,1.8 0.2,0.4 0.5,0.6 1,0.5 1.3,-0.1 2.6,-0.2 3.9,-0.3 0.1,0 0.2,0 0.3,0 0.3,0 0.5,0.1 0.6,0.4 0.1,0.3 0,0.6 -0.2,0.7 -0.2,0.1 -0.5,0.3 -0.8,0.3 -0.9,0.1 -1.7,0.2 -2.6,0.3 -0.6,0 -1,0 -1.4,0 z"
           id="path140"
           inkscape:connector-curvature="0"
           style="fill:#c9d0d6" /><path
           class="st20"
           d="m 332.5,288.9 c 0.4,0.6 0.7,1 1,1.4 0.1,0.1 0.2,0.2 0.3,0.4 0.1,0.3 0.1,0.5 -0.2,0.7 -0.2,0.2 -0.5,0.2 -0.7,0 -0.2,-0.1 -0.3,-0.3 -0.4,-0.4 -0.4,-0.6 -0.9,-1.1 -1.3,-1.8 -1,0.1 -2,0.2 -2.9,0.3 -0.2,0 -0.5,0.1 -0.7,0 -0.2,0 -0.4,-0.2 -0.5,-0.4 -0.1,-0.2 0,-0.5 0.2,-0.6 0.3,-0.1 0.6,-0.3 0.9,-0.3 0.9,-0.2 1.7,-0.3 2.6,-0.4 0.4,0 0.6,-0.1 0.8,-0.4 0.4,-0.6 0.9,-1.1 1.4,-1.7 0.2,-0.2 0.3,-0.4 0.6,-0.5 0.2,-0.1 0.5,-0.1 0.6,0 0.1,0.1 0.1,0.4 0.1,0.6 -0.1,0.2 -0.2,0.4 -0.4,0.6 -0.2,0.3 -0.5,0.7 -0.8,1.1 0.6,0 1.2,0 1.7,-0.1 0.1,0 0.3,-0.2 0.4,-0.3 0.6,-0.6 1.2,-1.3 1.8,-1.9 0.4,-0.4 0.7,-0.4 0.9,-0.2 0.2,0.2 0.2,0.6 -0.2,1 -0.6,0.6 -1.1,1.2 -1.7,1.8 -0.1,0.1 -0.2,0.2 -0.3,0.4 0.5,0.5 0.9,0.9 1.4,1.4 0.1,0.1 0.2,0.2 0.3,0.3 0.1,0.1 0.1,0.3 0,0.4 -0.1,0.1 -0.2,0.2 -0.4,0.2 -0.1,0 -0.3,0 -0.4,-0.1 -0.6,-0.4 -1.3,-0.7 -1.9,-1.3 -0.1,-0.1 -0.3,-0.2 -0.4,-0.2 -0.4,-0.2 -1,-0.1 -1.8,0 z"
           id="path142"
           inkscape:connector-curvature="0"
           style="fill:#c9d0d6" /><path
           class="st20"
           d="m 332.2,276.1 c 0.8,0.2 1.5,0.5 2.2,0.7 0.2,0.1 0.4,0.1 0.6,0.2 0.3,0.1 0.4,0.4 0.4,0.6 0,0.3 -0.2,0.5 -0.6,0.6 -0.2,0 -0.4,0 -0.7,0 -0.7,-0.1 -1.4,-0.3 -2.2,-0.5 -0.1,0.1 -0.2,0.2 -0.3,0.4 -0.5,0.7 -1.1,1.5 -1.6,2.2 -0.4,0.5 -0.8,0.7 -1.1,0.4 -0.3,-0.2 -0.3,-0.7 0,-1.2 0.5,-0.8 1.1,-1.5 1.7,-2.3 0.2,-0.2 0.2,-0.5 0.2,-0.8 0,-0.7 0.1,-1.5 0.1,-2.2 0,-0.3 0.2,-0.5 0.5,-0.5 0.3,0 0.5,0.1 0.6,0.4 0.1,0.2 0.1,0.5 0.1,0.8 0.2,0.3 0.1,0.7 0.1,1.2 z"
           id="path144"
           inkscape:connector-curvature="0"
           style="fill:#c9d0d6" /><path
           class="st20"
           d="m 305.5,300.2 c 0.1,0 0.4,-0.1 0.6,-0.1 0.6,0.1 1.1,0.1 1.7,0.3 0.3,0.1 0.5,0 0.8,-0.3 0.5,-0.6 1.1,-1.1 1.6,-1.6 0.2,-0.2 0.4,-0.3 0.6,-0.4 0.2,0 0.5,0 0.6,0.1 0.1,0.1 0.2,0.4 0.1,0.6 -0.1,0.3 -0.4,0.5 -0.6,0.8 -0.5,0.6 -1,1.1 -1.5,1.7 -0.1,0.1 -0.2,0.4 -0.1,0.5 0.1,0.6 0.2,1.1 0.3,1.7 0,0.2 0.1,0.4 0.1,0.6 0,0.4 -0.2,0.6 -0.5,0.7 -0.3,0.1 -0.5,-0.1 -0.7,-0.4 -0.1,-0.3 -0.2,-0.6 -0.3,-0.8 -0.1,-0.4 -0.2,-0.8 -0.3,-1.2 -0.1,-0.4 -0.3,-0.6 -0.7,-0.7 -0.5,-0.1 -1,-0.3 -1.5,-0.5 -0.5,-0.2 -0.5,-0.6 -0.2,-1 z"
           id="path146"
           inkscape:connector-curvature="0"
           style="fill:#c9d0d6" /><path
           class="st20"
           d="m 306.3,278 c 0.2,-0.7 0.3,-1.3 0.5,-1.9 0.1,-0.2 0.1,-0.4 0.2,-0.6 0.2,-0.4 0.6,-0.7 0.9,-0.5 0.4,0.1 0.5,0.4 0.5,0.9 -0.1,0.4 -0.2,0.7 -0.3,1 -0.1,0.3 -0.2,0.6 -0.3,1 1,0.6 1.8,1.3 2.6,2.1 0.4,0.5 0.5,0.8 0.2,1.1 -0.3,0.3 -0.6,0.3 -1.1,-0.2 -0.5,-0.5 -1.1,-1 -1.6,-1.4 -0.2,-0.2 -0.4,-0.3 -0.6,-0.5 -0.7,0.5 -1.4,0.4 -2.1,0.3 -0.4,-0.1 -0.6,-0.3 -0.7,-0.5 0,-0.3 0.2,-0.6 0.6,-0.6 0.5,-0.1 0.8,-0.1 1.2,-0.2 z"
           id="path148"
           inkscape:connector-curvature="0"
           style="fill:#c9d0d6" /><path
           class="st20"
           d="m 330.1,300.7 c -0.3,-0.3 -0.8,-0.6 -1.2,-1 -0.3,-0.3 -0.5,-0.5 -0.8,-0.9 -0.3,-0.4 -0.3,-0.8 0,-1 0.3,-0.2 0.6,-0.2 0.9,0.2 0.4,0.4 0.8,0.7 1.1,1.2 0.6,0.8 1.2,1.1 2.2,0.7 0.4,-0.1 0.8,-0.2 1.2,-0.3 0.2,0 0.3,-0.1 0.5,0 0.3,0 0.5,0.2 0.6,0.5 0.1,0.3 -0.1,0.5 -0.3,0.6 -0.3,0.1 -0.5,0.2 -0.8,0.3 -0.7,0.2 -1.4,0.3 -2.1,0.5 0,0.4 0,0.8 0,1.3 0,0.3 -0.1,0.7 -0.1,1 -0.1,0.2 -0.2,0.4 -0.5,0.3 -0.3,0 -0.3,-0.2 -0.3,-0.4 -0.2,-1 -0.3,-1.9 -0.4,-3 z"
           id="path150"
           inkscape:connector-curvature="0"
           style="fill:#c9d0d6" /><path
           class="st20"
           d="m 327.3,297.2 c -0.3,0.2 -0.6,0.4 -0.8,0.4 -0.7,0.2 -1.5,0.4 -2.2,0.6 -0.1,0 -0.2,0 -0.3,0 -0.3,0 -0.5,0 -0.6,-0.3 -0.1,-0.3 0,-0.5 0.2,-0.7 0.2,-0.2 0.4,-0.3 0.6,-0.3 0.5,-0.2 1,-0.4 1.5,-0.5 0.3,-0.1 0.5,-0.3 0.6,-0.6 0.2,-0.7 0.4,-1.4 0.6,-2.1 0.1,-0.2 0.1,-0.5 0.3,-0.7 0.2,-0.3 0.5,-0.4 0.8,-0.3 0.3,0.1 0.5,0.3 0.5,0.7 0,0.2 0,0.4 -0.1,0.6 -0.2,0.8 -0.3,1.5 -0.6,2.3 -0.1,0.2 -0.3,0.5 -0.5,0.9 z"
           id="path152"
           inkscape:connector-curvature="0"
           style="fill:#c9d0d6" /><path
           class="st20"
           d="m 313,282.6 c 0,0.6 0,1.2 0,1.7 0,0.3 0,0.6 0,0.9 0,0.3 -0.2,0.5 -0.6,0.6 -0.3,0 -0.5,-0.2 -0.6,-0.5 -0.3,-1 -0.4,-2 -0.3,-3 0,-0.5 0.4,-0.9 0.9,-1.1 1.1,-0.3 2.3,-0.5 3.4,-0.5 0.1,0 0.2,0 0.3,0.1 0.4,0.1 0.6,0.4 0.5,0.8 -0.1,0.4 -0.3,0.5 -0.8,0.5 -0.2,0 -0.3,0 -0.5,0 -0.7,0.2 -1.5,0.4 -2.3,0.5 z"
           id="path154"
           inkscape:connector-curvature="0"
           style="fill:#c9d0d6" /><path
           class="st20"
           d="m 324.6,294.3 c 0.1,-0.7 0.2,-1.3 0.3,-2 0.1,-0.4 0.1,-0.8 0.1,-1.3 0.1,-0.4 0.4,-0.7 0.8,-0.7 0.3,0 0.6,0.3 0.6,0.7 0,0.1 0,0.2 0,0.3 -0.1,0.8 -0.1,1.5 -0.2,2.3 -0.1,0.4 -0.2,0.8 -0.3,1.2 -0.2,0.5 -0.5,0.7 -1,0.8 -0.7,0.1 -1.3,0.1 -2,0.1 -0.3,0 -0.5,-0.1 -0.6,-0.4 0,-0.3 0.1,-0.6 0.4,-0.7 0.2,-0.1 0.5,-0.1 0.7,-0.2 0.4,0.1 0.8,0 1.2,-0.1 z"
           id="path156"
           inkscape:connector-curvature="0"
           style="fill:#c9d0d6" /><path
           class="st20"
           d="m 316.3,294.2 c 0.6,0 1,0.1 1.5,0.1 0.6,0.1 0.8,0.3 0.8,0.6 0,0.4 -0.3,0.6 -0.9,0.6 -0.5,0 -1,0 -1.5,0 -0.7,0 -1.1,-0.3 -1.2,-0.9 -0.3,-1.2 -0.2,-2.4 -0.1,-3.5 0,-0.4 0.4,-0.6 0.7,-0.6 0.3,0 0.5,0.2 0.6,0.6 0.1,0.8 0.1,1.6 0.2,2.3 -0.2,0.3 -0.2,0.5 -0.1,0.8 z"
           id="path158"
           inkscape:connector-curvature="0"
           style="fill:#c9d0d6" /><path
           class="st20"
           d="m 313.5,295.7 c 0.9,0.3 1.8,0.6 2.6,0.9 0.2,0.1 0.5,0.2 0.7,0.3 0.3,0.2 0.3,0.4 0.3,0.7 -0.1,0.3 -0.4,0.5 -0.7,0.5 -0.1,0 -0.1,0 -0.2,0 -1,-0.3 -2,-0.6 -3,-0.9 -0.8,-0.3 -1.1,-0.7 -0.9,-1.6 0.1,-0.5 0.2,-1 0.3,-1.5 0,-0.2 0,-0.3 0.1,-0.4 0.1,-0.1 0.4,-0.3 0.5,-0.3 0.2,0 0.4,0.2 0.4,0.4 0,0.3 0,0.5 0,0.8 0,0.3 -0.1,0.7 -0.1,1.1 z"
           id="path160"
           inkscape:connector-curvature="0"
           style="fill:#c9d0d6" /><path
           class="st20"
           d="m 328.3,281.5 c 0.3,0.6 0.7,1.3 1,2 0.2,0.3 0,0.7 -0.3,0.8 -0.3,0.1 -0.6,0.1 -0.8,-0.2 -0.3,-0.3 -0.6,-0.7 -0.8,-1.1 -0.2,-0.4 -0.6,-0.6 -1,-0.6 -0.4,0 -0.9,-0.1 -1.3,-0.2 -0.3,0 -0.6,-0.2 -0.8,-0.3 -0.3,-0.1 -0.4,-0.3 -0.3,-0.6 0,-0.3 0.2,-0.5 0.5,-0.5 1.1,0.1 2.3,0.2 3.4,0.3 0.1,0.1 0.2,0.3 0.4,0.4 z"
           id="path162"
           inkscape:connector-curvature="0"
           style="fill:#c9d0d6" /><path
           class="st20"
           d="m 315.5,284.4 c -0.2,0.6 -0.1,1.1 -0.1,1.7 0,0.3 0.1,0.6 0.1,0.9 0,0.3 -0.2,0.5 -0.5,0.6 -0.3,0 -0.4,-0.2 -0.5,-0.4 -0.3,-0.8 -0.4,-1.7 -0.4,-2.6 0,-1 0.5,-1.5 1.5,-1.6 0.7,-0.1 1.4,0 2.1,0 0.4,0 0.6,0.2 0.6,0.5 0,0.3 -0.2,0.5 -0.6,0.6 -0.5,0.1 -1,0.1 -1.5,0.2 -0.2,0.1 -0.4,0.1 -0.7,0.1 z"
           id="path164"
           inkscape:connector-curvature="0"
           style="fill:#c9d0d6" /><path
           class="st20"
           d="m 324.8,284.2 c -0.5,0 -1.1,0 -1.6,0 -0.5,0 -0.7,-0.1 -0.8,-0.5 0,-0.3 0.2,-0.7 0.6,-0.7 0.7,-0.1 1.3,-0.2 2,-0.2 0.6,0 1,0.3 1.1,0.8 0.2,0.8 0.3,1.7 0.4,2.5 0,0.3 -0.1,0.6 -0.5,0.6 -0.3,0.1 -0.5,-0.1 -0.6,-0.4 -0.1,-0.3 -0.2,-0.7 -0.3,-1 -0.1,-0.4 -0.2,-0.7 -0.3,-1.1 z"
           id="path166"
           inkscape:connector-curvature="0"
           style="fill:#c9d0d6" /><path
           class="st20"
           d="m 322.4,291.1 c -0.3,0.3 -0.8,0.3 -1.1,0 -0.2,-0.2 -0.2,-0.7 0.1,-0.9 0.3,-0.3 0.8,-0.2 1.1,0 0.2,0.3 0.2,0.6 -0.1,0.9 z"
           id="path168"
           inkscape:connector-curvature="0"
           style="fill:#c9d0d6" /><path
           class="st20"
           d="m 323.9,292.9 c -0.3,0.3 -0.7,0.3 -0.9,0 -0.2,-0.3 -0.2,-0.7 0.1,-1 0.3,-0.3 0.6,-0.3 0.8,0 0.3,0.3 0.3,0.8 0,1 z"
           id="path170"
           inkscape:connector-curvature="0"
           style="fill:#c9d0d6" /><path
           class="st20"
           d="m 316.9,286 c 0.2,-0.2 0.7,-0.3 0.9,0 0.2,0.2 0.2,0.6 0,0.8 -0.3,0.3 -0.7,0.3 -0.9,0 -0.3,-0.1 -0.3,-0.5 0,-0.8 z"
           id="path172"
           inkscape:connector-curvature="0"
           style="fill:#c9d0d6" /><path
           class="st20"
           d="m 319.3,288.4 c -0.3,0.2 -0.6,0.2 -0.9,0 -0.2,-0.3 -0.2,-0.6 0.1,-0.9 0.3,-0.2 0.6,-0.2 0.8,0.1 0.3,0.2 0.3,0.6 0,0.8 z"
           id="path174"
           inkscape:connector-curvature="0"
           style="fill:#c9d0d6" /><path
           class="st20"
           d="m 320.6,288.9 c 0.2,0.2 0.2,0.6 -0.1,0.8 -0.2,0.2 -0.6,0.2 -0.8,0 -0.2,-0.2 -0.2,-0.6 0.1,-0.8 0.3,-0.3 0.7,-0.3 0.8,0 z"
           id="path176"
           inkscape:connector-curvature="0"
           style="fill:#c9d0d6" /><path
           class="st20"
           d="m 323.7,287 c -0.2,0.2 -0.6,0.2 -0.8,0 -0.2,-0.2 -0.2,-0.6 0,-0.8 0.2,-0.2 0.6,-0.2 0.8,0 0.3,0.2 0.3,0.6 0,0.8 z"
           id="path178"
           inkscape:connector-curvature="0"
           style="fill:#c9d0d6" /><path
           class="st20"
           d="m 318.2,291.9 c 0.2,0.2 0.1,0.6 -0.1,0.8 -0.2,0.2 -0.6,0.2 -0.8,0 -0.2,-0.2 -0.1,-0.5 0.1,-0.7 0.2,-0.2 0.6,-0.3 0.8,-0.1 z"
           id="path180"
           inkscape:connector-curvature="0"
           style="fill:#c9d0d6" /><path
           class="st20"
           d="m 319.6,290.2 c 0.2,0.2 0.2,0.5 0,0.8 -0.2,0.2 -0.5,0.2 -0.7,0.1 -0.2,-0.2 -0.2,-0.5 0,-0.8 0.2,-0.2 0.5,-0.3 0.7,-0.1 z"
           id="path182"
           inkscape:connector-curvature="0"
           style="fill:#c9d0d6" /><path
           class="st20"
           d="m 321.6,287.5 c 0.2,-0.2 0.5,-0.2 0.7,0 0.2,0.2 0.1,0.5 -0.1,0.7 -0.2,0.2 -0.6,0.2 -0.7,0 -0.1,-0.2 -0.1,-0.6 0.1,-0.7 z"
           id="path184"
           inkscape:connector-curvature="0"
           style="fill:#c9d0d6" /></g><g
         id="g204"><path
           class="st20"
           d="m 181.9,125.8 c 0.5,0.7 0.8,1.3 1.2,1.9 0.2,0.3 0.4,0.4 0.8,0.5 1.7,0.2 3.4,0.5 5,0.7 0.2,0 0.5,0.1 0.7,0.2 0.4,0.1 0.6,0.4 0.6,0.9 0,0.4 -0.3,0.8 -0.7,0.9 -0.3,0.1 -0.6,0.1 -0.9,0.1 -1.1,-0.1 -2.1,-0.2 -3.3,-0.2 0,0.3 0.3,0.5 0.4,0.7 0.3,0.5 0.6,0.9 0.8,1.4 0.3,0.7 0.1,1.3 -0.5,1.7 -0.6,0.4 -1.2,0.3 -1.8,-0.2 -0.4,-0.4 -0.8,-0.8 -1.3,-1.3 0,0.6 0,1 -0.1,1.4 -0.1,0.5 -0.1,1 -0.2,1.4 -0.1,0.5 -0.6,0.7 -1,0.7 -0.4,-0.1 -0.7,-0.4 -0.7,-1 0,-1.8 0,-3.6 -0.1,-5.3 0,-0.2 0,-0.3 -0.1,-0.5 -0.7,-1 -1.5,-2 -2.3,-3.1 -0.1,0.3 -0.2,0.5 -0.2,0.6 -0.2,1.3 -0.5,2.7 -0.7,4 -0.1,0.3 -0.2,0.6 -0.3,0.9 -0.2,0.3 -0.5,0.5 -0.9,0.4 -0.4,-0.1 -0.6,-0.3 -0.6,-0.7 0,-0.3 -0.1,-0.7 0,-1 0.3,-2.1 0.5,-4.1 0.8,-6.2 0.1,-0.3 0,-0.6 -0.2,-0.8 -0.6,-0.7 -1.2,-1.5 -1.7,-2.1 -1.1,0.1 -2.2,0.3 -3.4,0.4 0,0.1 -0.1,0.2 -0.2,0.4 -0.4,1.5 -0.8,2.9 -1.1,4.4 -0.1,0.4 0,0.6 0.3,0.9 1.1,1 2.1,2 3.1,3 0.2,0.2 0.3,0.3 0.4,0.5 0.2,0.4 0.2,0.9 -0.1,1.2 -0.3,0.3 -0.8,0.4 -1.3,0.2 -0.2,-0.1 -0.3,-0.2 -0.5,-0.3 -0.7,-0.7 -1.5,-1.3 -2.2,-2 -0.1,-0.1 -0.2,-0.2 -0.4,-0.4 -0.1,0.2 -0.2,0.3 -0.2,0.4 -0.2,0.8 -0.4,1.6 -0.6,2.4 -0.1,0.3 0,0.6 0.2,0.9 1,1 2,2 3,3.1 0.4,0.4 0.5,0.9 0.2,1.3 -0.3,0.4 -0.9,0.5 -1.4,0.2 -0.6,-0.4 -1.1,-0.9 -1.7,-1.4 -0.3,-0.3 -0.7,-0.5 -1.1,-0.9 -0.2,0.7 -0.4,1.2 -0.5,1.8 -0.1,0.6 -0.5,1 -1.1,1.2 -0.8,0.3 -1.4,-0.1 -1.5,-0.9 0,-0.4 0,-0.8 0.1,-1.1 0,-0.4 0.1,-0.8 0.2,-1.2 0.1,-0.4 0.1,-0.7 0.3,-1.3 -0.4,0.3 -0.6,0.4 -0.9,0.6 -0.6,0.4 -1.1,0.8 -1.8,1.2 -0.4,0.2 -0.8,0.3 -1.2,0.4 -0.3,0.1 -0.7,-0.1 -0.8,-0.4 -0.2,-0.3 -0.1,-0.6 0.2,-0.9 0.1,-0.1 0.2,-0.2 0.3,-0.3 0.9,-0.7 1.8,-1.4 2.8,-2.1 0.6,-0.5 1.2,-0.9 2.1,-0.9 0.2,-0.9 0.5,-1.8 0.7,-2.6 0,0 -0.1,-0.1 -0.1,-0.1 -0.8,0.4 -1.6,0.9 -2.3,1.3 -0.4,0.2 -0.8,0.4 -1.2,0.6 -0.6,0.2 -1.1,0 -1.3,-0.4 -0.2,-0.4 0,-1 0.5,-1.3 1.5,-0.9 3.1,-1.9 4.7,-2.7 0.3,-0.2 0.5,-0.4 0.6,-0.8 0.3,-1.7 0.6,-3.4 1,-5.2 0.1,-0.5 -0.4,-1.2 -0.9,-1.2 -0.1,0 -0.2,0 -0.2,0 -2.3,-0.2 -4.6,-0.3 -6.9,-0.5 -0.1,0 -0.2,0 -0.2,0 -0.9,1.4 -1.7,2.8 -2.6,4.1 -0.2,0.2 -0.3,0.5 -0.6,0.7 -0.4,0.3 -0.9,0.4 -1.2,0.1 -0.3,-0.3 -0.4,-0.6 -0.1,-1.1 0.5,-1.1 1.1,-2.2 1.6,-3.2 0.1,-0.2 0.2,-0.5 0.4,-0.8 -0.6,-0.1 -1,-0.2 -1.5,-0.2 -0.4,-0.1 -0.8,-0.1 -1.1,-0.2 -0.6,-0.2 -0.9,0.1 -1.2,0.5 -0.6,0.8 -1.3,1.5 -2,2.2 -0.6,0.6 -1.1,0.6 -1.4,0.2 -0.4,-0.3 -0.3,-0.7 0.1,-1.4 0.4,-0.6 0.8,-1.2 1.2,-1.8 -0.7,0 -1.3,0 -1.8,-0.1 -0.4,0 -0.9,-0.1 -1.3,-0.3 -0.5,-0.2 -0.7,-0.6 -0.7,-1.1 0.1,-0.5 0.4,-0.8 0.9,-0.9 0.7,-0.1 1.4,-0.1 2.1,-0.2 0.3,0 0.5,0 0.9,-0.1 -0.5,-0.7 -1,-1.2 -1.5,-1.8 -0.2,-0.3 -0.5,-0.6 -0.6,-0.9 -0.3,-0.5 -0.1,-1 0.3,-1.3 0.4,-0.3 0.8,-0.3 1.2,0.2 0.5,0.5 1,1 1.5,1.6 0.7,0.8 1.4,1.5 2,2.3 0.1,0.1 0.3,0.2 0.4,0.2 0.6,0 1.3,0.1 2.1,0.1 -0.2,-0.3 -0.3,-0.6 -0.5,-0.8 -0.5,-0.7 -0.9,-1.5 -1.4,-2.2 -0.1,-0.2 -0.3,-0.5 -0.3,-0.8 -0.1,-0.4 0.2,-0.8 0.5,-1 0.4,-0.2 0.8,-0.2 1.1,0.1 0.3,0.2 0.5,0.5 0.7,0.8 0.8,1.2 1.6,2.4 2.4,3.5 0.2,0.3 0.5,0.5 0.9,0.5 2,0 4,0 5.9,0 0.4,-1.2 0.8,-2.4 1.2,-3.7 -1,-1.2 -2,-2.5 -3,-3.9 -0.2,-0.3 -0.5,-0.3 -0.8,-0.3 -1.3,0 -2.6,-0.1 -3.9,-0.2 -0.4,0 -0.9,-0.1 -1.3,-0.2 -0.4,-0.1 -0.6,-0.3 -0.6,-0.7 0,-0.4 0.2,-0.7 0.5,-0.8 0.3,-0.1 0.7,-0.2 1.1,-0.2 0.9,0 1.9,0 2.9,-0.1 0,-0.4 -0.3,-0.6 -0.4,-0.8 -0.4,-0.5 -0.7,-1.1 -1.1,-1.4 -0.5,-0.3 -1.1,-0.3 -1.7,-0.4 -0.6,-0.1 -1.2,-0.2 -1.8,-0.4 -0.3,-0.1 -0.6,-0.1 -0.9,-0.2 -0.5,-0.2 -0.7,-0.5 -0.7,-0.9 0,-0.4 0.3,-0.8 0.7,-0.9 0.3,-0.1 0.6,-0.1 1,0 0.4,0 0.8,0.1 1.5,0.2 -0.3,-0.4 -0.4,-0.6 -0.6,-0.8 -0.4,-0.6 -0.4,-1 -0.1,-1.4 0.4,-0.4 1.1,-0.6 1.6,-0.3 0.3,0.2 0.6,0.5 0.9,0.8 0.1,0.1 0.2,0.1 0.3,0.3 0.1,-0.3 0.1,-0.5 0.2,-0.7 0.1,-0.7 0.2,-1.4 0.4,-2.1 0.1,-0.3 0.3,-0.7 0.5,-0.9 0.4,-0.4 1,-0.2 1.2,0.3 0.1,0.3 0.1,0.6 0.1,0.9 -0.1,1.4 0,2.8 -0.4,4.2 0,0.2 0,0.4 0.1,0.5 0.6,0.7 1.2,1.4 1.8,2.2 0.1,-0.3 0.2,-0.6 0.2,-0.8 0.2,-1 0.4,-2 0.6,-2.9 0.1,-0.3 0.2,-0.7 0.4,-0.9 0.2,-0.3 0.6,-0.4 0.9,-0.3 0.3,0.1 0.5,0.4 0.6,0.7 0,0.2 0,0.5 0,0.7 -0.2,1.7 -0.5,3.4 -0.8,5 -0.1,0.4 0,0.8 0.3,1.1 1,1.2 2,2.4 3.1,3.6 1.4,-0.5 2.8,-0.6 4.3,-0.2 0.6,-2.3 1.1,-4.6 1.6,-6.8 -1,-1.3 -2,-2.5 -3,-3.8 -0.3,-0.3 -0.5,-0.7 -0.6,-1.1 -0.2,-0.4 -0.1,-0.8 0.2,-1 0.3,-0.3 0.7,-0.3 1.1,0 0.3,0.2 0.7,0.5 1,0.9 0.7,0.8 1.4,1.6 2.1,2.5 0.1,-0.5 0.3,-0.8 0.4,-1.2 0.1,-0.4 0.2,-0.7 0.3,-1 -0.7,-0.9 -1.4,-1.8 -2.1,-2.7 -0.1,-0.1 -0.2,-0.3 -0.3,-0.5 -0.3,-0.5 -0.2,-0.9 0.1,-1.3 0.4,-0.3 0.8,-0.4 1.3,-0.1 0.2,0.1 0.4,0.3 0.6,0.5 0.4,0.4 0.8,0.9 1.2,1.4 0.1,-0.4 0.2,-0.6 0.3,-0.9 0.2,-0.5 0.4,-1.1 0.6,-1.6 0.1,-0.3 0.4,-0.6 0.6,-0.7 0.6,-0.4 1.4,0.1 1.4,0.9 0,0.5 -0.2,1 -0.3,1.5 -0.1,0.3 -0.1,0.6 -0.2,1 0.9,-0.3 1.8,-0.5 2.7,-0.8 0.1,-0.1 0.3,-0.2 0.4,-0.2 0.4,-0.1 0.7,0.1 0.9,0.4 0.2,0.3 0.2,0.8 -0.1,1.1 -0.2,0.2 -0.5,0.4 -0.8,0.5 -1.2,0.5 -2.3,1 -3.6,1.5 -0.2,1 -0.4,2.1 -0.6,3.3 0.3,-0.1 0.6,-0.1 0.8,-0.1 1.3,-0.3 2.7,-0.5 4,-0.8 0.2,0 0.4,-0.1 0.6,-0.1 0.5,0 0.9,0.3 1,0.7 0.1,0.4 -0.1,0.9 -0.5,1.1 -0.2,0.1 -0.5,0.3 -0.8,0.3 -1.8,0.4 -3.6,0.8 -5.5,1.3 -0.6,2.4 -1.2,4.9 -1.8,7.5 0.3,0.3 0.6,0.7 0.9,1.1 0.3,0.4 0.4,0.9 0.7,1.4 0.4,0 0.8,0 1.3,0 1.6,0 3.2,0 4.9,0.1 0.5,0 0.7,-0.1 1,-0.5 1.2,-1.7 2.6,-3.3 4.1,-4.7 0.3,-0.3 0.6,-0.5 0.9,-0.7 0.3,-0.2 0.6,-0.2 0.9,0.1 0.3,0.2 0.4,0.6 0.3,0.9 -0.2,0.4 -0.4,0.7 -0.6,1 -0.9,1.1 -1.9,2.2 -2.8,3.3 -0.1,0.2 -0.3,0.3 -0.5,0.6 1.2,0 2.3,0 3.4,0 0.2,0 0.4,-0.2 0.5,-0.3 1.2,-1.1 2.3,-2.2 3.5,-3.4 0.2,-0.1 0.3,-0.3 0.5,-0.4 0.4,-0.2 0.9,-0.2 1.2,0.1 0.3,0.3 0.3,0.7 0.1,1.1 -0.1,0.2 -0.2,0.4 -0.4,0.5 -0.7,0.7 -1.4,1.5 -2.1,2.2 0.6,0.1 1.1,0.2 1.6,0.4 0.6,0.2 0.9,0.6 0.9,1.3 0,0.6 -0.3,1 -0.9,1.2 -0.5,0.1 -0.9,0.2 -1.4,0.2 -0.5,0.1 -0.9,0.1 -1.4,0.1 0,0 0,0 -0.1,0.1 0.4,0.7 0.8,1.4 1.2,2.1 0.2,0.3 0.3,0.6 0.4,0.9 0.2,0.5 0,0.9 -0.4,1.1 -0.4,0.2 -0.8,0.1 -1.1,-0.3 -0.5,-0.7 -0.9,-1.4 -1.4,-2.1 -0.3,-0.5 -0.7,-0.9 -1,-1.4 -0.2,-0.3 -0.4,-0.4 -0.8,-0.4 -0.6,0 -1.1,0 -1.8,0.1 0.4,0.8 0.8,1.4 1.2,2.1 0.1,0.2 0.2,0.4 0.3,0.7 0.1,0.4 0,0.7 -0.3,0.9 -0.3,0.2 -0.7,0.3 -1.1,0 -0.3,-0.2 -0.5,-0.5 -0.7,-0.8 -0.6,-0.8 -1.2,-1.7 -1.7,-2.5 -0.2,-0.3 -0.4,-0.5 -0.8,-0.5 -2.4,-0.1 -4.7,-0.2 -7.1,-0.4 -0.5,0.9 -0.9,1.6 -1.4,2.5 0.1,0.1 0.1,0.3 0.2,0.4 0.5,0.7 1.1,1.3 1.5,2 0.5,0.9 1.1,1.2 2.1,1.3 1.4,0.1 2.7,0.4 4.1,0.6 0.4,0.1 0.9,0.2 1.3,0.3 0.5,0.1 0.7,0.5 0.7,0.9 0,0.4 -0.3,0.8 -0.8,0.8 -0.4,0.1 -0.8,0.1 -1.2,0.1 -1.4,-0.1 -2.6,-0.2 -3.9,-0.3 z m -10.3,-12.1 c -1.4,1 -1.7,2.8 -0.8,4.1 0.7,1.1 2.1,1.4 3.2,0.6 1,-0.7 1.7,-1.7 1.9,-2.9 0.1,-0.5 0,-0.9 -0.3,-1.3 -0.7,-1.1 -2.8,-1.5 -4,-0.5 z"
           id="path188"
           inkscape:connector-curvature="0"
           style="fill:#c9d0d6" /><path
           class="st20"
           d="m 164.9,124.1 c -0.7,0.5 -1.6,0.4 -2.1,-0.3 -0.5,-0.6 -0.3,-1.6 0.3,-2.1 0.7,-0.5 1.7,-0.4 2.2,0.2 0.5,0.7 0.3,1.7 -0.4,2.2 z"
           id="path190"
           inkscape:connector-curvature="0"
           style="fill:#c9d0d6" /><path
           class="st20"
           d="m 182.1,111.6 c -0.7,0.5 -1.6,0.4 -2.1,-0.3 -0.5,-0.7 -0.4,-1.5 0.3,-2 0.7,-0.5 1.8,-0.4 2.2,0.3 0.5,0.6 0.3,1.5 -0.4,2 z"
           id="path192"
           inkscape:connector-curvature="0"
           style="fill:#c9d0d6" /><path
           class="st20"
           d="m 172.5,124.6 c 0.4,-0.3 1,-0.2 1.2,0.1 0.3,0.3 0.2,0.9 -0.2,1.2 -0.4,0.3 -0.9,0.2 -1.2,-0.1 -0.2,-0.4 -0.1,-1 0.2,-1.2 z"
           id="path194"
           inkscape:connector-curvature="0"
           style="fill:#c9d0d6" /><path
           class="st20"
           d="m 181.5,120.6 c -0.4,0.3 -0.9,0.2 -1.1,-0.1 -0.3,-0.3 -0.2,-0.9 0.2,-1.1 0.4,-0.3 0.9,-0.2 1.2,0.1 0.2,0.3 0.1,0.9 -0.3,1.1 z"
           id="path196"
           inkscape:connector-curvature="0"
           style="fill:#c9d0d6" /><path
           class="st20"
           d="m 164.3,113.4 c -0.4,0.3 -0.7,0.2 -1,-0.1 -0.3,-0.4 -0.2,-0.9 0.1,-1.1 0.3,-0.2 0.9,-0.2 1.1,0.2 0.4,0.2 0.2,0.7 -0.2,1 z"
           id="path198"
           inkscape:connector-curvature="0"
           style="fill:#c9d0d6" /><path
           class="st20"
           d="m 171.5,106.5 c 0.3,0.3 0.2,0.8 -0.2,1.1 -0.3,0.2 -0.8,0.2 -1,-0.1 -0.3,-0.3 -0.2,-0.8 0.1,-1.1 0.3,-0.2 0.8,-0.2 1.1,0.1 z"
           id="path200"
           inkscape:connector-curvature="0"
           style="fill:#c9d0d6" /><path
           class="st20"
           d="m 174.3,115 c 0.4,0.5 0.3,1.4 -0.3,1.9 -0.7,0.6 -1.6,0.5 -2.1,-0.1 -0.5,-0.6 -0.3,-1.6 0.3,-2 0.6,-0.6 1.6,-0.4 2.1,0.2 z"
           id="path202"
           inkscape:connector-curvature="0"
           style="fill:#c9d0d6" /></g></g></g></svg>